M48
; DRILL file {KiCad (6.0.11)} date Fri Mar 31 15:13:40 2023
; FORMAT={-:-/ absolute / inch / decimal}
; #@! TF.CreationDate,2023-03-31T15:13:40+10:00
; #@! TF.GenerationSoftware,Kicad,Pcbnew,(6.0.11)
; #@! TF.FileFunction,Plated,1,2,PTH
FMAT,2
INCH
; #@! TA.AperFunction,Plated,PTH,ViaDrill
T1C0.0236
; #@! TA.AperFunction,Plated,PTH,ComponentDrill
T2C0.0315
; #@! TA.AperFunction,Plated,PTH,ComponentDrill
T3C0.0370
; #@! TA.AperFunction,Plated,PTH,ComponentDrill
T4C0.0394
; #@! TA.AperFunction,Plated,PTH,ComponentDrill
T5C0.0433
; #@! TA.AperFunction,Plated,PTH,ComponentDrill
T6C0.0472
; #@! TA.AperFunction,Plated,PTH,ComponentDrill
T7C0.0748
; #@! TA.AperFunction,Plated,PTH,ComponentDrill
T8C0.0945
; #@! TA.AperFunction,Plated,PTH,ComponentDrill
T9C0.0994
%
G90
G05
T1
X4.2666Y-2.2273
X4.435Y-2.106
X4.97Y-2.2522
X4.9707Y-2.4016
X5.0787Y-2.5416
X5.2072Y-2.395
X5.371Y-2.4881
T2
X4.5744Y-2.6388
X4.5744Y-2.8755
X4.8744Y-2.6388
X4.8744Y-2.8755
X6.1773Y-2.461
X6.1773Y-2.861
X6.2598Y-3.0511
X6.3583Y-3.0511
T3
X5.8744Y-2.1654
X5.9843Y-2.1654
X6.0941Y-2.1654
T4
X4.0307Y-2.6468
X4.0307Y-2.7468
X4.0307Y-2.8468
X4.0307Y-2.9468
X4.0319Y-2.1666
X4.0319Y-2.2666
X4.0319Y-2.3666
X4.0906Y-3.1573
X4.0906Y-3.5904
X4.2665Y-1.8201
X4.2665Y-1.9201
X4.3665Y-1.8201
X4.3665Y-1.9201
X4.4665Y-1.8201
X4.4665Y-1.9201
X4.5665Y-1.8201
X4.5665Y-1.9201
X4.6665Y-1.8201
X4.6665Y-1.9201
X4.7665Y-1.8201
X4.7665Y-1.9201
X4.8665Y-1.8201
X4.8665Y-1.9201
X4.9665Y-1.8201
X4.9665Y-1.9201
X5.0665Y-1.8201
X5.0665Y-1.9201
X5.1665Y-1.8201
X5.1665Y-1.9201
X5.2665Y-1.8201
X5.2665Y-1.9201
X5.3665Y-1.8201
X5.3665Y-1.9201
X5.4665Y-1.8201
X5.4665Y-1.9201
X5.5619Y-2.64
X5.5665Y-1.8201
X5.5665Y-1.9201
X5.6619Y-2.64
X5.6665Y-1.8201
X5.6665Y-1.9201
X5.7665Y-1.8201
X5.7665Y-1.9201
X5.8665Y-1.8201
X5.8665Y-1.9201
X5.9665Y-1.8201
X5.9665Y-1.9201
X6.0665Y-1.8201
X6.0665Y-1.9201
X6.1665Y-1.8201
X6.1665Y-1.9201
X6.412Y-2.3184
X6.412Y-2.4184
X6.412Y-2.5184
X6.412Y-2.6184
X6.412Y-2.7184
X6.412Y-2.8184
T5
X5.2787Y-3.189
X5.2787Y-3.5061
X5.3787Y-3.189
X5.3787Y-3.5061
X5.4787Y-3.189
X5.4787Y-3.5061
T6
X6.3095Y-3.3268
X6.3095Y-3.5236
T7
X4.4843Y-3.2754
X4.4843Y-3.4723
T8
X5.9449Y-3.2224
X5.9449Y-3.4252
X5.9449Y-3.628
X5.9455Y-2.501
X5.9455Y-2.7038
X5.9455Y-2.9065
T9
X4.8932Y-3.1213
X4.8932Y-3.267
X4.8932Y-3.4245
X4.8932Y-3.5702
T0
M30
