G04 #@! TF.GenerationSoftware,KiCad,Pcbnew,(6.0.11)*
G04 #@! TF.CreationDate,2023-04-25T16:21:53+10:00*
G04 #@! TF.ProjectId,RPI,5250492e-6b69-4636-9164-5f7063625858,rev?*
G04 #@! TF.SameCoordinates,Original*
G04 #@! TF.FileFunction,Legend,Top*
G04 #@! TF.FilePolarity,Positive*
%FSLAX46Y46*%
G04 Gerber Fmt 4.6, Leading zero omitted, Abs format (unit mm)*
G04 Created by KiCad (PCBNEW (6.0.11)) date 2023-04-25 16:21:53*
%MOMM*%
%LPD*%
G01*
G04 APERTURE LIST*
%ADD10C,0.150000*%
%ADD11C,0.120000*%
%ADD12C,0.080000*%
%ADD13C,0.200000*%
%ADD14C,0.127000*%
%ADD15C,0.100000*%
G04 APERTURE END LIST*
D10*
X136774631Y-86041841D02*
X136965107Y-86041841D01*
X137060345Y-86089461D01*
X137155583Y-86184699D01*
X137203202Y-86375175D01*
X137203202Y-86708508D01*
X137155583Y-86898984D01*
X137060345Y-86994222D01*
X136965107Y-87041841D01*
X136774631Y-87041841D01*
X136679392Y-86994222D01*
X136584154Y-86898984D01*
X136536535Y-86708508D01*
X136536535Y-86375175D01*
X136584154Y-86184699D01*
X136679392Y-86089461D01*
X136774631Y-86041841D01*
X137965107Y-86518032D02*
X137631773Y-86518032D01*
X137631773Y-87041841D02*
X137631773Y-86041841D01*
X138107964Y-86041841D01*
X138822250Y-86518032D02*
X138488916Y-86518032D01*
X138488916Y-87041841D02*
X138488916Y-86041841D01*
X138965107Y-86041841D01*
X129303155Y-85954145D02*
X129493631Y-85954145D01*
X129588869Y-86001765D01*
X129684107Y-86097003D01*
X129731726Y-86287479D01*
X129731726Y-86620812D01*
X129684107Y-86811288D01*
X129588869Y-86906526D01*
X129493631Y-86954145D01*
X129303155Y-86954145D01*
X129207917Y-86906526D01*
X129112679Y-86811288D01*
X129065060Y-86620812D01*
X129065060Y-86287479D01*
X129112679Y-86097003D01*
X129207917Y-86001765D01*
X129303155Y-85954145D01*
X130160298Y-86954145D02*
X130160298Y-85954145D01*
X130731726Y-86954145D01*
X130731726Y-85954145D01*
X128617629Y-83768621D02*
X128760486Y-83816240D01*
X128998582Y-83816240D01*
X129093820Y-83768621D01*
X129141439Y-83721002D01*
X129189058Y-83625764D01*
X129189058Y-83530526D01*
X129141439Y-83435288D01*
X129093820Y-83387669D01*
X128998582Y-83340050D01*
X128808105Y-83292431D01*
X128712867Y-83244812D01*
X128665248Y-83197193D01*
X128617629Y-83101955D01*
X128617629Y-83006717D01*
X128665248Y-82911479D01*
X128712867Y-82863860D01*
X128808105Y-82816240D01*
X129046201Y-82816240D01*
X129189058Y-82863860D01*
X129522391Y-83149574D02*
X129712867Y-83816240D01*
X129903343Y-83340050D01*
X130093820Y-83816240D01*
X130284296Y-83149574D01*
X130665248Y-83816240D02*
X130665248Y-83149574D01*
X130665248Y-82816240D02*
X130617629Y-82863860D01*
X130665248Y-82911479D01*
X130712867Y-82863860D01*
X130665248Y-82816240D01*
X130665248Y-82911479D01*
X130998582Y-83149574D02*
X131379534Y-83149574D01*
X131141439Y-82816240D02*
X131141439Y-83673383D01*
X131189058Y-83768621D01*
X131284296Y-83816240D01*
X131379534Y-83816240D01*
X132141439Y-83768621D02*
X132046201Y-83816240D01*
X131855724Y-83816240D01*
X131760486Y-83768621D01*
X131712867Y-83721002D01*
X131665248Y-83625764D01*
X131665248Y-83340050D01*
X131712867Y-83244812D01*
X131760486Y-83197193D01*
X131855724Y-83149574D01*
X132046201Y-83149574D01*
X132141439Y-83197193D01*
X132570010Y-83816240D02*
X132570010Y-82816240D01*
X132998582Y-83816240D02*
X132998582Y-83292431D01*
X132950962Y-83197193D01*
X132855724Y-83149574D01*
X132712867Y-83149574D01*
X132617629Y-83197193D01*
X132570010Y-83244812D01*
X134808105Y-83721002D02*
X134760486Y-83768621D01*
X134617629Y-83816240D01*
X134522391Y-83816240D01*
X134379534Y-83768621D01*
X134284296Y-83673383D01*
X134236677Y-83578145D01*
X134189058Y-83387669D01*
X134189058Y-83244812D01*
X134236677Y-83054336D01*
X134284296Y-82959098D01*
X134379534Y-82863860D01*
X134522391Y-82816240D01*
X134617629Y-82816240D01*
X134760486Y-82863860D01*
X134808105Y-82911479D01*
X135379534Y-83816240D02*
X135284296Y-83768621D01*
X135236677Y-83721002D01*
X135189058Y-83625764D01*
X135189058Y-83340050D01*
X135236677Y-83244812D01*
X135284296Y-83197193D01*
X135379534Y-83149574D01*
X135522391Y-83149574D01*
X135617629Y-83197193D01*
X135665248Y-83244812D01*
X135712867Y-83340050D01*
X135712867Y-83625764D01*
X135665248Y-83721002D01*
X135617629Y-83768621D01*
X135522391Y-83816240D01*
X135379534Y-83816240D01*
X136141439Y-83149574D02*
X136141439Y-83816240D01*
X136141439Y-83244812D02*
X136189058Y-83197193D01*
X136284296Y-83149574D01*
X136427153Y-83149574D01*
X136522391Y-83197193D01*
X136570010Y-83292431D01*
X136570010Y-83816240D01*
X136903343Y-83149574D02*
X137284296Y-83149574D01*
X137046201Y-83816240D02*
X137046201Y-82959098D01*
X137093820Y-82863860D01*
X137189058Y-82816240D01*
X137284296Y-82816240D01*
X137617629Y-83816240D02*
X137617629Y-83149574D01*
X137617629Y-82816240D02*
X137570010Y-82863860D01*
X137617629Y-82911479D01*
X137665248Y-82863860D01*
X137617629Y-82816240D01*
X137617629Y-82911479D01*
X138522391Y-83149574D02*
X138522391Y-83959098D01*
X138474772Y-84054336D01*
X138427153Y-84101955D01*
X138331915Y-84149574D01*
X138189058Y-84149574D01*
X138093820Y-84101955D01*
X138522391Y-83768621D02*
X138427153Y-83816240D01*
X138236677Y-83816240D01*
X138141439Y-83768621D01*
X138093820Y-83721002D01*
X138046201Y-83625764D01*
X138046201Y-83340050D01*
X138093820Y-83244812D01*
X138141439Y-83197193D01*
X138236677Y-83149574D01*
X138427153Y-83149574D01*
X138522391Y-83197193D01*
X138950962Y-83768621D02*
X139046201Y-83816240D01*
X139236677Y-83816240D01*
X139331915Y-83768621D01*
X139379534Y-83673383D01*
X139379534Y-83625764D01*
X139331915Y-83530526D01*
X139236677Y-83482907D01*
X139093820Y-83482907D01*
X138998582Y-83435288D01*
X138950962Y-83340050D01*
X138950962Y-83292431D01*
X138998582Y-83197193D01*
X139093820Y-83149574D01*
X139236677Y-83149574D01*
X139331915Y-83197193D01*
D11*
X139475243Y-84353960D02*
X128281468Y-84353960D01*
X139475243Y-88353960D02*
X139475243Y-84353960D01*
X128281468Y-88353960D02*
X139475243Y-88353960D01*
X128281468Y-84353960D02*
X128281468Y-88353960D01*
D10*
X104793946Y-72142857D02*
X104746327Y-72285714D01*
X104746327Y-72523809D01*
X104793946Y-72619047D01*
X104841565Y-72666666D01*
X104936803Y-72714285D01*
X105032041Y-72714285D01*
X105127279Y-72666666D01*
X105174898Y-72619047D01*
X105222517Y-72523809D01*
X105270136Y-72333333D01*
X105317755Y-72238095D01*
X105365374Y-72190476D01*
X105460612Y-72142857D01*
X105555850Y-72142857D01*
X105651088Y-72190476D01*
X105698708Y-72238095D01*
X105746327Y-72333333D01*
X105746327Y-72571428D01*
X105698708Y-72714285D01*
X104793946Y-73523809D02*
X104746327Y-73428571D01*
X104746327Y-73238095D01*
X104793946Y-73142857D01*
X104889184Y-73095238D01*
X105270136Y-73095238D01*
X105365374Y-73142857D01*
X105412993Y-73238095D01*
X105412993Y-73428571D01*
X105365374Y-73523809D01*
X105270136Y-73571428D01*
X105174898Y-73571428D01*
X105079660Y-73095238D01*
X104746327Y-74000000D02*
X105412993Y-74000000D01*
X105222517Y-74000000D02*
X105317755Y-74047619D01*
X105365374Y-74095238D01*
X105412993Y-74190476D01*
X105412993Y-74285714D01*
X105412993Y-74523809D02*
X104746327Y-74761904D01*
X105412993Y-75000000D01*
X104746327Y-75523809D02*
X104793946Y-75428571D01*
X104841565Y-75380952D01*
X104936803Y-75333333D01*
X105222517Y-75333333D01*
X105317755Y-75380952D01*
X105365374Y-75428571D01*
X105412993Y-75523809D01*
X105412993Y-75666666D01*
X105365374Y-75761904D01*
X105317755Y-75809523D01*
X105222517Y-75857142D01*
X104936803Y-75857142D01*
X104841565Y-75809523D01*
X104793946Y-75761904D01*
X104746327Y-75666666D01*
X104746327Y-75523809D01*
D12*
X156144448Y-81099346D02*
X156106352Y-81080298D01*
X156049210Y-81080298D01*
X155992067Y-81099346D01*
X155953971Y-81137441D01*
X155934924Y-81175536D01*
X155915876Y-81251726D01*
X155915876Y-81308869D01*
X155934924Y-81385060D01*
X155953971Y-81423155D01*
X155992067Y-81461250D01*
X156049210Y-81480298D01*
X156087305Y-81480298D01*
X156144448Y-81461250D01*
X156163495Y-81442203D01*
X156163495Y-81308869D01*
X156087305Y-81308869D01*
X156334924Y-81480298D02*
X156334924Y-81080298D01*
X156563495Y-81480298D01*
X156563495Y-81080298D01*
X156753971Y-81480298D02*
X156753971Y-81080298D01*
X156849210Y-81080298D01*
X156906352Y-81099346D01*
X156944448Y-81137441D01*
X156963495Y-81175536D01*
X156982543Y-81251726D01*
X156982543Y-81308869D01*
X156963495Y-81385060D01*
X156944448Y-81423155D01*
X156906352Y-81461250D01*
X156849210Y-81480298D01*
X156753971Y-81480298D01*
D10*
X117928571Y-91404761D02*
X118071428Y-91452380D01*
X118309523Y-91452380D01*
X118404761Y-91404761D01*
X118452380Y-91357142D01*
X118500000Y-91261904D01*
X118500000Y-91166666D01*
X118452380Y-91071428D01*
X118404761Y-91023809D01*
X118309523Y-90976190D01*
X118119047Y-90928571D01*
X118023809Y-90880952D01*
X117976190Y-90833333D01*
X117928571Y-90738095D01*
X117928571Y-90642857D01*
X117976190Y-90547619D01*
X118023809Y-90500000D01*
X118119047Y-90452380D01*
X118357142Y-90452380D01*
X118500000Y-90500000D01*
X118833333Y-90452380D02*
X119071428Y-91452380D01*
X119261904Y-90738095D01*
X119452380Y-91452380D01*
X119690476Y-90452380D01*
X120023809Y-90547619D02*
X120071428Y-90500000D01*
X120166666Y-90452380D01*
X120404761Y-90452380D01*
X120500000Y-90500000D01*
X120547619Y-90547619D01*
X120595238Y-90642857D01*
X120595238Y-90738095D01*
X120547619Y-90880952D01*
X119976190Y-91452380D01*
X120595238Y-91452380D01*
X122261904Y-91452380D02*
X121785714Y-91452380D01*
X121785714Y-90452380D01*
X122595238Y-90928571D02*
X122928571Y-90928571D01*
X123071428Y-91452380D02*
X122595238Y-91452380D01*
X122595238Y-90452380D01*
X123071428Y-90452380D01*
X123500000Y-91452380D02*
X123500000Y-90452380D01*
X123738095Y-90452380D01*
X123880952Y-90500000D01*
X123976190Y-90595238D01*
X124023809Y-90690476D01*
X124071428Y-90880952D01*
X124071428Y-91023809D01*
X124023809Y-91214285D01*
X123976190Y-91309523D01*
X123880952Y-91404761D01*
X123738095Y-91452380D01*
X123500000Y-91452380D01*
D12*
X104369121Y-80641289D02*
X104369121Y-80888908D01*
X104216740Y-80755575D01*
X104216740Y-80812718D01*
X104197693Y-80850813D01*
X104178645Y-80869861D01*
X104140550Y-80888908D01*
X104045312Y-80888908D01*
X104007216Y-80869861D01*
X103988169Y-80850813D01*
X103969121Y-80812718D01*
X103969121Y-80698432D01*
X103988169Y-80660337D01*
X104007216Y-80641289D01*
X104007216Y-81060337D02*
X103988169Y-81079385D01*
X103969121Y-81060337D01*
X103988169Y-81041289D01*
X104007216Y-81060337D01*
X103969121Y-81060337D01*
X104369121Y-81212718D02*
X104369121Y-81460337D01*
X104216740Y-81327004D01*
X104216740Y-81384146D01*
X104197693Y-81422242D01*
X104178645Y-81441289D01*
X104140550Y-81460337D01*
X104045312Y-81460337D01*
X104007216Y-81441289D01*
X103988169Y-81422242D01*
X103969121Y-81384146D01*
X103969121Y-81269861D01*
X103988169Y-81231766D01*
X104007216Y-81212718D01*
X104369121Y-81574623D02*
X103969121Y-81707956D01*
X104369121Y-81841289D01*
D10*
X146676318Y-51878193D02*
X146342985Y-51402003D01*
X146104890Y-51878193D02*
X146104890Y-50878193D01*
X146485842Y-50878193D01*
X146581080Y-50925813D01*
X146628699Y-50973432D01*
X146676318Y-51068670D01*
X146676318Y-51211527D01*
X146628699Y-51306765D01*
X146581080Y-51354384D01*
X146485842Y-51402003D01*
X146104890Y-51402003D01*
X147104890Y-51878193D02*
X147104890Y-50878193D01*
X147485842Y-50878193D01*
X147581080Y-50925813D01*
X147628699Y-50973432D01*
X147676318Y-51068670D01*
X147676318Y-51211527D01*
X147628699Y-51306765D01*
X147581080Y-51354384D01*
X147485842Y-51402003D01*
X147104890Y-51402003D01*
X148104890Y-51878193D02*
X148104890Y-51211527D01*
X148104890Y-50878193D02*
X148057271Y-50925813D01*
X148104890Y-50973432D01*
X148152509Y-50925813D01*
X148104890Y-50878193D01*
X148104890Y-50973432D01*
X149200128Y-50878193D02*
X149533461Y-51878193D01*
X149866794Y-50878193D01*
X150342985Y-51878193D02*
X150247747Y-51830574D01*
X150200128Y-51782955D01*
X150152509Y-51687717D01*
X150152509Y-51402003D01*
X150200128Y-51306765D01*
X150247747Y-51259146D01*
X150342985Y-51211527D01*
X150485842Y-51211527D01*
X150581080Y-51259146D01*
X150628699Y-51306765D01*
X150676318Y-51402003D01*
X150676318Y-51687717D01*
X150628699Y-51782955D01*
X150581080Y-51830574D01*
X150485842Y-51878193D01*
X150342985Y-51878193D01*
X151247747Y-51878193D02*
X151152509Y-51830574D01*
X151104890Y-51735336D01*
X151104890Y-50878193D01*
X151485842Y-51211527D02*
X151866794Y-51211527D01*
X151628699Y-50878193D02*
X151628699Y-51735336D01*
X151676318Y-51830574D01*
X151771556Y-51878193D01*
X151866794Y-51878193D01*
X152628699Y-51878193D02*
X152628699Y-51354384D01*
X152581080Y-51259146D01*
X152485842Y-51211527D01*
X152295366Y-51211527D01*
X152200128Y-51259146D01*
X152628699Y-51830574D02*
X152533461Y-51878193D01*
X152295366Y-51878193D01*
X152200128Y-51830574D01*
X152152509Y-51735336D01*
X152152509Y-51640098D01*
X152200128Y-51544860D01*
X152295366Y-51497241D01*
X152533461Y-51497241D01*
X152628699Y-51449622D01*
X153533461Y-51211527D02*
X153533461Y-52021051D01*
X153485842Y-52116289D01*
X153438223Y-52163908D01*
X153342985Y-52211527D01*
X153200128Y-52211527D01*
X153104890Y-52163908D01*
X153533461Y-51830574D02*
X153438223Y-51878193D01*
X153247747Y-51878193D01*
X153152509Y-51830574D01*
X153104890Y-51782955D01*
X153057271Y-51687717D01*
X153057271Y-51402003D01*
X153104890Y-51306765D01*
X153152509Y-51259146D01*
X153247747Y-51211527D01*
X153438223Y-51211527D01*
X153533461Y-51259146D01*
X154390604Y-51830574D02*
X154295366Y-51878193D01*
X154104890Y-51878193D01*
X154009652Y-51830574D01*
X153962032Y-51735336D01*
X153962032Y-51354384D01*
X154009652Y-51259146D01*
X154104890Y-51211527D01*
X154295366Y-51211527D01*
X154390604Y-51259146D01*
X154438223Y-51354384D01*
X154438223Y-51449622D01*
X153962032Y-51544860D01*
X156200128Y-51878193D02*
X155866794Y-51402003D01*
X155628699Y-51878193D02*
X155628699Y-50878193D01*
X156009652Y-50878193D01*
X156104890Y-50925813D01*
X156152509Y-50973432D01*
X156200128Y-51068670D01*
X156200128Y-51211527D01*
X156152509Y-51306765D01*
X156104890Y-51354384D01*
X156009652Y-51402003D01*
X155628699Y-51402003D01*
X157009652Y-51830574D02*
X156914413Y-51878193D01*
X156723937Y-51878193D01*
X156628699Y-51830574D01*
X156581080Y-51735336D01*
X156581080Y-51354384D01*
X156628699Y-51259146D01*
X156723937Y-51211527D01*
X156914413Y-51211527D01*
X157009652Y-51259146D01*
X157057271Y-51354384D01*
X157057271Y-51449622D01*
X156581080Y-51544860D01*
X157914413Y-51211527D02*
X157914413Y-52021051D01*
X157866794Y-52116289D01*
X157819175Y-52163908D01*
X157723937Y-52211527D01*
X157581080Y-52211527D01*
X157485842Y-52163908D01*
X157914413Y-51830574D02*
X157819175Y-51878193D01*
X157628699Y-51878193D01*
X157533461Y-51830574D01*
X157485842Y-51782955D01*
X157438223Y-51687717D01*
X157438223Y-51402003D01*
X157485842Y-51306765D01*
X157533461Y-51259146D01*
X157628699Y-51211527D01*
X157819175Y-51211527D01*
X157914413Y-51259146D01*
X105643425Y-78545740D02*
X104833901Y-78545740D01*
X104738663Y-78593359D01*
X104691044Y-78640978D01*
X104643425Y-78736216D01*
X104643425Y-78926692D01*
X104691044Y-79021931D01*
X104738663Y-79069550D01*
X104833901Y-79117169D01*
X105643425Y-79117169D01*
X104643425Y-79736216D02*
X104691044Y-79640978D01*
X104786282Y-79593359D01*
X105643425Y-79593359D01*
X105310091Y-79974311D02*
X105310091Y-80355264D01*
X105643425Y-80117169D02*
X104786282Y-80117169D01*
X104691044Y-80164788D01*
X104643425Y-80260026D01*
X104643425Y-80355264D01*
X104643425Y-80688597D02*
X105310091Y-80688597D01*
X105119615Y-80688597D02*
X105214853Y-80736216D01*
X105262472Y-80783835D01*
X105310091Y-80879073D01*
X105310091Y-80974311D01*
X104643425Y-81736216D02*
X105167234Y-81736216D01*
X105262472Y-81688597D01*
X105310091Y-81593359D01*
X105310091Y-81402883D01*
X105262472Y-81307645D01*
X104691044Y-81736216D02*
X104643425Y-81640978D01*
X104643425Y-81402883D01*
X104691044Y-81307645D01*
X104786282Y-81260026D01*
X104881520Y-81260026D01*
X104976758Y-81307645D01*
X105024377Y-81402883D01*
X105024377Y-81640978D01*
X105071996Y-81736216D01*
X104691044Y-82164788D02*
X104643425Y-82260026D01*
X104643425Y-82450502D01*
X104691044Y-82545740D01*
X104786282Y-82593359D01*
X104833901Y-82593359D01*
X104929139Y-82545740D01*
X104976758Y-82450502D01*
X104976758Y-82307645D01*
X105024377Y-82212407D01*
X105119615Y-82164788D01*
X105167234Y-82164788D01*
X105262472Y-82212407D01*
X105310091Y-82307645D01*
X105310091Y-82450502D01*
X105262472Y-82545740D01*
X104643425Y-83164788D02*
X104691044Y-83069550D01*
X104738663Y-83021931D01*
X104833901Y-82974311D01*
X105119615Y-82974311D01*
X105214853Y-83021931D01*
X105262472Y-83069550D01*
X105310091Y-83164788D01*
X105310091Y-83307645D01*
X105262472Y-83402883D01*
X105214853Y-83450502D01*
X105119615Y-83498121D01*
X104833901Y-83498121D01*
X104738663Y-83450502D01*
X104691044Y-83402883D01*
X104643425Y-83307645D01*
X104643425Y-83164788D01*
X105310091Y-83926692D02*
X104643425Y-83926692D01*
X105214853Y-83926692D02*
X105262472Y-83974311D01*
X105310091Y-84069550D01*
X105310091Y-84212407D01*
X105262472Y-84307645D01*
X105167234Y-84355264D01*
X104643425Y-84355264D01*
X104643425Y-84831454D02*
X105310091Y-84831454D01*
X105643425Y-84831454D02*
X105595806Y-84783835D01*
X105548186Y-84831454D01*
X105595806Y-84879073D01*
X105643425Y-84831454D01*
X105548186Y-84831454D01*
X104691044Y-85736216D02*
X104643425Y-85640978D01*
X104643425Y-85450502D01*
X104691044Y-85355264D01*
X104738663Y-85307645D01*
X104833901Y-85260026D01*
X105119615Y-85260026D01*
X105214853Y-85307645D01*
X105262472Y-85355264D01*
X105310091Y-85450502D01*
X105310091Y-85640978D01*
X105262472Y-85736216D01*
X104691044Y-86879073D02*
X104643425Y-87021931D01*
X104643425Y-87260026D01*
X104691044Y-87355264D01*
X104738663Y-87402883D01*
X104833901Y-87450502D01*
X104929139Y-87450502D01*
X105024377Y-87402883D01*
X105071996Y-87355264D01*
X105119615Y-87260026D01*
X105167234Y-87069550D01*
X105214853Y-86974311D01*
X105262472Y-86926692D01*
X105357710Y-86879073D01*
X105452948Y-86879073D01*
X105548186Y-86926692D01*
X105595806Y-86974311D01*
X105643425Y-87069550D01*
X105643425Y-87307645D01*
X105595806Y-87450502D01*
X104691044Y-88260026D02*
X104643425Y-88164788D01*
X104643425Y-87974311D01*
X104691044Y-87879073D01*
X104786282Y-87831454D01*
X105167234Y-87831454D01*
X105262472Y-87879073D01*
X105310091Y-87974311D01*
X105310091Y-88164788D01*
X105262472Y-88260026D01*
X105167234Y-88307645D01*
X105071996Y-88307645D01*
X104976758Y-87831454D01*
X105310091Y-88736216D02*
X104643425Y-88736216D01*
X105214853Y-88736216D02*
X105262472Y-88783835D01*
X105310091Y-88879073D01*
X105310091Y-89021931D01*
X105262472Y-89117169D01*
X105167234Y-89164788D01*
X104643425Y-89164788D01*
X104691044Y-89593359D02*
X104643425Y-89688597D01*
X104643425Y-89879073D01*
X104691044Y-89974311D01*
X104786282Y-90021931D01*
X104833901Y-90021931D01*
X104929139Y-89974311D01*
X104976758Y-89879073D01*
X104976758Y-89736216D01*
X105024377Y-89640978D01*
X105119615Y-89593359D01*
X105167234Y-89593359D01*
X105262472Y-89640978D01*
X105310091Y-89736216D01*
X105310091Y-89879073D01*
X105262472Y-89974311D01*
X104643425Y-90593359D02*
X104691044Y-90498121D01*
X104738663Y-90450502D01*
X104833901Y-90402883D01*
X105119615Y-90402883D01*
X105214853Y-90450502D01*
X105262472Y-90498121D01*
X105310091Y-90593359D01*
X105310091Y-90736216D01*
X105262472Y-90831454D01*
X105214853Y-90879073D01*
X105119615Y-90926692D01*
X104833901Y-90926692D01*
X104738663Y-90879073D01*
X104691044Y-90831454D01*
X104643425Y-90736216D01*
X104643425Y-90593359D01*
X104643425Y-91355264D02*
X105310091Y-91355264D01*
X105119615Y-91355264D02*
X105214853Y-91402883D01*
X105262472Y-91450502D01*
X105310091Y-91545740D01*
X105310091Y-91640978D01*
D12*
X160457438Y-74990758D02*
X160457438Y-75181234D01*
X160647914Y-75200282D01*
X160628866Y-75181234D01*
X160609819Y-75143139D01*
X160609819Y-75047901D01*
X160628866Y-75009806D01*
X160647914Y-74990758D01*
X160686009Y-74971710D01*
X160781247Y-74971710D01*
X160819343Y-74990758D01*
X160838390Y-75009806D01*
X160857438Y-75047901D01*
X160857438Y-75143139D01*
X160838390Y-75181234D01*
X160819343Y-75200282D01*
X160457438Y-74857425D02*
X160857438Y-74724091D01*
X160457438Y-74590758D01*
X160462360Y-78005381D02*
X160443312Y-78043476D01*
X160443312Y-78100619D01*
X160462360Y-78157762D01*
X160500455Y-78195857D01*
X160538550Y-78214905D01*
X160614740Y-78233952D01*
X160671883Y-78233952D01*
X160748074Y-78214905D01*
X160786169Y-78195857D01*
X160824264Y-78157762D01*
X160843312Y-78100619D01*
X160843312Y-78062524D01*
X160824264Y-78005381D01*
X160805217Y-77986333D01*
X160671883Y-77986333D01*
X160671883Y-78062524D01*
X160843312Y-77814905D02*
X160443312Y-77814905D01*
X160443312Y-77662524D01*
X160462360Y-77624428D01*
X160481407Y-77605381D01*
X160519502Y-77586333D01*
X160576645Y-77586333D01*
X160614740Y-77605381D01*
X160633788Y-77624428D01*
X160652836Y-77662524D01*
X160652836Y-77814905D01*
X160843312Y-77414905D02*
X160443312Y-77414905D01*
X160443312Y-77148238D02*
X160443312Y-77072047D01*
X160462360Y-77033952D01*
X160500455Y-76995857D01*
X160576645Y-76976809D01*
X160709979Y-76976809D01*
X160786169Y-76995857D01*
X160824264Y-77033952D01*
X160843312Y-77072047D01*
X160843312Y-77148238D01*
X160824264Y-77186333D01*
X160786169Y-77224428D01*
X160709979Y-77243476D01*
X160576645Y-77243476D01*
X160500455Y-77224428D01*
X160462360Y-77186333D01*
X160443312Y-77148238D01*
X160443312Y-76843476D02*
X160443312Y-76595857D01*
X160595693Y-76729190D01*
X160595693Y-76672047D01*
X160614740Y-76633952D01*
X160633788Y-76614905D01*
X160671883Y-76595857D01*
X160767121Y-76595857D01*
X160805217Y-76614905D01*
X160824264Y-76633952D01*
X160843312Y-76672047D01*
X160843312Y-76786333D01*
X160824264Y-76824428D01*
X160805217Y-76843476D01*
X104448915Y-73737424D02*
X104448915Y-73546948D01*
X104258439Y-73527900D01*
X104277487Y-73546948D01*
X104296534Y-73585043D01*
X104296534Y-73680281D01*
X104277487Y-73718376D01*
X104258439Y-73737424D01*
X104220344Y-73756472D01*
X104125106Y-73756472D01*
X104087010Y-73737424D01*
X104067963Y-73718376D01*
X104048915Y-73680281D01*
X104048915Y-73585043D01*
X104067963Y-73546948D01*
X104087010Y-73527900D01*
X104448915Y-73870757D02*
X104048915Y-74004091D01*
X104448915Y-74137424D01*
X160431147Y-72627846D02*
X160412099Y-72665942D01*
X160412099Y-72723085D01*
X160431147Y-72780227D01*
X160469242Y-72818323D01*
X160507337Y-72837370D01*
X160583527Y-72856418D01*
X160640670Y-72856418D01*
X160716861Y-72837370D01*
X160754956Y-72818323D01*
X160793051Y-72780227D01*
X160812099Y-72723085D01*
X160812099Y-72684989D01*
X160793051Y-72627846D01*
X160774004Y-72608799D01*
X160640670Y-72608799D01*
X160640670Y-72684989D01*
X160812099Y-72437370D02*
X160412099Y-72437370D01*
X160812099Y-72208799D01*
X160412099Y-72208799D01*
X160812099Y-72018323D02*
X160412099Y-72018323D01*
X160412099Y-71923085D01*
X160431147Y-71865942D01*
X160469242Y-71827846D01*
X160507337Y-71808799D01*
X160583527Y-71789751D01*
X160640670Y-71789751D01*
X160716861Y-71808799D01*
X160754956Y-71827846D01*
X160793051Y-71865942D01*
X160812099Y-71923085D01*
X160812099Y-72018323D01*
X160459400Y-70328466D02*
X160440352Y-70366561D01*
X160440352Y-70423704D01*
X160459400Y-70480847D01*
X160497495Y-70518942D01*
X160535590Y-70537990D01*
X160611780Y-70557037D01*
X160668923Y-70557037D01*
X160745114Y-70537990D01*
X160783209Y-70518942D01*
X160821304Y-70480847D01*
X160840352Y-70423704D01*
X160840352Y-70385609D01*
X160821304Y-70328466D01*
X160802257Y-70309418D01*
X160668923Y-70309418D01*
X160668923Y-70385609D01*
X160840352Y-70137990D02*
X160440352Y-70137990D01*
X160440352Y-69985609D01*
X160459400Y-69947513D01*
X160478447Y-69928466D01*
X160516542Y-69909418D01*
X160573685Y-69909418D01*
X160611780Y-69928466D01*
X160630828Y-69947513D01*
X160649876Y-69985609D01*
X160649876Y-70137990D01*
X160840352Y-69737990D02*
X160440352Y-69737990D01*
X160440352Y-69471323D02*
X160440352Y-69395132D01*
X160459400Y-69357037D01*
X160497495Y-69318942D01*
X160573685Y-69299894D01*
X160707019Y-69299894D01*
X160783209Y-69318942D01*
X160821304Y-69357037D01*
X160840352Y-69395132D01*
X160840352Y-69471323D01*
X160821304Y-69509418D01*
X160783209Y-69547513D01*
X160707019Y-69566561D01*
X160573685Y-69566561D01*
X160497495Y-69547513D01*
X160459400Y-69509418D01*
X160440352Y-69471323D01*
X160573685Y-68957037D02*
X160840352Y-68957037D01*
X160421304Y-69052275D02*
X160707019Y-69147513D01*
X160707019Y-68899894D01*
D10*
X125333333Y-77928571D02*
X125476190Y-77976190D01*
X125523809Y-78023809D01*
X125571428Y-78119047D01*
X125571428Y-78261904D01*
X125523809Y-78357142D01*
X125476190Y-78404761D01*
X125380952Y-78452380D01*
X125000000Y-78452380D01*
X125000000Y-77452380D01*
X125333333Y-77452380D01*
X125428571Y-77500000D01*
X125476190Y-77547619D01*
X125523809Y-77642857D01*
X125523809Y-77738095D01*
X125476190Y-77833333D01*
X125428571Y-77880952D01*
X125333333Y-77928571D01*
X125000000Y-77928571D01*
X126428571Y-78452380D02*
X126428571Y-77928571D01*
X126380952Y-77833333D01*
X126285714Y-77785714D01*
X126095238Y-77785714D01*
X126000000Y-77833333D01*
X126428571Y-78404761D02*
X126333333Y-78452380D01*
X126095238Y-78452380D01*
X126000000Y-78404761D01*
X125952380Y-78309523D01*
X125952380Y-78214285D01*
X126000000Y-78119047D01*
X126095238Y-78071428D01*
X126333333Y-78071428D01*
X126428571Y-78023809D01*
X126761904Y-77785714D02*
X127142857Y-77785714D01*
X126904761Y-77452380D02*
X126904761Y-78309523D01*
X126952380Y-78404761D01*
X127047619Y-78452380D01*
X127142857Y-78452380D01*
X127333333Y-77785714D02*
X127714285Y-77785714D01*
X127476190Y-77452380D02*
X127476190Y-78309523D01*
X127523809Y-78404761D01*
X127619047Y-78452380D01*
X127714285Y-78452380D01*
X128428571Y-78404761D02*
X128333333Y-78452380D01*
X128142857Y-78452380D01*
X128047619Y-78404761D01*
X128000000Y-78309523D01*
X128000000Y-77928571D01*
X128047619Y-77833333D01*
X128142857Y-77785714D01*
X128333333Y-77785714D01*
X128428571Y-77833333D01*
X128476190Y-77928571D01*
X128476190Y-78023809D01*
X128000000Y-78119047D01*
X128904761Y-78452380D02*
X128904761Y-77785714D01*
X128904761Y-77976190D02*
X128952380Y-77880952D01*
X129000000Y-77833333D01*
X129095238Y-77785714D01*
X129190476Y-77785714D01*
X129428571Y-77785714D02*
X129666666Y-78452380D01*
X129904761Y-77785714D02*
X129666666Y-78452380D01*
X129571428Y-78690476D01*
X129523809Y-78738095D01*
X129428571Y-78785714D01*
X131047619Y-78452380D02*
X131047619Y-77452380D01*
X131428571Y-77452380D01*
X131523809Y-77500000D01*
X131571428Y-77547619D01*
X131619047Y-77642857D01*
X131619047Y-77785714D01*
X131571428Y-77880952D01*
X131523809Y-77928571D01*
X131428571Y-77976190D01*
X131047619Y-77976190D01*
X132190476Y-78452380D02*
X132095238Y-78404761D01*
X132047619Y-78357142D01*
X132000000Y-78261904D01*
X132000000Y-77976190D01*
X132047619Y-77880952D01*
X132095238Y-77833333D01*
X132190476Y-77785714D01*
X132333333Y-77785714D01*
X132428571Y-77833333D01*
X132476190Y-77880952D01*
X132523809Y-77976190D01*
X132523809Y-78261904D01*
X132476190Y-78357142D01*
X132428571Y-78404761D01*
X132333333Y-78452380D01*
X132190476Y-78452380D01*
X132857142Y-77785714D02*
X133047619Y-78452380D01*
X133238095Y-77976190D01*
X133428571Y-78452380D01*
X133619047Y-77785714D01*
X134380952Y-78404761D02*
X134285714Y-78452380D01*
X134095238Y-78452380D01*
X134000000Y-78404761D01*
X133952380Y-78309523D01*
X133952380Y-77928571D01*
X134000000Y-77833333D01*
X134095238Y-77785714D01*
X134285714Y-77785714D01*
X134380952Y-77833333D01*
X134428571Y-77928571D01*
X134428571Y-78023809D01*
X133952380Y-78119047D01*
X134857142Y-78452380D02*
X134857142Y-77785714D01*
X134857142Y-77976190D02*
X134904761Y-77880952D01*
X134952380Y-77833333D01*
X135047619Y-77785714D01*
X135142857Y-77785714D01*
D12*
X104401615Y-76093948D02*
X104420662Y-76055852D01*
X104420662Y-75998710D01*
X104401615Y-75941567D01*
X104363519Y-75903471D01*
X104325424Y-75884424D01*
X104249234Y-75865376D01*
X104192091Y-75865376D01*
X104115900Y-75884424D01*
X104077805Y-75903471D01*
X104039710Y-75941567D01*
X104020662Y-75998710D01*
X104020662Y-76036805D01*
X104039710Y-76093948D01*
X104058757Y-76112995D01*
X104192091Y-76112995D01*
X104192091Y-76036805D01*
X104020662Y-76284424D02*
X104420662Y-76284424D01*
X104020662Y-76512995D01*
X104420662Y-76512995D01*
X104020662Y-76703471D02*
X104420662Y-76703471D01*
X104420662Y-76798710D01*
X104401615Y-76855852D01*
X104363519Y-76893948D01*
X104325424Y-76912995D01*
X104249234Y-76932043D01*
X104192091Y-76932043D01*
X104115900Y-76912995D01*
X104077805Y-76893948D01*
X104039710Y-76855852D01*
X104020662Y-76798710D01*
X104020662Y-76703471D01*
D13*
X126114285Y-80288114D02*
X125847619Y-79811924D01*
X125657142Y-80288114D02*
X125657142Y-79288114D01*
X125961904Y-79288114D01*
X126038095Y-79335734D01*
X126076190Y-79383353D01*
X126114285Y-79478591D01*
X126114285Y-79621448D01*
X126076190Y-79716686D01*
X126038095Y-79764305D01*
X125961904Y-79811924D01*
X125657142Y-79811924D01*
X126761904Y-80240495D02*
X126685714Y-80288114D01*
X126533333Y-80288114D01*
X126457142Y-80240495D01*
X126419047Y-80145257D01*
X126419047Y-79764305D01*
X126457142Y-79669067D01*
X126533333Y-79621448D01*
X126685714Y-79621448D01*
X126761904Y-79669067D01*
X126800000Y-79764305D01*
X126800000Y-79859543D01*
X126419047Y-79954781D01*
X127142857Y-80288114D02*
X127142857Y-79621448D01*
X127142857Y-79716686D02*
X127180952Y-79669067D01*
X127257142Y-79621448D01*
X127371428Y-79621448D01*
X127447619Y-79669067D01*
X127485714Y-79764305D01*
X127485714Y-80288114D01*
X127485714Y-79764305D02*
X127523809Y-79669067D01*
X127600000Y-79621448D01*
X127714285Y-79621448D01*
X127790476Y-79669067D01*
X127828571Y-79764305D01*
X127828571Y-80288114D01*
X128323809Y-80288114D02*
X128247619Y-80240495D01*
X128209523Y-80192876D01*
X128171428Y-80097638D01*
X128171428Y-79811924D01*
X128209523Y-79716686D01*
X128247619Y-79669067D01*
X128323809Y-79621448D01*
X128438095Y-79621448D01*
X128514285Y-79669067D01*
X128552380Y-79716686D01*
X128590476Y-79811924D01*
X128590476Y-80097638D01*
X128552380Y-80192876D01*
X128514285Y-80240495D01*
X128438095Y-80288114D01*
X128323809Y-80288114D01*
X128857142Y-79621448D02*
X129047619Y-80288114D01*
X129238095Y-79621448D01*
X129847619Y-80240495D02*
X129771428Y-80288114D01*
X129619047Y-80288114D01*
X129542857Y-80240495D01*
X129504761Y-80145257D01*
X129504761Y-79764305D01*
X129542857Y-79669067D01*
X129619047Y-79621448D01*
X129771428Y-79621448D01*
X129847619Y-79669067D01*
X129885714Y-79764305D01*
X129885714Y-79859543D01*
X129504761Y-79954781D01*
X131066666Y-79288114D02*
X131066666Y-80002400D01*
X131028571Y-80145257D01*
X130952380Y-80240495D01*
X130838095Y-80288114D01*
X130761904Y-80288114D01*
X131485714Y-80288114D02*
X131638095Y-80288114D01*
X131714285Y-80240495D01*
X131752380Y-80192876D01*
X131828571Y-80050019D01*
X131866666Y-79859543D01*
X131866666Y-79478591D01*
X131828571Y-79383353D01*
X131790476Y-79335734D01*
X131714285Y-79288114D01*
X131561904Y-79288114D01*
X131485714Y-79335734D01*
X131447619Y-79383353D01*
X131409523Y-79478591D01*
X131409523Y-79716686D01*
X131447619Y-79811924D01*
X131485714Y-79859543D01*
X131561904Y-79907162D01*
X131714285Y-79907162D01*
X131790476Y-79859543D01*
X131828571Y-79811924D01*
X131866666Y-79716686D01*
X132819047Y-80288114D02*
X132819047Y-79288114D01*
X133161904Y-80288114D02*
X133161904Y-79764305D01*
X133123809Y-79669067D01*
X133047619Y-79621448D01*
X132933333Y-79621448D01*
X132857142Y-79669067D01*
X132819047Y-79716686D01*
X133847619Y-80240495D02*
X133771428Y-80288114D01*
X133619047Y-80288114D01*
X133542857Y-80240495D01*
X133504761Y-80145257D01*
X133504761Y-79764305D01*
X133542857Y-79669067D01*
X133619047Y-79621448D01*
X133771428Y-79621448D01*
X133847619Y-79669067D01*
X133885714Y-79764305D01*
X133885714Y-79859543D01*
X133504761Y-79954781D01*
X134571428Y-80288114D02*
X134571428Y-79764305D01*
X134533333Y-79669067D01*
X134457142Y-79621448D01*
X134304761Y-79621448D01*
X134228571Y-79669067D01*
X134571428Y-80240495D02*
X134495238Y-80288114D01*
X134304761Y-80288114D01*
X134228571Y-80240495D01*
X134190476Y-80145257D01*
X134190476Y-80050019D01*
X134228571Y-79954781D01*
X134304761Y-79907162D01*
X134495238Y-79907162D01*
X134571428Y-79859543D01*
X135295238Y-80288114D02*
X135295238Y-79288114D01*
X135295238Y-80240495D02*
X135219047Y-80288114D01*
X135066666Y-80288114D01*
X134990476Y-80240495D01*
X134952380Y-80192876D01*
X134914285Y-80097638D01*
X134914285Y-79811924D01*
X134952380Y-79716686D01*
X134990476Y-79669067D01*
X135066666Y-79621448D01*
X135219047Y-79621448D01*
X135295238Y-79669067D01*
X135980952Y-80240495D02*
X135904761Y-80288114D01*
X135752380Y-80288114D01*
X135676190Y-80240495D01*
X135638095Y-80145257D01*
X135638095Y-79764305D01*
X135676190Y-79669067D01*
X135752380Y-79621448D01*
X135904761Y-79621448D01*
X135980952Y-79669067D01*
X136019047Y-79764305D01*
X136019047Y-79859543D01*
X135638095Y-79954781D01*
X136361904Y-80288114D02*
X136361904Y-79621448D01*
X136361904Y-79811924D02*
X136400000Y-79716686D01*
X136438095Y-79669067D01*
X136514285Y-79621448D01*
X136590476Y-79621448D01*
X137352380Y-79621448D02*
X137657142Y-79621448D01*
X137466666Y-79288114D02*
X137466666Y-80145257D01*
X137504761Y-80240495D01*
X137580952Y-80288114D01*
X137657142Y-80288114D01*
X138038095Y-80288114D02*
X137961904Y-80240495D01*
X137923809Y-80192876D01*
X137885714Y-80097638D01*
X137885714Y-79811924D01*
X137923809Y-79716686D01*
X137961904Y-79669067D01*
X138038095Y-79621448D01*
X138152380Y-79621448D01*
X138228571Y-79669067D01*
X138266666Y-79716686D01*
X138304761Y-79811924D01*
X138304761Y-80097638D01*
X138266666Y-80192876D01*
X138228571Y-80240495D01*
X138152380Y-80288114D01*
X138038095Y-80288114D01*
X139257142Y-79621448D02*
X139257142Y-80621448D01*
X139257142Y-79669067D02*
X139333333Y-79621448D01*
X139485714Y-79621448D01*
X139561904Y-79669067D01*
X139600000Y-79716686D01*
X139638095Y-79811924D01*
X139638095Y-80097638D01*
X139600000Y-80192876D01*
X139561904Y-80240495D01*
X139485714Y-80288114D01*
X139333333Y-80288114D01*
X139257142Y-80240495D01*
X140095238Y-80288114D02*
X140019047Y-80240495D01*
X139980952Y-80192876D01*
X139942857Y-80097638D01*
X139942857Y-79811924D01*
X139980952Y-79716686D01*
X140019047Y-79669067D01*
X140095238Y-79621448D01*
X140209523Y-79621448D01*
X140285714Y-79669067D01*
X140323809Y-79716686D01*
X140361904Y-79811924D01*
X140361904Y-80097638D01*
X140323809Y-80192876D01*
X140285714Y-80240495D01*
X140209523Y-80288114D01*
X140095238Y-80288114D01*
X140628571Y-79621448D02*
X140780952Y-80288114D01*
X140933333Y-79811924D01*
X141085714Y-80288114D01*
X141238095Y-79621448D01*
X141847619Y-80240495D02*
X141771428Y-80288114D01*
X141619047Y-80288114D01*
X141542857Y-80240495D01*
X141504761Y-80145257D01*
X141504761Y-79764305D01*
X141542857Y-79669067D01*
X141619047Y-79621448D01*
X141771428Y-79621448D01*
X141847619Y-79669067D01*
X141885714Y-79764305D01*
X141885714Y-79859543D01*
X141504761Y-79954781D01*
X142228571Y-80288114D02*
X142228571Y-79621448D01*
X142228571Y-79811924D02*
X142266666Y-79716686D01*
X142304761Y-79669067D01*
X142380952Y-79621448D01*
X142457142Y-79621448D01*
X128780952Y-81231448D02*
X128780952Y-82231448D01*
X128780952Y-81279067D02*
X128857142Y-81231448D01*
X129009523Y-81231448D01*
X129085714Y-81279067D01*
X129123809Y-81326686D01*
X129161904Y-81421924D01*
X129161904Y-81707638D01*
X129123809Y-81802876D01*
X129085714Y-81850495D01*
X129009523Y-81898114D01*
X128857142Y-81898114D01*
X128780952Y-81850495D01*
X129504761Y-81898114D02*
X129504761Y-81231448D01*
X129504761Y-80898114D02*
X129466666Y-80945734D01*
X129504761Y-80993353D01*
X129542857Y-80945734D01*
X129504761Y-80898114D01*
X129504761Y-80993353D01*
X130380952Y-81231448D02*
X130685714Y-81231448D01*
X130495238Y-81898114D02*
X130495238Y-81040972D01*
X130533333Y-80945734D01*
X130609523Y-80898114D01*
X130685714Y-80898114D01*
X130952380Y-81898114D02*
X130952380Y-81231448D01*
X130952380Y-81421924D02*
X130990476Y-81326686D01*
X131028571Y-81279067D01*
X131104761Y-81231448D01*
X131180952Y-81231448D01*
X131561904Y-81898114D02*
X131485714Y-81850495D01*
X131447619Y-81802876D01*
X131409523Y-81707638D01*
X131409523Y-81421924D01*
X131447619Y-81326686D01*
X131485714Y-81279067D01*
X131561904Y-81231448D01*
X131676190Y-81231448D01*
X131752380Y-81279067D01*
X131790476Y-81326686D01*
X131828571Y-81421924D01*
X131828571Y-81707638D01*
X131790476Y-81802876D01*
X131752380Y-81850495D01*
X131676190Y-81898114D01*
X131561904Y-81898114D01*
X132171428Y-81898114D02*
X132171428Y-81231448D01*
X132171428Y-81326686D02*
X132209523Y-81279067D01*
X132285714Y-81231448D01*
X132400000Y-81231448D01*
X132476190Y-81279067D01*
X132514285Y-81374305D01*
X132514285Y-81898114D01*
X132514285Y-81374305D02*
X132552380Y-81279067D01*
X132628571Y-81231448D01*
X132742857Y-81231448D01*
X132819047Y-81279067D01*
X132857142Y-81374305D01*
X132857142Y-81898114D01*
X133847619Y-81898114D02*
X133847619Y-81231448D01*
X133847619Y-81326686D02*
X133885714Y-81279067D01*
X133961904Y-81231448D01*
X134076190Y-81231448D01*
X134152380Y-81279067D01*
X134190476Y-81374305D01*
X134190476Y-81898114D01*
X134190476Y-81374305D02*
X134228571Y-81279067D01*
X134304761Y-81231448D01*
X134419047Y-81231448D01*
X134495238Y-81279067D01*
X134533333Y-81374305D01*
X134533333Y-81898114D01*
X134914285Y-81898114D02*
X134914285Y-81231448D01*
X134914285Y-80898114D02*
X134876190Y-80945734D01*
X134914285Y-80993353D01*
X134952380Y-80945734D01*
X134914285Y-80898114D01*
X134914285Y-80993353D01*
X135638095Y-81850495D02*
X135561904Y-81898114D01*
X135409523Y-81898114D01*
X135333333Y-81850495D01*
X135295238Y-81802876D01*
X135257142Y-81707638D01*
X135257142Y-81421924D01*
X135295238Y-81326686D01*
X135333333Y-81279067D01*
X135409523Y-81231448D01*
X135561904Y-81231448D01*
X135638095Y-81279067D01*
X135980952Y-81898114D02*
X135980952Y-81231448D01*
X135980952Y-81421924D02*
X136019047Y-81326686D01*
X136057142Y-81279067D01*
X136133333Y-81231448D01*
X136209523Y-81231448D01*
X136590476Y-81898114D02*
X136514285Y-81850495D01*
X136476190Y-81802876D01*
X136438095Y-81707638D01*
X136438095Y-81421924D01*
X136476190Y-81326686D01*
X136514285Y-81279067D01*
X136590476Y-81231448D01*
X136704761Y-81231448D01*
X136780952Y-81279067D01*
X136819047Y-81326686D01*
X136857142Y-81421924D01*
X136857142Y-81707638D01*
X136819047Y-81802876D01*
X136780952Y-81850495D01*
X136704761Y-81898114D01*
X136590476Y-81898114D01*
X137200000Y-80898114D02*
X137200000Y-81707638D01*
X137238095Y-81802876D01*
X137276190Y-81850495D01*
X137352380Y-81898114D01*
X137504761Y-81898114D01*
X137580952Y-81850495D01*
X137619047Y-81802876D01*
X137657142Y-81707638D01*
X137657142Y-80898114D01*
X138000000Y-81850495D02*
X138114285Y-81898114D01*
X138304761Y-81898114D01*
X138380952Y-81850495D01*
X138419047Y-81802876D01*
X138457142Y-81707638D01*
X138457142Y-81612400D01*
X138419047Y-81517162D01*
X138380952Y-81469543D01*
X138304761Y-81421924D01*
X138152380Y-81374305D01*
X138076190Y-81326686D01*
X138038095Y-81279067D01*
X138000000Y-81183829D01*
X138000000Y-81088591D01*
X138038095Y-80993353D01*
X138076190Y-80945734D01*
X138152380Y-80898114D01*
X138342857Y-80898114D01*
X138457142Y-80945734D01*
X139066666Y-81374305D02*
X139180952Y-81421924D01*
X139219047Y-81469543D01*
X139257142Y-81564781D01*
X139257142Y-81707638D01*
X139219047Y-81802876D01*
X139180952Y-81850495D01*
X139104761Y-81898114D01*
X138800000Y-81898114D01*
X138800000Y-80898114D01*
X139066666Y-80898114D01*
X139142857Y-80945734D01*
X139180952Y-80993353D01*
X139219047Y-81088591D01*
X139219047Y-81183829D01*
X139180952Y-81279067D01*
X139142857Y-81326686D01*
X139066666Y-81374305D01*
X138800000Y-81374305D01*
D12*
X160473526Y-67828129D02*
X160454478Y-67866224D01*
X160454478Y-67923367D01*
X160473526Y-67980510D01*
X160511621Y-68018605D01*
X160549716Y-68037653D01*
X160625906Y-68056700D01*
X160683049Y-68056700D01*
X160759240Y-68037653D01*
X160797335Y-68018605D01*
X160835430Y-67980510D01*
X160854478Y-67923367D01*
X160854478Y-67885272D01*
X160835430Y-67828129D01*
X160816383Y-67809081D01*
X160683049Y-67809081D01*
X160683049Y-67885272D01*
X160854478Y-67637653D02*
X160454478Y-67637653D01*
X160454478Y-67485272D01*
X160473526Y-67447176D01*
X160492573Y-67428129D01*
X160530668Y-67409081D01*
X160587811Y-67409081D01*
X160625906Y-67428129D01*
X160644954Y-67447176D01*
X160664002Y-67485272D01*
X160664002Y-67637653D01*
X160854478Y-67237653D02*
X160454478Y-67237653D01*
X160454478Y-66970986D02*
X160454478Y-66894795D01*
X160473526Y-66856700D01*
X160511621Y-66818605D01*
X160587811Y-66799557D01*
X160721145Y-66799557D01*
X160797335Y-66818605D01*
X160835430Y-66856700D01*
X160854478Y-66894795D01*
X160854478Y-66970986D01*
X160835430Y-67009081D01*
X160797335Y-67047176D01*
X160721145Y-67066224D01*
X160587811Y-67066224D01*
X160511621Y-67047176D01*
X160473526Y-67009081D01*
X160454478Y-66970986D01*
X160854478Y-66609081D02*
X160854478Y-66532891D01*
X160835430Y-66494795D01*
X160816383Y-66475748D01*
X160759240Y-66437653D01*
X160683049Y-66418605D01*
X160530668Y-66418605D01*
X160492573Y-66437653D01*
X160473526Y-66456700D01*
X160454478Y-66494795D01*
X160454478Y-66570986D01*
X160473526Y-66609081D01*
X160492573Y-66628129D01*
X160530668Y-66647176D01*
X160625906Y-66647176D01*
X160664002Y-66628129D01*
X160683049Y-66609081D01*
X160702097Y-66570986D01*
X160702097Y-66494795D01*
X160683049Y-66456700D01*
X160664002Y-66437653D01*
X160625906Y-66418605D01*
D10*
X109571428Y-78164961D02*
X109571428Y-77164961D01*
X109904761Y-77879247D01*
X110238095Y-77164961D01*
X110238095Y-78164961D01*
X110857142Y-78164961D02*
X110761904Y-78117342D01*
X110714285Y-78069723D01*
X110666666Y-77974485D01*
X110666666Y-77688771D01*
X110714285Y-77593533D01*
X110761904Y-77545914D01*
X110857142Y-77498295D01*
X111000000Y-77498295D01*
X111095238Y-77545914D01*
X111142857Y-77593533D01*
X111190476Y-77688771D01*
X111190476Y-77974485D01*
X111142857Y-78069723D01*
X111095238Y-78117342D01*
X111000000Y-78164961D01*
X110857142Y-78164961D01*
X111476190Y-77498295D02*
X111857142Y-77498295D01*
X111619047Y-77164961D02*
X111619047Y-78022104D01*
X111666666Y-78117342D01*
X111761904Y-78164961D01*
X111857142Y-78164961D01*
X112333333Y-78164961D02*
X112238095Y-78117342D01*
X112190476Y-78069723D01*
X112142857Y-77974485D01*
X112142857Y-77688771D01*
X112190476Y-77593533D01*
X112238095Y-77545914D01*
X112333333Y-77498295D01*
X112476190Y-77498295D01*
X112571428Y-77545914D01*
X112619047Y-77593533D01*
X112666666Y-77688771D01*
X112666666Y-77974485D01*
X112619047Y-78069723D01*
X112571428Y-78117342D01*
X112476190Y-78164961D01*
X112333333Y-78164961D01*
X113095238Y-78164961D02*
X113095238Y-77498295D01*
X113095238Y-77688771D02*
X113142857Y-77593533D01*
X113190476Y-77545914D01*
X113285714Y-77498295D01*
X113380952Y-77498295D01*
X114476190Y-78164961D02*
X114476190Y-77164961D01*
X114857142Y-77164961D01*
X114952380Y-77212581D01*
X115000000Y-77260200D01*
X115047619Y-77355438D01*
X115047619Y-77498295D01*
X115000000Y-77593533D01*
X114952380Y-77641152D01*
X114857142Y-77688771D01*
X114476190Y-77688771D01*
X115619047Y-78164961D02*
X115523809Y-78117342D01*
X115476190Y-78069723D01*
X115428571Y-77974485D01*
X115428571Y-77688771D01*
X115476190Y-77593533D01*
X115523809Y-77545914D01*
X115619047Y-77498295D01*
X115761904Y-77498295D01*
X115857142Y-77545914D01*
X115904761Y-77593533D01*
X115952380Y-77688771D01*
X115952380Y-77974485D01*
X115904761Y-78069723D01*
X115857142Y-78117342D01*
X115761904Y-78164961D01*
X115619047Y-78164961D01*
X116285714Y-77498295D02*
X116476190Y-78164961D01*
X116666666Y-77688771D01*
X116857142Y-78164961D01*
X117047619Y-77498295D01*
X117809523Y-78117342D02*
X117714285Y-78164961D01*
X117523809Y-78164961D01*
X117428571Y-78117342D01*
X117380952Y-78022104D01*
X117380952Y-77641152D01*
X117428571Y-77545914D01*
X117523809Y-77498295D01*
X117714285Y-77498295D01*
X117809523Y-77545914D01*
X117857142Y-77641152D01*
X117857142Y-77736390D01*
X117380952Y-77831628D01*
X118285714Y-78164961D02*
X118285714Y-77498295D01*
X118285714Y-77688771D02*
X118333333Y-77593533D01*
X118380952Y-77545914D01*
X118476190Y-77498295D01*
X118571428Y-77498295D01*
D12*
X104341799Y-82847020D02*
X104360846Y-82808925D01*
X104360846Y-82751782D01*
X104341799Y-82694639D01*
X104303703Y-82656544D01*
X104265608Y-82637496D01*
X104189418Y-82618449D01*
X104132275Y-82618449D01*
X104056084Y-82637496D01*
X104017989Y-82656544D01*
X103979894Y-82694639D01*
X103960846Y-82751782D01*
X103960846Y-82789877D01*
X103979894Y-82847020D01*
X103998941Y-82866068D01*
X104132275Y-82866068D01*
X104132275Y-82789877D01*
X103960846Y-83037496D02*
X104360846Y-83037496D01*
X104360846Y-83189877D01*
X104341799Y-83227973D01*
X104322751Y-83247020D01*
X104284656Y-83266068D01*
X104227513Y-83266068D01*
X104189418Y-83247020D01*
X104170370Y-83227973D01*
X104151322Y-83189877D01*
X104151322Y-83037496D01*
X103960846Y-83437496D02*
X104360846Y-83437496D01*
X104360846Y-83704163D02*
X104360846Y-83780353D01*
X104341799Y-83818449D01*
X104303703Y-83856544D01*
X104227513Y-83875592D01*
X104094179Y-83875592D01*
X104017989Y-83856544D01*
X103979894Y-83818449D01*
X103960846Y-83780353D01*
X103960846Y-83704163D01*
X103979894Y-83666068D01*
X104017989Y-83627973D01*
X104094179Y-83608925D01*
X104227513Y-83608925D01*
X104303703Y-83627973D01*
X104341799Y-83666068D01*
X104360846Y-83704163D01*
X103960846Y-84256544D02*
X103960846Y-84027973D01*
X103960846Y-84142258D02*
X104360846Y-84142258D01*
X104303703Y-84104163D01*
X104265608Y-84066068D01*
X104246560Y-84027973D01*
X104360846Y-84389877D02*
X104360846Y-84656544D01*
X103960846Y-84485115D01*
X104308838Y-88478600D02*
X104327885Y-88440504D01*
X104327885Y-88383362D01*
X104308838Y-88326219D01*
X104270742Y-88288123D01*
X104232647Y-88269076D01*
X104156457Y-88250028D01*
X104099314Y-88250028D01*
X104023123Y-88269076D01*
X103985028Y-88288123D01*
X103946933Y-88326219D01*
X103927885Y-88383362D01*
X103927885Y-88421457D01*
X103946933Y-88478600D01*
X103965980Y-88497647D01*
X104099314Y-88497647D01*
X104099314Y-88421457D01*
X103927885Y-88669076D02*
X104327885Y-88669076D01*
X103927885Y-88897647D01*
X104327885Y-88897647D01*
X103927885Y-89088123D02*
X104327885Y-89088123D01*
X104327885Y-89183362D01*
X104308838Y-89240504D01*
X104270742Y-89278600D01*
X104232647Y-89297647D01*
X104156457Y-89316695D01*
X104099314Y-89316695D01*
X104023123Y-89297647D01*
X103985028Y-89278600D01*
X103946933Y-89240504D01*
X103927885Y-89183362D01*
X103927885Y-89088123D01*
D10*
X160090445Y-79757607D02*
X159090445Y-79757607D01*
X159804731Y-79424274D01*
X159090445Y-79090940D01*
X160090445Y-79090940D01*
X160090445Y-78471893D02*
X160042826Y-78567131D01*
X159995207Y-78614750D01*
X159899969Y-78662369D01*
X159614255Y-78662369D01*
X159519017Y-78614750D01*
X159471398Y-78567131D01*
X159423779Y-78471893D01*
X159423779Y-78329036D01*
X159471398Y-78233797D01*
X159519017Y-78186178D01*
X159614255Y-78138559D01*
X159899969Y-78138559D01*
X159995207Y-78186178D01*
X160042826Y-78233797D01*
X160090445Y-78329036D01*
X160090445Y-78471893D01*
X159423779Y-77852845D02*
X159423779Y-77471893D01*
X159090445Y-77709988D02*
X159947588Y-77709988D01*
X160042826Y-77662369D01*
X160090445Y-77567131D01*
X160090445Y-77471893D01*
X160090445Y-76995702D02*
X160042826Y-77090940D01*
X159995207Y-77138559D01*
X159899969Y-77186178D01*
X159614255Y-77186178D01*
X159519017Y-77138559D01*
X159471398Y-77090940D01*
X159423779Y-76995702D01*
X159423779Y-76852845D01*
X159471398Y-76757607D01*
X159519017Y-76709988D01*
X159614255Y-76662369D01*
X159899969Y-76662369D01*
X159995207Y-76709988D01*
X160042826Y-76757607D01*
X160090445Y-76852845D01*
X160090445Y-76995702D01*
X160090445Y-76233797D02*
X159423779Y-76233797D01*
X159614255Y-76233797D02*
X159519017Y-76186178D01*
X159471398Y-76138559D01*
X159423779Y-76043321D01*
X159423779Y-75948083D01*
X159995207Y-74281416D02*
X160042826Y-74329036D01*
X160090445Y-74471893D01*
X160090445Y-74567131D01*
X160042826Y-74709988D01*
X159947588Y-74805226D01*
X159852350Y-74852845D01*
X159661874Y-74900464D01*
X159519017Y-74900464D01*
X159328541Y-74852845D01*
X159233303Y-74805226D01*
X159138065Y-74709988D01*
X159090445Y-74567131D01*
X159090445Y-74471893D01*
X159138065Y-74329036D01*
X159185684Y-74281416D01*
X160090445Y-73709988D02*
X160042826Y-73805226D01*
X159995207Y-73852845D01*
X159899969Y-73900464D01*
X159614255Y-73900464D01*
X159519017Y-73852845D01*
X159471398Y-73805226D01*
X159423779Y-73709988D01*
X159423779Y-73567131D01*
X159471398Y-73471893D01*
X159519017Y-73424274D01*
X159614255Y-73376655D01*
X159899969Y-73376655D01*
X159995207Y-73424274D01*
X160042826Y-73471893D01*
X160090445Y-73567131D01*
X160090445Y-73709988D01*
X159423779Y-72948083D02*
X160090445Y-72948083D01*
X159519017Y-72948083D02*
X159471398Y-72900464D01*
X159423779Y-72805226D01*
X159423779Y-72662369D01*
X159471398Y-72567131D01*
X159566636Y-72519512D01*
X160090445Y-72519512D01*
X159423779Y-72186178D02*
X159423779Y-71805226D01*
X159090445Y-72043321D02*
X159947588Y-72043321D01*
X160042826Y-71995702D01*
X160090445Y-71900464D01*
X160090445Y-71805226D01*
X160090445Y-71471893D02*
X159423779Y-71471893D01*
X159614255Y-71471893D02*
X159519017Y-71424274D01*
X159471398Y-71376655D01*
X159423779Y-71281416D01*
X159423779Y-71186178D01*
X160090445Y-70709988D02*
X160042826Y-70805226D01*
X159995207Y-70852845D01*
X159899969Y-70900464D01*
X159614255Y-70900464D01*
X159519017Y-70852845D01*
X159471398Y-70805226D01*
X159423779Y-70709988D01*
X159423779Y-70567131D01*
X159471398Y-70471893D01*
X159519017Y-70424274D01*
X159614255Y-70376655D01*
X159899969Y-70376655D01*
X159995207Y-70424274D01*
X160042826Y-70471893D01*
X160090445Y-70567131D01*
X160090445Y-70709988D01*
X160090445Y-69805226D02*
X160042826Y-69900464D01*
X159947588Y-69948083D01*
X159090445Y-69948083D01*
X117928571Y-87404761D02*
X118071428Y-87452380D01*
X118309523Y-87452380D01*
X118404761Y-87404761D01*
X118452380Y-87357142D01*
X118500000Y-87261904D01*
X118500000Y-87166666D01*
X118452380Y-87071428D01*
X118404761Y-87023809D01*
X118309523Y-86976190D01*
X118119047Y-86928571D01*
X118023809Y-86880952D01*
X117976190Y-86833333D01*
X117928571Y-86738095D01*
X117928571Y-86642857D01*
X117976190Y-86547619D01*
X118023809Y-86500000D01*
X118119047Y-86452380D01*
X118357142Y-86452380D01*
X118500000Y-86500000D01*
X118833333Y-86452380D02*
X119071428Y-87452380D01*
X119261904Y-86738095D01*
X119452380Y-87452380D01*
X119690476Y-86452380D01*
X120595238Y-87452380D02*
X120023809Y-87452380D01*
X120309523Y-87452380D02*
X120309523Y-86452380D01*
X120214285Y-86595238D01*
X120119047Y-86690476D01*
X120023809Y-86738095D01*
X122261904Y-87452380D02*
X121785714Y-87452380D01*
X121785714Y-86452380D01*
X122595238Y-86928571D02*
X122928571Y-86928571D01*
X123071428Y-87452380D02*
X122595238Y-87452380D01*
X122595238Y-86452380D01*
X123071428Y-86452380D01*
X123500000Y-87452380D02*
X123500000Y-86452380D01*
X123738095Y-86452380D01*
X123880952Y-86500000D01*
X123976190Y-86595238D01*
X124023809Y-86690476D01*
X124071428Y-86880952D01*
X124071428Y-87023809D01*
X124023809Y-87214285D01*
X123976190Y-87309523D01*
X123880952Y-87404761D01*
X123738095Y-87452380D01*
X123500000Y-87452380D01*
D12*
X104443994Y-70532325D02*
X104463041Y-70494230D01*
X104463041Y-70437087D01*
X104443994Y-70379944D01*
X104405898Y-70341849D01*
X104367803Y-70322801D01*
X104291613Y-70303754D01*
X104234470Y-70303754D01*
X104158279Y-70322801D01*
X104120184Y-70341849D01*
X104082089Y-70379944D01*
X104063041Y-70437087D01*
X104063041Y-70475182D01*
X104082089Y-70532325D01*
X104101136Y-70551373D01*
X104234470Y-70551373D01*
X104234470Y-70475182D01*
X104063041Y-70722801D02*
X104463041Y-70722801D01*
X104463041Y-70875182D01*
X104443994Y-70913278D01*
X104424946Y-70932325D01*
X104386851Y-70951373D01*
X104329708Y-70951373D01*
X104291613Y-70932325D01*
X104272565Y-70913278D01*
X104253517Y-70875182D01*
X104253517Y-70722801D01*
X104063041Y-71122801D02*
X104463041Y-71122801D01*
X104463041Y-71389468D02*
X104463041Y-71465658D01*
X104443994Y-71503754D01*
X104405898Y-71541849D01*
X104329708Y-71560897D01*
X104196374Y-71560897D01*
X104120184Y-71541849D01*
X104082089Y-71503754D01*
X104063041Y-71465658D01*
X104063041Y-71389468D01*
X104082089Y-71351373D01*
X104120184Y-71313278D01*
X104196374Y-71294230D01*
X104329708Y-71294230D01*
X104405898Y-71313278D01*
X104443994Y-71351373D01*
X104463041Y-71389468D01*
X104063041Y-71941849D02*
X104063041Y-71713278D01*
X104063041Y-71827563D02*
X104463041Y-71827563D01*
X104405898Y-71789468D01*
X104367803Y-71751373D01*
X104348755Y-71713278D01*
X104291613Y-72170420D02*
X104310660Y-72132325D01*
X104329708Y-72113278D01*
X104367803Y-72094230D01*
X104386851Y-72094230D01*
X104424946Y-72113278D01*
X104443994Y-72132325D01*
X104463041Y-72170420D01*
X104463041Y-72246611D01*
X104443994Y-72284706D01*
X104424946Y-72303754D01*
X104386851Y-72322801D01*
X104367803Y-72322801D01*
X104329708Y-72303754D01*
X104310660Y-72284706D01*
X104291613Y-72246611D01*
X104291613Y-72170420D01*
X104272565Y-72132325D01*
X104253517Y-72113278D01*
X104215422Y-72094230D01*
X104139232Y-72094230D01*
X104101136Y-72113278D01*
X104082089Y-72132325D01*
X104063041Y-72170420D01*
X104063041Y-72246611D01*
X104082089Y-72284706D01*
X104101136Y-72303754D01*
X104139232Y-72322801D01*
X104215422Y-72322801D01*
X104253517Y-72303754D01*
X104272565Y-72284706D01*
X104291613Y-72246611D01*
X160434107Y-80590476D02*
X160415059Y-80628571D01*
X160415059Y-80685714D01*
X160434107Y-80742857D01*
X160472202Y-80780952D01*
X160510297Y-80800000D01*
X160586487Y-80819047D01*
X160643630Y-80819047D01*
X160719821Y-80800000D01*
X160757916Y-80780952D01*
X160796011Y-80742857D01*
X160815059Y-80685714D01*
X160815059Y-80647619D01*
X160796011Y-80590476D01*
X160776964Y-80571428D01*
X160643630Y-80571428D01*
X160643630Y-80647619D01*
X160815059Y-80400000D02*
X160415059Y-80400000D01*
X160415059Y-80247619D01*
X160434107Y-80209523D01*
X160453154Y-80190476D01*
X160491249Y-80171428D01*
X160548392Y-80171428D01*
X160586487Y-80190476D01*
X160605535Y-80209523D01*
X160624583Y-80247619D01*
X160624583Y-80400000D01*
X160815059Y-80000000D02*
X160415059Y-80000000D01*
X160415059Y-79733333D02*
X160415059Y-79657142D01*
X160434107Y-79619047D01*
X160472202Y-79580952D01*
X160548392Y-79561904D01*
X160681726Y-79561904D01*
X160757916Y-79580952D01*
X160796011Y-79619047D01*
X160815059Y-79657142D01*
X160815059Y-79733333D01*
X160796011Y-79771428D01*
X160757916Y-79809523D01*
X160681726Y-79828571D01*
X160548392Y-79828571D01*
X160472202Y-79809523D01*
X160434107Y-79771428D01*
X160415059Y-79733333D01*
X160453154Y-79409523D02*
X160434107Y-79390476D01*
X160415059Y-79352380D01*
X160415059Y-79257142D01*
X160434107Y-79219047D01*
X160453154Y-79200000D01*
X160491249Y-79180952D01*
X160529345Y-79180952D01*
X160586487Y-79200000D01*
X160815059Y-79428571D01*
X160815059Y-79180952D01*
D10*
X106955457Y-85446726D02*
X105955457Y-85446726D01*
X106669743Y-85113393D01*
X105955457Y-84780059D01*
X106955457Y-84780059D01*
X106955457Y-83875298D02*
X106431648Y-83875298D01*
X106336410Y-83922917D01*
X106288791Y-84018155D01*
X106288791Y-84208631D01*
X106336410Y-84303869D01*
X106907838Y-83875298D02*
X106955457Y-83970536D01*
X106955457Y-84208631D01*
X106907838Y-84303869D01*
X106812600Y-84351488D01*
X106717362Y-84351488D01*
X106622124Y-84303869D01*
X106574505Y-84208631D01*
X106574505Y-83970536D01*
X106526886Y-83875298D01*
X106955457Y-83399107D02*
X106288791Y-83399107D01*
X105955457Y-83399107D02*
X106003077Y-83446726D01*
X106050696Y-83399107D01*
X106003077Y-83351488D01*
X105955457Y-83399107D01*
X106050696Y-83399107D01*
X106288791Y-82922917D02*
X106955457Y-82922917D01*
X106384029Y-82922917D02*
X106336410Y-82875298D01*
X106288791Y-82780059D01*
X106288791Y-82637202D01*
X106336410Y-82541964D01*
X106431648Y-82494345D01*
X106955457Y-82494345D01*
X106431648Y-80922917D02*
X106431648Y-81256250D01*
X106955457Y-81256250D02*
X105955457Y-81256250D01*
X105955457Y-80780059D01*
X106288791Y-79970536D02*
X106955457Y-79970536D01*
X106288791Y-80399107D02*
X106812600Y-80399107D01*
X106907838Y-80351488D01*
X106955457Y-80256250D01*
X106955457Y-80113393D01*
X106907838Y-80018155D01*
X106860219Y-79970536D01*
X106907838Y-79541964D02*
X106955457Y-79446726D01*
X106955457Y-79256250D01*
X106907838Y-79161012D01*
X106812600Y-79113393D01*
X106764981Y-79113393D01*
X106669743Y-79161012D01*
X106622124Y-79256250D01*
X106622124Y-79399107D01*
X106574505Y-79494345D01*
X106479267Y-79541964D01*
X106431648Y-79541964D01*
X106336410Y-79494345D01*
X106288791Y-79399107D01*
X106288791Y-79256250D01*
X106336410Y-79161012D01*
X106907838Y-78303869D02*
X106955457Y-78399107D01*
X106955457Y-78589583D01*
X106907838Y-78684821D01*
X106812600Y-78732440D01*
X106431648Y-78732440D01*
X106336410Y-78684821D01*
X106288791Y-78589583D01*
X106288791Y-78399107D01*
X106336410Y-78303869D01*
X106431648Y-78256250D01*
X106526886Y-78256250D01*
X106622124Y-78732440D01*
D12*
X155985098Y-93130952D02*
X156118432Y-93530952D01*
X156251765Y-93130952D01*
X156823194Y-93321428D02*
X156880337Y-93340476D01*
X156899384Y-93359523D01*
X156918432Y-93397619D01*
X156918432Y-93454761D01*
X156899384Y-93492857D01*
X156880337Y-93511904D01*
X156842241Y-93530952D01*
X156689860Y-93530952D01*
X156689860Y-93130952D01*
X156823194Y-93130952D01*
X156861289Y-93150000D01*
X156880337Y-93169047D01*
X156899384Y-93207142D01*
X156899384Y-93245238D01*
X156880337Y-93283333D01*
X156861289Y-93302380D01*
X156823194Y-93321428D01*
X156689860Y-93321428D01*
X157261289Y-93530952D02*
X157261289Y-93321428D01*
X157242241Y-93283333D01*
X157204146Y-93264285D01*
X157127956Y-93264285D01*
X157089860Y-93283333D01*
X157261289Y-93511904D02*
X157223194Y-93530952D01*
X157127956Y-93530952D01*
X157089860Y-93511904D01*
X157070813Y-93473809D01*
X157070813Y-93435714D01*
X157089860Y-93397619D01*
X157127956Y-93378571D01*
X157223194Y-93378571D01*
X157261289Y-93359523D01*
X157394622Y-93264285D02*
X157547003Y-93264285D01*
X157451765Y-93130952D02*
X157451765Y-93473809D01*
X157470813Y-93511904D01*
X157508908Y-93530952D01*
X157547003Y-93530952D01*
X157623194Y-93264285D02*
X157775575Y-93264285D01*
X157680337Y-93130952D02*
X157680337Y-93473809D01*
X157699384Y-93511904D01*
X157737479Y-93530952D01*
X157775575Y-93530952D01*
D10*
X143166666Y-98452380D02*
X142833333Y-97976190D01*
X142595238Y-98452380D02*
X142595238Y-97452380D01*
X142976190Y-97452380D01*
X143071428Y-97500000D01*
X143119047Y-97547619D01*
X143166666Y-97642857D01*
X143166666Y-97785714D01*
X143119047Y-97880952D01*
X143071428Y-97928571D01*
X142976190Y-97976190D01*
X142595238Y-97976190D01*
X143738095Y-98452380D02*
X143642857Y-98404761D01*
X143595238Y-98357142D01*
X143547619Y-98261904D01*
X143547619Y-97976190D01*
X143595238Y-97880952D01*
X143642857Y-97833333D01*
X143738095Y-97785714D01*
X143880952Y-97785714D01*
X143976190Y-97833333D01*
X144023809Y-97880952D01*
X144071428Y-97976190D01*
X144071428Y-98261904D01*
X144023809Y-98357142D01*
X143976190Y-98404761D01*
X143880952Y-98452380D01*
X143738095Y-98452380D01*
X144500000Y-98452380D02*
X144500000Y-97452380D01*
X144500000Y-97833333D02*
X144595238Y-97785714D01*
X144785714Y-97785714D01*
X144880952Y-97833333D01*
X144928571Y-97880952D01*
X144976190Y-97976190D01*
X144976190Y-98261904D01*
X144928571Y-98357142D01*
X144880952Y-98404761D01*
X144785714Y-98452380D01*
X144595238Y-98452380D01*
X144500000Y-98404761D01*
X145547619Y-98452380D02*
X145452380Y-98404761D01*
X145404761Y-98357142D01*
X145357142Y-98261904D01*
X145357142Y-97976190D01*
X145404761Y-97880952D01*
X145452380Y-97833333D01*
X145547619Y-97785714D01*
X145690476Y-97785714D01*
X145785714Y-97833333D01*
X145833333Y-97880952D01*
X145880952Y-97976190D01*
X145880952Y-98261904D01*
X145833333Y-98357142D01*
X145785714Y-98404761D01*
X145690476Y-98452380D01*
X145547619Y-98452380D01*
X146166666Y-97785714D02*
X146547619Y-97785714D01*
X146309523Y-97452380D02*
X146309523Y-98309523D01*
X146357142Y-98404761D01*
X146452380Y-98452380D01*
X146547619Y-98452380D01*
X146833333Y-98404761D02*
X146928571Y-98452380D01*
X147119047Y-98452380D01*
X147214285Y-98404761D01*
X147261904Y-98309523D01*
X147261904Y-98261904D01*
X147214285Y-98166666D01*
X147119047Y-98119047D01*
X146976190Y-98119047D01*
X146880952Y-98071428D01*
X146833333Y-97976190D01*
X146833333Y-97928571D01*
X146880952Y-97833333D01*
X146976190Y-97785714D01*
X147119047Y-97785714D01*
X147214285Y-97833333D01*
X148214285Y-98452380D02*
X147642857Y-98452380D01*
X147928571Y-98452380D02*
X147928571Y-97452380D01*
X147833333Y-97595238D01*
X147738095Y-97690476D01*
X147642857Y-97738095D01*
X148833333Y-97452380D02*
X148928571Y-97452380D01*
X149023809Y-97500000D01*
X149071428Y-97547619D01*
X149119047Y-97642857D01*
X149166666Y-97833333D01*
X149166666Y-98071428D01*
X149119047Y-98261904D01*
X149071428Y-98357142D01*
X149023809Y-98404761D01*
X148928571Y-98452380D01*
X148833333Y-98452380D01*
X148738095Y-98404761D01*
X148690476Y-98357142D01*
X148642857Y-98261904D01*
X148595238Y-98071428D01*
X148595238Y-97833333D01*
X148642857Y-97642857D01*
X148690476Y-97547619D01*
X148738095Y-97500000D01*
X148833333Y-97452380D01*
X150119047Y-98452380D02*
X149547619Y-98452380D01*
X149833333Y-98452380D02*
X149833333Y-97452380D01*
X149738095Y-97595238D01*
X149642857Y-97690476D01*
X149547619Y-97738095D01*
X151309523Y-98452380D02*
X151309523Y-97452380D01*
X151690476Y-97452380D01*
X151785714Y-97500000D01*
X151833333Y-97547619D01*
X151880952Y-97642857D01*
X151880952Y-97785714D01*
X151833333Y-97880952D01*
X151785714Y-97928571D01*
X151690476Y-97976190D01*
X151309523Y-97976190D01*
X152309523Y-98452380D02*
X152309523Y-97785714D01*
X152309523Y-97452380D02*
X152261904Y-97500000D01*
X152309523Y-97547619D01*
X152357142Y-97500000D01*
X152309523Y-97452380D01*
X152309523Y-97547619D01*
X152785714Y-98452380D02*
X152785714Y-97452380D01*
X152785714Y-97928571D02*
X153357142Y-97928571D01*
X153357142Y-98452380D02*
X153357142Y-97452380D01*
X154261904Y-98452380D02*
X154261904Y-97928571D01*
X154214285Y-97833333D01*
X154119047Y-97785714D01*
X153928571Y-97785714D01*
X153833333Y-97833333D01*
X154261904Y-98404761D02*
X154166666Y-98452380D01*
X153928571Y-98452380D01*
X153833333Y-98404761D01*
X153785714Y-98309523D01*
X153785714Y-98214285D01*
X153833333Y-98119047D01*
X153928571Y-98071428D01*
X154166666Y-98071428D01*
X154261904Y-98023809D01*
X154595238Y-97785714D02*
X154976190Y-97785714D01*
X154738095Y-97452380D02*
X154738095Y-98309523D01*
X154785714Y-98404761D01*
X154880952Y-98452380D01*
X154976190Y-98452380D01*
X155928571Y-97452380D02*
X156261904Y-98452380D01*
X156595238Y-97452380D01*
X156880952Y-97547619D02*
X156928571Y-97500000D01*
X157023809Y-97452380D01*
X157261904Y-97452380D01*
X157357142Y-97500000D01*
X157404761Y-97547619D01*
X157452380Y-97642857D01*
X157452380Y-97738095D01*
X157404761Y-97880952D01*
X156833333Y-98452380D01*
X157452380Y-98452380D01*
D12*
X104313547Y-85685175D02*
X104332594Y-85647080D01*
X104332594Y-85589937D01*
X104313547Y-85532794D01*
X104275451Y-85494699D01*
X104237356Y-85475651D01*
X104161166Y-85456604D01*
X104104023Y-85456604D01*
X104027832Y-85475651D01*
X103989737Y-85494699D01*
X103951642Y-85532794D01*
X103932594Y-85589937D01*
X103932594Y-85628032D01*
X103951642Y-85685175D01*
X103970689Y-85704223D01*
X104104023Y-85704223D01*
X104104023Y-85628032D01*
X103932594Y-85875651D02*
X104332594Y-85875651D01*
X104332594Y-86028032D01*
X104313547Y-86066128D01*
X104294499Y-86085175D01*
X104256404Y-86104223D01*
X104199261Y-86104223D01*
X104161166Y-86085175D01*
X104142118Y-86066128D01*
X104123070Y-86028032D01*
X104123070Y-85875651D01*
X103932594Y-86275651D02*
X104332594Y-86275651D01*
X104332594Y-86542318D02*
X104332594Y-86618508D01*
X104313547Y-86656604D01*
X104275451Y-86694699D01*
X104199261Y-86713747D01*
X104065927Y-86713747D01*
X103989737Y-86694699D01*
X103951642Y-86656604D01*
X103932594Y-86618508D01*
X103932594Y-86542318D01*
X103951642Y-86504223D01*
X103989737Y-86466128D01*
X104065927Y-86447080D01*
X104199261Y-86447080D01*
X104275451Y-86466128D01*
X104313547Y-86504223D01*
X104332594Y-86542318D01*
X104294499Y-86866128D02*
X104313547Y-86885175D01*
X104332594Y-86923270D01*
X104332594Y-87018508D01*
X104313547Y-87056604D01*
X104294499Y-87075651D01*
X104256404Y-87094699D01*
X104218308Y-87094699D01*
X104161166Y-87075651D01*
X103932594Y-86847080D01*
X103932594Y-87094699D01*
X104332594Y-87228032D02*
X104332594Y-87494699D01*
X103932594Y-87323270D01*
D10*
X120120087Y-64028499D02*
X119786754Y-63552309D01*
X119548658Y-64028499D02*
X119548658Y-63028499D01*
X119929611Y-63028499D01*
X120024849Y-63076119D01*
X120072468Y-63123738D01*
X120120087Y-63218976D01*
X120120087Y-63361833D01*
X120072468Y-63457071D01*
X120024849Y-63504690D01*
X119929611Y-63552309D01*
X119548658Y-63552309D01*
X120977230Y-63028499D02*
X120786754Y-63028499D01*
X120691515Y-63076119D01*
X120643896Y-63123738D01*
X120548658Y-63266595D01*
X120501039Y-63457071D01*
X120501039Y-63838023D01*
X120548658Y-63933261D01*
X120596277Y-63980880D01*
X120691515Y-64028499D01*
X120881992Y-64028499D01*
X120977230Y-63980880D01*
X121024849Y-63933261D01*
X121072468Y-63838023D01*
X121072468Y-63599928D01*
X121024849Y-63504690D01*
X120977230Y-63457071D01*
X120881992Y-63409452D01*
X120691515Y-63409452D01*
X120596277Y-63457071D01*
X120548658Y-63504690D01*
X120501039Y-63599928D01*
X133875177Y-56166666D02*
X133398987Y-56500000D01*
X133875177Y-56738095D02*
X132875177Y-56738095D01*
X132875177Y-56357142D01*
X132922797Y-56261904D01*
X132970416Y-56214285D01*
X133065654Y-56166666D01*
X133208511Y-56166666D01*
X133303749Y-56214285D01*
X133351368Y-56261904D01*
X133398987Y-56357142D01*
X133398987Y-56738095D01*
X132875177Y-55833333D02*
X132875177Y-55166666D01*
X133875177Y-55595238D01*
X153833333Y-89357142D02*
X153785714Y-89404761D01*
X153642857Y-89452380D01*
X153547619Y-89452380D01*
X153404761Y-89404761D01*
X153309523Y-89309523D01*
X153261904Y-89214285D01*
X153214285Y-89023809D01*
X153214285Y-88880952D01*
X153261904Y-88690476D01*
X153309523Y-88595238D01*
X153404761Y-88500000D01*
X153547619Y-88452380D01*
X153642857Y-88452380D01*
X153785714Y-88500000D01*
X153833333Y-88547619D01*
X154166666Y-88452380D02*
X154785714Y-88452380D01*
X154452380Y-88833333D01*
X154595238Y-88833333D01*
X154690476Y-88880952D01*
X154738095Y-88928571D01*
X154785714Y-89023809D01*
X154785714Y-89261904D01*
X154738095Y-89357142D01*
X154690476Y-89404761D01*
X154595238Y-89452380D01*
X154309523Y-89452380D01*
X154214285Y-89404761D01*
X154166666Y-89357142D01*
X138358621Y-76702453D02*
X138406240Y-76559596D01*
X138406240Y-76321500D01*
X138358621Y-76226262D01*
X138311002Y-76178643D01*
X138215764Y-76131024D01*
X138120526Y-76131024D01*
X138025288Y-76178643D01*
X137977669Y-76226262D01*
X137930050Y-76321500D01*
X137882431Y-76511977D01*
X137834812Y-76607215D01*
X137787193Y-76654834D01*
X137691955Y-76702453D01*
X137596717Y-76702453D01*
X137501479Y-76654834D01*
X137453860Y-76607215D01*
X137406240Y-76511977D01*
X137406240Y-76273881D01*
X137453860Y-76131024D01*
X137406240Y-75797691D02*
X138406240Y-75559596D01*
X137691955Y-75369120D01*
X138406240Y-75178643D01*
X137406240Y-74940548D01*
X138406240Y-74035786D02*
X138406240Y-74607215D01*
X138406240Y-74321500D02*
X137406240Y-74321500D01*
X137549098Y-74416739D01*
X137644336Y-74511977D01*
X137691955Y-74607215D01*
X157777380Y-72761904D02*
X158586904Y-72761904D01*
X158682142Y-72714285D01*
X158729761Y-72666666D01*
X158777380Y-72571428D01*
X158777380Y-72380952D01*
X158729761Y-72285714D01*
X158682142Y-72238095D01*
X158586904Y-72190476D01*
X157777380Y-72190476D01*
X158777380Y-71190476D02*
X158777380Y-71761904D01*
X158777380Y-71476190D02*
X157777380Y-71476190D01*
X157920238Y-71571428D01*
X158015476Y-71666666D01*
X158063095Y-71761904D01*
X113184769Y-91721520D02*
X112184769Y-91721520D01*
X112184769Y-91483425D01*
X112232389Y-91340567D01*
X112327627Y-91245329D01*
X112422865Y-91197710D01*
X112613341Y-91150091D01*
X112756198Y-91150091D01*
X112946674Y-91197710D01*
X113041912Y-91245329D01*
X113137150Y-91340567D01*
X113184769Y-91483425D01*
X113184769Y-91721520D01*
X113184769Y-90197710D02*
X113184769Y-90769139D01*
X113184769Y-90483425D02*
X112184769Y-90483425D01*
X112327627Y-90578663D01*
X112422865Y-90673901D01*
X112470484Y-90769139D01*
X162532438Y-63931601D02*
X162532438Y-64645887D01*
X162484819Y-64788744D01*
X162389581Y-64883982D01*
X162246724Y-64931601D01*
X162151486Y-64931601D01*
X163484819Y-63931601D02*
X163008629Y-63931601D01*
X162961010Y-64407792D01*
X163008629Y-64360173D01*
X163103867Y-64312554D01*
X163341962Y-64312554D01*
X163437200Y-64360173D01*
X163484819Y-64407792D01*
X163532438Y-64503030D01*
X163532438Y-64741125D01*
X163484819Y-64836363D01*
X163437200Y-64883982D01*
X163341962Y-64931601D01*
X163103867Y-64931601D01*
X163008629Y-64883982D01*
X162961010Y-64836363D01*
X122404761Y-76958333D02*
X122452380Y-76815476D01*
X122452380Y-76577380D01*
X122404761Y-76482142D01*
X122357142Y-76434523D01*
X122261904Y-76386904D01*
X122166666Y-76386904D01*
X122071428Y-76434523D01*
X122023809Y-76482142D01*
X121976190Y-76577380D01*
X121928571Y-76767857D01*
X121880952Y-76863095D01*
X121833333Y-76910714D01*
X121738095Y-76958333D01*
X121642857Y-76958333D01*
X121547619Y-76910714D01*
X121500000Y-76863095D01*
X121452380Y-76767857D01*
X121452380Y-76529761D01*
X121500000Y-76386904D01*
X121452380Y-76053571D02*
X122452380Y-75815476D01*
X121738095Y-75625000D01*
X122452380Y-75434523D01*
X121452380Y-75196428D01*
X121547619Y-74863095D02*
X121500000Y-74815476D01*
X121452380Y-74720238D01*
X121452380Y-74482142D01*
X121500000Y-74386904D01*
X121547619Y-74339285D01*
X121642857Y-74291666D01*
X121738095Y-74291666D01*
X121880952Y-74339285D01*
X122452380Y-74910714D01*
X122452380Y-74291666D01*
X162498909Y-55788083D02*
X162498909Y-56502369D01*
X162451290Y-56645226D01*
X162356052Y-56740464D01*
X162213195Y-56788083D01*
X162117957Y-56788083D01*
X163022719Y-56788083D02*
X163213195Y-56788083D01*
X163308433Y-56740464D01*
X163356052Y-56692845D01*
X163451290Y-56549988D01*
X163498909Y-56359512D01*
X163498909Y-55978560D01*
X163451290Y-55883322D01*
X163403671Y-55835703D01*
X163308433Y-55788083D01*
X163117957Y-55788083D01*
X163022719Y-55835703D01*
X162975100Y-55883322D01*
X162927481Y-55978560D01*
X162927481Y-56216655D01*
X162975100Y-56311893D01*
X163022719Y-56359512D01*
X163117957Y-56407131D01*
X163308433Y-56407131D01*
X163403671Y-56359512D01*
X163451290Y-56311893D01*
X163498909Y-56216655D01*
X150872619Y-59635238D02*
X150825000Y-59730476D01*
X150729761Y-59825714D01*
X150586904Y-59968571D01*
X150539285Y-60063809D01*
X150539285Y-60159047D01*
X150777380Y-60111428D02*
X150729761Y-60206666D01*
X150634523Y-60301904D01*
X150444047Y-60349523D01*
X150110714Y-60349523D01*
X149920238Y-60301904D01*
X149825000Y-60206666D01*
X149777380Y-60111428D01*
X149777380Y-59920952D01*
X149825000Y-59825714D01*
X149920238Y-59730476D01*
X150110714Y-59682857D01*
X150444047Y-59682857D01*
X150634523Y-59730476D01*
X150729761Y-59825714D01*
X150777380Y-59920952D01*
X150777380Y-60111428D01*
X149872619Y-59301904D02*
X149825000Y-59254285D01*
X149777380Y-59159047D01*
X149777380Y-58920952D01*
X149825000Y-58825714D01*
X149872619Y-58778095D01*
X149967857Y-58730476D01*
X150063095Y-58730476D01*
X150205952Y-58778095D01*
X150777380Y-59349523D01*
X150777380Y-58730476D01*
X128440253Y-53467514D02*
X127964063Y-53800848D01*
X128440253Y-54038943D02*
X127440253Y-54038943D01*
X127440253Y-53657990D01*
X127487873Y-53562752D01*
X127535492Y-53515133D01*
X127630730Y-53467514D01*
X127773587Y-53467514D01*
X127868825Y-53515133D01*
X127916444Y-53562752D01*
X127964063Y-53657990D01*
X127964063Y-54038943D01*
X127868825Y-52896086D02*
X127821206Y-52991324D01*
X127773587Y-53038943D01*
X127678349Y-53086562D01*
X127630730Y-53086562D01*
X127535492Y-53038943D01*
X127487873Y-52991324D01*
X127440253Y-52896086D01*
X127440253Y-52705609D01*
X127487873Y-52610371D01*
X127535492Y-52562752D01*
X127630730Y-52515133D01*
X127678349Y-52515133D01*
X127773587Y-52562752D01*
X127821206Y-52610371D01*
X127868825Y-52705609D01*
X127868825Y-52896086D01*
X127916444Y-52991324D01*
X127964063Y-53038943D01*
X128059301Y-53086562D01*
X128249777Y-53086562D01*
X128345015Y-53038943D01*
X128392634Y-52991324D01*
X128440253Y-52896086D01*
X128440253Y-52705609D01*
X128392634Y-52610371D01*
X128345015Y-52562752D01*
X128249777Y-52515133D01*
X128059301Y-52515133D01*
X127964063Y-52562752D01*
X127916444Y-52610371D01*
X127868825Y-52705609D01*
X133791741Y-61166666D02*
X133315551Y-61500000D01*
X133791741Y-61738095D02*
X132791741Y-61738095D01*
X132791741Y-61357142D01*
X132839361Y-61261904D01*
X132886980Y-61214285D01*
X132982218Y-61166666D01*
X133125075Y-61166666D01*
X133220313Y-61214285D01*
X133267932Y-61261904D01*
X133315551Y-61357142D01*
X133315551Y-61738095D01*
X133791741Y-60214285D02*
X133791741Y-60785714D01*
X133791741Y-60500000D02*
X132791741Y-60500000D01*
X132934599Y-60595238D01*
X133029837Y-60690476D01*
X133077456Y-60785714D01*
X153833333Y-81891518D02*
X153785714Y-81939137D01*
X153642857Y-81986756D01*
X153547619Y-81986756D01*
X153404761Y-81939137D01*
X153309523Y-81843899D01*
X153261904Y-81748661D01*
X153214285Y-81558185D01*
X153214285Y-81415328D01*
X153261904Y-81224852D01*
X153309523Y-81129614D01*
X153404761Y-81034376D01*
X153547619Y-80986756D01*
X153642857Y-80986756D01*
X153785714Y-81034376D01*
X153833333Y-81081995D01*
X154785714Y-81986756D02*
X154214285Y-81986756D01*
X154500000Y-81986756D02*
X154500000Y-80986756D01*
X154404761Y-81129614D01*
X154309523Y-81224852D01*
X154214285Y-81272471D01*
X107452380Y-91166666D02*
X106976190Y-91500000D01*
X107452380Y-91738095D02*
X106452380Y-91738095D01*
X106452380Y-91357142D01*
X106500000Y-91261904D01*
X106547619Y-91214285D01*
X106642857Y-91166666D01*
X106785714Y-91166666D01*
X106880952Y-91214285D01*
X106928571Y-91261904D01*
X106976190Y-91357142D01*
X106976190Y-91738095D01*
X106452380Y-90833333D02*
X106452380Y-90214285D01*
X106833333Y-90547619D01*
X106833333Y-90404761D01*
X106880952Y-90309523D01*
X106928571Y-90261904D01*
X107023809Y-90214285D01*
X107261904Y-90214285D01*
X107357142Y-90261904D01*
X107404761Y-90309523D01*
X107452380Y-90404761D01*
X107452380Y-90690476D01*
X107404761Y-90785714D01*
X107357142Y-90833333D01*
X125178138Y-53514183D02*
X125225757Y-53561802D01*
X125273376Y-53704659D01*
X125273376Y-53799897D01*
X125225757Y-53942755D01*
X125130519Y-54037993D01*
X125035281Y-54085612D01*
X124844805Y-54133231D01*
X124701948Y-54133231D01*
X124511472Y-54085612D01*
X124416234Y-54037993D01*
X124320996Y-53942755D01*
X124273376Y-53799897D01*
X124273376Y-53704659D01*
X124320996Y-53561802D01*
X124368615Y-53514183D01*
X124606710Y-52657040D02*
X125273376Y-52657040D01*
X124225757Y-52895136D02*
X124940043Y-53133231D01*
X124940043Y-52514183D01*
X122001280Y-53538079D02*
X121525090Y-53871413D01*
X122001280Y-54109508D02*
X121001280Y-54109508D01*
X121001280Y-53728555D01*
X121048900Y-53633317D01*
X121096519Y-53585698D01*
X121191757Y-53538079D01*
X121334614Y-53538079D01*
X121429852Y-53585698D01*
X121477471Y-53633317D01*
X121525090Y-53728555D01*
X121525090Y-54109508D01*
X121096519Y-53157127D02*
X121048900Y-53109508D01*
X121001280Y-53014270D01*
X121001280Y-52776174D01*
X121048900Y-52680936D01*
X121096519Y-52633317D01*
X121191757Y-52585698D01*
X121286995Y-52585698D01*
X121429852Y-52633317D01*
X122001280Y-53204746D01*
X122001280Y-52585698D01*
X127100733Y-59781530D02*
X127005495Y-59733911D01*
X126910257Y-59638672D01*
X126767400Y-59495815D01*
X126672162Y-59448196D01*
X126576924Y-59448196D01*
X126624543Y-59686291D02*
X126529305Y-59638672D01*
X126434067Y-59543434D01*
X126386448Y-59352958D01*
X126386448Y-59019625D01*
X126434067Y-58829149D01*
X126529305Y-58733911D01*
X126624543Y-58686291D01*
X126815019Y-58686291D01*
X126910257Y-58733911D01*
X127005495Y-58829149D01*
X127053114Y-59019625D01*
X127053114Y-59352958D01*
X127005495Y-59543434D01*
X126910257Y-59638672D01*
X126815019Y-59686291D01*
X126624543Y-59686291D01*
X127910257Y-59019625D02*
X127910257Y-59686291D01*
X127672162Y-58638672D02*
X127434067Y-59352958D01*
X128053114Y-59352958D01*
X120174618Y-60728511D02*
X119841285Y-60252321D01*
X119603189Y-60728511D02*
X119603189Y-59728511D01*
X119984142Y-59728511D01*
X120079380Y-59776131D01*
X120126999Y-59823750D01*
X120174618Y-59918988D01*
X120174618Y-60061845D01*
X120126999Y-60157083D01*
X120079380Y-60204702D01*
X119984142Y-60252321D01*
X119603189Y-60252321D01*
X121079380Y-59728511D02*
X120603189Y-59728511D01*
X120555570Y-60204702D01*
X120603189Y-60157083D01*
X120698427Y-60109464D01*
X120936523Y-60109464D01*
X121031761Y-60157083D01*
X121079380Y-60204702D01*
X121126999Y-60299940D01*
X121126999Y-60538035D01*
X121079380Y-60633273D01*
X121031761Y-60680892D01*
X120936523Y-60728511D01*
X120698427Y-60728511D01*
X120603189Y-60680892D01*
X120555570Y-60633273D01*
X101666666Y-67949440D02*
X101666666Y-68663726D01*
X101619047Y-68806583D01*
X101523809Y-68901821D01*
X101380952Y-68949440D01*
X101285714Y-68949440D01*
X102047619Y-67949440D02*
X102714285Y-67949440D01*
X102285714Y-68949440D01*
X113279302Y-87721520D02*
X112279302Y-87721520D01*
X112279302Y-87483425D01*
X112326922Y-87340567D01*
X112422160Y-87245329D01*
X112517398Y-87197710D01*
X112707874Y-87150091D01*
X112850731Y-87150091D01*
X113041207Y-87197710D01*
X113136445Y-87245329D01*
X113231683Y-87340567D01*
X113279302Y-87483425D01*
X113279302Y-87721520D01*
X112374541Y-86769139D02*
X112326922Y-86721520D01*
X112279302Y-86626282D01*
X112279302Y-86388186D01*
X112326922Y-86292948D01*
X112374541Y-86245329D01*
X112469779Y-86197710D01*
X112565017Y-86197710D01*
X112707874Y-86245329D01*
X113279302Y-86816758D01*
X113279302Y-86197710D01*
X120174618Y-57311995D02*
X120126999Y-57359614D01*
X119984142Y-57407233D01*
X119888904Y-57407233D01*
X119746046Y-57359614D01*
X119650808Y-57264376D01*
X119603189Y-57169138D01*
X119555570Y-56978662D01*
X119555570Y-56835805D01*
X119603189Y-56645329D01*
X119650808Y-56550091D01*
X119746046Y-56454853D01*
X119888904Y-56407233D01*
X119984142Y-56407233D01*
X120126999Y-56454853D01*
X120174618Y-56502472D01*
X120555570Y-56502472D02*
X120603189Y-56454853D01*
X120698427Y-56407233D01*
X120936523Y-56407233D01*
X121031761Y-56454853D01*
X121079380Y-56502472D01*
X121126999Y-56597710D01*
X121126999Y-56692948D01*
X121079380Y-56835805D01*
X120507951Y-57407233D01*
X121126999Y-57407233D01*
X107452380Y-87166666D02*
X106976190Y-87500000D01*
X107452380Y-87738095D02*
X106452380Y-87738095D01*
X106452380Y-87357142D01*
X106500000Y-87261904D01*
X106547619Y-87214285D01*
X106642857Y-87166666D01*
X106785714Y-87166666D01*
X106880952Y-87214285D01*
X106928571Y-87261904D01*
X106976190Y-87357142D01*
X106976190Y-87738095D01*
X106785714Y-86309523D02*
X107452380Y-86309523D01*
X106404761Y-86547619D02*
X107119047Y-86785714D01*
X107119047Y-86166666D01*
X121965370Y-78500841D02*
X121632037Y-78500841D01*
X121632037Y-79024650D02*
X121632037Y-78024650D01*
X122108227Y-78024650D01*
X123012989Y-79024650D02*
X122441561Y-79024650D01*
X122727275Y-79024650D02*
X122727275Y-78024650D01*
X122632037Y-78167508D01*
X122536799Y-78262746D01*
X122441561Y-78310365D01*
X157722380Y-60301904D02*
X158531904Y-60301904D01*
X158627142Y-60254285D01*
X158674761Y-60206666D01*
X158722380Y-60111428D01*
X158722380Y-59920952D01*
X158674761Y-59825714D01*
X158627142Y-59778095D01*
X158531904Y-59730476D01*
X157722380Y-59730476D01*
X157817619Y-59301904D02*
X157770000Y-59254285D01*
X157722380Y-59159047D01*
X157722380Y-58920952D01*
X157770000Y-58825714D01*
X157817619Y-58778095D01*
X157912857Y-58730476D01*
X158008095Y-58730476D01*
X158150952Y-58778095D01*
X158722380Y-59349523D01*
X158722380Y-58730476D01*
X106440392Y-52690508D02*
X106440392Y-53404794D01*
X106392773Y-53547651D01*
X106297535Y-53642889D01*
X106154678Y-53690508D01*
X106059440Y-53690508D01*
X107440392Y-53690508D02*
X106868964Y-53690508D01*
X107154678Y-53690508D02*
X107154678Y-52690508D01*
X107059440Y-52833366D01*
X106964202Y-52928604D01*
X106868964Y-52976223D01*
X113782142Y-54484349D02*
X113782142Y-53341492D01*
X113782142Y-65484349D02*
X113782142Y-64341492D01*
X114353571Y-64912921D02*
X113210714Y-64912921D01*
X150817619Y-71635238D02*
X150770000Y-71730476D01*
X150674761Y-71825714D01*
X150531904Y-71968571D01*
X150484285Y-72063809D01*
X150484285Y-72159047D01*
X150722380Y-72111428D02*
X150674761Y-72206666D01*
X150579523Y-72301904D01*
X150389047Y-72349523D01*
X150055714Y-72349523D01*
X149865238Y-72301904D01*
X149770000Y-72206666D01*
X149722380Y-72111428D01*
X149722380Y-71920952D01*
X149770000Y-71825714D01*
X149865238Y-71730476D01*
X150055714Y-71682857D01*
X150389047Y-71682857D01*
X150579523Y-71730476D01*
X150674761Y-71825714D01*
X150722380Y-71920952D01*
X150722380Y-72111428D01*
X150722380Y-70730476D02*
X150722380Y-71301904D01*
X150722380Y-71016190D02*
X149722380Y-71016190D01*
X149865238Y-71111428D01*
X149960476Y-71206666D01*
X150008095Y-71301904D01*
X101691666Y-77882380D02*
X101691666Y-78596666D01*
X101644047Y-78739523D01*
X101548809Y-78834761D01*
X101405952Y-78882380D01*
X101310714Y-78882380D01*
X102596428Y-77882380D02*
X102405952Y-77882380D01*
X102310714Y-77930000D01*
X102263095Y-77977619D01*
X102167857Y-78120476D01*
X102120238Y-78310952D01*
X102120238Y-78691904D01*
X102167857Y-78787142D01*
X102215476Y-78834761D01*
X102310714Y-78882380D01*
X102501190Y-78882380D01*
X102596428Y-78834761D01*
X102644047Y-78787142D01*
X102691666Y-78691904D01*
X102691666Y-78453809D01*
X102644047Y-78358571D01*
X102596428Y-78310952D01*
X102501190Y-78263333D01*
X102310714Y-78263333D01*
X102215476Y-78310952D01*
X102167857Y-78358571D01*
X102120238Y-78453809D01*
X157666666Y-83370210D02*
X157666666Y-84084496D01*
X157619047Y-84227353D01*
X157523809Y-84322591D01*
X157380952Y-84370210D01*
X157285714Y-84370210D01*
X158285714Y-83798782D02*
X158190476Y-83751163D01*
X158142857Y-83703544D01*
X158095238Y-83608306D01*
X158095238Y-83560687D01*
X158142857Y-83465449D01*
X158190476Y-83417830D01*
X158285714Y-83370210D01*
X158476190Y-83370210D01*
X158571428Y-83417830D01*
X158619047Y-83465449D01*
X158666666Y-83560687D01*
X158666666Y-83608306D01*
X158619047Y-83703544D01*
X158571428Y-83751163D01*
X158476190Y-83798782D01*
X158285714Y-83798782D01*
X158190476Y-83846401D01*
X158142857Y-83894020D01*
X158095238Y-83989258D01*
X158095238Y-84179734D01*
X158142857Y-84274972D01*
X158190476Y-84322591D01*
X158285714Y-84370210D01*
X158476190Y-84370210D01*
X158571428Y-84322591D01*
X158619047Y-84274972D01*
X158666666Y-84179734D01*
X158666666Y-83989258D01*
X158619047Y-83894020D01*
X158571428Y-83846401D01*
X158476190Y-83798782D01*
X106483824Y-50984407D02*
X106483824Y-51698693D01*
X106436205Y-51841550D01*
X106340967Y-51936788D01*
X106198110Y-51984407D01*
X106102872Y-51984407D01*
X106912396Y-51079646D02*
X106960015Y-51032027D01*
X107055253Y-50984407D01*
X107293348Y-50984407D01*
X107388586Y-51032027D01*
X107436205Y-51079646D01*
X107483824Y-51174884D01*
X107483824Y-51270122D01*
X107436205Y-51412979D01*
X106864777Y-51984407D01*
X107483824Y-51984407D01*
D11*
X120513818Y-64408377D02*
X120059690Y-64408377D01*
X120513818Y-65878377D02*
X120059690Y-65878377D01*
X135735000Y-56227064D02*
X135735000Y-55772936D01*
X134265000Y-56227064D02*
X134265000Y-55772936D01*
X152851000Y-89965000D02*
X152851000Y-90960000D01*
X152171000Y-93040000D02*
X152171000Y-94414000D01*
X152611000Y-93040000D02*
X152611000Y-94200000D01*
X152571000Y-89776000D02*
X152571000Y-90960000D01*
X152531000Y-89753000D02*
X152531000Y-90960000D01*
X152091000Y-89558000D02*
X152091000Y-90960000D01*
X151490000Y-93040000D02*
X151490000Y-94569000D01*
X153491000Y-93040000D02*
X153491000Y-93319000D01*
X153131000Y-90215000D02*
X153131000Y-90960000D01*
X151971000Y-89520000D02*
X151971000Y-90960000D01*
X153651000Y-90989000D02*
X153651000Y-93011000D01*
X152131000Y-93040000D02*
X152131000Y-94428000D01*
X152731000Y-93040000D02*
X152731000Y-94122000D01*
X151890000Y-89499000D02*
X151890000Y-90960000D01*
X153251000Y-93040000D02*
X153251000Y-93653000D01*
X151770000Y-93040000D02*
X151770000Y-94528000D01*
X152411000Y-89690000D02*
X152411000Y-90960000D01*
X152891000Y-89996000D02*
X152891000Y-90960000D01*
X148445225Y-90525000D02*
X148945225Y-90525000D01*
X153091000Y-90174000D02*
X153091000Y-90960000D01*
X153451000Y-90617000D02*
X153451000Y-90960000D01*
X152451000Y-89710000D02*
X152451000Y-90960000D01*
X151971000Y-93040000D02*
X151971000Y-94480000D01*
X151250000Y-89420000D02*
X151250000Y-94580000D01*
X151730000Y-93040000D02*
X151730000Y-94536000D01*
X153411000Y-93040000D02*
X153411000Y-93443000D01*
X153291000Y-90395000D02*
X153291000Y-90960000D01*
X153771000Y-91323000D02*
X153771000Y-92677000D01*
X152731000Y-89878000D02*
X152731000Y-90960000D01*
X153051000Y-90136000D02*
X153051000Y-90960000D01*
X153371000Y-93040000D02*
X153371000Y-93500000D01*
X152931000Y-93040000D02*
X152931000Y-93971000D01*
X153011000Y-90099000D02*
X153011000Y-90960000D01*
X152251000Y-89618000D02*
X152251000Y-90960000D01*
X151410000Y-89424000D02*
X151410000Y-94576000D01*
X153811000Y-91482000D02*
X153811000Y-92518000D01*
X152771000Y-89905000D02*
X152771000Y-90960000D01*
X151690000Y-93040000D02*
X151690000Y-94543000D01*
X151370000Y-89422000D02*
X151370000Y-94578000D01*
X151290000Y-89420000D02*
X151290000Y-94580000D01*
X151530000Y-93040000D02*
X151530000Y-94565000D01*
X148695225Y-90275000D02*
X148695225Y-90775000D01*
X152051000Y-93040000D02*
X152051000Y-94455000D01*
X151330000Y-89421000D02*
X151330000Y-94579000D01*
X153731000Y-91195000D02*
X153731000Y-92805000D01*
X151610000Y-93040000D02*
X151610000Y-94556000D01*
X153331000Y-93040000D02*
X153331000Y-93554000D01*
X151890000Y-93040000D02*
X151890000Y-94501000D01*
X152171000Y-89586000D02*
X152171000Y-90960000D01*
X152651000Y-89825000D02*
X152651000Y-90960000D01*
X153011000Y-93040000D02*
X153011000Y-93901000D01*
X151930000Y-89509000D02*
X151930000Y-90960000D01*
X151650000Y-93040000D02*
X151650000Y-94550000D01*
X152451000Y-93040000D02*
X152451000Y-94290000D01*
X151810000Y-89480000D02*
X151810000Y-90960000D01*
X152971000Y-93040000D02*
X152971000Y-93937000D01*
X153291000Y-93040000D02*
X153291000Y-93605000D01*
X153171000Y-90257000D02*
X153171000Y-90960000D01*
X151610000Y-89444000D02*
X151610000Y-90960000D01*
X153691000Y-91085000D02*
X153691000Y-92915000D01*
X152011000Y-89532000D02*
X152011000Y-90960000D01*
X152331000Y-89652000D02*
X152331000Y-90960000D01*
X152291000Y-93040000D02*
X152291000Y-94365000D01*
X152211000Y-89602000D02*
X152211000Y-90960000D01*
X153411000Y-90557000D02*
X153411000Y-90960000D01*
X151770000Y-89472000D02*
X151770000Y-90960000D01*
X151850000Y-93040000D02*
X151850000Y-94511000D01*
X152371000Y-93040000D02*
X152371000Y-94329000D01*
X153171000Y-93040000D02*
X153171000Y-93743000D01*
X152491000Y-93040000D02*
X152491000Y-94268000D01*
X151570000Y-93040000D02*
X151570000Y-94561000D01*
X153531000Y-93040000D02*
X153531000Y-93251000D01*
X152891000Y-93040000D02*
X152891000Y-94004000D01*
X152691000Y-89851000D02*
X152691000Y-90960000D01*
X153051000Y-93040000D02*
X153051000Y-93864000D01*
X152571000Y-93040000D02*
X152571000Y-94224000D01*
X151810000Y-93040000D02*
X151810000Y-94520000D01*
X152531000Y-93040000D02*
X152531000Y-94247000D01*
X153451000Y-93040000D02*
X153451000Y-93383000D01*
X152291000Y-89635000D02*
X152291000Y-90960000D01*
X153851000Y-91716000D02*
X153851000Y-92284000D01*
X153091000Y-93040000D02*
X153091000Y-93826000D01*
X151930000Y-93040000D02*
X151930000Y-94491000D01*
X151730000Y-89464000D02*
X151730000Y-90960000D01*
X152651000Y-93040000D02*
X152651000Y-94175000D01*
X153251000Y-90347000D02*
X153251000Y-90960000D01*
X151850000Y-89489000D02*
X151850000Y-90960000D01*
X152931000Y-90029000D02*
X152931000Y-90960000D01*
X152611000Y-89800000D02*
X152611000Y-90960000D01*
X151650000Y-89450000D02*
X151650000Y-90960000D01*
X151690000Y-89457000D02*
X151690000Y-90960000D01*
X152771000Y-93040000D02*
X152771000Y-94095000D01*
X153491000Y-90681000D02*
X153491000Y-90960000D01*
X153211000Y-90301000D02*
X153211000Y-90960000D01*
X152051000Y-89545000D02*
X152051000Y-90960000D01*
X153331000Y-90446000D02*
X153331000Y-90960000D01*
X152331000Y-93040000D02*
X152331000Y-94348000D01*
X153571000Y-90822000D02*
X153571000Y-93178000D01*
X151530000Y-89435000D02*
X151530000Y-90960000D01*
X152811000Y-89935000D02*
X152811000Y-90960000D01*
X153611000Y-90902000D02*
X153611000Y-93098000D01*
X152811000Y-93040000D02*
X152811000Y-94065000D01*
X152971000Y-90063000D02*
X152971000Y-90960000D01*
X152851000Y-93040000D02*
X152851000Y-94035000D01*
X153371000Y-90500000D02*
X153371000Y-90960000D01*
X152131000Y-89572000D02*
X152131000Y-90960000D01*
X152691000Y-93040000D02*
X152691000Y-94149000D01*
X151450000Y-89427000D02*
X151450000Y-94573000D01*
X153211000Y-93040000D02*
X153211000Y-93699000D01*
X152491000Y-89732000D02*
X152491000Y-90960000D01*
X151570000Y-89439000D02*
X151570000Y-90960000D01*
X151490000Y-89431000D02*
X151490000Y-90960000D01*
X153131000Y-93040000D02*
X153131000Y-93785000D01*
X152091000Y-93040000D02*
X152091000Y-94442000D01*
X152251000Y-93040000D02*
X152251000Y-94382000D01*
X153531000Y-90749000D02*
X153531000Y-90960000D01*
X152011000Y-93040000D02*
X152011000Y-94468000D01*
X152411000Y-93040000D02*
X152411000Y-94310000D01*
X152211000Y-93040000D02*
X152211000Y-94398000D01*
X152371000Y-89671000D02*
X152371000Y-90960000D01*
X153870000Y-92000000D02*
G75*
G03*
X153870000Y-92000000I-2620000J0D01*
G01*
X123250000Y-71500000D02*
X123250000Y-69250000D01*
X123250000Y-76750000D02*
X123250000Y-74500000D01*
X136750000Y-69250000D02*
X136750000Y-71500000D01*
X136750000Y-76750000D02*
X123250000Y-76750000D01*
X123250000Y-69250000D02*
X136750000Y-69250000D01*
X136750000Y-74500000D02*
X136750000Y-76750000D01*
G36*
X117447028Y-93992524D02*
G01*
X117451212Y-94143016D01*
X117455396Y-94293507D01*
X117263502Y-94293507D01*
X117263502Y-94242120D01*
X117262092Y-94210545D01*
X117252533Y-94195593D01*
X117226834Y-94191049D01*
X117197433Y-94190732D01*
X117131363Y-94190732D01*
X117131387Y-94253131D01*
X117132044Y-94278422D01*
X117136417Y-94298911D01*
X117148138Y-94318764D01*
X117170842Y-94342150D01*
X117208160Y-94373238D01*
X117263727Y-94416195D01*
X117292890Y-94438405D01*
X117454369Y-94561280D01*
X117454369Y-94998247D01*
X116911132Y-94998247D01*
X116911132Y-94673955D01*
X117017577Y-94678268D01*
X117124022Y-94682582D01*
X117128537Y-94744981D01*
X117132698Y-94784064D01*
X117143069Y-94802046D01*
X117167843Y-94807121D01*
X117190936Y-94807380D01*
X117248820Y-94807380D01*
X117248820Y-94650431D01*
X116926712Y-94403623D01*
X116926263Y-94194064D01*
X116925814Y-93984506D01*
X117447028Y-93992524D01*
G37*
G36*
X119883402Y-93985183D02*
G01*
X119968250Y-94069146D01*
X120053097Y-94153108D01*
X120053097Y-94859871D01*
X119912609Y-94998247D01*
X119465814Y-94998247D01*
X119465814Y-94808914D01*
X119686045Y-94808914D01*
X119763126Y-94804477D01*
X119840207Y-94800039D01*
X119843058Y-94495386D01*
X119845909Y-94190732D01*
X119686045Y-94190732D01*
X119686045Y-94808914D01*
X119465814Y-94808914D01*
X119465814Y-93985183D01*
X119883402Y-93985183D01*
G37*
G36*
X110529411Y-96889005D02*
G01*
X110560044Y-96826532D01*
X110612283Y-96777087D01*
X110616903Y-96774184D01*
X110680164Y-96749682D01*
X110750313Y-96744541D01*
X110816765Y-96758341D01*
X110861516Y-96783869D01*
X110915411Y-96845310D01*
X110944281Y-96914176D01*
X110948388Y-96985138D01*
X110927995Y-97052865D01*
X110883364Y-97112027D01*
X110843896Y-97141910D01*
X110782738Y-97165183D01*
X110713655Y-97170200D01*
X110648910Y-97156904D01*
X110621402Y-97142981D01*
X110566380Y-97091494D01*
X110532656Y-97027796D01*
X110522591Y-96971071D01*
X110645140Y-96971071D01*
X110661759Y-97013679D01*
X110670358Y-97023485D01*
X110713494Y-97049749D01*
X110759128Y-97047582D01*
X110803242Y-97017185D01*
X110803586Y-97016820D01*
X110826611Y-96986192D01*
X110829404Y-96958087D01*
X110824304Y-96940193D01*
X110801097Y-96903657D01*
X110770831Y-96878309D01*
X110741570Y-96864989D01*
X110718658Y-96868000D01*
X110690273Y-96886648D01*
X110654958Y-96926577D01*
X110645140Y-96971071D01*
X110522591Y-96971071D01*
X110520307Y-96958196D01*
X110529411Y-96889005D01*
G37*
G36*
X130180489Y-94179721D02*
G01*
X130176392Y-94374258D01*
X129970843Y-94374258D01*
X129962101Y-94190732D01*
X129816681Y-94190732D01*
X129816681Y-94807380D01*
X129961814Y-94807380D01*
X129966328Y-94744981D01*
X129970843Y-94682582D01*
X130077288Y-94678268D01*
X130183733Y-94673955D01*
X130183733Y-94766913D01*
X130182781Y-94817367D01*
X130176770Y-94851095D01*
X130160969Y-94879018D01*
X130130647Y-94912058D01*
X130113489Y-94929059D01*
X130043245Y-94998247D01*
X129596450Y-94998247D01*
X129596450Y-94138342D01*
X129673993Y-94061763D01*
X129751535Y-93985183D01*
X130184585Y-93985183D01*
X130180489Y-94179721D01*
G37*
G36*
X129523040Y-94190732D02*
G01*
X129258762Y-94190732D01*
X129258762Y-94366917D01*
X129508357Y-94366917D01*
X129508357Y-94572466D01*
X129258762Y-94572466D01*
X129258762Y-94807380D01*
X129537722Y-94807380D01*
X129537722Y-94998247D01*
X129038145Y-94998247D01*
X129042009Y-94495386D01*
X129045872Y-93992524D01*
X129523040Y-93984456D01*
X129523040Y-94190732D01*
G37*
G36*
X114918040Y-93988211D02*
G01*
X115024485Y-93992524D01*
X115024485Y-94990906D01*
X114734514Y-94994887D01*
X114444542Y-94998868D01*
X114444542Y-93985183D01*
X114650092Y-93985183D01*
X114650092Y-94807380D01*
X114811594Y-94807380D01*
X114811594Y-93983897D01*
X114918040Y-93988211D01*
G37*
G36*
X117131363Y-95159750D02*
G01*
X117131363Y-97861253D01*
X115545698Y-97861253D01*
X115545698Y-97347380D01*
X116103618Y-97347380D01*
X116573444Y-97347380D01*
X116573444Y-95688305D01*
X116103618Y-95688305D01*
X116103618Y-97347380D01*
X115545698Y-97347380D01*
X115545698Y-95159750D01*
X117131363Y-95159750D01*
G37*
G36*
X118485662Y-95159750D02*
G01*
X118674755Y-95337603D01*
X118863849Y-95515456D01*
X118863849Y-96270461D01*
X118766949Y-96350105D01*
X118718389Y-96389904D01*
X118675263Y-96425048D01*
X118645128Y-96449383D01*
X118640061Y-96453413D01*
X118629570Y-96463159D01*
X118626642Y-96473436D01*
X118634150Y-96487309D01*
X118654968Y-96507849D01*
X118691972Y-96538124D01*
X118748036Y-96581201D01*
X118788348Y-96611697D01*
X118966623Y-96746319D01*
X118966623Y-97861253D01*
X117722170Y-97861253D01*
X117544223Y-97677159D01*
X117366277Y-97493066D01*
X117366277Y-97347380D01*
X117924196Y-97347380D01*
X118408704Y-97347380D01*
X118408704Y-96745414D01*
X117924196Y-96745414D01*
X117924196Y-97347380D01*
X117366277Y-97347380D01*
X117366277Y-96231542D01*
X117924196Y-96231542D01*
X118320612Y-96231542D01*
X118320612Y-95688305D01*
X117924196Y-95688305D01*
X117924196Y-96231542D01*
X117366277Y-96231542D01*
X117366277Y-95159750D01*
X118485662Y-95159750D01*
G37*
G36*
X121269335Y-93986625D02*
G01*
X121303655Y-93991948D01*
X121322143Y-94002649D01*
X121327750Y-94010877D01*
X121336578Y-94032959D01*
X121352715Y-94077707D01*
X121374329Y-94139881D01*
X121399593Y-94214238D01*
X121418720Y-94271484D01*
X121445093Y-94349967D01*
X121468812Y-94418676D01*
X121488153Y-94472763D01*
X121501391Y-94507378D01*
X121506248Y-94517610D01*
X121511884Y-94511726D01*
X121515006Y-94483865D01*
X121515248Y-94466223D01*
X121515267Y-94428421D01*
X121515729Y-94368758D01*
X121516559Y-94294734D01*
X121517681Y-94213846D01*
X121517983Y-94194403D01*
X121521305Y-93985183D01*
X121712172Y-93985183D01*
X121712172Y-94999533D01*
X121607387Y-94995220D01*
X121502602Y-94990906D01*
X121410009Y-94726628D01*
X121317415Y-94462351D01*
X121316586Y-94730299D01*
X121315756Y-94998247D01*
X121110207Y-94998247D01*
X121110207Y-93985183D01*
X121212465Y-93985183D01*
X121269335Y-93986625D01*
G37*
G36*
X116823040Y-94999533D02*
G01*
X116716830Y-94995220D01*
X116610621Y-94990906D01*
X116522293Y-94734097D01*
X116433964Y-94477287D01*
X116425946Y-94998247D01*
X116221074Y-94998247D01*
X116221074Y-93983897D01*
X116326159Y-93988211D01*
X116431244Y-93992524D01*
X116523399Y-94256802D01*
X116615555Y-94521079D01*
X116620193Y-94256802D01*
X116624831Y-93992524D01*
X116723935Y-93988183D01*
X116823040Y-93983842D01*
X116823040Y-94999533D01*
G37*
G36*
X121788914Y-95163291D02*
G01*
X122571074Y-95167091D01*
X122571074Y-95680964D01*
X122325149Y-95684989D01*
X122079224Y-95689015D01*
X122079224Y-97861253D01*
X121521305Y-97861253D01*
X121521305Y-95688998D01*
X121268040Y-95684981D01*
X121014774Y-95680964D01*
X121006754Y-95159492D01*
X121788914Y-95163291D01*
G37*
G36*
X126432975Y-94026894D02*
G01*
X126426154Y-94050950D01*
X126411197Y-94099197D01*
X126389284Y-94167974D01*
X126361594Y-94253625D01*
X126329307Y-94352492D01*
X126293604Y-94460916D01*
X126270571Y-94530425D01*
X126117624Y-94990906D01*
X126005902Y-94995215D01*
X125949505Y-94996793D01*
X125916905Y-94995335D01*
X125902593Y-94989666D01*
X125901061Y-94978612D01*
X125902545Y-94973192D01*
X125910325Y-94949432D01*
X125925278Y-94904354D01*
X125945235Y-94844480D01*
X125967463Y-94778016D01*
X126024017Y-94609172D01*
X125923586Y-94308582D01*
X125894033Y-94219596D01*
X125867922Y-94139947D01*
X125846610Y-94073861D01*
X125831453Y-94025561D01*
X125823808Y-93999272D01*
X125823155Y-93995945D01*
X125836590Y-93990640D01*
X125872035Y-93987798D01*
X125922199Y-93987952D01*
X125929186Y-93988211D01*
X126035216Y-93992524D01*
X126081792Y-94139345D01*
X126102634Y-94200692D01*
X126120095Y-94243678D01*
X126132539Y-94264630D01*
X126137421Y-94264143D01*
X126145839Y-94240781D01*
X126160561Y-94197278D01*
X126178952Y-94141464D01*
X126186786Y-94117322D01*
X126227100Y-93992524D01*
X126442430Y-93983844D01*
X126432975Y-94026894D01*
G37*
G36*
X118882201Y-93988211D02*
G01*
X118988646Y-93992524D01*
X119078562Y-94253731D01*
X119107314Y-94336320D01*
X119133297Y-94409203D01*
X119154855Y-94467871D01*
X119170331Y-94507814D01*
X119178066Y-94524523D01*
X119178115Y-94524574D01*
X119183912Y-94519112D01*
X119184736Y-94492676D01*
X119184618Y-94490940D01*
X119183698Y-94461489D01*
X119183237Y-94408942D01*
X119183244Y-94339566D01*
X119183730Y-94259625D01*
X119184169Y-94216426D01*
X119186855Y-93985183D01*
X119377722Y-93985183D01*
X119377722Y-94999533D01*
X119272936Y-94995220D01*
X119168151Y-94990906D01*
X119075558Y-94726628D01*
X118982965Y-94462351D01*
X118981305Y-94998247D01*
X118775756Y-94998247D01*
X118775756Y-93983897D01*
X118882201Y-93988211D01*
G37*
G36*
X130462693Y-94396282D02*
G01*
X130638878Y-94396282D01*
X130638878Y-93985183D01*
X130844427Y-93985183D01*
X130844427Y-94998247D01*
X130638878Y-94998247D01*
X130638878Y-94601831D01*
X130550785Y-94601831D01*
X130504672Y-94603491D01*
X130473441Y-94607809D01*
X130464431Y-94612842D01*
X130464959Y-94630941D01*
X130465148Y-94672457D01*
X130465000Y-94731447D01*
X130464514Y-94801966D01*
X130464431Y-94811050D01*
X130462693Y-94998247D01*
X130257144Y-94998247D01*
X130257144Y-93985183D01*
X130462693Y-93985183D01*
X130462693Y-94396282D01*
G37*
G36*
X125757086Y-94183391D02*
G01*
X125665323Y-94187762D01*
X125573560Y-94192134D01*
X125573560Y-94998247D01*
X125368011Y-94998247D01*
X125368011Y-94190732D01*
X125177144Y-94190732D01*
X125177144Y-93985183D01*
X125765768Y-93985183D01*
X125757086Y-94183391D01*
G37*
G36*
X113972937Y-95352297D02*
G01*
X114043693Y-95285602D01*
X114096927Y-95236408D01*
X114136451Y-95202043D01*
X114166077Y-95179831D01*
X114189618Y-95167099D01*
X114210885Y-95161171D01*
X114233692Y-95159374D01*
X114248226Y-95159177D01*
X114319745Y-95158605D01*
X114231652Y-95078782D01*
X114143560Y-94998959D01*
X113949022Y-94998603D01*
X113754485Y-94998247D01*
X113754485Y-94807380D01*
X113974716Y-94807380D01*
X114150901Y-94807380D01*
X114150901Y-94190732D01*
X113974716Y-94190732D01*
X113974716Y-94807380D01*
X113754485Y-94807380D01*
X113754485Y-94138342D01*
X113832027Y-94061763D01*
X113909570Y-93985183D01*
X114356450Y-93985183D01*
X114356450Y-95159750D01*
X115296103Y-95159750D01*
X115296103Y-96877553D01*
X115149282Y-96877553D01*
X115087649Y-96878160D01*
X115038756Y-96879796D01*
X115008820Y-96882184D01*
X115002461Y-96884081D01*
X115007191Y-96898962D01*
X115020629Y-96938298D01*
X115041653Y-96998876D01*
X115069141Y-97077482D01*
X115101969Y-97170904D01*
X115139013Y-97275926D01*
X115171305Y-97367196D01*
X115210958Y-97479365D01*
X115247298Y-97582637D01*
X115279202Y-97673780D01*
X115305546Y-97749561D01*
X115325203Y-97806747D01*
X115337050Y-97842106D01*
X115340149Y-97852518D01*
X115326224Y-97855254D01*
X115287472Y-97857639D01*
X115228432Y-97859530D01*
X115153639Y-97860782D01*
X115067632Y-97861252D01*
X115064610Y-97861253D01*
X114789071Y-97861253D01*
X114628068Y-97376744D01*
X114467066Y-96892235D01*
X114327086Y-96892235D01*
X114327086Y-97861253D01*
X113769167Y-97861253D01*
X113769167Y-96378362D01*
X114327086Y-96378362D01*
X114738184Y-96378362D01*
X114738184Y-95688305D01*
X114327086Y-95688305D01*
X114327086Y-96378362D01*
X113769167Y-96378362D01*
X113769167Y-95544845D01*
X113972937Y-95352297D01*
G37*
G36*
X128965120Y-94190732D02*
G01*
X128788935Y-94190732D01*
X128788935Y-94998247D01*
X128568704Y-94998247D01*
X128568704Y-94192134D01*
X128476941Y-94187762D01*
X128385178Y-94183391D01*
X128376496Y-93985183D01*
X128965120Y-93985183D01*
X128965120Y-94190732D01*
G37*
G36*
X133472519Y-93985183D02*
G01*
X133472519Y-94998247D01*
X132885236Y-94998247D01*
X132885236Y-94807380D01*
X133090785Y-94807380D01*
X133266970Y-94807380D01*
X133266970Y-94190732D01*
X133090785Y-94190732D01*
X133090785Y-94807380D01*
X132885236Y-94807380D01*
X132885236Y-93985183D01*
X133472519Y-93985183D01*
G37*
G36*
X116147664Y-94190732D02*
G01*
X115868704Y-94190732D01*
X115868704Y-94366917D01*
X116132982Y-94366917D01*
X116132982Y-94572466D01*
X115883386Y-94572466D01*
X115883386Y-94807380D01*
X116147664Y-94807380D01*
X116147664Y-94998247D01*
X115663155Y-94998247D01*
X115663155Y-93985183D01*
X116147664Y-93985183D01*
X116147664Y-94190732D01*
G37*
G36*
X134111190Y-94183391D02*
G01*
X133938675Y-94187528D01*
X133766161Y-94191664D01*
X133766161Y-94807380D01*
X133942346Y-94807380D01*
X133942346Y-94734945D01*
X133941080Y-94691562D01*
X133934450Y-94669410D01*
X133918205Y-94660375D01*
X133901970Y-94657864D01*
X133879833Y-94653528D01*
X133867272Y-94642222D01*
X133860978Y-94616822D01*
X133857647Y-94570205D01*
X133857223Y-94561455D01*
X133852852Y-94469692D01*
X134147895Y-94469692D01*
X134147895Y-94998247D01*
X133560612Y-94998247D01*
X133560612Y-93985183D01*
X134119872Y-93985183D01*
X134111190Y-94183391D01*
G37*
G36*
X132092404Y-97347380D02*
G01*
X132532866Y-97347380D01*
X132532866Y-95159750D01*
X133090785Y-95159750D01*
X133090785Y-97861253D01*
X131534485Y-97861253D01*
X131534485Y-95159750D01*
X132092404Y-95159750D01*
X132092404Y-97347380D01*
G37*
G36*
X118199910Y-94069146D02*
G01*
X118284758Y-93985183D01*
X118702346Y-93985183D01*
X118702346Y-94998247D01*
X118496797Y-94998247D01*
X118496797Y-94675241D01*
X118335294Y-94675241D01*
X118335294Y-94998247D01*
X118115063Y-94998247D01*
X118115063Y-94469692D01*
X118335294Y-94469692D01*
X118496797Y-94469692D01*
X118496797Y-94190732D01*
X118335294Y-94190732D01*
X118335294Y-94469692D01*
X118115063Y-94469692D01*
X118115063Y-94153108D01*
X118199910Y-94069146D01*
G37*
G36*
X130536103Y-97347380D02*
G01*
X131297066Y-97347380D01*
X131306636Y-97453825D01*
X131310474Y-97518315D01*
X131312428Y-97598202D01*
X131312229Y-97679560D01*
X131311560Y-97707091D01*
X131306912Y-97853912D01*
X129978030Y-97861552D01*
X129981778Y-96514321D01*
X129985525Y-95167091D01*
X130260814Y-95163096D01*
X130536103Y-95159102D01*
X130536103Y-97347380D01*
G37*
G36*
X127423502Y-93985183D02*
G01*
X127423502Y-94998247D01*
X126836219Y-94998247D01*
X126836219Y-94807380D01*
X127041768Y-94807380D01*
X127217953Y-94807380D01*
X127217953Y-94190732D01*
X127041768Y-94190732D01*
X127041768Y-94807380D01*
X126836219Y-94807380D01*
X126836219Y-93985183D01*
X127423502Y-93985183D01*
G37*
G36*
X123613502Y-93985817D02*
G01*
X123822722Y-93985500D01*
X124031941Y-93985183D01*
X124031941Y-94631195D01*
X123980554Y-94631195D01*
X123946565Y-94632631D01*
X123929602Y-94636162D01*
X123929167Y-94636904D01*
X123933677Y-94652172D01*
X123945976Y-94689640D01*
X123964216Y-94743771D01*
X123986549Y-94809026D01*
X123987895Y-94812931D01*
X124010434Y-94878924D01*
X124028970Y-94934390D01*
X124041648Y-94973691D01*
X124046611Y-94991188D01*
X124046623Y-94991392D01*
X124033188Y-94994813D01*
X123997773Y-94996256D01*
X123947711Y-94995454D01*
X123941684Y-94995220D01*
X123836745Y-94990906D01*
X123776511Y-94814721D01*
X123745482Y-94728028D01*
X123720906Y-94669826D01*
X123702027Y-94640142D01*
X123688090Y-94639000D01*
X123678341Y-94666427D01*
X123672023Y-94722447D01*
X123668383Y-94807087D01*
X123668108Y-94818391D01*
X123663985Y-94998247D01*
X123459340Y-94998247D01*
X123459340Y-94440328D01*
X123664889Y-94440328D01*
X123826392Y-94440328D01*
X123826392Y-94190732D01*
X123664889Y-94190732D01*
X123664889Y-94440328D01*
X123459340Y-94440328D01*
X123459340Y-94134087D01*
X123613502Y-93985817D01*
G37*
G36*
X134507986Y-94124663D02*
G01*
X134526246Y-94183574D01*
X134542331Y-94230178D01*
X134554068Y-94258450D01*
X134558334Y-94264143D01*
X134566485Y-94251131D01*
X134580998Y-94216114D01*
X134599498Y-94165120D01*
X134611859Y-94128334D01*
X134656227Y-93992524D01*
X134761772Y-93988211D01*
X134816745Y-93986751D01*
X134848490Y-93988830D01*
X134863054Y-93995719D01*
X134866485Y-94008691D01*
X134866453Y-94010234D01*
X134861775Y-94030020D01*
X134848881Y-94074236D01*
X134828847Y-94139460D01*
X134802750Y-94222265D01*
X134771666Y-94319229D01*
X134736673Y-94426926D01*
X134708161Y-94513738D01*
X134550732Y-94990906D01*
X134325728Y-94999452D01*
X134454070Y-94616800D01*
X134352662Y-94304662D01*
X134323378Y-94214409D01*
X134297383Y-94134064D01*
X134275969Y-94067641D01*
X134260429Y-94019155D01*
X134252056Y-93992621D01*
X134250961Y-93988854D01*
X134264287Y-93987085D01*
X134299757Y-93985783D01*
X134350153Y-93985195D01*
X134358733Y-93985183D01*
X134466797Y-93985183D01*
X134507986Y-94124663D01*
G37*
G36*
X122772130Y-93986285D02*
G01*
X122810416Y-93989196D01*
X122827682Y-93993323D01*
X122828011Y-93994013D01*
X122826178Y-94012471D01*
X122821048Y-94055785D01*
X122813170Y-94119700D01*
X122803092Y-94199961D01*
X122791365Y-94292315D01*
X122778539Y-94392505D01*
X122765162Y-94496277D01*
X122751785Y-94599377D01*
X122738956Y-94697548D01*
X122727227Y-94786538D01*
X122717145Y-94862090D01*
X122709261Y-94919950D01*
X122704125Y-94955863D01*
X122702567Y-94965212D01*
X122697960Y-94979651D01*
X122688165Y-94989124D01*
X122667843Y-94994675D01*
X122631652Y-94997348D01*
X122574254Y-94998188D01*
X122533628Y-94998247D01*
X122455332Y-94997117D01*
X122403307Y-94993509D01*
X122374539Y-94987090D01*
X122366296Y-94979894D01*
X122362952Y-94960778D01*
X122356530Y-94916806D01*
X122347582Y-94852265D01*
X122336665Y-94771436D01*
X122324332Y-94678604D01*
X122311138Y-94578052D01*
X122297638Y-94474066D01*
X122284387Y-94370927D01*
X122271939Y-94272921D01*
X122260848Y-94184331D01*
X122251670Y-94109441D01*
X122244958Y-94052534D01*
X122241268Y-94017895D01*
X122240727Y-94009990D01*
X122245044Y-93996799D01*
X122261959Y-93989225D01*
X122297419Y-93985838D01*
X122343963Y-93985183D01*
X122408848Y-93987833D01*
X122445306Y-93995833D01*
X122453844Y-94003536D01*
X122457242Y-94022920D01*
X122463094Y-94067094D01*
X122470875Y-94131637D01*
X122480059Y-94212127D01*
X122490122Y-94304142D01*
X122495230Y-94352235D01*
X122505466Y-94445390D01*
X122515224Y-94526469D01*
X122523982Y-94591717D01*
X122531215Y-94637377D01*
X122536399Y-94659693D01*
X122538226Y-94660559D01*
X122542043Y-94640033D01*
X122548143Y-94594796D01*
X122555993Y-94529367D01*
X122565062Y-94448265D01*
X122574816Y-94356009D01*
X122579308Y-94311860D01*
X122612134Y-93985183D01*
X122720072Y-93985183D01*
X122772130Y-93986285D01*
G37*
G36*
X123708935Y-95673623D02*
G01*
X123532751Y-95673623D01*
X123532751Y-97347380D01*
X123708935Y-97347380D01*
X123708935Y-97861253D01*
X122798646Y-97861253D01*
X122798646Y-97347380D01*
X122975074Y-97347380D01*
X122967490Y-95680964D01*
X122883068Y-95676560D01*
X122798646Y-95672157D01*
X122798646Y-95159750D01*
X123708935Y-95159750D01*
X123708935Y-95673623D01*
G37*
G36*
X131173513Y-94091628D02*
G01*
X131194452Y-94150520D01*
X131220948Y-94226306D01*
X131249195Y-94308052D01*
X131269316Y-94366917D01*
X131326696Y-94535761D01*
X131327816Y-94260472D01*
X131328935Y-93985183D01*
X131534485Y-93985183D01*
X131534485Y-94998247D01*
X131321162Y-94998247D01*
X131225945Y-94722958D01*
X131130727Y-94447669D01*
X131126733Y-94722958D01*
X131122738Y-94998247D01*
X130932519Y-94998247D01*
X130932519Y-93985183D01*
X131135089Y-93985183D01*
X131173513Y-94091628D01*
G37*
G36*
X132509417Y-94032900D02*
G01*
X132512044Y-94060693D01*
X132514276Y-94113145D01*
X132516021Y-94185551D01*
X132517184Y-94273208D01*
X132517670Y-94371411D01*
X132517573Y-94440328D01*
X132516142Y-94800039D01*
X132797144Y-94808443D01*
X132797144Y-94998247D01*
X132297953Y-94998247D01*
X132297953Y-93985183D01*
X132499831Y-93985183D01*
X132509417Y-94032900D01*
G37*
G36*
X129772635Y-96187495D02*
G01*
X129214716Y-96187495D01*
X129214716Y-95688305D01*
X128774253Y-95688305D01*
X128774253Y-97347380D01*
X129214716Y-97347380D01*
X129214716Y-97024374D01*
X129772635Y-97024374D01*
X129772635Y-97487232D01*
X129595178Y-97674242D01*
X129417721Y-97861253D01*
X128216334Y-97861253D01*
X128216334Y-95543925D01*
X128417718Y-95351837D01*
X128619102Y-95159750D01*
X129772635Y-95159750D01*
X129772635Y-96187495D01*
G37*
G36*
X117748011Y-94807380D02*
G01*
X118041652Y-94807380D01*
X118041652Y-94998247D01*
X117542461Y-94998247D01*
X117542461Y-93985183D01*
X117748011Y-93985183D01*
X117748011Y-94807380D01*
G37*
G36*
X127981421Y-94190732D02*
G01*
X127717144Y-94190732D01*
X127717144Y-94365730D01*
X127959398Y-94374258D01*
X127959398Y-94565125D01*
X127838271Y-94569390D01*
X127717144Y-94573654D01*
X127717144Y-94998247D01*
X127511594Y-94998247D01*
X127511594Y-94123559D01*
X127581839Y-94054371D01*
X127652083Y-93985183D01*
X127981421Y-93985183D01*
X127981421Y-94190732D01*
G37*
G36*
X122149635Y-94084287D02*
G01*
X122146409Y-94137315D01*
X122140938Y-94167748D01*
X122130786Y-94182353D01*
X122113516Y-94187899D01*
X122112259Y-94188083D01*
X122079224Y-94192775D01*
X122079224Y-94807380D01*
X122115930Y-94807380D01*
X122135661Y-94809053D01*
X122146651Y-94818496D01*
X122151451Y-94842343D01*
X122152614Y-94887227D01*
X122152635Y-94902813D01*
X122152635Y-94998247D01*
X121800265Y-94998247D01*
X121800265Y-94902813D01*
X121800909Y-94851512D01*
X121804540Y-94822938D01*
X121813712Y-94810457D01*
X121830975Y-94807435D01*
X121836970Y-94807380D01*
X121873675Y-94807380D01*
X121873675Y-94192775D01*
X121840641Y-94188083D01*
X121822888Y-94182851D01*
X121812394Y-94168949D01*
X121806721Y-94139606D01*
X121803432Y-94088057D01*
X121803265Y-94084287D01*
X121798923Y-93985183D01*
X122153977Y-93985183D01*
X122149635Y-94084287D01*
G37*
G36*
X127129860Y-95967264D02*
G01*
X126630670Y-95967264D01*
X126630670Y-95688305D01*
X126278300Y-95688305D01*
X126278300Y-96037267D01*
X126711421Y-96372137D01*
X127144542Y-96707008D01*
X127144542Y-97861253D01*
X125705698Y-97861253D01*
X125705698Y-97024374D01*
X126248935Y-97024374D01*
X126248935Y-97347380D01*
X126586623Y-97347380D01*
X126586623Y-96923862D01*
X126154052Y-96588714D01*
X125721480Y-96253565D01*
X125720930Y-95706657D01*
X125720381Y-95159750D01*
X127129860Y-95159750D01*
X127129860Y-95967264D01*
G37*
G36*
X115589745Y-94190732D02*
G01*
X115325467Y-94190732D01*
X115325467Y-94366917D01*
X115575063Y-94366917D01*
X115575063Y-94572466D01*
X115325467Y-94572466D01*
X115325467Y-94806278D01*
X115461277Y-94810499D01*
X115597086Y-94814721D01*
X115597086Y-94990906D01*
X115351161Y-94994931D01*
X115105236Y-94998957D01*
X115105236Y-93985183D01*
X115589745Y-93985183D01*
X115589745Y-94190732D01*
G37*
G36*
X133333040Y-95167091D02*
G01*
X133892251Y-95163248D01*
X134451463Y-95159405D01*
X134637367Y-95337108D01*
X134823271Y-95514810D01*
X134823271Y-96273539D01*
X134698507Y-96375829D01*
X134573744Y-96478119D01*
X134749356Y-96608096D01*
X134924967Y-96738073D01*
X134926045Y-97861253D01*
X133682784Y-97861253D01*
X133325520Y-97481961D01*
X133325957Y-97347380D01*
X133883618Y-97347380D01*
X134368126Y-97347380D01*
X134368126Y-96745414D01*
X133883618Y-96745414D01*
X133883618Y-97347380D01*
X133325957Y-97347380D01*
X133329582Y-96231542D01*
X133883618Y-96231542D01*
X134280034Y-96231542D01*
X134280034Y-95688305D01*
X133883618Y-95688305D01*
X133883618Y-96231542D01*
X133329582Y-96231542D01*
X133333040Y-95167091D01*
G37*
G36*
X120655063Y-94807380D02*
G01*
X120816566Y-94807380D01*
X120816566Y-93985183D01*
X121022115Y-93985183D01*
X121022115Y-94998247D01*
X120449514Y-94998247D01*
X120449514Y-93985183D01*
X120655063Y-93985183D01*
X120655063Y-94807380D01*
G37*
G36*
X125089051Y-94087958D02*
G01*
X125088259Y-94141969D01*
X125084686Y-94172911D01*
X125076539Y-94187063D01*
X125062024Y-94190704D01*
X125059687Y-94190732D01*
X125049922Y-94191846D01*
X125042602Y-94197648D01*
X125037375Y-94211831D01*
X125033889Y-94238090D01*
X125031793Y-94280118D01*
X125030735Y-94341607D01*
X125030363Y-94426251D01*
X125030323Y-94499056D01*
X125030429Y-94601587D01*
X125030981Y-94678448D01*
X125032332Y-94733331D01*
X125034833Y-94769930D01*
X125038836Y-94791938D01*
X125044692Y-94803048D01*
X125052753Y-94806954D01*
X125059687Y-94807380D01*
X125075578Y-94810354D01*
X125084438Y-94823603D01*
X125088263Y-94853615D01*
X125089051Y-94902813D01*
X125089051Y-94998247D01*
X124751363Y-94998247D01*
X124751363Y-94902813D01*
X124752278Y-94851166D01*
X124756355Y-94822372D01*
X124765589Y-94809941D01*
X124780727Y-94807380D01*
X124790492Y-94806267D01*
X124797812Y-94800465D01*
X124803039Y-94786281D01*
X124806525Y-94760022D01*
X124808621Y-94717994D01*
X124809679Y-94656505D01*
X124810051Y-94571861D01*
X124810092Y-94499056D01*
X124809986Y-94396525D01*
X124809433Y-94319664D01*
X124808082Y-94264781D01*
X124805581Y-94228182D01*
X124801579Y-94206174D01*
X124795723Y-94195064D01*
X124787661Y-94191158D01*
X124780727Y-94190732D01*
X124765296Y-94187960D01*
X124756455Y-94175456D01*
X124752412Y-94146941D01*
X124751371Y-94096139D01*
X124751363Y-94087958D01*
X124751363Y-93985183D01*
X125089051Y-93985183D01*
X125089051Y-94087958D01*
G37*
G36*
X123378589Y-94183391D02*
G01*
X123242779Y-94187613D01*
X123106970Y-94191834D01*
X123106970Y-94366917D01*
X123372589Y-94366917D01*
X123363907Y-94565125D01*
X123239109Y-94569308D01*
X123114311Y-94573490D01*
X123116589Y-94686764D01*
X123118868Y-94800039D01*
X123252399Y-94804260D01*
X123385930Y-94808482D01*
X123385930Y-94998247D01*
X122901421Y-94998247D01*
X122901421Y-93985183D01*
X123387271Y-93985183D01*
X123378589Y-94183391D01*
G37*
G36*
X106975212Y-96307904D02*
G01*
X106974714Y-96289579D01*
X108219997Y-96289579D01*
X108472934Y-96294921D01*
X108570637Y-96296565D01*
X108671680Y-96297546D01*
X108766701Y-96297818D01*
X108846337Y-96297339D01*
X108877010Y-96296814D01*
X108947966Y-96294458D01*
X108997116Y-96290240D01*
X109032016Y-96282666D01*
X109060223Y-96270240D01*
X109082559Y-96256135D01*
X109158724Y-96218148D01*
X109233541Y-96207858D01*
X109303871Y-96225183D01*
X109359658Y-96263303D01*
X109402103Y-96286884D01*
X109445634Y-96294643D01*
X109476160Y-96292837D01*
X109502947Y-96282459D01*
X109533377Y-96259032D01*
X109574830Y-96218079D01*
X109578986Y-96213764D01*
X109658184Y-96131349D01*
X109658184Y-94727868D01*
X109764629Y-94628357D01*
X109812301Y-94583187D01*
X109840521Y-94554139D01*
X109851671Y-94537705D01*
X109848133Y-94530373D01*
X109832320Y-94528633D01*
X109788780Y-94532139D01*
X109725276Y-94541885D01*
X109650122Y-94556208D01*
X109571634Y-94573445D01*
X109498129Y-94591932D01*
X109457924Y-94603532D01*
X109361916Y-94633186D01*
X109367221Y-94922161D01*
X109369290Y-95022595D01*
X109371640Y-95098335D01*
X109374782Y-95154053D01*
X109379228Y-95194418D01*
X109385487Y-95224101D01*
X109394072Y-95247771D01*
X109405239Y-95269648D01*
X109433615Y-95345671D01*
X109432990Y-95418823D01*
X109403707Y-95487397D01*
X109349955Y-95546492D01*
X109283924Y-95584827D01*
X109213041Y-95596141D01*
X109142677Y-95580943D01*
X109078201Y-95539739D01*
X109057677Y-95518878D01*
X109017784Y-95459319D01*
X109002518Y-95396150D01*
X109004077Y-95382788D01*
X109118376Y-95382788D01*
X109139296Y-95421441D01*
X109145377Y-95429388D01*
X109185311Y-95461085D01*
X109229909Y-95465402D01*
X109273126Y-95441910D01*
X109276450Y-95438709D01*
X109302260Y-95395878D01*
X109300227Y-95351165D01*
X109270778Y-95310615D01*
X109267129Y-95307636D01*
X109226537Y-95282500D01*
X109193284Y-95281951D01*
X109157982Y-95306442D01*
X109150985Y-95313244D01*
X109122121Y-95349852D01*
X109118376Y-95382788D01*
X109004077Y-95382788D01*
X109011022Y-95323276D01*
X109024168Y-95280599D01*
X109039065Y-95223966D01*
X109051454Y-95149167D01*
X109060607Y-95065222D01*
X109065795Y-94981154D01*
X109066290Y-94905982D01*
X109061362Y-94848728D01*
X109059722Y-94840488D01*
X109048878Y-94792844D01*
X108906893Y-94902377D01*
X108765654Y-95025462D01*
X108634562Y-95167182D01*
X108519924Y-95319975D01*
X108428044Y-95476283D01*
X108427825Y-95476717D01*
X108382811Y-95566113D01*
X108506908Y-95689608D01*
X108631006Y-95813102D01*
X108819784Y-95817904D01*
X109008562Y-95822705D01*
X109040889Y-95777306D01*
X109093769Y-95724971D01*
X109157160Y-95695504D01*
X109225287Y-95687685D01*
X109292373Y-95700291D01*
X109352642Y-95732101D01*
X109400318Y-95781893D01*
X109429623Y-95848446D01*
X109432126Y-95860054D01*
X109432972Y-95934813D01*
X109409759Y-96002376D01*
X109367132Y-96058358D01*
X109309740Y-96098375D01*
X109242230Y-96118041D01*
X109169249Y-96112973D01*
X109165210Y-96111901D01*
X109120794Y-96092658D01*
X109074638Y-96062607D01*
X109064891Y-96054556D01*
X109015637Y-96011310D01*
X108524292Y-96011310D01*
X108413858Y-95903842D01*
X109114947Y-95903842D01*
X109126622Y-95932241D01*
X109154802Y-95963371D01*
X109189221Y-95987903D01*
X109217054Y-95996628D01*
X109249559Y-95986641D01*
X109276450Y-95967264D01*
X109300225Y-95926174D01*
X109301011Y-95881232D01*
X109282159Y-95840764D01*
X109247022Y-95813100D01*
X109211446Y-95805761D01*
X109177468Y-95817781D01*
X109143529Y-95846877D01*
X109119906Y-95882603D01*
X109114947Y-95903842D01*
X108413858Y-95903842D01*
X108409959Y-95900048D01*
X108295626Y-95788785D01*
X108272618Y-95889942D01*
X108258953Y-95958031D01*
X108247221Y-96030341D01*
X108241331Y-96078286D01*
X108235444Y-96139083D01*
X108229452Y-96199121D01*
X108226524Y-96227526D01*
X108219997Y-96289579D01*
X106974714Y-96289579D01*
X106973135Y-96231539D01*
X106972737Y-96166861D01*
X106973810Y-96129056D01*
X106978704Y-96048594D01*
X107242350Y-96001402D01*
X107334977Y-95984879D01*
X107425183Y-95968889D01*
X107505917Y-95954676D01*
X107570126Y-95943482D01*
X107603365Y-95937787D01*
X107700733Y-95921363D01*
X107718405Y-95825456D01*
X107732346Y-95761240D01*
X107751759Y-95685862D01*
X107771972Y-95617163D01*
X107788860Y-95562399D01*
X107801530Y-95517716D01*
X107807763Y-95491048D01*
X107808054Y-95488176D01*
X107797275Y-95474482D01*
X107766912Y-95444976D01*
X107720092Y-95402460D01*
X107659942Y-95349734D01*
X107589588Y-95289602D01*
X107540294Y-95248227D01*
X107464847Y-95185030D01*
X107397270Y-95127833D01*
X107340740Y-95079375D01*
X107298435Y-95042393D01*
X107273530Y-95019624D01*
X107268184Y-95013760D01*
X107273719Y-94998101D01*
X107291276Y-94962451D01*
X107317895Y-94912076D01*
X107350617Y-94852238D01*
X107386482Y-94788202D01*
X107422529Y-94725232D01*
X107455800Y-94668592D01*
X107483334Y-94623546D01*
X107502172Y-94595359D01*
X107506246Y-94590361D01*
X107516862Y-94586059D01*
X107537867Y-94587426D01*
X107572268Y-94595344D01*
X107623075Y-94610693D01*
X107693296Y-94634355D01*
X107785939Y-94667212D01*
X107858851Y-94693641D01*
X108193795Y-94815732D01*
X108353388Y-94654699D01*
X108408353Y-94598641D01*
X108455136Y-94549786D01*
X108490180Y-94511941D01*
X108509929Y-94488912D01*
X108512982Y-94483938D01*
X108508190Y-94467954D01*
X108494739Y-94428320D01*
X108474013Y-94368979D01*
X108447396Y-94293874D01*
X108416274Y-94206948D01*
X108394567Y-94146757D01*
X108356329Y-94040049D01*
X108327723Y-93957610D01*
X108307849Y-93896299D01*
X108295805Y-93852973D01*
X108290691Y-93824492D01*
X108291606Y-93807714D01*
X108295463Y-93801143D01*
X108314370Y-93787840D01*
X108352514Y-93764100D01*
X108404595Y-93732962D01*
X108465307Y-93697465D01*
X108529348Y-93660649D01*
X108591415Y-93625553D01*
X108646204Y-93595217D01*
X108688412Y-93572680D01*
X108712736Y-93560981D01*
X108716201Y-93560010D01*
X108727897Y-93570999D01*
X108755576Y-93601538D01*
X108796543Y-93648518D01*
X108848109Y-93708825D01*
X108907579Y-93779350D01*
X108951221Y-93831629D01*
X109015209Y-93907485D01*
X109074033Y-93975150D01*
X109124833Y-94031497D01*
X109164746Y-94073399D01*
X109190908Y-94097728D01*
X109199298Y-94102640D01*
X109222612Y-94098353D01*
X109266326Y-94086852D01*
X109322975Y-94070176D01*
X109355683Y-94059939D01*
X109423211Y-94039607D01*
X109488745Y-94021987D01*
X109541519Y-94009902D01*
X109556520Y-94007268D01*
X109623700Y-93997299D01*
X109687238Y-93638542D01*
X109750776Y-93279784D01*
X110267130Y-93287784D01*
X110321539Y-93596108D01*
X110338240Y-93690643D01*
X110353700Y-93777963D01*
X110367020Y-93852992D01*
X110377296Y-93910651D01*
X110383626Y-93945864D01*
X110384555Y-93950932D01*
X110393619Y-93981234D01*
X110412294Y-93997369D01*
X110449964Y-94006897D01*
X110455124Y-94007775D01*
X110495788Y-94016272D01*
X110555249Y-94030798D01*
X110624159Y-94049007D01*
X110668344Y-94061347D01*
X110731391Y-94078643D01*
X110784031Y-94091732D01*
X110819872Y-94099108D01*
X110832027Y-94099937D01*
X110844684Y-94087782D01*
X110873214Y-94056325D01*
X110914745Y-94008865D01*
X110966403Y-93948702D01*
X111025317Y-93879136D01*
X111053380Y-93845703D01*
X111115227Y-93771918D01*
X111171534Y-93704934D01*
X111219295Y-93648311D01*
X111255502Y-93605611D01*
X111277150Y-93580395D01*
X111281171Y-93575880D01*
X111292138Y-93570065D01*
X111310560Y-93571993D01*
X111340297Y-93583302D01*
X111385209Y-93605632D01*
X111449154Y-93640619D01*
X111495844Y-93666993D01*
X111565896Y-93707110D01*
X111628357Y-93743410D01*
X111678055Y-93772848D01*
X111709821Y-93792378D01*
X111717176Y-93797336D01*
X111724514Y-93804971D01*
X111727972Y-93816768D01*
X111726618Y-93836101D01*
X111719522Y-93866340D01*
X111705753Y-93910858D01*
X111684379Y-93973026D01*
X111654469Y-94056215D01*
X111618682Y-94154027D01*
X111494664Y-94491715D01*
X111651636Y-94649547D01*
X111707376Y-94704510D01*
X111756726Y-94751144D01*
X111795664Y-94785807D01*
X111820170Y-94804852D01*
X111825737Y-94807380D01*
X111843865Y-94802535D01*
X111885483Y-94788939D01*
X111946531Y-94767997D01*
X112022948Y-94741114D01*
X112110672Y-94709698D01*
X112168929Y-94688570D01*
X112261157Y-94655644D01*
X112344285Y-94627261D01*
X112414347Y-94604670D01*
X112467377Y-94589120D01*
X112499410Y-94581859D01*
X112507046Y-94582125D01*
X112522362Y-94603084D01*
X112547215Y-94642828D01*
X112578727Y-94696164D01*
X112614020Y-94757899D01*
X112650218Y-94822841D01*
X112684444Y-94885796D01*
X112713819Y-94941573D01*
X112735467Y-94984977D01*
X112746510Y-95010817D01*
X112747176Y-95015495D01*
X112733956Y-95028379D01*
X112701677Y-95056897D01*
X112653912Y-95097981D01*
X112594238Y-95148557D01*
X112526227Y-95205556D01*
X112516509Y-95213654D01*
X112444452Y-95273881D01*
X112377201Y-95330527D01*
X112319167Y-95379842D01*
X112274760Y-95418076D01*
X112248391Y-95441482D01*
X112247793Y-95442039D01*
X112201967Y-95484849D01*
X112237728Y-95597458D01*
X112258993Y-95669276D01*
X112279787Y-95747450D01*
X112294960Y-95812145D01*
X112306056Y-95862895D01*
X112315119Y-95900731D01*
X112320317Y-95918032D01*
X112320513Y-95918303D01*
X112335164Y-95921582D01*
X112373941Y-95928909D01*
X112432020Y-95939445D01*
X112504571Y-95952355D01*
X112586767Y-95966801D01*
X112673781Y-95981946D01*
X112760786Y-95996953D01*
X112842954Y-96010986D01*
X112915458Y-96023207D01*
X112973470Y-96032779D01*
X113012163Y-96038866D01*
X113026342Y-96040675D01*
X113029146Y-96054579D01*
X113031575Y-96093182D01*
X113033474Y-96151819D01*
X113034687Y-96225826D01*
X113035063Y-96301375D01*
X113035063Y-96562075D01*
X112676335Y-96626586D01*
X112317607Y-96691098D01*
X112293949Y-96797437D01*
X112276770Y-96868421D01*
X112255253Y-96948871D01*
X112235868Y-97015342D01*
X112201446Y-97126910D01*
X112371166Y-97270179D01*
X112441555Y-97329452D01*
X112514326Y-97390482D01*
X112581742Y-97446794D01*
X112636065Y-97491916D01*
X112644824Y-97499148D01*
X112690919Y-97537235D01*
X112727654Y-97567739D01*
X112749702Y-97586230D01*
X112753554Y-97589586D01*
X112747701Y-97602488D01*
X112729913Y-97635746D01*
X112703046Y-97684346D01*
X112669957Y-97743278D01*
X112633502Y-97807529D01*
X112596536Y-97872088D01*
X112561917Y-97931942D01*
X112532500Y-97982080D01*
X112511141Y-98017489D01*
X112500889Y-98032952D01*
X112487000Y-98028949D01*
X112449304Y-98016184D01*
X112391572Y-97995986D01*
X112317572Y-97969683D01*
X112231077Y-97938602D01*
X112161071Y-97913245D01*
X111823791Y-97790683D01*
X111496201Y-98114961D01*
X111544794Y-98248714D01*
X111568592Y-98314152D01*
X111598812Y-98397148D01*
X111631803Y-98487679D01*
X111663913Y-98575722D01*
X111668107Y-98587214D01*
X111698251Y-98671988D01*
X111717881Y-98732913D01*
X111727840Y-98773221D01*
X111728969Y-98796143D01*
X111724581Y-98803834D01*
X111706147Y-98815012D01*
X111667108Y-98838158D01*
X111612233Y-98870463D01*
X111546291Y-98909115D01*
X111503255Y-98934268D01*
X111425666Y-98979050D01*
X111369314Y-99010043D01*
X111330459Y-99028894D01*
X111305360Y-99037250D01*
X111290275Y-99036760D01*
X111283024Y-99031257D01*
X111268901Y-99014163D01*
X111238768Y-98978135D01*
X111195564Y-98926673D01*
X111142227Y-98863275D01*
X111081696Y-98791439D01*
X111049097Y-98752793D01*
X110832323Y-98495902D01*
X110720850Y-98530295D01*
X110647492Y-98551578D01*
X110566267Y-98573115D01*
X110501238Y-98588747D01*
X110445993Y-98601760D01*
X110412996Y-98612933D01*
X110395709Y-98626223D01*
X110387593Y-98645583D01*
X110384867Y-98659139D01*
X110379845Y-98687233D01*
X110370536Y-98739158D01*
X110357849Y-98809844D01*
X110342695Y-98894223D01*
X110325983Y-98987225D01*
X110321207Y-99013796D01*
X110265780Y-99322120D01*
X109751768Y-99330116D01*
X109704697Y-99061840D01*
X109688456Y-98969239D01*
X109672789Y-98879832D01*
X109658876Y-98800364D01*
X109647898Y-98737580D01*
X109641946Y-98703461D01*
X109626267Y-98613357D01*
X109541033Y-98596588D01*
X109486831Y-98584175D01*
X109417271Y-98565834D01*
X109344855Y-98544915D01*
X109323092Y-98538214D01*
X109190386Y-98496608D01*
X109140293Y-98549653D01*
X109114847Y-98578034D01*
X109074831Y-98624396D01*
X109024272Y-98683997D01*
X108967194Y-98752092D01*
X108912713Y-98817770D01*
X108856510Y-98885499D01*
X108806301Y-98945298D01*
X108765211Y-98993501D01*
X108736363Y-99026444D01*
X108722884Y-99040462D01*
X108722728Y-99040566D01*
X108707389Y-99035818D01*
X108671891Y-99019118D01*
X108621432Y-98993325D01*
X108561207Y-98961296D01*
X108496415Y-98925890D01*
X108432253Y-98889963D01*
X108373918Y-98856374D01*
X108326607Y-98827981D01*
X108295517Y-98807640D01*
X108287606Y-98801311D01*
X108288974Y-98784713D01*
X108299457Y-98744541D01*
X108317820Y-98684699D01*
X108342825Y-98609092D01*
X108373236Y-98521625D01*
X108397722Y-98453669D01*
X108520323Y-98118189D01*
X108356704Y-97955876D01*
X108193086Y-97793562D01*
X107857562Y-97914814D01*
X107764102Y-97948053D01*
X107679918Y-97976970D01*
X107608882Y-98000317D01*
X107554861Y-98016851D01*
X107521727Y-98025325D01*
X107512978Y-98025741D01*
X107500598Y-98007494D01*
X107477468Y-97969906D01*
X107446598Y-97918182D01*
X107410996Y-97857528D01*
X107373670Y-97793149D01*
X107337629Y-97730252D01*
X107305880Y-97674042D01*
X107281434Y-97629724D01*
X107267297Y-97602505D01*
X107265005Y-97596660D01*
X107275467Y-97580070D01*
X107299809Y-97557824D01*
X107327967Y-97535208D01*
X107373474Y-97497724D01*
X107431343Y-97449566D01*
X107496587Y-97394930D01*
X107564219Y-97338009D01*
X107629252Y-97282998D01*
X107686700Y-97234093D01*
X107731576Y-97195487D01*
X107754284Y-97175546D01*
X107810441Y-97125238D01*
X107757908Y-96931656D01*
X107738582Y-96858727D01*
X107722463Y-96794643D01*
X107711000Y-96745405D01*
X107705639Y-96717014D01*
X107705421Y-96713979D01*
X107704619Y-96706637D01*
X107700247Y-96700115D01*
X107689406Y-96693749D01*
X107669198Y-96686877D01*
X107636722Y-96678834D01*
X107589079Y-96668957D01*
X107523369Y-96656584D01*
X107436693Y-96641050D01*
X107326152Y-96621693D01*
X107225931Y-96604282D01*
X106988649Y-96563112D01*
X106987198Y-96537113D01*
X108241388Y-96537113D01*
X108246479Y-96586206D01*
X108259694Y-96664232D01*
X108283704Y-96759425D01*
X108315740Y-96862910D01*
X108353032Y-96965811D01*
X108392813Y-97059251D01*
X108396456Y-97066967D01*
X108426321Y-97125593D01*
X108462474Y-97190476D01*
X108501730Y-97256600D01*
X108540901Y-97318952D01*
X108576800Y-97372516D01*
X108606243Y-97412276D01*
X108626041Y-97433219D01*
X108630438Y-97435203D01*
X108636114Y-97422382D01*
X108640901Y-97390380D01*
X108641670Y-97381142D01*
X108645423Y-97350725D01*
X108653923Y-97322909D01*
X108670143Y-97293696D01*
X108697053Y-97259091D01*
X108737626Y-97215098D01*
X108794834Y-97157719D01*
X108842139Y-97111555D01*
X108907131Y-97047058D01*
X108952877Y-96997907D01*
X108982436Y-96960350D01*
X108986079Y-96953762D01*
X109117173Y-96953762D01*
X109121939Y-96982475D01*
X109148410Y-97015108D01*
X109150985Y-97017700D01*
X109187593Y-97046564D01*
X109220529Y-97050309D01*
X109259181Y-97029389D01*
X109267129Y-97023308D01*
X109298825Y-96983374D01*
X109303143Y-96938776D01*
X109279651Y-96895560D01*
X109276450Y-96892235D01*
X109232800Y-96865231D01*
X109188112Y-96865608D01*
X109148626Y-96892298D01*
X109131827Y-96916964D01*
X109117173Y-96953762D01*
X108986079Y-96953762D01*
X108998866Y-96930635D01*
X109004119Y-96912893D01*
X109027366Y-96855093D01*
X109070172Y-96800237D01*
X109123607Y-96758382D01*
X109153343Y-96744856D01*
X109225100Y-96735180D01*
X109293838Y-96750513D01*
X109354321Y-96786583D01*
X109401318Y-96839120D01*
X109429593Y-96903851D01*
X109434202Y-96974079D01*
X109412562Y-97050979D01*
X109368319Y-97110448D01*
X109303737Y-97150664D01*
X109221083Y-97169809D01*
X109188802Y-97171195D01*
X109153828Y-97172006D01*
X109126895Y-97176955D01*
X109101536Y-97189811D01*
X109071283Y-97214345D01*
X109029669Y-97254329D01*
X109006242Y-97277640D01*
X108959282Y-97325922D01*
X108919131Y-97369832D01*
X108891242Y-97403268D01*
X108882451Y-97416154D01*
X108874267Y-97445990D01*
X108868389Y-97495273D01*
X108865930Y-97554112D01*
X108865924Y-97562975D01*
X108866497Y-97677727D01*
X108933543Y-97727077D01*
X109094377Y-97832325D01*
X109270032Y-97923923D01*
X109450561Y-97997111D01*
X109579879Y-98036223D01*
X109649391Y-98054279D01*
X109698476Y-98064859D01*
X109730670Y-98064481D01*
X109749505Y-98049663D01*
X109758517Y-98016924D01*
X109761240Y-97962780D01*
X109761206Y-97883749D01*
X109761183Y-97857582D01*
X109762119Y-97780909D01*
X109764534Y-97713924D01*
X109768097Y-97662518D01*
X109772476Y-97632584D01*
X109774088Y-97628349D01*
X109788094Y-97611887D01*
X109819296Y-97578320D01*
X109864168Y-97531344D01*
X109919179Y-97474655D01*
X109977334Y-97415458D01*
X110048000Y-97343082D01*
X110100007Y-97287485D01*
X110136077Y-97245319D01*
X110158929Y-97213235D01*
X110171285Y-97187883D01*
X110175217Y-97171862D01*
X110176557Y-97147072D01*
X110177507Y-97096091D01*
X110178067Y-97022088D01*
X110178236Y-96928234D01*
X110178016Y-96817699D01*
X110177405Y-96693653D01*
X110176405Y-96559267D01*
X110175221Y-96436804D01*
X110173946Y-96295181D01*
X110173186Y-96160456D01*
X110172930Y-96035912D01*
X110173163Y-95924832D01*
X110173872Y-95830498D01*
X110175042Y-95756194D01*
X110176661Y-95705202D01*
X110178363Y-95682748D01*
X110182942Y-95658421D01*
X110190600Y-95635996D01*
X110204106Y-95612012D01*
X110226231Y-95583012D01*
X110259745Y-95545535D01*
X110307417Y-95496121D01*
X110372018Y-95431313D01*
X110409586Y-95393986D01*
X110424547Y-95379314D01*
X110641883Y-95379314D01*
X110654764Y-95417709D01*
X110686626Y-95450191D01*
X110727304Y-95467304D01*
X110737317Y-95468073D01*
X110775295Y-95457862D01*
X110803386Y-95438709D01*
X110825403Y-95406478D01*
X110832751Y-95379314D01*
X110821761Y-95347024D01*
X110795180Y-95312462D01*
X110762584Y-95285877D01*
X110737317Y-95277206D01*
X110707138Y-95288964D01*
X110674835Y-95317405D01*
X110649988Y-95352279D01*
X110641883Y-95379314D01*
X110424547Y-95379314D01*
X110492954Y-95312229D01*
X110559652Y-95249790D01*
X110613096Y-95204569D01*
X110656703Y-95174465D01*
X110693888Y-95157377D01*
X110728068Y-95151205D01*
X110762660Y-95153847D01*
X110789946Y-95160084D01*
X110858575Y-95191694D01*
X110908493Y-95240895D01*
X110938931Y-95302035D01*
X110949122Y-95369460D01*
X110938298Y-95437519D01*
X110905692Y-95500557D01*
X110850535Y-95552923D01*
X110843896Y-95557263D01*
X110811281Y-95574137D01*
X110776283Y-95581639D01*
X110727982Y-95581459D01*
X110700612Y-95579459D01*
X110605178Y-95571463D01*
X110509745Y-95676888D01*
X110414311Y-95782314D01*
X110399629Y-97329908D01*
X110211803Y-97509435D01*
X110149030Y-97570597D01*
X110092631Y-97627724D01*
X110046591Y-97676609D01*
X110014897Y-97713045D01*
X110002583Y-97730332D01*
X109990879Y-97768027D01*
X109983870Y-97828359D01*
X109981229Y-97914343D01*
X109981190Y-97928641D01*
X109981190Y-98085580D01*
X110148167Y-98078211D01*
X110216300Y-98074408D01*
X110274119Y-98069695D01*
X110315005Y-98064708D01*
X110331693Y-98060614D01*
X110340406Y-98040586D01*
X110346123Y-97996049D01*
X110348240Y-97931757D01*
X110348242Y-97929722D01*
X110351452Y-97849030D01*
X110361058Y-97796596D01*
X110368912Y-97780097D01*
X110384387Y-97762580D01*
X110417935Y-97727342D01*
X110466717Y-97677274D01*
X110527892Y-97615267D01*
X110598621Y-97544212D01*
X110676063Y-97467001D01*
X110693034Y-97450154D01*
X110771694Y-97371497D01*
X110844226Y-97297757D01*
X110907769Y-97231937D01*
X110959465Y-97177040D01*
X110996453Y-97136069D01*
X111015874Y-97112026D01*
X111017393Y-97109525D01*
X111028992Y-97071372D01*
X111035880Y-97008672D01*
X111038292Y-96919233D01*
X111038300Y-96913050D01*
X111035691Y-96822808D01*
X111026361Y-96755381D01*
X111008052Y-96704562D01*
X110978505Y-96664143D01*
X110935464Y-96627917D01*
X110934294Y-96627081D01*
X110906577Y-96609131D01*
X110884103Y-96603850D01*
X110854681Y-96610605D01*
X110825333Y-96621427D01*
X110746384Y-96638192D01*
X110671374Y-96629683D01*
X110605629Y-96598363D01*
X110554474Y-96546697D01*
X110524581Y-96482251D01*
X110519796Y-96428684D01*
X110641883Y-96428684D01*
X110653903Y-96462662D01*
X110682999Y-96496602D01*
X110718726Y-96520224D01*
X110739964Y-96525183D01*
X110763758Y-96515487D01*
X110793929Y-96491870D01*
X110796713Y-96489145D01*
X110827032Y-96444725D01*
X110828125Y-96401636D01*
X110803386Y-96363680D01*
X110762297Y-96339905D01*
X110717354Y-96339119D01*
X110676886Y-96357971D01*
X110649222Y-96393109D01*
X110641883Y-96428684D01*
X110519796Y-96428684D01*
X110518259Y-96411471D01*
X110535698Y-96344971D01*
X110572287Y-96287044D01*
X110623417Y-96241982D01*
X110684475Y-96214077D01*
X110750853Y-96207623D01*
X110805193Y-96220999D01*
X110829405Y-96237256D01*
X110869572Y-96270873D01*
X110921565Y-96317789D01*
X110981250Y-96373947D01*
X111044496Y-96435287D01*
X111107173Y-96497749D01*
X111165147Y-96557276D01*
X111214289Y-96609808D01*
X111250465Y-96651286D01*
X111269022Y-96676685D01*
X111276025Y-96704264D01*
X111281427Y-96754700D01*
X111285197Y-96821527D01*
X111287304Y-96898281D01*
X111287717Y-96978494D01*
X111286406Y-97055703D01*
X111283339Y-97123440D01*
X111278486Y-97175242D01*
X111271815Y-97204643D01*
X111271544Y-97205195D01*
X111257432Y-97223241D01*
X111225165Y-97259234D01*
X111177386Y-97310391D01*
X111116739Y-97373930D01*
X111045867Y-97447069D01*
X110967414Y-97527025D01*
X110926515Y-97568342D01*
X110831783Y-97664201D01*
X110756220Y-97741775D01*
X110697914Y-97803218D01*
X110654956Y-97850686D01*
X110625433Y-97886336D01*
X110607435Y-97912322D01*
X110599050Y-97930802D01*
X110597837Y-97939065D01*
X110603146Y-97968022D01*
X110614491Y-97978709D01*
X110639588Y-97971873D01*
X110684282Y-97953328D01*
X110742726Y-97926024D01*
X110809073Y-97892908D01*
X110877474Y-97856929D01*
X110942084Y-97821035D01*
X110997053Y-97788174D01*
X111013633Y-97777470D01*
X111096721Y-97716299D01*
X111187310Y-97639669D01*
X111276678Y-97555678D01*
X111356102Y-97472422D01*
X111404277Y-97414842D01*
X111464080Y-97337326D01*
X111464080Y-96981237D01*
X111463861Y-96867520D01*
X111463044Y-96779390D01*
X111461388Y-96713075D01*
X111458656Y-96664800D01*
X111454605Y-96630791D01*
X111448998Y-96607275D01*
X111441594Y-96590476D01*
X111438983Y-96586177D01*
X111421602Y-96565110D01*
X111386377Y-96527035D01*
X111336592Y-96475333D01*
X111275532Y-96413387D01*
X111206482Y-96344581D01*
X111160836Y-96299703D01*
X110907786Y-96052200D01*
X110859913Y-96086289D01*
X110794398Y-96116295D01*
X110723018Y-96121802D01*
X110652947Y-96104621D01*
X110591358Y-96066563D01*
X110545424Y-96009440D01*
X110543857Y-96006482D01*
X110520713Y-95934667D01*
X110521554Y-95909203D01*
X110641883Y-95909203D01*
X110652873Y-95941493D01*
X110679454Y-95976054D01*
X110712050Y-96002640D01*
X110737317Y-96011310D01*
X110763036Y-96001541D01*
X110794158Y-95977772D01*
X110796713Y-95975273D01*
X110821517Y-95942172D01*
X110832699Y-95910861D01*
X110832751Y-95909203D01*
X110819870Y-95870808D01*
X110788008Y-95838325D01*
X110747330Y-95821213D01*
X110737317Y-95820443D01*
X110696034Y-95832423D01*
X110661110Y-95862057D01*
X110642711Y-95899891D01*
X110641883Y-95909203D01*
X110521554Y-95909203D01*
X110523011Y-95865090D01*
X110546890Y-95801881D01*
X110588488Y-95749169D01*
X110643945Y-95711084D01*
X110709398Y-95691756D01*
X110780987Y-95695314D01*
X110822211Y-95708795D01*
X110848903Y-95726260D01*
X110890980Y-95760727D01*
X110943586Y-95807925D01*
X111001867Y-95863579D01*
X111030708Y-95892321D01*
X111086658Y-95948197D01*
X111135653Y-95995820D01*
X111173905Y-96031614D01*
X111197632Y-96052001D01*
X111203223Y-96055357D01*
X111206990Y-96041486D01*
X111210222Y-96003119D01*
X111212140Y-95958046D01*
X111437399Y-95958046D01*
X111437642Y-96061707D01*
X111440236Y-96150075D01*
X111445069Y-96217034D01*
X111446867Y-96231542D01*
X111462479Y-96341657D01*
X111669629Y-96536495D01*
X111669629Y-96731984D01*
X111670592Y-96813980D01*
X111673374Y-96872937D01*
X111677812Y-96906725D01*
X111683465Y-96913524D01*
X111692886Y-96894177D01*
X111707298Y-96853074D01*
X111724475Y-96796921D01*
X111736818Y-96752756D01*
X111753340Y-96686425D01*
X111765214Y-96624477D01*
X111773441Y-96558690D01*
X111779023Y-96480841D01*
X111782961Y-96382709D01*
X111783316Y-96371021D01*
X111783780Y-96204619D01*
X111773392Y-96056571D01*
X111750404Y-95917883D01*
X111713070Y-95779558D01*
X111659641Y-95632602D01*
X111622900Y-95545154D01*
X111589233Y-95472234D01*
X111564030Y-95427297D01*
X111547207Y-95410238D01*
X111538678Y-95420948D01*
X111537490Y-95438198D01*
X111528205Y-95466318D01*
X111504828Y-95503176D01*
X111492741Y-95518018D01*
X111447992Y-95568984D01*
X111439624Y-95845205D01*
X111437399Y-95958046D01*
X111212140Y-95958046D01*
X111212690Y-95945119D01*
X111214165Y-95872353D01*
X111214485Y-95815747D01*
X111214485Y-95576137D01*
X111170653Y-95527042D01*
X111129224Y-95461726D01*
X111112983Y-95391992D01*
X111113868Y-95382819D01*
X111244074Y-95382819D01*
X111255641Y-95425222D01*
X111285595Y-95452706D01*
X111325968Y-95463313D01*
X111368798Y-95455083D01*
X111406117Y-95426056D01*
X111408297Y-95423223D01*
X111425680Y-95378863D01*
X111417459Y-95335177D01*
X111386290Y-95300827D01*
X111367948Y-95291623D01*
X111318356Y-95285822D01*
X111277218Y-95304767D01*
X111250686Y-95343930D01*
X111244074Y-95382819D01*
X111113868Y-95382819D01*
X111119635Y-95323060D01*
X111146884Y-95260151D01*
X111192437Y-95208485D01*
X111253998Y-95173283D01*
X111329273Y-95159766D01*
X111332096Y-95159750D01*
X111377239Y-95159750D01*
X111336238Y-95107881D01*
X111290834Y-95058356D01*
X111226446Y-94998799D01*
X111149271Y-94934287D01*
X111065506Y-94869895D01*
X110981348Y-94810699D01*
X110943468Y-94786146D01*
X110805328Y-94709974D01*
X110650277Y-94642432D01*
X110490524Y-94588393D01*
X110377285Y-94560135D01*
X110238126Y-94531367D01*
X110065612Y-94702179D01*
X109893097Y-94872990D01*
X109893097Y-96222732D01*
X109734531Y-96381299D01*
X109575964Y-96539865D01*
X109494552Y-96539865D01*
X109441288Y-96542653D01*
X109407353Y-96552833D01*
X109385205Y-96570733D01*
X109325521Y-96617068D01*
X109255935Y-96640206D01*
X109183495Y-96640001D01*
X109115244Y-96616307D01*
X109065589Y-96577373D01*
X109032039Y-96541171D01*
X108636713Y-96539142D01*
X108241388Y-96537113D01*
X106987198Y-96537113D01*
X106981145Y-96428647D01*
X109125081Y-96428647D01*
X109133794Y-96471346D01*
X109143662Y-96487696D01*
X109175379Y-96505858D01*
X109219175Y-96509113D01*
X109261916Y-96497607D01*
X109278964Y-96486203D01*
X109302619Y-96447177D01*
X109300032Y-96400451D01*
X109282958Y-96366947D01*
X109248622Y-96340926D01*
X109203114Y-96335078D01*
X109157572Y-96350482D01*
X109152011Y-96354261D01*
X109131434Y-96385125D01*
X109125081Y-96428647D01*
X106981145Y-96428647D01*
X106978782Y-96386315D01*
X106975212Y-96307904D01*
G37*
G36*
X124655930Y-93992524D02*
G01*
X124660114Y-94143016D01*
X124664298Y-94293507D01*
X124472404Y-94293507D01*
X124472404Y-94242120D01*
X124470993Y-94210545D01*
X124461434Y-94195593D01*
X124435735Y-94191049D01*
X124406334Y-94190732D01*
X124340265Y-94190732D01*
X124340265Y-94253447D01*
X124340894Y-94278846D01*
X124345204Y-94299376D01*
X124356825Y-94319208D01*
X124379390Y-94342516D01*
X124416531Y-94373471D01*
X124471878Y-94416248D01*
X124501768Y-94439002D01*
X124663271Y-94561843D01*
X124663271Y-94998247D01*
X124120034Y-94998247D01*
X124120034Y-94673955D01*
X124226479Y-94678268D01*
X124332924Y-94682582D01*
X124334128Y-94741310D01*
X124336385Y-94778901D01*
X124346717Y-94795606D01*
X124373601Y-94799898D01*
X124392857Y-94800039D01*
X124450381Y-94800039D01*
X124454721Y-94725752D01*
X124459062Y-94651466D01*
X124297338Y-94527544D01*
X124135614Y-94403623D01*
X124135165Y-94194064D01*
X124134716Y-93984506D01*
X124655930Y-93992524D01*
G37*
G36*
X134926045Y-98610039D02*
G01*
X113769167Y-98610039D01*
X113769167Y-98022756D01*
X134926045Y-98022756D01*
X134926045Y-98610039D01*
G37*
G36*
X132207747Y-93985183D02*
G01*
X132216873Y-94062264D01*
X132219091Y-94096927D01*
X132220805Y-94156367D01*
X132221970Y-94236000D01*
X132222545Y-94331241D01*
X132222485Y-94437507D01*
X132221748Y-94550214D01*
X132221600Y-94565125D01*
X132217201Y-94990906D01*
X131919889Y-94994880D01*
X131622577Y-94998855D01*
X131622577Y-94807380D01*
X131828126Y-94807380D01*
X132004311Y-94807380D01*
X132004311Y-94190732D01*
X131828126Y-94190732D01*
X131828126Y-94807380D01*
X131622577Y-94807380D01*
X131622577Y-93985183D01*
X132207747Y-93985183D01*
G37*
G36*
X120772519Y-95159750D02*
G01*
X120772519Y-97861253D01*
X119186855Y-97861253D01*
X119186855Y-97347380D01*
X119744774Y-97347380D01*
X120214600Y-97347380D01*
X120214600Y-95688305D01*
X119744774Y-95688305D01*
X119744774Y-97347380D01*
X119186855Y-97347380D01*
X119186855Y-95159750D01*
X120772519Y-95159750D01*
G37*
G36*
X125485467Y-96187495D02*
G01*
X124927548Y-96187495D01*
X124927548Y-95688305D01*
X124501768Y-95688305D01*
X124501768Y-97347380D01*
X124927548Y-97347380D01*
X124927548Y-97024374D01*
X125485467Y-97024374D01*
X125485467Y-97496847D01*
X125306822Y-97679050D01*
X125128176Y-97861253D01*
X123943849Y-97861253D01*
X123943849Y-95529897D01*
X124140130Y-95344823D01*
X124336411Y-95159750D01*
X125485467Y-95159750D01*
X125485467Y-96187495D01*
G37*
X155815000Y-66880000D02*
X155815000Y-77120000D01*
X157325000Y-77120000D02*
X152684000Y-77120000D01*
X152684000Y-66880000D02*
X152684000Y-77120000D01*
X157325000Y-66880000D02*
X152684000Y-66880000D01*
X157325000Y-70150000D02*
X155815000Y-70150000D01*
X157325000Y-66880000D02*
X157325000Y-77120000D01*
X157325000Y-73851000D02*
X155815000Y-73851000D01*
X113872389Y-90023425D02*
X113872389Y-91943425D01*
X113872389Y-91943425D02*
X116732389Y-91943425D01*
X116732389Y-90023425D02*
X113872389Y-90023425D01*
X162865772Y-65670000D02*
X164195772Y-65670000D01*
X161535772Y-68270000D02*
X161535772Y-81030000D01*
X161535772Y-81030000D02*
X164195772Y-81030000D01*
X164195772Y-68270000D02*
X164195772Y-81030000D01*
X161535772Y-68270000D02*
X164195772Y-68270000D01*
X164195772Y-65670000D02*
X164195772Y-67000000D01*
X120750000Y-76750000D02*
X107250000Y-76750000D01*
X120750000Y-74500000D02*
X120750000Y-76750000D01*
X107250000Y-69250000D02*
X120750000Y-69250000D01*
X107250000Y-71500000D02*
X107250000Y-69250000D01*
X120750000Y-69250000D02*
X120750000Y-71500000D01*
X107250000Y-76750000D02*
X107250000Y-74500000D01*
X164128007Y-60121000D02*
X164128007Y-57521000D01*
X164128007Y-60121000D02*
X161468007Y-60121000D01*
X161468007Y-62721000D02*
X161468007Y-61391000D01*
X162798007Y-62721000D02*
X161468007Y-62721000D01*
X161468007Y-60121000D02*
X161468007Y-57521000D01*
X164128007Y-57521000D02*
X161468007Y-57521000D01*
X149325000Y-54420000D02*
X149325000Y-64660000D01*
X149325000Y-61391000D02*
X147815000Y-61391000D01*
X149325000Y-57690000D02*
X147815000Y-57690000D01*
X147815000Y-54420000D02*
X147815000Y-64660000D01*
X149325000Y-54420000D02*
X144684000Y-54420000D01*
X144684000Y-54420000D02*
X144684000Y-64660000D01*
X149325000Y-64660000D02*
X144684000Y-64660000D01*
X130372873Y-53527912D02*
X130372873Y-53073784D01*
X128902873Y-53527912D02*
X128902873Y-53073784D01*
X134265000Y-61227064D02*
X134265000Y-60772936D01*
X135735000Y-61227064D02*
X135735000Y-60772936D01*
X153131000Y-86040000D02*
X153131000Y-86785000D01*
X153411000Y-83557000D02*
X153411000Y-83960000D01*
X153331000Y-86040000D02*
X153331000Y-86554000D01*
X153091000Y-83174000D02*
X153091000Y-83960000D01*
X151650000Y-86040000D02*
X151650000Y-87550000D01*
X152851000Y-86040000D02*
X152851000Y-87035000D01*
X152731000Y-82878000D02*
X152731000Y-83960000D01*
X151730000Y-86040000D02*
X151730000Y-87536000D01*
X153051000Y-83136000D02*
X153051000Y-83960000D01*
X152931000Y-86040000D02*
X152931000Y-86971000D01*
X152731000Y-86040000D02*
X152731000Y-87122000D01*
X152531000Y-86040000D02*
X152531000Y-87247000D01*
X148695225Y-83275000D02*
X148695225Y-83775000D01*
X152451000Y-86040000D02*
X152451000Y-87290000D01*
X152211000Y-82602000D02*
X152211000Y-83960000D01*
X152171000Y-86040000D02*
X152171000Y-87414000D01*
X153651000Y-83989000D02*
X153651000Y-86011000D01*
X152571000Y-86040000D02*
X152571000Y-87224000D01*
X153091000Y-86040000D02*
X153091000Y-86826000D01*
X153451000Y-83617000D02*
X153451000Y-83960000D01*
X152211000Y-86040000D02*
X152211000Y-87398000D01*
X153251000Y-83347000D02*
X153251000Y-83960000D01*
X151770000Y-82472000D02*
X151770000Y-83960000D01*
X151650000Y-82450000D02*
X151650000Y-83960000D01*
X153411000Y-86040000D02*
X153411000Y-86443000D01*
X151690000Y-86040000D02*
X151690000Y-87543000D01*
X153171000Y-83257000D02*
X153171000Y-83960000D01*
X151250000Y-82420000D02*
X151250000Y-87580000D01*
X153291000Y-83395000D02*
X153291000Y-83960000D01*
X151971000Y-82520000D02*
X151971000Y-83960000D01*
X153291000Y-86040000D02*
X153291000Y-86605000D01*
X152331000Y-82652000D02*
X152331000Y-83960000D01*
X151930000Y-86040000D02*
X151930000Y-87491000D01*
X152931000Y-83029000D02*
X152931000Y-83960000D01*
X153451000Y-86040000D02*
X153451000Y-86383000D01*
X153851000Y-84716000D02*
X153851000Y-85284000D01*
X152371000Y-86040000D02*
X152371000Y-87329000D01*
X151410000Y-82424000D02*
X151410000Y-87576000D01*
X153691000Y-84085000D02*
X153691000Y-85915000D01*
X152571000Y-82776000D02*
X152571000Y-83960000D01*
X152091000Y-82558000D02*
X152091000Y-83960000D01*
X151690000Y-82457000D02*
X151690000Y-83960000D01*
X152291000Y-86040000D02*
X152291000Y-87365000D01*
X152131000Y-82572000D02*
X152131000Y-83960000D01*
X152131000Y-86040000D02*
X152131000Y-87428000D01*
X152851000Y-82965000D02*
X152851000Y-83960000D01*
X152491000Y-86040000D02*
X152491000Y-87268000D01*
X153491000Y-86040000D02*
X153491000Y-86319000D01*
X152771000Y-82905000D02*
X152771000Y-83960000D01*
X152891000Y-82996000D02*
X152891000Y-83960000D01*
X151890000Y-86040000D02*
X151890000Y-87501000D01*
X152971000Y-86040000D02*
X152971000Y-86937000D01*
X152691000Y-86040000D02*
X152691000Y-87149000D01*
X153371000Y-86040000D02*
X153371000Y-86500000D01*
X151570000Y-86040000D02*
X151570000Y-87561000D01*
X153491000Y-83681000D02*
X153491000Y-83960000D01*
X153571000Y-83822000D02*
X153571000Y-86178000D01*
X153371000Y-83500000D02*
X153371000Y-83960000D01*
X152611000Y-82800000D02*
X152611000Y-83960000D01*
X151850000Y-86040000D02*
X151850000Y-87511000D01*
X152491000Y-82732000D02*
X152491000Y-83960000D01*
X151971000Y-86040000D02*
X151971000Y-87480000D01*
X152531000Y-82753000D02*
X152531000Y-83960000D01*
X151290000Y-82420000D02*
X151290000Y-87580000D01*
X153171000Y-86040000D02*
X153171000Y-86743000D01*
X151850000Y-82489000D02*
X151850000Y-83960000D01*
X152411000Y-82690000D02*
X152411000Y-83960000D01*
X152331000Y-86040000D02*
X152331000Y-87348000D01*
X151530000Y-82435000D02*
X151530000Y-83960000D01*
X153731000Y-84195000D02*
X153731000Y-85805000D01*
X151610000Y-86040000D02*
X151610000Y-87556000D01*
X152811000Y-82935000D02*
X152811000Y-83960000D01*
X153131000Y-83215000D02*
X153131000Y-83960000D01*
X152251000Y-86040000D02*
X152251000Y-87382000D01*
X153811000Y-84482000D02*
X153811000Y-85518000D01*
X152811000Y-86040000D02*
X152811000Y-87065000D01*
X152451000Y-82710000D02*
X152451000Y-83960000D01*
X151730000Y-82464000D02*
X151730000Y-83960000D01*
X152411000Y-86040000D02*
X152411000Y-87310000D01*
X153211000Y-83301000D02*
X153211000Y-83960000D01*
X153051000Y-86040000D02*
X153051000Y-86864000D01*
X151330000Y-82421000D02*
X151330000Y-87579000D01*
X151370000Y-82422000D02*
X151370000Y-87578000D01*
X151490000Y-86040000D02*
X151490000Y-87569000D01*
X153331000Y-83446000D02*
X153331000Y-83960000D01*
X151770000Y-86040000D02*
X151770000Y-87528000D01*
X152891000Y-86040000D02*
X152891000Y-87004000D01*
X152011000Y-86040000D02*
X152011000Y-87468000D01*
X153251000Y-86040000D02*
X153251000Y-86653000D01*
X151810000Y-82480000D02*
X151810000Y-83960000D01*
X153771000Y-84323000D02*
X153771000Y-85677000D01*
X151810000Y-86040000D02*
X151810000Y-87520000D01*
X151530000Y-86040000D02*
X151530000Y-87565000D01*
X148445225Y-83525000D02*
X148945225Y-83525000D01*
X153531000Y-83749000D02*
X153531000Y-83960000D01*
X153011000Y-83099000D02*
X153011000Y-83960000D01*
X153611000Y-83902000D02*
X153611000Y-86098000D01*
X152011000Y-82532000D02*
X152011000Y-83960000D01*
X151610000Y-82444000D02*
X151610000Y-83960000D01*
X152291000Y-82635000D02*
X152291000Y-83960000D01*
X152611000Y-86040000D02*
X152611000Y-87200000D01*
X151890000Y-82499000D02*
X151890000Y-83960000D01*
X152771000Y-86040000D02*
X152771000Y-87095000D01*
X152371000Y-82671000D02*
X152371000Y-83960000D01*
X152691000Y-82851000D02*
X152691000Y-83960000D01*
X152051000Y-82545000D02*
X152051000Y-83960000D01*
X152651000Y-82825000D02*
X152651000Y-83960000D01*
X152971000Y-83063000D02*
X152971000Y-83960000D01*
X153211000Y-86040000D02*
X153211000Y-86699000D01*
X151450000Y-82427000D02*
X151450000Y-87573000D01*
X152651000Y-86040000D02*
X152651000Y-87175000D01*
X153531000Y-86040000D02*
X153531000Y-86251000D01*
X153011000Y-86040000D02*
X153011000Y-86901000D01*
X151930000Y-82509000D02*
X151930000Y-83960000D01*
X152251000Y-82618000D02*
X152251000Y-83960000D01*
X151570000Y-82439000D02*
X151570000Y-83960000D01*
X152171000Y-82586000D02*
X152171000Y-83960000D01*
X152051000Y-86040000D02*
X152051000Y-87455000D01*
X151490000Y-82431000D02*
X151490000Y-83960000D01*
X152091000Y-86040000D02*
X152091000Y-87442000D01*
X153870000Y-85000000D02*
G75*
G03*
X153870000Y-85000000I-2620000J0D01*
G01*
X109710198Y-90239233D02*
X110164326Y-90239233D01*
X109710198Y-91709233D02*
X110164326Y-91709233D01*
X127185996Y-55232517D02*
X127185996Y-52347517D01*
X125615996Y-52347517D02*
X125615996Y-55232517D01*
X125615996Y-55232517D02*
X127185996Y-55232517D01*
X122463900Y-53598477D02*
X122463900Y-53144349D01*
X123933900Y-53598477D02*
X123933900Y-53144349D01*
D14*
X126388962Y-63418911D02*
X128088962Y-63418911D01*
X126388962Y-60318911D02*
X128088962Y-60318911D01*
X126095962Y-60090911D02*
G75*
G03*
X126095962Y-60090911I-127000J0D01*
G01*
D11*
X120582547Y-62598906D02*
X120128419Y-62598906D01*
X120582547Y-61128906D02*
X120128419Y-61128906D01*
X100712423Y-72477595D02*
X100712423Y-77617595D01*
X102042423Y-69877595D02*
X103372423Y-69877595D01*
X103372423Y-69877595D02*
X103372423Y-71207595D01*
X103372423Y-72477595D02*
X103372423Y-77617595D01*
X100712423Y-77617595D02*
X103372423Y-77617595D01*
X100712423Y-72477595D02*
X103372423Y-72477595D01*
X116826922Y-86023425D02*
X113966922Y-86023425D01*
X113966922Y-86023425D02*
X113966922Y-87943425D01*
X113966922Y-87943425D02*
X116826922Y-87943425D01*
X122212263Y-59259282D02*
X122212263Y-57689282D01*
X119327263Y-59259282D02*
X122212263Y-59259282D01*
X122212263Y-57689282D02*
X119327263Y-57689282D01*
X110227064Y-87735000D02*
X109772936Y-87735000D01*
X110227064Y-86265000D02*
X109772936Y-86265000D01*
D15*
X108374891Y-84375952D02*
X123074891Y-84375952D01*
X123074891Y-79575952D02*
X123074891Y-80075952D01*
X108374891Y-80075952D02*
X108374891Y-79575952D01*
X108374891Y-83075952D02*
X108374891Y-84375952D01*
X108374891Y-79575952D02*
X123074891Y-79575952D01*
X123074891Y-84375952D02*
X123074891Y-83075952D01*
G36*
X138908745Y-89881814D02*
G01*
X138947490Y-89764551D01*
X138958723Y-89742211D01*
X139052502Y-89608316D01*
X139171479Y-89505306D01*
X139316140Y-89432835D01*
X139441097Y-89398449D01*
X139520183Y-89386238D01*
X139586714Y-89386529D01*
X139662356Y-89400057D01*
X139690605Y-89406944D01*
X139832429Y-89460016D01*
X139960873Y-89541178D01*
X140069001Y-89644073D01*
X140149879Y-89762347D01*
X140190713Y-89865278D01*
X140201125Y-89929481D01*
X140205826Y-90013826D01*
X140204267Y-90089623D01*
X140175986Y-90253987D01*
X140115625Y-90397524D01*
X140026781Y-90517498D01*
X139913048Y-90611175D01*
X139778022Y-90675821D01*
X139625297Y-90708700D01*
X139458470Y-90707078D01*
X139403249Y-90698926D01*
X139282374Y-90659105D01*
X139163901Y-90587986D01*
X139057071Y-90493680D01*
X138971125Y-90384300D01*
X138916509Y-90271643D01*
X138892023Y-90150816D01*
X138890348Y-90046883D01*
X139228797Y-90046883D01*
X139246849Y-90160430D01*
X139298262Y-90257262D01*
X139378917Y-90330992D01*
X139428807Y-90357148D01*
X139505362Y-90372652D01*
X139596014Y-90367480D01*
X139682130Y-90343953D01*
X139726694Y-90320027D01*
X139804178Y-90243120D01*
X139850630Y-90150345D01*
X139866092Y-90049922D01*
X139850605Y-89950070D01*
X139804212Y-89859009D01*
X139726954Y-89784960D01*
X139723954Y-89782951D01*
X139626353Y-89739506D01*
X139525982Y-89730880D01*
X139429916Y-89753300D01*
X139345231Y-89802996D01*
X139279005Y-89876194D01*
X139238312Y-89969124D01*
X139228797Y-90046883D01*
X138890348Y-90046883D01*
X138889846Y-90015721D01*
X138908745Y-89881814D01*
G37*
G36*
X136888482Y-94367523D02*
G01*
X136885853Y-94205254D01*
X136884722Y-94078018D01*
X136885504Y-93980867D01*
X136888614Y-93908848D01*
X136894465Y-93857012D01*
X136903473Y-93820407D01*
X136916050Y-93794082D01*
X136932613Y-93773087D01*
X136938766Y-93766742D01*
X136988735Y-93716773D01*
X137560558Y-93722651D01*
X138132380Y-93728530D01*
X138170588Y-93775745D01*
X138183640Y-93794936D01*
X138193350Y-93819554D01*
X138200204Y-93855349D01*
X138204689Y-93908070D01*
X138207292Y-93983468D01*
X138208499Y-94087292D01*
X138208796Y-94225292D01*
X138208797Y-94227259D01*
X138208654Y-94364150D01*
X138207832Y-94466744D01*
X138205743Y-94540746D01*
X138201795Y-94591859D01*
X138195400Y-94625786D01*
X138185969Y-94648231D01*
X138172910Y-94664897D01*
X138162507Y-94675043D01*
X138148013Y-94687583D01*
X138131215Y-94697447D01*
X138107478Y-94704956D01*
X138072171Y-94710431D01*
X138020660Y-94714192D01*
X137948313Y-94716562D01*
X137850496Y-94717861D01*
X137722577Y-94718409D01*
X137559922Y-94718529D01*
X137534808Y-94718530D01*
X136953397Y-94718530D01*
X136923252Y-94672523D01*
X136909152Y-94638241D01*
X136899122Y-94581511D01*
X136892513Y-94496643D01*
X136888695Y-94378530D01*
X137208797Y-94378530D01*
X137868797Y-94378530D01*
X137868797Y-94058530D01*
X137208797Y-94058530D01*
X137208797Y-94378530D01*
X136888695Y-94378530D01*
X136888676Y-94377946D01*
X136888482Y-94367523D01*
G37*
G36*
X137230722Y-89952857D02*
G01*
X137237362Y-89884507D01*
X137251610Y-89828747D01*
X137275920Y-89771916D01*
X137280364Y-89762900D01*
X137341332Y-89669523D01*
X137426579Y-89576138D01*
X137522629Y-89495948D01*
X137600832Y-89448904D01*
X137662300Y-89426010D01*
X137742277Y-89404205D01*
X137797168Y-89392952D01*
X137870269Y-89383068D01*
X137930625Y-89383721D01*
X137996487Y-89396400D01*
X138059346Y-89414354D01*
X138216042Y-89480344D01*
X138344066Y-89573936D01*
X138442730Y-89694454D01*
X138511343Y-89841219D01*
X138519238Y-89866255D01*
X138544880Y-90019368D01*
X138533923Y-90171912D01*
X138489308Y-90317499D01*
X138413975Y-90449746D01*
X138310864Y-90562265D01*
X138182917Y-90648673D01*
X138152143Y-90663360D01*
X138075190Y-90687037D01*
X137975607Y-90703597D01*
X137869589Y-90711637D01*
X137773333Y-90709751D01*
X137717557Y-90701048D01*
X137621598Y-90664625D01*
X137520316Y-90607813D01*
X137429787Y-90540676D01*
X137377258Y-90487958D01*
X137306999Y-90390762D01*
X137261883Y-90296149D01*
X137237472Y-90190905D01*
X137229326Y-90061819D01*
X137229320Y-90060791D01*
X137568797Y-90060791D01*
X137571832Y-90133052D01*
X137584623Y-90182585D01*
X137612695Y-90226437D01*
X137628585Y-90245233D01*
X137682143Y-90296648D01*
X137740414Y-90339230D01*
X137753585Y-90346607D01*
X137833096Y-90369483D01*
X137925946Y-90370683D01*
X138014208Y-90351432D01*
X138065286Y-90325283D01*
X138105984Y-90284147D01*
X138148409Y-90223924D01*
X138166032Y-90192254D01*
X138199878Y-90086086D01*
X138196869Y-89983920D01*
X138160123Y-89891327D01*
X138092754Y-89813880D01*
X137997878Y-89757151D01*
X137908198Y-89731122D01*
X137843009Y-89729541D01*
X137772513Y-89751883D01*
X137748359Y-89763449D01*
X137655869Y-89826447D01*
X137597820Y-89906859D01*
X137571266Y-90009563D01*
X137568797Y-90060791D01*
X137229320Y-90060791D01*
X137229236Y-90047456D01*
X137230722Y-89952857D01*
G37*
G36*
X139103278Y-93902851D02*
G01*
X139148547Y-93919799D01*
X139178858Y-93955348D01*
X139198004Y-94015472D01*
X139209781Y-94106145D01*
X139214712Y-94174815D01*
X139219287Y-94298676D01*
X139214510Y-94389507D01*
X139198664Y-94453542D01*
X139170033Y-94497018D01*
X139126900Y-94526167D01*
X139116732Y-94530681D01*
X139064768Y-94550669D01*
X139030139Y-94555323D01*
X138993685Y-94545688D01*
X138975104Y-94538390D01*
X138935335Y-94514358D01*
X138907751Y-94475496D01*
X138890453Y-94415452D01*
X138881538Y-94327876D01*
X138879108Y-94217696D01*
X138881717Y-94096219D01*
X138891734Y-94009153D01*
X138911823Y-93951191D01*
X138944646Y-93917024D01*
X138992866Y-93901348D01*
X139039258Y-93898530D01*
X139103278Y-93902851D01*
G37*
G36*
X140441106Y-93900613D02*
G01*
X140501313Y-93943396D01*
X140519541Y-93966858D01*
X140534513Y-93997684D01*
X140543509Y-94040088D01*
X140547332Y-94102428D01*
X140546789Y-94193062D01*
X140545587Y-94237246D01*
X140541567Y-94337295D01*
X140535841Y-94405503D01*
X140526934Y-94450028D01*
X140513369Y-94479026D01*
X140498797Y-94495934D01*
X140426896Y-94540004D01*
X140343633Y-94545772D01*
X140335885Y-94544442D01*
X140293433Y-94531176D01*
X140263540Y-94506027D01*
X140244042Y-94462806D01*
X140232778Y-94395323D01*
X140227584Y-94297386D01*
X140226558Y-94231457D01*
X140227034Y-94120468D01*
X140231104Y-94042167D01*
X140239513Y-93989343D01*
X140253007Y-93954784D01*
X140255563Y-93950658D01*
X140307211Y-93903568D01*
X140372732Y-93887111D01*
X140441106Y-93900613D01*
G37*
G36*
X139399751Y-91062615D02*
G01*
X139419305Y-91066870D01*
X139471306Y-91084737D01*
X139507454Y-91112255D01*
X139530476Y-91156106D01*
X139543098Y-91222971D01*
X139548045Y-91319531D01*
X139548490Y-91383530D01*
X139547123Y-91475679D01*
X139543650Y-91553578D01*
X139538620Y-91608214D01*
X139533490Y-91629689D01*
X139480343Y-91679625D01*
X139411859Y-91709220D01*
X139341675Y-91714992D01*
X139283520Y-91693530D01*
X139247599Y-91650764D01*
X139224055Y-91583573D01*
X139211614Y-91486718D01*
X139208797Y-91386585D01*
X139215661Y-91253421D01*
X139237029Y-91156204D01*
X139274060Y-91093171D01*
X139327914Y-91062562D01*
X139399751Y-91062615D01*
G37*
G36*
X138775359Y-91067224D02*
G01*
X138827392Y-91096258D01*
X138861891Y-91150059D01*
X138881438Y-91233054D01*
X138888618Y-91349668D01*
X138888797Y-91376646D01*
X138882824Y-91510126D01*
X138864552Y-91607629D01*
X138833446Y-91671406D01*
X138814549Y-91690139D01*
X138753614Y-91714257D01*
X138681007Y-91712943D01*
X138615189Y-91687068D01*
X138606012Y-91680297D01*
X138586354Y-91662266D01*
X138573073Y-91640784D01*
X138564923Y-91608254D01*
X138560658Y-91557079D01*
X138559033Y-91479662D01*
X138558797Y-91392396D01*
X138560860Y-91268236D01*
X138568590Y-91178599D01*
X138584294Y-91118146D01*
X138610282Y-91081542D01*
X138648861Y-91063449D01*
X138702339Y-91058530D01*
X138703211Y-91058530D01*
X138775359Y-91067224D01*
G37*
G36*
X137459227Y-91079136D02*
G01*
X137515436Y-91135465D01*
X137526920Y-91154813D01*
X137541222Y-91204032D01*
X137550503Y-91280369D01*
X137554614Y-91371240D01*
X137553410Y-91464062D01*
X137546741Y-91546252D01*
X137534461Y-91605224D01*
X137532275Y-91610935D01*
X137486055Y-91676991D01*
X137420429Y-91710081D01*
X137342228Y-91707434D01*
X137315936Y-91698698D01*
X137270685Y-91672918D01*
X137239681Y-91633935D01*
X137220592Y-91574934D01*
X137211086Y-91489101D01*
X137208797Y-91385614D01*
X137209514Y-91291761D01*
X137212923Y-91228236D01*
X137220908Y-91185371D01*
X137235354Y-91153503D01*
X137258144Y-91122965D01*
X137260574Y-91120064D01*
X137323647Y-91070372D01*
X137392581Y-91057084D01*
X137459227Y-91079136D01*
G37*
G36*
X138142691Y-91078324D02*
G01*
X138167014Y-91096747D01*
X138197617Y-91149601D01*
X138217175Y-91229033D01*
X138226114Y-91325152D01*
X138224862Y-91428068D01*
X138213847Y-91527891D01*
X138193495Y-91614733D01*
X138164234Y-91678702D01*
X138140802Y-91703223D01*
X138091639Y-91716889D01*
X138026376Y-91712097D01*
X137969191Y-91692841D01*
X137926315Y-91664238D01*
X137897770Y-91625025D01*
X137881692Y-91568193D01*
X137876219Y-91486732D01*
X137879487Y-91373633D01*
X137880324Y-91358530D01*
X137886636Y-91262711D01*
X137893865Y-91198063D01*
X137904134Y-91155771D01*
X137919562Y-91127024D01*
X137941700Y-91103530D01*
X138004892Y-91067886D01*
X138076914Y-91059333D01*
X138142691Y-91078324D01*
G37*
G36*
X139803176Y-93917248D02*
G01*
X139816774Y-93925365D01*
X139850713Y-93957959D01*
X139873152Y-94007244D01*
X139885260Y-94079263D01*
X139888204Y-94180055D01*
X139885080Y-94278602D01*
X139876339Y-94386891D01*
X139859811Y-94461205D01*
X139831791Y-94507364D01*
X139788572Y-94531184D01*
X139726450Y-94538484D01*
X139719519Y-94538530D01*
X139658457Y-94532690D01*
X139610572Y-94518196D01*
X139602838Y-94513530D01*
X139572735Y-94469987D01*
X139551709Y-94397620D01*
X139539870Y-94306586D01*
X139537331Y-94207043D01*
X139544204Y-94109148D01*
X139560599Y-94023060D01*
X139586629Y-93958936D01*
X139596591Y-93945199D01*
X139655531Y-93904842D01*
X139728666Y-93895140D01*
X139803176Y-93917248D01*
G37*
G36*
X141892182Y-95082290D02*
G01*
X141897149Y-94979092D01*
X141902942Y-94901991D01*
X141910477Y-94844040D01*
X141920669Y-94798294D01*
X141934433Y-94757807D01*
X141952685Y-94715633D01*
X141953676Y-94713477D01*
X142035781Y-94577558D01*
X142148287Y-94453112D01*
X142281636Y-94349799D01*
X142354507Y-94308401D01*
X142424955Y-94275015D01*
X142484160Y-94250312D01*
X142521055Y-94238839D01*
X142524532Y-94238530D01*
X142537563Y-94233586D01*
X142545267Y-94214417D01*
X142548146Y-94174520D01*
X142546699Y-94107389D01*
X142541835Y-94013530D01*
X142532476Y-93881735D01*
X142520133Y-93781776D01*
X142502221Y-93705489D01*
X142476153Y-93644711D01*
X142439340Y-93591279D01*
X142391581Y-93539409D01*
X142337401Y-93490392D01*
X142281979Y-93453982D01*
X142218260Y-93428402D01*
X142139187Y-93411877D01*
X142037704Y-93402632D01*
X141906755Y-93398891D01*
X141831666Y-93398530D01*
X141552248Y-93398529D01*
X141545048Y-94313530D01*
X141543322Y-94528538D01*
X141541699Y-94707316D01*
X141539978Y-94853635D01*
X141537959Y-94971262D01*
X141535443Y-95063969D01*
X141532229Y-95135523D01*
X141528116Y-95189695D01*
X141522905Y-95230253D01*
X141516394Y-95260968D01*
X141508385Y-95285608D01*
X141498677Y-95307943D01*
X141491436Y-95322857D01*
X141406636Y-95456785D01*
X141296670Y-95571524D01*
X141185905Y-95648729D01*
X141078797Y-95707580D01*
X140643797Y-95715256D01*
X140208797Y-95722933D01*
X140208797Y-96733263D01*
X140289728Y-96744118D01*
X140371869Y-96765076D01*
X140474267Y-96806077D01*
X140586209Y-96861851D01*
X140696980Y-96927128D01*
X140782979Y-96986729D01*
X140903155Y-97098427D01*
X141012897Y-97241046D01*
X141105872Y-97405717D01*
X141143210Y-97491312D01*
X141160089Y-97535215D01*
X141173141Y-97574947D01*
X141182952Y-97616501D01*
X141190103Y-97665867D01*
X141195177Y-97729037D01*
X141198759Y-97812000D01*
X141201430Y-97920748D01*
X141203775Y-98061272D01*
X141204681Y-98122906D01*
X141211862Y-98617282D01*
X141161238Y-98667906D01*
X141110615Y-98718530D01*
X138975769Y-98718530D01*
X138928608Y-98668329D01*
X138912999Y-98650593D01*
X138901285Y-98631407D01*
X138892910Y-98605158D01*
X138887320Y-98566229D01*
X138883960Y-98509004D01*
X138882277Y-98427869D01*
X138882027Y-98378530D01*
X139228797Y-98378530D01*
X139522807Y-98378530D01*
X139535658Y-98197483D01*
X139546689Y-98080875D01*
X139562862Y-97998572D01*
X139587684Y-97944915D01*
X139624663Y-97914244D01*
X139677306Y-97900898D01*
X139720697Y-97898836D01*
X139782482Y-97904006D01*
X139826256Y-97923859D01*
X139855363Y-97964100D01*
X139873148Y-98030433D01*
X139882955Y-98128564D01*
X139885471Y-98179909D01*
X139893449Y-98378530D01*
X140228797Y-98378530D01*
X140228797Y-98178530D01*
X140231933Y-98065958D01*
X140243456Y-97987393D01*
X140266531Y-97937181D01*
X140304325Y-97909671D01*
X140360007Y-97899210D01*
X140385697Y-97898530D01*
X140446327Y-97904441D01*
X140489287Y-97925915D01*
X140517759Y-97968559D01*
X140534923Y-98037980D01*
X140543960Y-98139788D01*
X140545671Y-98180581D01*
X140552545Y-98378530D01*
X140888797Y-98378530D01*
X140888179Y-98163530D01*
X140882290Y-97963234D01*
X140864612Y-97795317D01*
X140833251Y-97653399D01*
X140786308Y-97531101D01*
X140721887Y-97422043D01*
X140638091Y-97319846D01*
X140636971Y-97318647D01*
X140517718Y-97216387D01*
X140377338Y-97137435D01*
X140225233Y-97084989D01*
X140070805Y-97062248D01*
X139923455Y-97072410D01*
X139916992Y-97073723D01*
X139736895Y-97129958D01*
X139578733Y-97217062D01*
X139445702Y-97332193D01*
X139341000Y-97472507D01*
X139267820Y-97635163D01*
X139260979Y-97657160D01*
X139246299Y-97722538D01*
X139236396Y-97806804D01*
X139230742Y-97916772D01*
X139228806Y-98059260D01*
X139228797Y-98072160D01*
X139228797Y-98378530D01*
X138882027Y-98378530D01*
X138881716Y-98317207D01*
X138881708Y-98193329D01*
X138884332Y-97982957D01*
X138893110Y-97806490D01*
X138909824Y-97658072D01*
X138936258Y-97531847D01*
X138974194Y-97421961D01*
X139025414Y-97322557D01*
X139091702Y-97227780D01*
X139174839Y-97131775D01*
X139218797Y-97086028D01*
X139332522Y-96979104D01*
X139441229Y-96898150D01*
X139558770Y-96834672D01*
X139698998Y-96780171D01*
X139738797Y-96767089D01*
X139878797Y-96722309D01*
X139884139Y-96233439D01*
X139889482Y-95744568D01*
X139706067Y-95731549D01*
X139648805Y-95728917D01*
X139556394Y-95726464D01*
X139433685Y-95724243D01*
X139285528Y-95722309D01*
X139116775Y-95720716D01*
X138932277Y-95719519D01*
X138736883Y-95718772D01*
X138545724Y-95718530D01*
X137568797Y-95718530D01*
X137568797Y-96731971D01*
X137693726Y-96766705D01*
X137883078Y-96839501D01*
X138059018Y-96946704D01*
X138215746Y-97083452D01*
X138347465Y-97244885D01*
X138427850Y-97382249D01*
X138465978Y-97464709D01*
X138495499Y-97543721D01*
X138517334Y-97625896D01*
X138532403Y-97717843D01*
X138541625Y-97826174D01*
X138545920Y-97957500D01*
X138546208Y-98118431D01*
X138544963Y-98223924D01*
X138542562Y-98363706D01*
X138539767Y-98469098D01*
X138536029Y-98545708D01*
X138530798Y-98599145D01*
X138523527Y-98635019D01*
X138513667Y-98658937D01*
X138500697Y-98676480D01*
X138491701Y-98685661D01*
X138480559Y-98693398D01*
X138464004Y-98699814D01*
X138438770Y-98705034D01*
X138401592Y-98709179D01*
X138349204Y-98712375D01*
X138278341Y-98714745D01*
X138185736Y-98716412D01*
X138068124Y-98717499D01*
X137922240Y-98718132D01*
X137744817Y-98718432D01*
X137532589Y-98718523D01*
X137389468Y-98718530D01*
X137154836Y-98718484D01*
X136956927Y-98718270D01*
X136792466Y-98717774D01*
X136658175Y-98716880D01*
X136550778Y-98715475D01*
X136466999Y-98713443D01*
X136403562Y-98710669D01*
X136357190Y-98707040D01*
X136324606Y-98702440D01*
X136302534Y-98696754D01*
X136287698Y-98689868D01*
X136276821Y-98681668D01*
X136274444Y-98679498D01*
X136246715Y-98630593D01*
X136226753Y-98543336D01*
X136214633Y-98418627D01*
X136213588Y-98378530D01*
X136548797Y-98378530D01*
X136888797Y-98378530D01*
X136888797Y-98178530D01*
X136891870Y-98066121D01*
X136903262Y-97987694D01*
X136926227Y-97937553D01*
X136964020Y-97910000D01*
X137019895Y-97899340D01*
X137048797Y-97898530D01*
X137113030Y-97903909D01*
X137157845Y-97923844D01*
X137186498Y-97964032D01*
X137202242Y-98030170D01*
X137208333Y-98127953D01*
X137208797Y-98178530D01*
X137208797Y-98378530D01*
X137548797Y-98378530D01*
X137548797Y-98191227D01*
X137550057Y-98098794D01*
X137555008Y-98036292D01*
X137565407Y-97993697D01*
X137583011Y-97960986D01*
X137591038Y-97950222D01*
X137623456Y-97916674D01*
X137660596Y-97902579D01*
X137719006Y-97902091D01*
X137726038Y-97902525D01*
X137785482Y-97909634D01*
X137820458Y-97927167D01*
X137846479Y-97964355D01*
X137853765Y-97978530D01*
X137875347Y-98042060D01*
X137886480Y-98129468D01*
X137888765Y-98213530D01*
X137888797Y-98378530D01*
X138213334Y-98378530D01*
X138205788Y-98032547D01*
X138202868Y-97907084D01*
X138199605Y-97813883D01*
X138194810Y-97745212D01*
X138187294Y-97693343D01*
X138175870Y-97650545D01*
X138159349Y-97609088D01*
X138136544Y-97561242D01*
X138131880Y-97551761D01*
X138036404Y-97397765D01*
X137916760Y-97269657D01*
X137777896Y-97170126D01*
X137624763Y-97101861D01*
X137462308Y-97067554D01*
X137295479Y-97069893D01*
X137256547Y-97075983D01*
X137080699Y-97127304D01*
X136923839Y-97210917D01*
X136789831Y-97323033D01*
X136682541Y-97459867D01*
X136605833Y-97617632D01*
X136570562Y-97748135D01*
X136561996Y-97815276D01*
X136555017Y-97909584D01*
X136550370Y-98018236D01*
X136548797Y-98122203D01*
X136548797Y-98378530D01*
X136213588Y-98378530D01*
X136210430Y-98257368D01*
X136214218Y-98060459D01*
X136217184Y-97988905D01*
X136225000Y-97842191D01*
X136234327Y-97726838D01*
X136246912Y-97634206D01*
X136264500Y-97555658D01*
X136288839Y-97482554D01*
X136321674Y-97406257D01*
X136344614Y-97358530D01*
X136449718Y-97189359D01*
X136587163Y-97039664D01*
X136752624Y-96912928D01*
X136941777Y-96812632D01*
X137088797Y-96759169D01*
X137198797Y-96726168D01*
X137204135Y-96224588D01*
X137209474Y-95723009D01*
X136784135Y-95715527D01*
X136641709Y-95712773D01*
X136533117Y-95709761D01*
X136452196Y-95705845D01*
X136392781Y-95700381D01*
X136348710Y-95692723D01*
X136313819Y-95682227D01*
X136281944Y-95668248D01*
X136268797Y-95661608D01*
X136153529Y-95584833D01*
X136046934Y-95482373D01*
X135963117Y-95368175D01*
X135952113Y-95348530D01*
X135898797Y-95248530D01*
X135893047Y-94326145D01*
X135892785Y-94284135D01*
X136210219Y-94284135D01*
X136210497Y-94454041D01*
X136211828Y-94610172D01*
X136214169Y-94744305D01*
X136217471Y-94848216D01*
X136218194Y-94863667D01*
X136226606Y-94998989D01*
X136238063Y-95101075D01*
X136255053Y-95176686D01*
X136280064Y-95232584D01*
X136315584Y-95275530D01*
X136364100Y-95312283D01*
X136388864Y-95327448D01*
X136418832Y-95342580D01*
X136454412Y-95354028D01*
X136502171Y-95362601D01*
X136568674Y-95369104D01*
X136660489Y-95374346D01*
X136784182Y-95379133D01*
X136818797Y-95380286D01*
X136894440Y-95382019D01*
X137003362Y-95383448D01*
X137142138Y-95384584D01*
X137307345Y-95385439D01*
X137495558Y-95386027D01*
X137703353Y-95386358D01*
X137927305Y-95386445D01*
X138163991Y-95386300D01*
X138409986Y-95385935D01*
X138661866Y-95385363D01*
X138916206Y-95384594D01*
X139169583Y-95383642D01*
X139418572Y-95382519D01*
X139659749Y-95381236D01*
X139889690Y-95379807D01*
X140104971Y-95378241D01*
X140302167Y-95376553D01*
X140477853Y-95374754D01*
X140628607Y-95372856D01*
X140751003Y-95370872D01*
X140841618Y-95368812D01*
X140897027Y-95366691D01*
X140908567Y-95365827D01*
X141018237Y-95341306D01*
X141102312Y-95290420D01*
X141167386Y-95210811D01*
X141177131Y-95193905D01*
X141185214Y-95175126D01*
X141191790Y-95150799D01*
X141197016Y-95117252D01*
X141201045Y-95070807D01*
X141204033Y-95007792D01*
X141206136Y-94924532D01*
X141207508Y-94817351D01*
X141208304Y-94682576D01*
X141208680Y-94516532D01*
X141208791Y-94315544D01*
X141208797Y-94230176D01*
X141208804Y-94008021D01*
X141208540Y-93822203D01*
X141207578Y-93669062D01*
X141205488Y-93544933D01*
X141201842Y-93446155D01*
X141196211Y-93369066D01*
X141188169Y-93310004D01*
X141177285Y-93265306D01*
X141163132Y-93231310D01*
X141145282Y-93204355D01*
X141123306Y-93180777D01*
X141096775Y-93156916D01*
X141081729Y-93143787D01*
X141012618Y-93083107D01*
X140565707Y-93068816D01*
X140478114Y-93066754D01*
X140354309Y-93064940D01*
X140198078Y-93063385D01*
X140013207Y-93062101D01*
X139803485Y-93061101D01*
X139572697Y-93060397D01*
X139324631Y-93060001D01*
X139063073Y-93059925D01*
X138791810Y-93060181D01*
X138514629Y-93060782D01*
X138288797Y-93061528D01*
X136458797Y-93068530D01*
X136384805Y-93114538D01*
X136325150Y-93162554D01*
X136273572Y-93221520D01*
X136266708Y-93231908D01*
X136254414Y-93253274D01*
X136244546Y-93276341D01*
X136236755Y-93305700D01*
X136230689Y-93345940D01*
X136226000Y-93401651D01*
X136222337Y-93477421D01*
X136219350Y-93577840D01*
X136216690Y-93707499D01*
X136214005Y-93870985D01*
X136213012Y-93935900D01*
X136211042Y-94108680D01*
X136210219Y-94284135D01*
X135892785Y-94284135D01*
X135887298Y-93403760D01*
X135403047Y-93393244D01*
X135205553Y-93387402D01*
X135042618Y-93378252D01*
X134908837Y-93364246D01*
X134798809Y-93343835D01*
X134707130Y-93315473D01*
X134628396Y-93277611D01*
X134557205Y-93228701D01*
X134488154Y-93167196D01*
X134439505Y-93117218D01*
X134344915Y-92992113D01*
X134276008Y-92845024D01*
X134231736Y-92672610D01*
X134211048Y-92471529D01*
X134209144Y-92383530D01*
X134207592Y-92292333D01*
X134202756Y-92235096D01*
X134193743Y-92205851D01*
X134181484Y-92198530D01*
X134151447Y-92190014D01*
X134096750Y-92167475D01*
X134028174Y-92135429D01*
X134014195Y-92128503D01*
X133860477Y-92029816D01*
X133732830Y-91901072D01*
X133632562Y-91743620D01*
X133622496Y-91722996D01*
X133558797Y-91588530D01*
X133558797Y-91194288D01*
X133559002Y-91058530D01*
X133884583Y-91058530D01*
X133891690Y-91293530D01*
X133895599Y-91397200D01*
X133901203Y-91470799D01*
X133910389Y-91524254D01*
X133925042Y-91567493D01*
X133947047Y-91610444D01*
X133954242Y-91622852D01*
X134042588Y-91736220D01*
X134155645Y-91818235D01*
X134220611Y-91847064D01*
X134336277Y-91873858D01*
X134453699Y-91867292D01*
X134557398Y-91837335D01*
X134654673Y-91785360D01*
X134742948Y-91710078D01*
X134811777Y-91622124D01*
X134848448Y-91540983D01*
X134857129Y-91489645D01*
X134863954Y-91411110D01*
X134867990Y-91318170D01*
X134868685Y-91263530D01*
X134868797Y-91058530D01*
X133884583Y-91058530D01*
X133559002Y-91058530D01*
X133559017Y-91048576D01*
X133560994Y-90937838D01*
X133566699Y-90857049D01*
X133578104Y-90801184D01*
X133597182Y-90765217D01*
X133625903Y-90744124D01*
X133666242Y-90732878D01*
X133720168Y-90726454D01*
X133743209Y-90724362D01*
X133862876Y-90713511D01*
X133876074Y-90437037D01*
X133881650Y-90334077D01*
X133887750Y-90244226D01*
X133893728Y-90175692D01*
X133898935Y-90136685D01*
X133900134Y-90132255D01*
X133930270Y-90099381D01*
X133984409Y-90072476D01*
X134046583Y-90058969D01*
X134058622Y-90058530D01*
X134106531Y-90071323D01*
X134157454Y-90102356D01*
X134160272Y-90104726D01*
X134181464Y-90124401D01*
X134196481Y-90145637D01*
X134206710Y-90175591D01*
X134213538Y-90221421D01*
X134218349Y-90290286D01*
X134222532Y-90389344D01*
X134224185Y-90434726D01*
X134234391Y-90718529D01*
X134381594Y-90718529D01*
X134528797Y-90718530D01*
X134529199Y-90553530D01*
X134533480Y-90391085D01*
X134546216Y-90264823D01*
X134568569Y-90171596D01*
X134601706Y-90108257D01*
X134646790Y-90071659D01*
X134704985Y-90058655D01*
X134712327Y-90058530D01*
X134772178Y-90064892D01*
X134817337Y-90086954D01*
X134849665Y-90129177D01*
X134871026Y-90196025D01*
X134883281Y-90291959D01*
X134888292Y-90421441D01*
X134888685Y-90481126D01*
X134888797Y-90713722D01*
X135011771Y-90722617D01*
X135075081Y-90728300D01*
X135123459Y-90738253D01*
X135158806Y-90757330D01*
X135183019Y-90790385D01*
X135197998Y-90842272D01*
X135205641Y-90917843D01*
X135207848Y-91021954D01*
X135206517Y-91159456D01*
X135205541Y-91217899D01*
X135203083Y-91352189D01*
X135200381Y-91453453D01*
X135196510Y-91528660D01*
X135190546Y-91584780D01*
X135181564Y-91628780D01*
X135168639Y-91667630D01*
X135150846Y-91708298D01*
X135136462Y-91738530D01*
X135071986Y-91847354D01*
X134989295Y-91950887D01*
X134966462Y-91974458D01*
X134894020Y-92037140D01*
X134809983Y-92096706D01*
X134724332Y-92147320D01*
X134647044Y-92183151D01*
X134588099Y-92198365D01*
X134583137Y-92198530D01*
X134566513Y-92200758D01*
X134555785Y-92211907D01*
X134550085Y-92238672D01*
X134548549Y-92287750D01*
X134550310Y-92365836D01*
X134552745Y-92433530D01*
X134560931Y-92565445D01*
X134576280Y-92666910D01*
X134602010Y-92747278D01*
X134641337Y-92815903D01*
X134697479Y-92882139D01*
X134712192Y-92897105D01*
X134754452Y-92937112D01*
X134795539Y-92968839D01*
X134840767Y-92993403D01*
X134895451Y-93011921D01*
X134964904Y-93025511D01*
X135054440Y-93035290D01*
X135169374Y-93042376D01*
X135315020Y-93047886D01*
X135447133Y-93051644D01*
X135950175Y-93064968D01*
X136049998Y-92952969D01*
X136149183Y-92859346D01*
X136255441Y-92789223D01*
X136264308Y-92784750D01*
X136378797Y-92728530D01*
X136966545Y-92721702D01*
X137239628Y-92718530D01*
X137888797Y-92718530D01*
X139528797Y-92718530D01*
X139528797Y-92378530D01*
X137888797Y-92378530D01*
X137888797Y-92718530D01*
X137239628Y-92718530D01*
X137554294Y-92714875D01*
X137542941Y-92564765D01*
X137535851Y-92490827D01*
X137527542Y-92433309D01*
X137519646Y-92403121D01*
X137518565Y-92401592D01*
X137494632Y-92395667D01*
X137438914Y-92389070D01*
X137359596Y-92382586D01*
X137264866Y-92377002D01*
X137260189Y-92376776D01*
X137120834Y-92366724D01*
X137012250Y-92349399D01*
X136925393Y-92321371D01*
X136851218Y-92279211D01*
X136780683Y-92219490D01*
X136742604Y-92180531D01*
X136675313Y-92103974D01*
X136626786Y-92034302D01*
X136593652Y-91962001D01*
X136572539Y-91877552D01*
X136566337Y-91824754D01*
X136888797Y-91824754D01*
X136940128Y-91892053D01*
X136994233Y-91954112D01*
X137050884Y-91995578D01*
X137120903Y-92021368D01*
X137215109Y-92036399D01*
X137267754Y-92040925D01*
X137316356Y-92042964D01*
X137401249Y-92044828D01*
X137518725Y-92046496D01*
X137665076Y-92047943D01*
X137836593Y-92049146D01*
X138029568Y-92050083D01*
X138240293Y-92050731D01*
X138465058Y-92051065D01*
X138700157Y-92051063D01*
X138858797Y-92050867D01*
X139132038Y-92050353D01*
X139368166Y-92049769D01*
X139570068Y-92049040D01*
X139740630Y-92048088D01*
X139882740Y-92046835D01*
X139999285Y-92045203D01*
X140093151Y-92043117D01*
X140167225Y-92040497D01*
X140224394Y-92037267D01*
X140267546Y-92033349D01*
X140299566Y-92028666D01*
X140323342Y-92023140D01*
X140341760Y-92016695D01*
X140354698Y-92010765D01*
X140412319Y-91970727D01*
X140469586Y-91913396D01*
X140489698Y-91887219D01*
X140548797Y-91801322D01*
X140548728Y-91058530D01*
X140888797Y-91058530D01*
X140959439Y-91058530D01*
X141028571Y-91050242D01*
X141097788Y-91030230D01*
X141099566Y-91029497D01*
X141156522Y-90992753D01*
X141188924Y-90948195D01*
X141195211Y-90912100D01*
X141200680Y-90843341D01*
X141204993Y-90749252D01*
X141207811Y-90637165D01*
X141208797Y-90516934D01*
X141208797Y-90137942D01*
X141143797Y-90098310D01*
X141061838Y-90067081D01*
X140983797Y-90058604D01*
X140888797Y-90058530D01*
X140888797Y-91058530D01*
X140548728Y-91058530D01*
X140548685Y-90594926D01*
X140548306Y-90299816D01*
X140547280Y-90058530D01*
X140547219Y-90044123D01*
X140545415Y-89827272D01*
X140542884Y-89648686D01*
X140539616Y-89507788D01*
X140535601Y-89404003D01*
X140530829Y-89336754D01*
X140526489Y-89308980D01*
X140498325Y-89246210D01*
X140452940Y-89180352D01*
X140431191Y-89156218D01*
X140397147Y-89123495D01*
X140367005Y-89101770D01*
X140331114Y-89088070D01*
X140279822Y-89079423D01*
X140203475Y-89072857D01*
X140148387Y-89069127D01*
X140092981Y-89066886D01*
X140001429Y-89064947D01*
X139877582Y-89063328D01*
X139725292Y-89062046D01*
X139548413Y-89061118D01*
X139350795Y-89060561D01*
X139136291Y-89060393D01*
X138908753Y-89060630D01*
X138672034Y-89061291D01*
X138528797Y-89061890D01*
X137118797Y-89068530D01*
X137048035Y-89112541D01*
X136991920Y-89159584D01*
X136941890Y-89220779D01*
X136933035Y-89235264D01*
X136888797Y-89313976D01*
X136888797Y-91824754D01*
X136566337Y-91824754D01*
X136560075Y-91771441D01*
X136553345Y-91646387D01*
X136543304Y-91383257D01*
X136377300Y-91374544D01*
X136235507Y-91355367D01*
X136121784Y-91312191D01*
X136029954Y-91241696D01*
X135959325Y-91149569D01*
X135898797Y-91051666D01*
X135898797Y-90678043D01*
X136220076Y-90678043D01*
X136220490Y-90778378D01*
X136222378Y-90850533D01*
X136226353Y-90900419D01*
X136233027Y-90933945D01*
X136243010Y-90957021D01*
X136256914Y-90975556D01*
X136266282Y-90985773D01*
X136307067Y-91021588D01*
X136354152Y-91042495D01*
X136420493Y-91052864D01*
X136473797Y-91055806D01*
X136548797Y-91058530D01*
X136548797Y-90058530D01*
X136439912Y-90058530D01*
X136364255Y-90063278D01*
X136311564Y-90080626D01*
X136276641Y-90105310D01*
X136222255Y-90152091D01*
X136220526Y-90543619D01*
X136220076Y-90678043D01*
X135898797Y-90678043D01*
X135898797Y-90041975D01*
X135959430Y-89955252D01*
X136054196Y-89850432D01*
X136168631Y-89774689D01*
X136294873Y-89732908D01*
X136323926Y-89728706D01*
X136413961Y-89719405D01*
X136475484Y-89710343D01*
X136514189Y-89694645D01*
X136535770Y-89665439D01*
X136545922Y-89615850D01*
X136550338Y-89539005D01*
X136553650Y-89451402D01*
X136559357Y-89342139D01*
X136566686Y-89262743D01*
X136577479Y-89203079D01*
X136593578Y-89153017D01*
X136616825Y-89102421D01*
X136617219Y-89101643D01*
X136705153Y-88961997D01*
X136811416Y-88856905D01*
X136939587Y-88783740D01*
X137093246Y-88739875D01*
X137115062Y-88736222D01*
X137159886Y-88732546D01*
X137242728Y-88729362D01*
X137361612Y-88726686D01*
X137514557Y-88724534D01*
X137699587Y-88722922D01*
X137914723Y-88721866D01*
X138157987Y-88721381D01*
X138427400Y-88721484D01*
X138720985Y-88722191D01*
X138810289Y-88722511D01*
X140378797Y-88728530D01*
X140477203Y-88773912D01*
X140615890Y-88853460D01*
X140722054Y-88951079D01*
X140798582Y-89070934D01*
X140848359Y-89217189D01*
X140869073Y-89339608D01*
X140878396Y-89432113D01*
X140885317Y-89522504D01*
X140888553Y-89593512D01*
X140888645Y-89602623D01*
X140890270Y-89659778D01*
X140900578Y-89688835D01*
X140928083Y-89701696D01*
X140963797Y-89707678D01*
X141106941Y-89731713D01*
X141217575Y-89758700D01*
X141303184Y-89791953D01*
X141371258Y-89834783D01*
X141429282Y-89890502D01*
X141458654Y-89926565D01*
X141490231Y-89980452D01*
X141514317Y-90051855D01*
X141531403Y-90144962D01*
X141541978Y-90263957D01*
X141546531Y-90413027D01*
X141545552Y-90596357D01*
X141544256Y-90658530D01*
X141539554Y-90810079D01*
X141532334Y-90928092D01*
X141520788Y-91019027D01*
X141503109Y-91089343D01*
X141477487Y-91145496D01*
X141442116Y-91193945D01*
X141395186Y-91241147D01*
X141376429Y-91257925D01*
X141291708Y-91321176D01*
X141205029Y-91358971D01*
X141102522Y-91376132D01*
X141029439Y-91378530D01*
X140956107Y-91379147D01*
X140913979Y-91383270D01*
X140894260Y-91394305D01*
X140888155Y-91415656D01*
X140887401Y-91433530D01*
X140881306Y-91579501D01*
X140871116Y-91715729D01*
X140857674Y-91835031D01*
X140841823Y-91930229D01*
X140824405Y-91994142D01*
X140820569Y-92003037D01*
X140750448Y-92113153D01*
X140654078Y-92215872D01*
X140544705Y-92297463D01*
X140526419Y-92307893D01*
X140474354Y-92334194D01*
X140426333Y-92351672D01*
X140371257Y-92362544D01*
X140298030Y-92369024D01*
X140199311Y-92373205D01*
X140081653Y-92376934D01*
X139998097Y-92381394D01*
X139942839Y-92390056D01*
X139910075Y-92406391D01*
X139894001Y-92433870D01*
X139888812Y-92475964D01*
X139888705Y-92536145D01*
X139888797Y-92558911D01*
X139888797Y-92718530D01*
X140396067Y-92718529D01*
X140594503Y-92719380D01*
X140757890Y-92722649D01*
X140891155Y-92729418D01*
X140999227Y-92740765D01*
X141087032Y-92757771D01*
X141159499Y-92781514D01*
X141221556Y-92813073D01*
X141278130Y-92853529D01*
X141334150Y-92903961D01*
X141359973Y-92929671D01*
X141461149Y-93032485D01*
X141859973Y-93053022D01*
X142029812Y-93063053D01*
X142165963Y-93074996D01*
X142274739Y-93090792D01*
X142362449Y-93112382D01*
X142435408Y-93141707D01*
X142499926Y-93180708D01*
X142562315Y-93231324D01*
X142620233Y-93286779D01*
X142720783Y-93402710D01*
X142795415Y-93525932D01*
X142846595Y-93663478D01*
X142876790Y-93822376D01*
X142888466Y-94009658D01*
X142888797Y-94052203D01*
X142890153Y-94143709D01*
X142894808Y-94201269D01*
X142903638Y-94230863D01*
X142916109Y-94238530D01*
X142946079Y-94247046D01*
X143000802Y-94269606D01*
X143069581Y-94301724D01*
X143085002Y-94309359D01*
X143236821Y-94407266D01*
X143363932Y-94536246D01*
X143465019Y-94694924D01*
X143476593Y-94718530D01*
X143498048Y-94764785D01*
X143513967Y-94804860D01*
X143525313Y-94845897D01*
X143533052Y-94895036D01*
X143538150Y-94959416D01*
X143541572Y-95046180D01*
X143544284Y-95162467D01*
X143545576Y-95228800D01*
X143547864Y-95362054D01*
X143548594Y-95461324D01*
X143547319Y-95532611D01*
X143543595Y-95581917D01*
X143536978Y-95615242D01*
X143527022Y-95638587D01*
X143513807Y-95657308D01*
X143481865Y-95686669D01*
X143437454Y-95703787D01*
X143367811Y-95713218D01*
X143354264Y-95714262D01*
X143233782Y-95722977D01*
X143224985Y-95998623D01*
X143219246Y-96131606D01*
X143210233Y-96229752D01*
X143195686Y-96298215D01*
X143173346Y-96342145D01*
X143140951Y-96366693D01*
X143096244Y-96377012D01*
X143058335Y-96378530D01*
X142981977Y-96370742D01*
X142931364Y-96343656D01*
X142902130Y-96291681D01*
X142889909Y-96209230D01*
X142888796Y-96161547D01*
X142886886Y-96067528D01*
X142881910Y-95959106D01*
X142875862Y-95871547D01*
X142862927Y-95718530D01*
X142574495Y-95718530D01*
X142561646Y-95841463D01*
X142555116Y-95926001D01*
X142550490Y-96028013D01*
X142548797Y-96122372D01*
X142547471Y-96204416D01*
X142541728Y-96257681D01*
X142528917Y-96293348D01*
X142506386Y-96322598D01*
X142499706Y-96329439D01*
X142434144Y-96369124D01*
X142357509Y-96377205D01*
X142284084Y-96353016D01*
X142266012Y-96340342D01*
X142247559Y-96323451D01*
X142234456Y-96302970D01*
X142225584Y-96272021D01*
X142219825Y-96223727D01*
X142216058Y-96151208D01*
X142213165Y-96047587D01*
X142212321Y-96010342D01*
X142205846Y-95718530D01*
X142097637Y-95718530D01*
X142027049Y-95714816D01*
X141978999Y-95699907D01*
X141936413Y-95668150D01*
X141931480Y-95663530D01*
X141873533Y-95608530D01*
X141881587Y-95377441D01*
X142218797Y-95377441D01*
X142468797Y-95383639D01*
X142598071Y-95386680D01*
X142744417Y-95389866D01*
X142886173Y-95392737D01*
X142963797Y-95394183D01*
X143208797Y-95398530D01*
X143207919Y-95183530D01*
X143204888Y-95077673D01*
X143197382Y-94984507D01*
X143186451Y-94915193D01*
X143180794Y-94895038D01*
X143117666Y-94775255D01*
X143024795Y-94677568D01*
X142908445Y-94606652D01*
X142774882Y-94567184D01*
X142735108Y-94562392D01*
X142619916Y-94571547D01*
X142506024Y-94613519D01*
X142402362Y-94681993D01*
X142317858Y-94770653D01*
X142261443Y-94873181D01*
X142251673Y-94904367D01*
X142241365Y-94962298D01*
X142232313Y-95045910D01*
X142225925Y-95140884D01*
X142224309Y-95182985D01*
X142218797Y-95377441D01*
X141881587Y-95377441D01*
X141887126Y-95218530D01*
X141892182Y-95082290D01*
G37*
G36*
X140124401Y-91080085D02*
G01*
X140159706Y-91107620D01*
X140181352Y-91131830D01*
X140195493Y-91158385D01*
X140203715Y-91195961D01*
X140207605Y-91253234D01*
X140208750Y-91338878D01*
X140208797Y-91375985D01*
X140207705Y-91468437D01*
X140204753Y-91548050D01*
X140200420Y-91605068D01*
X140196373Y-91627633D01*
X140168749Y-91660308D01*
X140120292Y-91692618D01*
X140068851Y-91714010D01*
X140044790Y-91717262D01*
X140006198Y-91709103D01*
X139975104Y-91698390D01*
X139939650Y-91677409D01*
X139915080Y-91643545D01*
X139899610Y-91590263D01*
X139891453Y-91511030D01*
X139888825Y-91399313D01*
X139888797Y-91382542D01*
X139889694Y-91282882D01*
X139893288Y-91214339D01*
X139900934Y-91168051D01*
X139913984Y-91135159D01*
X139930248Y-91111227D01*
X139986782Y-91068041D01*
X140055259Y-91057601D01*
X140124401Y-91080085D01*
G37*
D11*
X157270000Y-54420000D02*
X152629000Y-54420000D01*
X157270000Y-64660000D02*
X152629000Y-64660000D01*
X152629000Y-54420000D02*
X152629000Y-64660000D01*
X157270000Y-57690000D02*
X155760000Y-57690000D01*
X157270000Y-54420000D02*
X157270000Y-64660000D01*
X155760000Y-54420000D02*
X155760000Y-64660000D01*
X157270000Y-61391000D02*
X155760000Y-61391000D01*
X100465000Y-64472921D02*
X100465000Y-54352921D01*
X104785000Y-54352921D02*
X109685000Y-54352921D01*
X100465000Y-54352921D02*
X102565000Y-54352921D01*
X109685000Y-64472921D02*
X109685000Y-54352921D01*
X104785000Y-64472921D02*
X109685000Y-64472921D01*
X102565000Y-65062921D02*
X102565000Y-64472921D01*
X102565000Y-54352921D02*
X102565000Y-53762921D01*
X100465000Y-64472921D02*
X102565000Y-64472921D01*
X104785000Y-54352921D02*
X104785000Y-53762921D01*
X104785000Y-65062921D02*
X104785000Y-64472921D01*
X104785000Y-53762921D02*
G75*
G03*
X102565000Y-53762921I-1110000J0D01*
G01*
X102565000Y-65062921D02*
G75*
G03*
X104785000Y-65062921I1110000J0D01*
G01*
G36*
X140597695Y-69712147D02*
G01*
X140608618Y-69700181D01*
X140635358Y-69672239D01*
X140677926Y-69614435D01*
X140686524Y-69601693D01*
X140746333Y-69511765D01*
X140612112Y-69353342D01*
X140533315Y-69252411D01*
X140462519Y-69148221D01*
X140420625Y-69074130D01*
X140381015Y-68999553D01*
X140341912Y-68964813D01*
X140281638Y-68955444D01*
X140243064Y-68955627D01*
X140034402Y-68932506D01*
X140450728Y-68932506D01*
X140503865Y-69045268D01*
X140550154Y-69125805D01*
X140620115Y-69227912D01*
X140697360Y-69327934D01*
X140776767Y-69430651D01*
X140816185Y-69505810D01*
X140817391Y-69567050D01*
X140782155Y-69628010D01*
X140742140Y-69672311D01*
X140709730Y-69726976D01*
X140709760Y-69765606D01*
X140732465Y-69783629D01*
X140780428Y-69776604D01*
X140865148Y-69742366D01*
X140887218Y-69732200D01*
X140981235Y-69691916D01*
X141041177Y-69678205D01*
X141083910Y-69688563D01*
X141101878Y-69700301D01*
X141142679Y-69748128D01*
X141130130Y-69795753D01*
X141062356Y-69849664D01*
X141057937Y-69852367D01*
X141002300Y-69905152D01*
X140995340Y-69948771D01*
X141026103Y-69970250D01*
X141091177Y-69959750D01*
X141179691Y-69922706D01*
X141280777Y-69864552D01*
X141383566Y-69790725D01*
X141474942Y-69708948D01*
X141560659Y-69601528D01*
X141639291Y-69467082D01*
X141645141Y-69453862D01*
X141695295Y-69340527D01*
X141756814Y-69340527D01*
X141774916Y-69393347D01*
X141837664Y-69412309D01*
X141863708Y-69412154D01*
X141987948Y-69395584D01*
X142105684Y-69361276D01*
X142203880Y-69315298D01*
X142269501Y-69263718D01*
X142289676Y-69213860D01*
X142260850Y-69194354D01*
X142190912Y-69180737D01*
X142128469Y-69176884D01*
X142022759Y-69173482D01*
X141929702Y-69167783D01*
X141895137Y-69164305D01*
X141840937Y-69163813D01*
X141808092Y-69191179D01*
X141781082Y-69249372D01*
X141756814Y-69340527D01*
X141695295Y-69340527D01*
X141702745Y-69323693D01*
X141742931Y-69189441D01*
X141752358Y-69089043D01*
X141731739Y-69017037D01*
X141704147Y-68957517D01*
X141680967Y-68907515D01*
X141741327Y-68907515D01*
X141747467Y-68937317D01*
X141788053Y-68990147D01*
X141829574Y-69000379D01*
X141855385Y-68968045D01*
X141857287Y-68937124D01*
X141833937Y-68877302D01*
X141783010Y-68863934D01*
X141763046Y-68870721D01*
X141741327Y-68907515D01*
X141680967Y-68907515D01*
X141678356Y-68901882D01*
X141594161Y-68747718D01*
X141579592Y-68722510D01*
X141500716Y-68581499D01*
X141423556Y-68434339D01*
X141359129Y-68302465D01*
X141330343Y-68237619D01*
X141289101Y-68136368D01*
X141270192Y-68078479D01*
X141272993Y-68053331D01*
X141296877Y-68050304D01*
X141319567Y-68054382D01*
X141371095Y-68073510D01*
X141376567Y-68108730D01*
X141373562Y-68118126D01*
X141377147Y-68172101D01*
X141410563Y-68272454D01*
X141474353Y-68420749D01*
X141489212Y-68452890D01*
X141549467Y-68580033D01*
X141592868Y-68663480D01*
X141626405Y-68713128D01*
X141657071Y-68738874D01*
X141691861Y-68750617D01*
X141700756Y-68752302D01*
X141793978Y-68747795D01*
X141890910Y-68712033D01*
X141968634Y-68655983D01*
X141999848Y-68609180D01*
X142006433Y-68574083D01*
X141999682Y-68528209D01*
X141975977Y-68461393D01*
X141931700Y-68363470D01*
X141863230Y-68224277D01*
X141861776Y-68221374D01*
X141791864Y-68084002D01*
X141740369Y-67990091D01*
X141700625Y-67930076D01*
X141665963Y-67894390D01*
X141629715Y-67873470D01*
X141615350Y-67867839D01*
X141530682Y-67837034D01*
X141460645Y-67939097D01*
X141407554Y-68013427D01*
X141377688Y-68042577D01*
X141362705Y-68030806D01*
X141355563Y-67992776D01*
X141330270Y-67916363D01*
X141287283Y-67870839D01*
X141240620Y-67859410D01*
X141204291Y-67885277D01*
X141192309Y-67951644D01*
X141192559Y-67955518D01*
X141185617Y-68019207D01*
X141164701Y-68050211D01*
X141134882Y-68094246D01*
X141127695Y-68173149D01*
X141141672Y-68268309D01*
X141175346Y-68361112D01*
X141191452Y-68389498D01*
X141242326Y-68503635D01*
X141266571Y-68632947D01*
X141262174Y-68755283D01*
X141232492Y-68840418D01*
X141173872Y-68903890D01*
X141095485Y-68955475D01*
X141095480Y-68955477D01*
X140994079Y-68975396D01*
X140904319Y-68940477D01*
X140843268Y-68864481D01*
X140835236Y-68854484D01*
X140830726Y-68845196D01*
X140809976Y-68806588D01*
X140784881Y-68791402D01*
X140741006Y-68800106D01*
X140663913Y-68833169D01*
X140623513Y-68851935D01*
X140450728Y-68932506D01*
X140034402Y-68932506D01*
X140031686Y-68932205D01*
X139974671Y-68911777D01*
X139825029Y-68858162D01*
X139781311Y-68832303D01*
X140145104Y-68832303D01*
X140164594Y-68839396D01*
X140171687Y-68819907D01*
X140152198Y-68812814D01*
X140145104Y-68832303D01*
X139781311Y-68832303D01*
X139701333Y-68784996D01*
X139630632Y-68731903D01*
X139578197Y-68680261D01*
X139532740Y-68614848D01*
X139482972Y-68520445D01*
X139460227Y-68472633D01*
X139443347Y-68437147D01*
X139387389Y-68312925D01*
X139358898Y-68235825D01*
X139497547Y-68235825D01*
X139499654Y-68293717D01*
X139500073Y-68296162D01*
X139518596Y-68354969D01*
X139552612Y-68429553D01*
X139593702Y-68505240D01*
X139633452Y-68567347D01*
X139663445Y-68601197D01*
X139674240Y-68599921D01*
X139699831Y-68604120D01*
X139758515Y-68636162D01*
X139821021Y-68677648D01*
X139904372Y-68730853D01*
X139974011Y-68765283D01*
X140005551Y-68772942D01*
X140043760Y-68782267D01*
X140048093Y-68793160D01*
X140062544Y-68810531D01*
X140104686Y-68796435D01*
X140159923Y-68760058D01*
X140213664Y-68710587D01*
X140244888Y-68669272D01*
X140287774Y-68575833D01*
X140323956Y-68459520D01*
X140351107Y-68334865D01*
X140366898Y-68216405D01*
X140369001Y-68118673D01*
X140355089Y-68056205D01*
X140344929Y-68044610D01*
X140313024Y-68034188D01*
X140251610Y-68029670D01*
X140150596Y-68030793D01*
X140023127Y-68036127D01*
X139939805Y-68051608D01*
X139841293Y-68084800D01*
X139814700Y-68096408D01*
X139744603Y-68124001D01*
X139703135Y-68130412D01*
X139698039Y-68124508D01*
X139677550Y-68119407D01*
X139622119Y-68139353D01*
X139593275Y-68153586D01*
X139524494Y-68195632D01*
X139497547Y-68235825D01*
X139358898Y-68235825D01*
X139354258Y-68223269D01*
X139339481Y-68150824D01*
X139339149Y-68124016D01*
X139338584Y-68078236D01*
X139340315Y-68056092D01*
X139436964Y-68056092D01*
X139437462Y-68078172D01*
X139466785Y-68077135D01*
X139537128Y-68057805D01*
X139635193Y-68024037D01*
X139671434Y-68010358D01*
X139804809Y-67963673D01*
X139917683Y-67938600D01*
X140039165Y-67930312D01*
X140144557Y-67931901D01*
X140270660Y-67938541D01*
X140351682Y-67950624D01*
X140401174Y-67971804D01*
X140432689Y-68005740D01*
X140435674Y-68010464D01*
X140464355Y-68105703D01*
X140460720Y-68246293D01*
X140424645Y-68433428D01*
X140370996Y-68621727D01*
X140333440Y-68753222D01*
X140318349Y-68837623D01*
X140326204Y-68871929D01*
X140330930Y-68872474D01*
X140397923Y-68864173D01*
X140417779Y-68861845D01*
X140501223Y-68838316D01*
X140608274Y-68790075D01*
X140660478Y-68760350D01*
X140867634Y-68760350D01*
X140894749Y-68840475D01*
X140964058Y-68895323D01*
X140970920Y-68897980D01*
X141057907Y-68903853D01*
X141129624Y-68853611D01*
X141171133Y-68782659D01*
X141190674Y-68698155D01*
X141190895Y-68597272D01*
X141174736Y-68499385D01*
X141145136Y-68423870D01*
X141111844Y-68391831D01*
X141072277Y-68392721D01*
X141039934Y-68437466D01*
X141030879Y-68458040D01*
X140988399Y-68534818D01*
X140945179Y-68587071D01*
X140884011Y-68670649D01*
X140867634Y-68760350D01*
X140660478Y-68760350D01*
X140716331Y-68728547D01*
X140797031Y-68670171D01*
X140927908Y-68521836D01*
X141020804Y-68340387D01*
X141070712Y-68141225D01*
X141072625Y-67939751D01*
X141059228Y-67863649D01*
X140990917Y-67693500D01*
X140875811Y-67539442D01*
X140725383Y-67410795D01*
X140551109Y-67316877D01*
X140364460Y-67267009D01*
X140319307Y-67262644D01*
X140204450Y-67260711D01*
X140109696Y-67275502D01*
X140006493Y-67312877D01*
X139950114Y-67338424D01*
X139763083Y-67452525D01*
X139612980Y-67598586D01*
X139507621Y-67767603D01*
X139463919Y-67898178D01*
X139446030Y-67989549D01*
X139436964Y-68056092D01*
X139340315Y-68056092D01*
X139341434Y-68041786D01*
X139379416Y-67857678D01*
X139453020Y-67673673D01*
X139551181Y-67516505D01*
X139566797Y-67497527D01*
X139660768Y-67414783D01*
X139793258Y-67332060D01*
X139945051Y-67258345D01*
X140096934Y-67202627D01*
X140229689Y-67173896D01*
X140262918Y-67171882D01*
X140457742Y-67193518D01*
X140650980Y-67256399D01*
X140787200Y-67331830D01*
X140885912Y-67418800D01*
X140987544Y-67537080D01*
X141073652Y-67663348D01*
X141116544Y-67748247D01*
X141148468Y-67794993D01*
X141178166Y-67790326D01*
X141252705Y-67755309D01*
X141324852Y-67754288D01*
X141372723Y-67787142D01*
X141374934Y-67791411D01*
X141408857Y-67825994D01*
X141457370Y-67812045D01*
X141545367Y-67770259D01*
X141613983Y-67767089D01*
X141688245Y-67802823D01*
X141706308Y-67814890D01*
X141752493Y-67850983D01*
X141793158Y-67896204D01*
X141835315Y-67961534D01*
X141885976Y-68057957D01*
X141952151Y-68196457D01*
X141958266Y-68209557D01*
X142021872Y-68347632D01*
X142063121Y-68443933D01*
X142085185Y-68509501D01*
X142091234Y-68555375D01*
X142084443Y-68592594D01*
X142075117Y-68616296D01*
X142027040Y-68701530D01*
X141981287Y-68762084D01*
X141944129Y-68828295D01*
X141946220Y-68877737D01*
X141954522Y-68946008D01*
X141945317Y-68979902D01*
X141930281Y-69033103D01*
X141950556Y-69067322D01*
X142013369Y-69086585D01*
X142125947Y-69094916D01*
X142152987Y-69095584D01*
X142267838Y-69101504D01*
X142339303Y-69116579D01*
X142382465Y-69145223D01*
X142399142Y-69167609D01*
X142420427Y-69218522D01*
X142406969Y-69266167D01*
X142359572Y-69325151D01*
X142249685Y-69410549D01*
X142104835Y-69474305D01*
X141947270Y-69507734D01*
X141884339Y-69510659D01*
X141824930Y-69512123D01*
X141780696Y-69524028D01*
X141737324Y-69555782D01*
X141680500Y-69616793D01*
X141626676Y-69680026D01*
X141485653Y-69821939D01*
X141313225Y-69957729D01*
X141135018Y-70067571D01*
X141107804Y-70081353D01*
X141047384Y-70088667D01*
X140983735Y-70075542D01*
X140915856Y-70043679D01*
X140892682Y-70002489D01*
X140900694Y-69934366D01*
X140909274Y-69863989D01*
X140888344Y-69840100D01*
X140829425Y-69856610D01*
X140806656Y-69866854D01*
X140722160Y-69890298D01*
X140660303Y-69869152D01*
X140620362Y-69820849D01*
X140615923Y-69809363D01*
X140597055Y-69760546D01*
X140597695Y-69712147D01*
G37*
G36*
X140169029Y-68156931D02*
G01*
X140220692Y-68178976D01*
X140236538Y-68218681D01*
X140221704Y-68292467D01*
X140216655Y-68309082D01*
X140167354Y-68414766D01*
X140100258Y-68465831D01*
X140011793Y-68464569D01*
X139986634Y-68456606D01*
X139909013Y-68413463D01*
X139859306Y-68357862D01*
X139845035Y-68303281D01*
X139873714Y-68263201D01*
X139877666Y-68261221D01*
X139940307Y-68258148D01*
X139985641Y-68278637D01*
X140041387Y-68320410D01*
X140077016Y-68231279D01*
X140108321Y-68170135D01*
X140143285Y-68152854D01*
X140169029Y-68156931D01*
G37*
X149270000Y-73391000D02*
X147760000Y-73391000D01*
X147760000Y-66420000D02*
X147760000Y-76660000D01*
X149270000Y-66420000D02*
X149270000Y-76660000D01*
X149270000Y-76660000D02*
X144629000Y-76660000D01*
X144629000Y-66420000D02*
X144629000Y-76660000D01*
X149270000Y-69690000D02*
X147760000Y-69690000D01*
X149270000Y-66420000D02*
X144629000Y-66420000D01*
X100695000Y-82470000D02*
X103355000Y-82470000D01*
X103355000Y-82470000D02*
X103355000Y-90150000D01*
X100695000Y-90150000D02*
X103355000Y-90150000D01*
X102025000Y-79870000D02*
X103355000Y-79870000D01*
X103355000Y-79870000D02*
X103355000Y-81200000D01*
X100695000Y-82470000D02*
X100695000Y-90150000D01*
D14*
X164368807Y-92600000D02*
X164368807Y-92000000D01*
X156168807Y-82000000D02*
X164368807Y-82000000D01*
X164368807Y-82000000D02*
X164368807Y-92000000D01*
X156168807Y-92000000D02*
X156168807Y-82000000D01*
X164368807Y-92000000D02*
X156168807Y-92000000D01*
X164368807Y-92600000D02*
X156168807Y-92600000D01*
X156168807Y-92600000D02*
X156168807Y-92000000D01*
D13*
X160368807Y-93350000D02*
G75*
G03*
X160368807Y-93350000I-100000J0D01*
G01*
M02*
