%TF.GenerationSoftware,KiCad,Pcbnew,(6.0.11)*%
%TF.CreationDate,2023-03-31T15:13:40+10:00*%
%TF.ProjectId,RPI,5250492e-6b69-4636-9164-5f7063625858,rev?*%
%TF.SameCoordinates,Original*%
%TF.FileFunction,Drillmap*%
%TF.FilePolarity,Positive*%
%FSLAX45Y45*%
G04 Gerber Fmt 4.5, Leading zero omitted, Abs format (unit mm)*
G04 Created by KiCad (PCBNEW (6.0.11)) date 2023-03-31 15:13:40*
%MOMM*%
%LPD*%
G01*
G04 APERTURE LIST*
%ADD10C,0.100000*%
%ADD11C,0.200000*%
%ADD12C,0.060000*%
%ADD13C,0.080000*%
%ADD14C,0.094000*%
%ADD15C,0.110000*%
%ADD16C,0.120000*%
%ADD17C,0.190000*%
%ADD18C,0.240000*%
%ADD19C,0.252390*%
G04 APERTURE END LIST*
D10*
X16500000Y-4700000D02*
G75*
G03*
X16200000Y-4400000I-300000J0D01*
G01*
X16500000Y-9700000D02*
X16500000Y-4700000D01*
X10000000Y-4700000D02*
X10000000Y-9700000D01*
X14600000Y-8100000D02*
X14600000Y-9600000D01*
X14400000Y-9600000D02*
X14400000Y-8100000D01*
X10000000Y-9700000D02*
G75*
G03*
X10300000Y-10000000I300000J0D01*
G01*
X10300000Y-10000000D02*
X16200000Y-10000000D01*
X14600000Y-8100000D02*
G75*
G03*
X14400000Y-8100000I-100000J0D01*
G01*
X16200000Y-10000000D02*
G75*
G03*
X16500000Y-9700000I0J300000D01*
G01*
X10300000Y-4400000D02*
G75*
G03*
X10000000Y-4700000I0J-300000D01*
G01*
X14400000Y-9600000D02*
G75*
G03*
X14600000Y-9600000I100000J0D01*
G01*
X16200000Y-4400000D02*
X10300000Y-4400000D01*
D11*
D12*
X10807093Y-5627451D02*
X10867093Y-5687451D01*
X10867093Y-5627451D02*
X10807093Y-5687451D01*
X11234857Y-5319216D02*
X11294857Y-5379216D01*
X11294857Y-5319216D02*
X11234857Y-5379216D01*
X12593785Y-5690568D02*
X12653785Y-5750568D01*
X12653785Y-5690568D02*
X12593785Y-5750568D01*
X12595478Y-6070000D02*
X12655478Y-6130000D01*
X12655478Y-6070000D02*
X12595478Y-6130000D01*
X12870000Y-6425640D02*
X12930000Y-6485640D01*
X12930000Y-6425640D02*
X12870000Y-6485640D01*
X13196176Y-6053340D02*
X13256176Y-6113340D01*
X13256176Y-6053340D02*
X13196176Y-6113340D01*
X13612219Y-6289658D02*
X13672219Y-6349658D01*
X13672219Y-6289658D02*
X13612219Y-6349658D01*
D13*
X11659000Y-6702583D02*
G75*
G03*
X11659000Y-6702583I-40000J0D01*
G01*
X11659000Y-7303750D02*
G75*
G03*
X11659000Y-7303750I-40000J0D01*
G01*
X12421000Y-6702583D02*
G75*
G03*
X12421000Y-6702583I-40000J0D01*
G01*
X12421000Y-7303750D02*
G75*
G03*
X12421000Y-7303750I-40000J0D01*
G01*
X15730229Y-6250987D02*
G75*
G03*
X15730229Y-6250987I-40000J0D01*
G01*
X15730229Y-7266987D02*
G75*
G03*
X15730229Y-7266987I-40000J0D01*
G01*
X15940000Y-7749698D02*
G75*
G03*
X15940000Y-7749698I-40000J0D01*
G01*
X16190000Y-7749698D02*
G75*
G03*
X16190000Y-7749698I-40000J0D01*
G01*
D14*
X14921000Y-5453000D02*
X14921000Y-5547000D01*
X14874000Y-5500000D02*
X14968000Y-5500000D01*
X15200000Y-5453000D02*
X15200000Y-5547000D01*
X15153000Y-5500000D02*
X15247000Y-5500000D01*
X15479000Y-5453000D02*
X15479000Y-5547000D01*
X15432000Y-5500000D02*
X15526000Y-5500000D01*
D10*
X10273260Y-6758311D02*
X10273260Y-6687600D01*
X10202548Y-6687600D01*
X10202548Y-6758311D01*
X10273260Y-6758311D01*
X10273260Y-7012311D02*
X10273260Y-6941600D01*
X10202548Y-6941600D01*
X10202548Y-7012311D01*
X10273260Y-7012311D01*
X10273260Y-7266311D02*
X10273260Y-7195600D01*
X10202548Y-7195600D01*
X10202548Y-7266311D01*
X10273260Y-7266311D01*
X10273260Y-7520311D02*
X10273260Y-7449600D01*
X10202548Y-7449600D01*
X10202548Y-7520311D01*
X10273260Y-7520311D01*
X10276336Y-5538524D02*
X10276336Y-5467813D01*
X10205624Y-5467813D01*
X10205624Y-5538524D01*
X10276336Y-5538524D01*
X10276336Y-5792524D02*
X10276336Y-5721813D01*
X10205624Y-5721813D01*
X10205624Y-5792524D01*
X10276336Y-5792524D01*
X10276336Y-6046524D02*
X10276336Y-5975813D01*
X10205624Y-5975813D01*
X10205624Y-6046524D01*
X10276336Y-6046524D01*
X10425483Y-8054922D02*
X10425483Y-7984211D01*
X10354772Y-7984211D01*
X10354772Y-8054922D01*
X10425483Y-8054922D01*
X10425483Y-9154922D02*
X10425483Y-9084211D01*
X10354772Y-9084211D01*
X10354772Y-9154922D01*
X10425483Y-9154922D01*
X10872356Y-4658356D02*
X10872356Y-4587644D01*
X10801644Y-4587644D01*
X10801644Y-4658356D01*
X10872356Y-4658356D01*
X10872356Y-4912356D02*
X10872356Y-4841644D01*
X10801644Y-4841644D01*
X10801644Y-4912356D01*
X10872356Y-4912356D01*
X11126356Y-4658356D02*
X11126356Y-4587644D01*
X11055644Y-4587644D01*
X11055644Y-4658356D01*
X11126356Y-4658356D01*
X11126356Y-4912356D02*
X11126356Y-4841644D01*
X11055644Y-4841644D01*
X11055644Y-4912356D01*
X11126356Y-4912356D01*
X11380356Y-4658356D02*
X11380356Y-4587644D01*
X11309644Y-4587644D01*
X11309644Y-4658356D01*
X11380356Y-4658356D01*
X11380356Y-4912356D02*
X11380356Y-4841644D01*
X11309644Y-4841644D01*
X11309644Y-4912356D01*
X11380356Y-4912356D01*
X11634356Y-4658356D02*
X11634356Y-4587644D01*
X11563644Y-4587644D01*
X11563644Y-4658356D01*
X11634356Y-4658356D01*
X11634356Y-4912356D02*
X11634356Y-4841644D01*
X11563644Y-4841644D01*
X11563644Y-4912356D01*
X11634356Y-4912356D01*
X11888356Y-4658356D02*
X11888356Y-4587644D01*
X11817644Y-4587644D01*
X11817644Y-4658356D01*
X11888356Y-4658356D01*
X11888356Y-4912356D02*
X11888356Y-4841644D01*
X11817644Y-4841644D01*
X11817644Y-4912356D01*
X11888356Y-4912356D01*
X12142356Y-4658356D02*
X12142356Y-4587644D01*
X12071644Y-4587644D01*
X12071644Y-4658356D01*
X12142356Y-4658356D01*
X12142356Y-4912356D02*
X12142356Y-4841644D01*
X12071644Y-4841644D01*
X12071644Y-4912356D01*
X12142356Y-4912356D01*
X12396356Y-4658356D02*
X12396356Y-4587644D01*
X12325644Y-4587644D01*
X12325644Y-4658356D01*
X12396356Y-4658356D01*
X12396356Y-4912356D02*
X12396356Y-4841644D01*
X12325644Y-4841644D01*
X12325644Y-4912356D01*
X12396356Y-4912356D01*
X12650356Y-4658356D02*
X12650356Y-4587644D01*
X12579644Y-4587644D01*
X12579644Y-4658356D01*
X12650356Y-4658356D01*
X12650356Y-4912356D02*
X12650356Y-4841644D01*
X12579644Y-4841644D01*
X12579644Y-4912356D01*
X12650356Y-4912356D01*
X12904356Y-4658356D02*
X12904356Y-4587644D01*
X12833644Y-4587644D01*
X12833644Y-4658356D01*
X12904356Y-4658356D01*
X12904356Y-4912356D02*
X12904356Y-4841644D01*
X12833644Y-4841644D01*
X12833644Y-4912356D01*
X12904356Y-4912356D01*
X13158356Y-4658356D02*
X13158356Y-4587644D01*
X13087644Y-4587644D01*
X13087644Y-4658356D01*
X13158356Y-4658356D01*
X13158356Y-4912356D02*
X13158356Y-4841644D01*
X13087644Y-4841644D01*
X13087644Y-4912356D01*
X13158356Y-4912356D01*
X13412356Y-4658356D02*
X13412356Y-4587644D01*
X13341644Y-4587644D01*
X13341644Y-4658356D01*
X13412356Y-4658356D01*
X13412356Y-4912356D02*
X13412356Y-4841644D01*
X13341644Y-4841644D01*
X13341644Y-4912356D01*
X13412356Y-4912356D01*
X13666356Y-4658356D02*
X13666356Y-4587644D01*
X13595644Y-4587644D01*
X13595644Y-4658356D01*
X13666356Y-4658356D01*
X13666356Y-4912356D02*
X13666356Y-4841644D01*
X13595644Y-4841644D01*
X13595644Y-4912356D01*
X13666356Y-4912356D01*
X13920356Y-4658356D02*
X13920356Y-4587644D01*
X13849644Y-4587644D01*
X13849644Y-4658356D01*
X13920356Y-4658356D01*
X13920356Y-4912356D02*
X13920356Y-4841644D01*
X13849644Y-4841644D01*
X13849644Y-4912356D01*
X13920356Y-4912356D01*
X14162497Y-6741025D02*
X14162497Y-6670314D01*
X14091785Y-6670314D01*
X14091785Y-6741025D01*
X14162497Y-6741025D01*
X14174356Y-4658356D02*
X14174356Y-4587644D01*
X14103644Y-4587644D01*
X14103644Y-4658356D01*
X14174356Y-4658356D01*
X14174356Y-4912356D02*
X14174356Y-4841644D01*
X14103644Y-4841644D01*
X14103644Y-4912356D01*
X14174356Y-4912356D01*
X14416497Y-6741025D02*
X14416497Y-6670314D01*
X14345785Y-6670314D01*
X14345785Y-6741025D01*
X14416497Y-6741025D01*
X14428356Y-4658356D02*
X14428356Y-4587644D01*
X14357644Y-4587644D01*
X14357644Y-4658356D01*
X14428356Y-4658356D01*
X14428356Y-4912356D02*
X14428356Y-4841644D01*
X14357644Y-4841644D01*
X14357644Y-4912356D01*
X14428356Y-4912356D01*
X14682356Y-4658356D02*
X14682356Y-4587644D01*
X14611644Y-4587644D01*
X14611644Y-4658356D01*
X14682356Y-4658356D01*
X14682356Y-4912356D02*
X14682356Y-4841644D01*
X14611644Y-4841644D01*
X14611644Y-4912356D01*
X14682356Y-4912356D01*
X14936356Y-4658356D02*
X14936356Y-4587644D01*
X14865644Y-4587644D01*
X14865644Y-4658356D01*
X14936356Y-4658356D01*
X14936356Y-4912356D02*
X14936356Y-4841644D01*
X14865644Y-4841644D01*
X14865644Y-4912356D01*
X14936356Y-4912356D01*
X15190356Y-4658356D02*
X15190356Y-4587644D01*
X15119644Y-4587644D01*
X15119644Y-4658356D01*
X15190356Y-4658356D01*
X15190356Y-4912356D02*
X15190356Y-4841644D01*
X15119644Y-4841644D01*
X15119644Y-4912356D01*
X15190356Y-4912356D01*
X15444356Y-4658356D02*
X15444356Y-4587644D01*
X15373644Y-4587644D01*
X15373644Y-4658356D01*
X15444356Y-4658356D01*
X15444356Y-4912356D02*
X15444356Y-4841644D01*
X15373644Y-4841644D01*
X15373644Y-4912356D01*
X15444356Y-4912356D01*
X15698356Y-4658356D02*
X15698356Y-4587644D01*
X15627644Y-4587644D01*
X15627644Y-4658356D01*
X15698356Y-4658356D01*
X15698356Y-4912356D02*
X15698356Y-4841644D01*
X15627644Y-4841644D01*
X15627644Y-4912356D01*
X15698356Y-4912356D01*
X16321933Y-5923965D02*
X16321933Y-5853254D01*
X16251221Y-5853254D01*
X16251221Y-5923965D01*
X16321933Y-5923965D01*
X16321933Y-6177965D02*
X16321933Y-6107254D01*
X16251221Y-6107254D01*
X16251221Y-6177965D01*
X16321933Y-6177965D01*
X16321933Y-6431965D02*
X16321933Y-6361254D01*
X16251221Y-6361254D01*
X16251221Y-6431965D01*
X16321933Y-6431965D01*
X16321933Y-6685965D02*
X16321933Y-6615254D01*
X16251221Y-6615254D01*
X16251221Y-6685965D01*
X16321933Y-6685965D01*
X16321933Y-6939965D02*
X16321933Y-6869254D01*
X16251221Y-6869254D01*
X16251221Y-6939965D01*
X16321933Y-6939965D01*
X16321933Y-7193965D02*
X16321933Y-7123254D01*
X16251221Y-7123254D01*
X16251221Y-7193965D01*
X16321933Y-7193965D01*
D15*
X13408000Y-8155000D02*
X13463000Y-8100000D01*
X13408000Y-8045000D01*
X13353000Y-8100000D01*
X13408000Y-8155000D01*
X13408000Y-8960500D02*
X13463000Y-8905500D01*
X13408000Y-8850500D01*
X13353000Y-8905500D01*
X13408000Y-8960500D01*
X13662000Y-8155000D02*
X13717000Y-8100000D01*
X13662000Y-8045000D01*
X13607000Y-8100000D01*
X13662000Y-8155000D01*
X13662000Y-8960500D02*
X13717000Y-8905500D01*
X13662000Y-8850500D01*
X13607000Y-8905500D01*
X13662000Y-8960500D01*
X13916000Y-8155000D02*
X13971000Y-8100000D01*
X13916000Y-8045000D01*
X13861000Y-8100000D01*
X13916000Y-8155000D01*
X13916000Y-8960500D02*
X13971000Y-8905500D01*
X13916000Y-8850500D01*
X13861000Y-8905500D01*
X13916000Y-8960500D01*
D16*
X15966176Y-8390000D02*
X16086176Y-8510000D01*
X16086176Y-8390000D02*
X15966176Y-8510000D01*
X16086176Y-8450000D02*
G75*
G03*
X16086176Y-8450000I-60000J0D01*
G01*
X15966176Y-8890000D02*
X16086176Y-9010000D01*
X16086176Y-8890000D02*
X15966176Y-9010000D01*
X16086176Y-8950000D02*
G75*
G03*
X16086176Y-8950000I-60000J0D01*
G01*
D17*
X11295127Y-8224567D02*
X11485127Y-8414567D01*
X11485127Y-8224567D02*
X11295127Y-8414567D01*
X11390127Y-8224567D02*
X11390127Y-8414567D01*
X11295127Y-8319567D02*
X11485127Y-8319567D01*
X11295127Y-8724567D02*
X11485127Y-8914567D01*
X11485127Y-8724567D02*
X11295127Y-8914567D01*
X11390127Y-8724567D02*
X11390127Y-8914567D01*
X11295127Y-8819567D02*
X11485127Y-8819567D01*
D18*
X14980000Y-8065000D02*
X15220000Y-8305000D01*
X15220000Y-8065000D02*
X14980000Y-8305000D01*
X15184854Y-8269854D02*
X15184854Y-8100146D01*
X15015146Y-8100146D01*
X15015146Y-8269854D01*
X15184854Y-8269854D01*
X14980000Y-8580000D02*
X15220000Y-8820000D01*
X15220000Y-8580000D02*
X14980000Y-8820000D01*
X15184854Y-8784854D02*
X15184854Y-8615146D01*
X15015146Y-8615146D01*
X15015146Y-8784854D01*
X15184854Y-8784854D01*
X14980000Y-9095000D02*
X15220000Y-9335000D01*
X15220000Y-9095000D02*
X14980000Y-9335000D01*
X15184854Y-9299854D02*
X15184854Y-9130146D01*
X15015146Y-9130146D01*
X15015146Y-9299854D01*
X15184854Y-9299854D01*
X14981628Y-6232552D02*
X15221628Y-6472552D01*
X15221628Y-6232552D02*
X14981628Y-6472552D01*
X15186482Y-6437405D02*
X15186482Y-6267698D01*
X15016774Y-6267698D01*
X15016774Y-6437405D01*
X15186482Y-6437405D01*
X14981628Y-6747552D02*
X15221628Y-6987552D01*
X15221628Y-6747552D02*
X14981628Y-6987552D01*
X15186482Y-6952405D02*
X15186482Y-6782698D01*
X15016774Y-6782698D01*
X15016774Y-6952405D01*
X15186482Y-6952405D01*
X14981628Y-7262552D02*
X15221628Y-7502552D01*
X15221628Y-7262552D02*
X14981628Y-7502552D01*
X15186482Y-7467405D02*
X15186482Y-7297698D01*
X15016774Y-7297698D01*
X15016774Y-7467405D01*
X15186482Y-7467405D01*
D19*
X12302576Y-7802029D02*
X12554966Y-8054419D01*
X12554966Y-7802029D02*
X12302576Y-8054419D01*
X12428771Y-8054419D02*
X12554966Y-7928224D01*
X12428771Y-7802029D01*
X12302576Y-7928224D01*
X12428771Y-8054419D01*
X12302576Y-8172029D02*
X12554966Y-8424419D01*
X12554966Y-8172029D02*
X12302576Y-8424419D01*
X12428771Y-8424419D02*
X12554966Y-8298224D01*
X12428771Y-8172029D01*
X12302576Y-8298224D01*
X12428771Y-8424419D01*
X12302576Y-8572029D02*
X12554966Y-8824419D01*
X12554966Y-8572029D02*
X12302576Y-8824419D01*
X12428771Y-8824419D02*
X12554966Y-8698224D01*
X12428771Y-8572029D01*
X12302576Y-8698224D01*
X12428771Y-8824419D01*
X12302576Y-8942029D02*
X12554966Y-9194419D01*
X12554966Y-8942029D02*
X12302576Y-9194419D01*
X12428771Y-9194419D02*
X12554966Y-9068224D01*
X12428771Y-8942029D01*
X12302576Y-9068224D01*
X12428771Y-9194419D01*
D11*
X10252619Y-10315476D02*
X10252619Y-10115476D01*
X10300238Y-10115476D01*
X10328810Y-10125000D01*
X10347857Y-10144048D01*
X10357381Y-10163095D01*
X10366905Y-10201190D01*
X10366905Y-10229762D01*
X10357381Y-10267857D01*
X10347857Y-10286905D01*
X10328810Y-10305952D01*
X10300238Y-10315476D01*
X10252619Y-10315476D01*
X10452619Y-10315476D02*
X10452619Y-10182143D01*
X10452619Y-10220238D02*
X10462143Y-10201190D01*
X10471667Y-10191667D01*
X10490714Y-10182143D01*
X10509762Y-10182143D01*
X10576429Y-10315476D02*
X10576429Y-10182143D01*
X10576429Y-10115476D02*
X10566905Y-10125000D01*
X10576429Y-10134524D01*
X10585952Y-10125000D01*
X10576429Y-10115476D01*
X10576429Y-10134524D01*
X10700238Y-10315476D02*
X10681190Y-10305952D01*
X10671667Y-10286905D01*
X10671667Y-10115476D01*
X10805000Y-10315476D02*
X10785952Y-10305952D01*
X10776429Y-10286905D01*
X10776429Y-10115476D01*
X11033571Y-10315476D02*
X11033571Y-10115476D01*
X11100238Y-10258333D01*
X11166905Y-10115476D01*
X11166905Y-10315476D01*
X11347857Y-10315476D02*
X11347857Y-10210714D01*
X11338333Y-10191667D01*
X11319286Y-10182143D01*
X11281190Y-10182143D01*
X11262143Y-10191667D01*
X11347857Y-10305952D02*
X11328809Y-10315476D01*
X11281190Y-10315476D01*
X11262143Y-10305952D01*
X11252619Y-10286905D01*
X11252619Y-10267857D01*
X11262143Y-10248810D01*
X11281190Y-10239286D01*
X11328809Y-10239286D01*
X11347857Y-10229762D01*
X11443095Y-10182143D02*
X11443095Y-10382143D01*
X11443095Y-10191667D02*
X11462143Y-10182143D01*
X11500238Y-10182143D01*
X11519286Y-10191667D01*
X11528809Y-10201190D01*
X11538333Y-10220238D01*
X11538333Y-10277381D01*
X11528809Y-10296429D01*
X11519286Y-10305952D01*
X11500238Y-10315476D01*
X11462143Y-10315476D01*
X11443095Y-10305952D01*
X11624048Y-10296429D02*
X11633571Y-10305952D01*
X11624048Y-10315476D01*
X11614524Y-10305952D01*
X11624048Y-10296429D01*
X11624048Y-10315476D01*
X11624048Y-10191667D02*
X11633571Y-10201190D01*
X11624048Y-10210714D01*
X11614524Y-10201190D01*
X11624048Y-10191667D01*
X11624048Y-10210714D01*
D12*
X9935000Y-10615000D02*
X9995000Y-10675000D01*
X9995000Y-10615000D02*
X9935000Y-10675000D01*
D11*
X10290714Y-10535476D02*
X10309762Y-10535476D01*
X10328810Y-10545000D01*
X10338333Y-10554524D01*
X10347857Y-10573571D01*
X10357381Y-10611667D01*
X10357381Y-10659286D01*
X10347857Y-10697381D01*
X10338333Y-10716429D01*
X10328810Y-10725952D01*
X10309762Y-10735476D01*
X10290714Y-10735476D01*
X10271667Y-10725952D01*
X10262143Y-10716429D01*
X10252619Y-10697381D01*
X10243095Y-10659286D01*
X10243095Y-10611667D01*
X10252619Y-10573571D01*
X10262143Y-10554524D01*
X10271667Y-10545000D01*
X10290714Y-10535476D01*
X10443095Y-10716429D02*
X10452619Y-10725952D01*
X10443095Y-10735476D01*
X10433571Y-10725952D01*
X10443095Y-10716429D01*
X10443095Y-10735476D01*
X10624048Y-10535476D02*
X10585952Y-10535476D01*
X10566905Y-10545000D01*
X10557381Y-10554524D01*
X10538333Y-10583095D01*
X10528810Y-10621190D01*
X10528810Y-10697381D01*
X10538333Y-10716429D01*
X10547857Y-10725952D01*
X10566905Y-10735476D01*
X10605000Y-10735476D01*
X10624048Y-10725952D01*
X10633571Y-10716429D01*
X10643095Y-10697381D01*
X10643095Y-10649762D01*
X10633571Y-10630714D01*
X10624048Y-10621190D01*
X10605000Y-10611667D01*
X10566905Y-10611667D01*
X10547857Y-10621190D01*
X10538333Y-10630714D01*
X10528810Y-10649762D01*
X10766905Y-10535476D02*
X10785952Y-10535476D01*
X10805000Y-10545000D01*
X10814524Y-10554524D01*
X10824048Y-10573571D01*
X10833571Y-10611667D01*
X10833571Y-10659286D01*
X10824048Y-10697381D01*
X10814524Y-10716429D01*
X10805000Y-10725952D01*
X10785952Y-10735476D01*
X10766905Y-10735476D01*
X10747857Y-10725952D01*
X10738333Y-10716429D01*
X10728810Y-10697381D01*
X10719286Y-10659286D01*
X10719286Y-10611667D01*
X10728810Y-10573571D01*
X10738333Y-10554524D01*
X10747857Y-10545000D01*
X10766905Y-10535476D01*
X10957381Y-10535476D02*
X10976429Y-10535476D01*
X10995476Y-10545000D01*
X11005000Y-10554524D01*
X11014524Y-10573571D01*
X11024048Y-10611667D01*
X11024048Y-10659286D01*
X11014524Y-10697381D01*
X11005000Y-10716429D01*
X10995476Y-10725952D01*
X10976429Y-10735476D01*
X10957381Y-10735476D01*
X10938333Y-10725952D01*
X10928810Y-10716429D01*
X10919286Y-10697381D01*
X10909762Y-10659286D01*
X10909762Y-10611667D01*
X10919286Y-10573571D01*
X10928810Y-10554524D01*
X10938333Y-10545000D01*
X10957381Y-10535476D01*
X11109762Y-10735476D02*
X11109762Y-10602143D01*
X11109762Y-10621190D02*
X11119286Y-10611667D01*
X11138333Y-10602143D01*
X11166905Y-10602143D01*
X11185952Y-10611667D01*
X11195476Y-10630714D01*
X11195476Y-10735476D01*
X11195476Y-10630714D02*
X11205000Y-10611667D01*
X11224048Y-10602143D01*
X11252619Y-10602143D01*
X11271667Y-10611667D01*
X11281190Y-10630714D01*
X11281190Y-10735476D01*
X11376428Y-10735476D02*
X11376428Y-10602143D01*
X11376428Y-10621190D02*
X11385952Y-10611667D01*
X11405000Y-10602143D01*
X11433571Y-10602143D01*
X11452619Y-10611667D01*
X11462143Y-10630714D01*
X11462143Y-10735476D01*
X11462143Y-10630714D02*
X11471667Y-10611667D01*
X11490714Y-10602143D01*
X11519286Y-10602143D01*
X11538333Y-10611667D01*
X11547857Y-10630714D01*
X11547857Y-10735476D01*
X11938333Y-10525952D02*
X11766905Y-10783095D01*
X12195476Y-10535476D02*
X12214524Y-10535476D01*
X12233571Y-10545000D01*
X12243095Y-10554524D01*
X12252619Y-10573571D01*
X12262143Y-10611667D01*
X12262143Y-10659286D01*
X12252619Y-10697381D01*
X12243095Y-10716429D01*
X12233571Y-10725952D01*
X12214524Y-10735476D01*
X12195476Y-10735476D01*
X12176428Y-10725952D01*
X12166905Y-10716429D01*
X12157381Y-10697381D01*
X12147857Y-10659286D01*
X12147857Y-10611667D01*
X12157381Y-10573571D01*
X12166905Y-10554524D01*
X12176428Y-10545000D01*
X12195476Y-10535476D01*
X12347857Y-10716429D02*
X12357381Y-10725952D01*
X12347857Y-10735476D01*
X12338333Y-10725952D01*
X12347857Y-10716429D01*
X12347857Y-10735476D01*
X12481190Y-10535476D02*
X12500238Y-10535476D01*
X12519286Y-10545000D01*
X12528809Y-10554524D01*
X12538333Y-10573571D01*
X12547857Y-10611667D01*
X12547857Y-10659286D01*
X12538333Y-10697381D01*
X12528809Y-10716429D01*
X12519286Y-10725952D01*
X12500238Y-10735476D01*
X12481190Y-10735476D01*
X12462143Y-10725952D01*
X12452619Y-10716429D01*
X12443095Y-10697381D01*
X12433571Y-10659286D01*
X12433571Y-10611667D01*
X12443095Y-10573571D01*
X12452619Y-10554524D01*
X12462143Y-10545000D01*
X12481190Y-10535476D01*
X12624048Y-10554524D02*
X12633571Y-10545000D01*
X12652619Y-10535476D01*
X12700238Y-10535476D01*
X12719286Y-10545000D01*
X12728809Y-10554524D01*
X12738333Y-10573571D01*
X12738333Y-10592619D01*
X12728809Y-10621190D01*
X12614524Y-10735476D01*
X12738333Y-10735476D01*
X12805000Y-10535476D02*
X12928809Y-10535476D01*
X12862143Y-10611667D01*
X12890714Y-10611667D01*
X12909762Y-10621190D01*
X12919286Y-10630714D01*
X12928809Y-10649762D01*
X12928809Y-10697381D01*
X12919286Y-10716429D01*
X12909762Y-10725952D01*
X12890714Y-10735476D01*
X12833571Y-10735476D01*
X12814524Y-10725952D01*
X12805000Y-10716429D01*
X13100238Y-10535476D02*
X13062143Y-10535476D01*
X13043095Y-10545000D01*
X13033571Y-10554524D01*
X13014524Y-10583095D01*
X13005000Y-10621190D01*
X13005000Y-10697381D01*
X13014524Y-10716429D01*
X13024048Y-10725952D01*
X13043095Y-10735476D01*
X13081190Y-10735476D01*
X13100238Y-10725952D01*
X13109762Y-10716429D01*
X13119286Y-10697381D01*
X13119286Y-10649762D01*
X13109762Y-10630714D01*
X13100238Y-10621190D01*
X13081190Y-10611667D01*
X13043095Y-10611667D01*
X13024048Y-10621190D01*
X13014524Y-10630714D01*
X13005000Y-10649762D01*
X13195476Y-10535476D02*
X13195476Y-10573571D01*
X13271667Y-10535476D02*
X13271667Y-10573571D01*
X13566905Y-10811667D02*
X13557381Y-10802143D01*
X13538333Y-10773571D01*
X13528809Y-10754524D01*
X13519286Y-10725952D01*
X13509762Y-10678333D01*
X13509762Y-10640238D01*
X13519286Y-10592619D01*
X13528809Y-10564048D01*
X13538333Y-10545000D01*
X13557381Y-10516429D01*
X13566905Y-10506905D01*
X13624048Y-10535476D02*
X13757381Y-10535476D01*
X13671667Y-10735476D01*
X13985952Y-10735476D02*
X13985952Y-10535476D01*
X14071667Y-10735476D02*
X14071667Y-10630714D01*
X14062143Y-10611667D01*
X14043095Y-10602143D01*
X14014524Y-10602143D01*
X13995476Y-10611667D01*
X13985952Y-10621190D01*
X14195476Y-10735476D02*
X14176428Y-10725952D01*
X14166905Y-10716429D01*
X14157381Y-10697381D01*
X14157381Y-10640238D01*
X14166905Y-10621190D01*
X14176428Y-10611667D01*
X14195476Y-10602143D01*
X14224048Y-10602143D01*
X14243095Y-10611667D01*
X14252619Y-10621190D01*
X14262143Y-10640238D01*
X14262143Y-10697381D01*
X14252619Y-10716429D01*
X14243095Y-10725952D01*
X14224048Y-10735476D01*
X14195476Y-10735476D01*
X14376428Y-10735476D02*
X14357381Y-10725952D01*
X14347857Y-10706905D01*
X14347857Y-10535476D01*
X14528809Y-10725952D02*
X14509762Y-10735476D01*
X14471667Y-10735476D01*
X14452619Y-10725952D01*
X14443095Y-10706905D01*
X14443095Y-10630714D01*
X14452619Y-10611667D01*
X14471667Y-10602143D01*
X14509762Y-10602143D01*
X14528809Y-10611667D01*
X14538333Y-10630714D01*
X14538333Y-10649762D01*
X14443095Y-10668810D01*
X14614524Y-10725952D02*
X14633571Y-10735476D01*
X14671667Y-10735476D01*
X14690714Y-10725952D01*
X14700238Y-10706905D01*
X14700238Y-10697381D01*
X14690714Y-10678333D01*
X14671667Y-10668810D01*
X14643095Y-10668810D01*
X14624048Y-10659286D01*
X14614524Y-10640238D01*
X14614524Y-10630714D01*
X14624048Y-10611667D01*
X14643095Y-10602143D01*
X14671667Y-10602143D01*
X14690714Y-10611667D01*
X14766905Y-10811667D02*
X14776428Y-10802143D01*
X14795476Y-10773571D01*
X14805000Y-10754524D01*
X14814524Y-10725952D01*
X14824048Y-10678333D01*
X14824048Y-10640238D01*
X14814524Y-10592619D01*
X14805000Y-10564048D01*
X14795476Y-10545000D01*
X14776428Y-10516429D01*
X14766905Y-10506905D01*
D13*
X9995000Y-10909000D02*
G75*
G03*
X9995000Y-10909000I-40000J0D01*
G01*
D11*
X10290714Y-10799476D02*
X10309762Y-10799476D01*
X10328810Y-10809000D01*
X10338333Y-10818524D01*
X10347857Y-10837571D01*
X10357381Y-10875667D01*
X10357381Y-10923286D01*
X10347857Y-10961381D01*
X10338333Y-10980429D01*
X10328810Y-10989952D01*
X10309762Y-10999476D01*
X10290714Y-10999476D01*
X10271667Y-10989952D01*
X10262143Y-10980429D01*
X10252619Y-10961381D01*
X10243095Y-10923286D01*
X10243095Y-10875667D01*
X10252619Y-10837571D01*
X10262143Y-10818524D01*
X10271667Y-10809000D01*
X10290714Y-10799476D01*
X10443095Y-10980429D02*
X10452619Y-10989952D01*
X10443095Y-10999476D01*
X10433571Y-10989952D01*
X10443095Y-10980429D01*
X10443095Y-10999476D01*
X10566905Y-10885190D02*
X10547857Y-10875667D01*
X10538333Y-10866143D01*
X10528810Y-10847095D01*
X10528810Y-10837571D01*
X10538333Y-10818524D01*
X10547857Y-10809000D01*
X10566905Y-10799476D01*
X10605000Y-10799476D01*
X10624048Y-10809000D01*
X10633571Y-10818524D01*
X10643095Y-10837571D01*
X10643095Y-10847095D01*
X10633571Y-10866143D01*
X10624048Y-10875667D01*
X10605000Y-10885190D01*
X10566905Y-10885190D01*
X10547857Y-10894714D01*
X10538333Y-10904238D01*
X10528810Y-10923286D01*
X10528810Y-10961381D01*
X10538333Y-10980429D01*
X10547857Y-10989952D01*
X10566905Y-10999476D01*
X10605000Y-10999476D01*
X10624048Y-10989952D01*
X10633571Y-10980429D01*
X10643095Y-10961381D01*
X10643095Y-10923286D01*
X10633571Y-10904238D01*
X10624048Y-10894714D01*
X10605000Y-10885190D01*
X10766905Y-10799476D02*
X10785952Y-10799476D01*
X10805000Y-10809000D01*
X10814524Y-10818524D01*
X10824048Y-10837571D01*
X10833571Y-10875667D01*
X10833571Y-10923286D01*
X10824048Y-10961381D01*
X10814524Y-10980429D01*
X10805000Y-10989952D01*
X10785952Y-10999476D01*
X10766905Y-10999476D01*
X10747857Y-10989952D01*
X10738333Y-10980429D01*
X10728810Y-10961381D01*
X10719286Y-10923286D01*
X10719286Y-10875667D01*
X10728810Y-10837571D01*
X10738333Y-10818524D01*
X10747857Y-10809000D01*
X10766905Y-10799476D01*
X10957381Y-10799476D02*
X10976429Y-10799476D01*
X10995476Y-10809000D01*
X11005000Y-10818524D01*
X11014524Y-10837571D01*
X11024048Y-10875667D01*
X11024048Y-10923286D01*
X11014524Y-10961381D01*
X11005000Y-10980429D01*
X10995476Y-10989952D01*
X10976429Y-10999476D01*
X10957381Y-10999476D01*
X10938333Y-10989952D01*
X10928810Y-10980429D01*
X10919286Y-10961381D01*
X10909762Y-10923286D01*
X10909762Y-10875667D01*
X10919286Y-10837571D01*
X10928810Y-10818524D01*
X10938333Y-10809000D01*
X10957381Y-10799476D01*
X11109762Y-10999476D02*
X11109762Y-10866143D01*
X11109762Y-10885190D02*
X11119286Y-10875667D01*
X11138333Y-10866143D01*
X11166905Y-10866143D01*
X11185952Y-10875667D01*
X11195476Y-10894714D01*
X11195476Y-10999476D01*
X11195476Y-10894714D02*
X11205000Y-10875667D01*
X11224048Y-10866143D01*
X11252619Y-10866143D01*
X11271667Y-10875667D01*
X11281190Y-10894714D01*
X11281190Y-10999476D01*
X11376428Y-10999476D02*
X11376428Y-10866143D01*
X11376428Y-10885190D02*
X11385952Y-10875667D01*
X11405000Y-10866143D01*
X11433571Y-10866143D01*
X11452619Y-10875667D01*
X11462143Y-10894714D01*
X11462143Y-10999476D01*
X11462143Y-10894714D02*
X11471667Y-10875667D01*
X11490714Y-10866143D01*
X11519286Y-10866143D01*
X11538333Y-10875667D01*
X11547857Y-10894714D01*
X11547857Y-10999476D01*
X11938333Y-10789952D02*
X11766905Y-11047095D01*
X12195476Y-10799476D02*
X12214524Y-10799476D01*
X12233571Y-10809000D01*
X12243095Y-10818524D01*
X12252619Y-10837571D01*
X12262143Y-10875667D01*
X12262143Y-10923286D01*
X12252619Y-10961381D01*
X12243095Y-10980429D01*
X12233571Y-10989952D01*
X12214524Y-10999476D01*
X12195476Y-10999476D01*
X12176428Y-10989952D01*
X12166905Y-10980429D01*
X12157381Y-10961381D01*
X12147857Y-10923286D01*
X12147857Y-10875667D01*
X12157381Y-10837571D01*
X12166905Y-10818524D01*
X12176428Y-10809000D01*
X12195476Y-10799476D01*
X12347857Y-10980429D02*
X12357381Y-10989952D01*
X12347857Y-10999476D01*
X12338333Y-10989952D01*
X12347857Y-10980429D01*
X12347857Y-10999476D01*
X12481190Y-10799476D02*
X12500238Y-10799476D01*
X12519286Y-10809000D01*
X12528809Y-10818524D01*
X12538333Y-10837571D01*
X12547857Y-10875667D01*
X12547857Y-10923286D01*
X12538333Y-10961381D01*
X12528809Y-10980429D01*
X12519286Y-10989952D01*
X12500238Y-10999476D01*
X12481190Y-10999476D01*
X12462143Y-10989952D01*
X12452619Y-10980429D01*
X12443095Y-10961381D01*
X12433571Y-10923286D01*
X12433571Y-10875667D01*
X12443095Y-10837571D01*
X12452619Y-10818524D01*
X12462143Y-10809000D01*
X12481190Y-10799476D01*
X12614524Y-10799476D02*
X12738333Y-10799476D01*
X12671667Y-10875667D01*
X12700238Y-10875667D01*
X12719286Y-10885190D01*
X12728809Y-10894714D01*
X12738333Y-10913762D01*
X12738333Y-10961381D01*
X12728809Y-10980429D01*
X12719286Y-10989952D01*
X12700238Y-10999476D01*
X12643095Y-10999476D01*
X12624048Y-10989952D01*
X12614524Y-10980429D01*
X12928809Y-10999476D02*
X12814524Y-10999476D01*
X12871667Y-10999476D02*
X12871667Y-10799476D01*
X12852619Y-10828048D01*
X12833571Y-10847095D01*
X12814524Y-10856619D01*
X13109762Y-10799476D02*
X13014524Y-10799476D01*
X13005000Y-10894714D01*
X13014524Y-10885190D01*
X13033571Y-10875667D01*
X13081190Y-10875667D01*
X13100238Y-10885190D01*
X13109762Y-10894714D01*
X13119286Y-10913762D01*
X13119286Y-10961381D01*
X13109762Y-10980429D01*
X13100238Y-10989952D01*
X13081190Y-10999476D01*
X13033571Y-10999476D01*
X13014524Y-10989952D01*
X13005000Y-10980429D01*
X13195476Y-10799476D02*
X13195476Y-10837571D01*
X13271667Y-10799476D02*
X13271667Y-10837571D01*
X13566905Y-11075667D02*
X13557381Y-11066143D01*
X13538333Y-11037571D01*
X13528809Y-11018524D01*
X13519286Y-10989952D01*
X13509762Y-10942333D01*
X13509762Y-10904238D01*
X13519286Y-10856619D01*
X13528809Y-10828048D01*
X13538333Y-10809000D01*
X13557381Y-10780429D01*
X13566905Y-10770905D01*
X13671667Y-10885190D02*
X13652619Y-10875667D01*
X13643095Y-10866143D01*
X13633571Y-10847095D01*
X13633571Y-10837571D01*
X13643095Y-10818524D01*
X13652619Y-10809000D01*
X13671667Y-10799476D01*
X13709762Y-10799476D01*
X13728809Y-10809000D01*
X13738333Y-10818524D01*
X13747857Y-10837571D01*
X13747857Y-10847095D01*
X13738333Y-10866143D01*
X13728809Y-10875667D01*
X13709762Y-10885190D01*
X13671667Y-10885190D01*
X13652619Y-10894714D01*
X13643095Y-10904238D01*
X13633571Y-10923286D01*
X13633571Y-10961381D01*
X13643095Y-10980429D01*
X13652619Y-10989952D01*
X13671667Y-10999476D01*
X13709762Y-10999476D01*
X13728809Y-10989952D01*
X13738333Y-10980429D01*
X13747857Y-10961381D01*
X13747857Y-10923286D01*
X13738333Y-10904238D01*
X13728809Y-10894714D01*
X13709762Y-10885190D01*
X13985952Y-10999476D02*
X13985952Y-10799476D01*
X14071667Y-10999476D02*
X14071667Y-10894714D01*
X14062143Y-10875667D01*
X14043095Y-10866143D01*
X14014524Y-10866143D01*
X13995476Y-10875667D01*
X13985952Y-10885190D01*
X14195476Y-10999476D02*
X14176428Y-10989952D01*
X14166905Y-10980429D01*
X14157381Y-10961381D01*
X14157381Y-10904238D01*
X14166905Y-10885190D01*
X14176428Y-10875667D01*
X14195476Y-10866143D01*
X14224048Y-10866143D01*
X14243095Y-10875667D01*
X14252619Y-10885190D01*
X14262143Y-10904238D01*
X14262143Y-10961381D01*
X14252619Y-10980429D01*
X14243095Y-10989952D01*
X14224048Y-10999476D01*
X14195476Y-10999476D01*
X14376428Y-10999476D02*
X14357381Y-10989952D01*
X14347857Y-10970905D01*
X14347857Y-10799476D01*
X14528809Y-10989952D02*
X14509762Y-10999476D01*
X14471667Y-10999476D01*
X14452619Y-10989952D01*
X14443095Y-10970905D01*
X14443095Y-10894714D01*
X14452619Y-10875667D01*
X14471667Y-10866143D01*
X14509762Y-10866143D01*
X14528809Y-10875667D01*
X14538333Y-10894714D01*
X14538333Y-10913762D01*
X14443095Y-10932810D01*
X14614524Y-10989952D02*
X14633571Y-10999476D01*
X14671667Y-10999476D01*
X14690714Y-10989952D01*
X14700238Y-10970905D01*
X14700238Y-10961381D01*
X14690714Y-10942333D01*
X14671667Y-10932810D01*
X14643095Y-10932810D01*
X14624048Y-10923286D01*
X14614524Y-10904238D01*
X14614524Y-10894714D01*
X14624048Y-10875667D01*
X14643095Y-10866143D01*
X14671667Y-10866143D01*
X14690714Y-10875667D01*
X14766905Y-11075667D02*
X14776428Y-11066143D01*
X14795476Y-11037571D01*
X14805000Y-11018524D01*
X14814524Y-10989952D01*
X14824048Y-10942333D01*
X14824048Y-10904238D01*
X14814524Y-10856619D01*
X14805000Y-10828048D01*
X14795476Y-10809000D01*
X14776428Y-10780429D01*
X14766905Y-10770905D01*
D14*
X9948000Y-11126000D02*
X9948000Y-11220000D01*
X9901000Y-11173000D02*
X9995000Y-11173000D01*
D11*
X10290714Y-11063476D02*
X10309762Y-11063476D01*
X10328810Y-11073000D01*
X10338333Y-11082524D01*
X10347857Y-11101571D01*
X10357381Y-11139667D01*
X10357381Y-11187286D01*
X10347857Y-11225381D01*
X10338333Y-11244428D01*
X10328810Y-11253952D01*
X10309762Y-11263476D01*
X10290714Y-11263476D01*
X10271667Y-11253952D01*
X10262143Y-11244428D01*
X10252619Y-11225381D01*
X10243095Y-11187286D01*
X10243095Y-11139667D01*
X10252619Y-11101571D01*
X10262143Y-11082524D01*
X10271667Y-11073000D01*
X10290714Y-11063476D01*
X10443095Y-11244428D02*
X10452619Y-11253952D01*
X10443095Y-11263476D01*
X10433571Y-11253952D01*
X10443095Y-11244428D01*
X10443095Y-11263476D01*
X10547857Y-11263476D02*
X10585952Y-11263476D01*
X10605000Y-11253952D01*
X10614524Y-11244428D01*
X10633571Y-11215857D01*
X10643095Y-11177762D01*
X10643095Y-11101571D01*
X10633571Y-11082524D01*
X10624048Y-11073000D01*
X10605000Y-11063476D01*
X10566905Y-11063476D01*
X10547857Y-11073000D01*
X10538333Y-11082524D01*
X10528810Y-11101571D01*
X10528810Y-11149190D01*
X10538333Y-11168238D01*
X10547857Y-11177762D01*
X10566905Y-11187286D01*
X10605000Y-11187286D01*
X10624048Y-11177762D01*
X10633571Y-11168238D01*
X10643095Y-11149190D01*
X10814524Y-11130143D02*
X10814524Y-11263476D01*
X10766905Y-11053952D02*
X10719286Y-11196809D01*
X10843095Y-11196809D01*
X10957381Y-11063476D02*
X10976429Y-11063476D01*
X10995476Y-11073000D01*
X11005000Y-11082524D01*
X11014524Y-11101571D01*
X11024048Y-11139667D01*
X11024048Y-11187286D01*
X11014524Y-11225381D01*
X11005000Y-11244428D01*
X10995476Y-11253952D01*
X10976429Y-11263476D01*
X10957381Y-11263476D01*
X10938333Y-11253952D01*
X10928810Y-11244428D01*
X10919286Y-11225381D01*
X10909762Y-11187286D01*
X10909762Y-11139667D01*
X10919286Y-11101571D01*
X10928810Y-11082524D01*
X10938333Y-11073000D01*
X10957381Y-11063476D01*
X11109762Y-11263476D02*
X11109762Y-11130143D01*
X11109762Y-11149190D02*
X11119286Y-11139667D01*
X11138333Y-11130143D01*
X11166905Y-11130143D01*
X11185952Y-11139667D01*
X11195476Y-11158714D01*
X11195476Y-11263476D01*
X11195476Y-11158714D02*
X11205000Y-11139667D01*
X11224048Y-11130143D01*
X11252619Y-11130143D01*
X11271667Y-11139667D01*
X11281190Y-11158714D01*
X11281190Y-11263476D01*
X11376428Y-11263476D02*
X11376428Y-11130143D01*
X11376428Y-11149190D02*
X11385952Y-11139667D01*
X11405000Y-11130143D01*
X11433571Y-11130143D01*
X11452619Y-11139667D01*
X11462143Y-11158714D01*
X11462143Y-11263476D01*
X11462143Y-11158714D02*
X11471667Y-11139667D01*
X11490714Y-11130143D01*
X11519286Y-11130143D01*
X11538333Y-11139667D01*
X11547857Y-11158714D01*
X11547857Y-11263476D01*
X11938333Y-11053952D02*
X11766905Y-11311095D01*
X12195476Y-11063476D02*
X12214524Y-11063476D01*
X12233571Y-11073000D01*
X12243095Y-11082524D01*
X12252619Y-11101571D01*
X12262143Y-11139667D01*
X12262143Y-11187286D01*
X12252619Y-11225381D01*
X12243095Y-11244428D01*
X12233571Y-11253952D01*
X12214524Y-11263476D01*
X12195476Y-11263476D01*
X12176428Y-11253952D01*
X12166905Y-11244428D01*
X12157381Y-11225381D01*
X12147857Y-11187286D01*
X12147857Y-11139667D01*
X12157381Y-11101571D01*
X12166905Y-11082524D01*
X12176428Y-11073000D01*
X12195476Y-11063476D01*
X12347857Y-11244428D02*
X12357381Y-11253952D01*
X12347857Y-11263476D01*
X12338333Y-11253952D01*
X12347857Y-11244428D01*
X12347857Y-11263476D01*
X12481190Y-11063476D02*
X12500238Y-11063476D01*
X12519286Y-11073000D01*
X12528809Y-11082524D01*
X12538333Y-11101571D01*
X12547857Y-11139667D01*
X12547857Y-11187286D01*
X12538333Y-11225381D01*
X12528809Y-11244428D01*
X12519286Y-11253952D01*
X12500238Y-11263476D01*
X12481190Y-11263476D01*
X12462143Y-11253952D01*
X12452619Y-11244428D01*
X12443095Y-11225381D01*
X12433571Y-11187286D01*
X12433571Y-11139667D01*
X12443095Y-11101571D01*
X12452619Y-11082524D01*
X12462143Y-11073000D01*
X12481190Y-11063476D01*
X12614524Y-11063476D02*
X12738333Y-11063476D01*
X12671667Y-11139667D01*
X12700238Y-11139667D01*
X12719286Y-11149190D01*
X12728809Y-11158714D01*
X12738333Y-11177762D01*
X12738333Y-11225381D01*
X12728809Y-11244428D01*
X12719286Y-11253952D01*
X12700238Y-11263476D01*
X12643095Y-11263476D01*
X12624048Y-11253952D01*
X12614524Y-11244428D01*
X12805000Y-11063476D02*
X12938333Y-11063476D01*
X12852619Y-11263476D01*
X13052619Y-11063476D02*
X13071667Y-11063476D01*
X13090714Y-11073000D01*
X13100238Y-11082524D01*
X13109762Y-11101571D01*
X13119286Y-11139667D01*
X13119286Y-11187286D01*
X13109762Y-11225381D01*
X13100238Y-11244428D01*
X13090714Y-11253952D01*
X13071667Y-11263476D01*
X13052619Y-11263476D01*
X13033571Y-11253952D01*
X13024048Y-11244428D01*
X13014524Y-11225381D01*
X13005000Y-11187286D01*
X13005000Y-11139667D01*
X13014524Y-11101571D01*
X13024048Y-11082524D01*
X13033571Y-11073000D01*
X13052619Y-11063476D01*
X13195476Y-11063476D02*
X13195476Y-11101571D01*
X13271667Y-11063476D02*
X13271667Y-11101571D01*
X13566905Y-11339667D02*
X13557381Y-11330143D01*
X13538333Y-11301571D01*
X13528809Y-11282524D01*
X13519286Y-11253952D01*
X13509762Y-11206333D01*
X13509762Y-11168238D01*
X13519286Y-11120619D01*
X13528809Y-11092048D01*
X13538333Y-11073000D01*
X13557381Y-11044429D01*
X13566905Y-11034905D01*
X13624048Y-11063476D02*
X13747857Y-11063476D01*
X13681190Y-11139667D01*
X13709762Y-11139667D01*
X13728809Y-11149190D01*
X13738333Y-11158714D01*
X13747857Y-11177762D01*
X13747857Y-11225381D01*
X13738333Y-11244428D01*
X13728809Y-11253952D01*
X13709762Y-11263476D01*
X13652619Y-11263476D01*
X13633571Y-11253952D01*
X13624048Y-11244428D01*
X13985952Y-11263476D02*
X13985952Y-11063476D01*
X14071667Y-11263476D02*
X14071667Y-11158714D01*
X14062143Y-11139667D01*
X14043095Y-11130143D01*
X14014524Y-11130143D01*
X13995476Y-11139667D01*
X13985952Y-11149190D01*
X14195476Y-11263476D02*
X14176428Y-11253952D01*
X14166905Y-11244428D01*
X14157381Y-11225381D01*
X14157381Y-11168238D01*
X14166905Y-11149190D01*
X14176428Y-11139667D01*
X14195476Y-11130143D01*
X14224048Y-11130143D01*
X14243095Y-11139667D01*
X14252619Y-11149190D01*
X14262143Y-11168238D01*
X14262143Y-11225381D01*
X14252619Y-11244428D01*
X14243095Y-11253952D01*
X14224048Y-11263476D01*
X14195476Y-11263476D01*
X14376428Y-11263476D02*
X14357381Y-11253952D01*
X14347857Y-11234905D01*
X14347857Y-11063476D01*
X14528809Y-11253952D02*
X14509762Y-11263476D01*
X14471667Y-11263476D01*
X14452619Y-11253952D01*
X14443095Y-11234905D01*
X14443095Y-11158714D01*
X14452619Y-11139667D01*
X14471667Y-11130143D01*
X14509762Y-11130143D01*
X14528809Y-11139667D01*
X14538333Y-11158714D01*
X14538333Y-11177762D01*
X14443095Y-11196809D01*
X14614524Y-11253952D02*
X14633571Y-11263476D01*
X14671667Y-11263476D01*
X14690714Y-11253952D01*
X14700238Y-11234905D01*
X14700238Y-11225381D01*
X14690714Y-11206333D01*
X14671667Y-11196809D01*
X14643095Y-11196809D01*
X14624048Y-11187286D01*
X14614524Y-11168238D01*
X14614524Y-11158714D01*
X14624048Y-11139667D01*
X14643095Y-11130143D01*
X14671667Y-11130143D01*
X14690714Y-11139667D01*
X14766905Y-11339667D02*
X14776428Y-11330143D01*
X14795476Y-11301571D01*
X14805000Y-11282524D01*
X14814524Y-11253952D01*
X14824048Y-11206333D01*
X14824048Y-11168238D01*
X14814524Y-11120619D01*
X14805000Y-11092048D01*
X14795476Y-11073000D01*
X14776428Y-11044429D01*
X14766905Y-11034905D01*
D10*
X9980356Y-11472356D02*
X9980356Y-11401644D01*
X9909644Y-11401644D01*
X9909644Y-11472356D01*
X9980356Y-11472356D01*
D11*
X10357381Y-11527476D02*
X10243095Y-11527476D01*
X10300238Y-11527476D02*
X10300238Y-11327476D01*
X10281190Y-11356048D01*
X10262143Y-11375095D01*
X10243095Y-11384619D01*
X10443095Y-11508428D02*
X10452619Y-11517952D01*
X10443095Y-11527476D01*
X10433571Y-11517952D01*
X10443095Y-11508428D01*
X10443095Y-11527476D01*
X10576429Y-11327476D02*
X10595476Y-11327476D01*
X10614524Y-11337000D01*
X10624048Y-11346524D01*
X10633571Y-11365571D01*
X10643095Y-11403667D01*
X10643095Y-11451286D01*
X10633571Y-11489381D01*
X10624048Y-11508428D01*
X10614524Y-11517952D01*
X10595476Y-11527476D01*
X10576429Y-11527476D01*
X10557381Y-11517952D01*
X10547857Y-11508428D01*
X10538333Y-11489381D01*
X10528810Y-11451286D01*
X10528810Y-11403667D01*
X10538333Y-11365571D01*
X10547857Y-11346524D01*
X10557381Y-11337000D01*
X10576429Y-11327476D01*
X10766905Y-11327476D02*
X10785952Y-11327476D01*
X10805000Y-11337000D01*
X10814524Y-11346524D01*
X10824048Y-11365571D01*
X10833571Y-11403667D01*
X10833571Y-11451286D01*
X10824048Y-11489381D01*
X10814524Y-11508428D01*
X10805000Y-11517952D01*
X10785952Y-11527476D01*
X10766905Y-11527476D01*
X10747857Y-11517952D01*
X10738333Y-11508428D01*
X10728810Y-11489381D01*
X10719286Y-11451286D01*
X10719286Y-11403667D01*
X10728810Y-11365571D01*
X10738333Y-11346524D01*
X10747857Y-11337000D01*
X10766905Y-11327476D01*
X10957381Y-11327476D02*
X10976429Y-11327476D01*
X10995476Y-11337000D01*
X11005000Y-11346524D01*
X11014524Y-11365571D01*
X11024048Y-11403667D01*
X11024048Y-11451286D01*
X11014524Y-11489381D01*
X11005000Y-11508428D01*
X10995476Y-11517952D01*
X10976429Y-11527476D01*
X10957381Y-11527476D01*
X10938333Y-11517952D01*
X10928810Y-11508428D01*
X10919286Y-11489381D01*
X10909762Y-11451286D01*
X10909762Y-11403667D01*
X10919286Y-11365571D01*
X10928810Y-11346524D01*
X10938333Y-11337000D01*
X10957381Y-11327476D01*
X11109762Y-11527476D02*
X11109762Y-11394143D01*
X11109762Y-11413190D02*
X11119286Y-11403667D01*
X11138333Y-11394143D01*
X11166905Y-11394143D01*
X11185952Y-11403667D01*
X11195476Y-11422714D01*
X11195476Y-11527476D01*
X11195476Y-11422714D02*
X11205000Y-11403667D01*
X11224048Y-11394143D01*
X11252619Y-11394143D01*
X11271667Y-11403667D01*
X11281190Y-11422714D01*
X11281190Y-11527476D01*
X11376428Y-11527476D02*
X11376428Y-11394143D01*
X11376428Y-11413190D02*
X11385952Y-11403667D01*
X11405000Y-11394143D01*
X11433571Y-11394143D01*
X11452619Y-11403667D01*
X11462143Y-11422714D01*
X11462143Y-11527476D01*
X11462143Y-11422714D02*
X11471667Y-11403667D01*
X11490714Y-11394143D01*
X11519286Y-11394143D01*
X11538333Y-11403667D01*
X11547857Y-11422714D01*
X11547857Y-11527476D01*
X11938333Y-11317952D02*
X11766905Y-11575095D01*
X12195476Y-11327476D02*
X12214524Y-11327476D01*
X12233571Y-11337000D01*
X12243095Y-11346524D01*
X12252619Y-11365571D01*
X12262143Y-11403667D01*
X12262143Y-11451286D01*
X12252619Y-11489381D01*
X12243095Y-11508428D01*
X12233571Y-11517952D01*
X12214524Y-11527476D01*
X12195476Y-11527476D01*
X12176428Y-11517952D01*
X12166905Y-11508428D01*
X12157381Y-11489381D01*
X12147857Y-11451286D01*
X12147857Y-11403667D01*
X12157381Y-11365571D01*
X12166905Y-11346524D01*
X12176428Y-11337000D01*
X12195476Y-11327476D01*
X12347857Y-11508428D02*
X12357381Y-11517952D01*
X12347857Y-11527476D01*
X12338333Y-11517952D01*
X12347857Y-11508428D01*
X12347857Y-11527476D01*
X12481190Y-11327476D02*
X12500238Y-11327476D01*
X12519286Y-11337000D01*
X12528809Y-11346524D01*
X12538333Y-11365571D01*
X12547857Y-11403667D01*
X12547857Y-11451286D01*
X12538333Y-11489381D01*
X12528809Y-11508428D01*
X12519286Y-11517952D01*
X12500238Y-11527476D01*
X12481190Y-11527476D01*
X12462143Y-11517952D01*
X12452619Y-11508428D01*
X12443095Y-11489381D01*
X12433571Y-11451286D01*
X12433571Y-11403667D01*
X12443095Y-11365571D01*
X12452619Y-11346524D01*
X12462143Y-11337000D01*
X12481190Y-11327476D01*
X12614524Y-11327476D02*
X12738333Y-11327476D01*
X12671667Y-11403667D01*
X12700238Y-11403667D01*
X12719286Y-11413190D01*
X12728809Y-11422714D01*
X12738333Y-11441762D01*
X12738333Y-11489381D01*
X12728809Y-11508428D01*
X12719286Y-11517952D01*
X12700238Y-11527476D01*
X12643095Y-11527476D01*
X12624048Y-11517952D01*
X12614524Y-11508428D01*
X12833571Y-11527476D02*
X12871667Y-11527476D01*
X12890714Y-11517952D01*
X12900238Y-11508428D01*
X12919286Y-11479857D01*
X12928809Y-11441762D01*
X12928809Y-11365571D01*
X12919286Y-11346524D01*
X12909762Y-11337000D01*
X12890714Y-11327476D01*
X12852619Y-11327476D01*
X12833571Y-11337000D01*
X12824048Y-11346524D01*
X12814524Y-11365571D01*
X12814524Y-11413190D01*
X12824048Y-11432238D01*
X12833571Y-11441762D01*
X12852619Y-11451286D01*
X12890714Y-11451286D01*
X12909762Y-11441762D01*
X12919286Y-11432238D01*
X12928809Y-11413190D01*
X13100238Y-11394143D02*
X13100238Y-11527476D01*
X13052619Y-11317952D02*
X13005000Y-11460809D01*
X13128809Y-11460809D01*
X13195476Y-11327476D02*
X13195476Y-11365571D01*
X13271667Y-11327476D02*
X13271667Y-11365571D01*
X13566905Y-11603667D02*
X13557381Y-11594143D01*
X13538333Y-11565571D01*
X13528809Y-11546524D01*
X13519286Y-11517952D01*
X13509762Y-11470333D01*
X13509762Y-11432238D01*
X13519286Y-11384619D01*
X13528809Y-11356048D01*
X13538333Y-11337000D01*
X13557381Y-11308428D01*
X13566905Y-11298905D01*
X13738333Y-11327476D02*
X13643095Y-11327476D01*
X13633571Y-11422714D01*
X13643095Y-11413190D01*
X13662143Y-11403667D01*
X13709762Y-11403667D01*
X13728809Y-11413190D01*
X13738333Y-11422714D01*
X13747857Y-11441762D01*
X13747857Y-11489381D01*
X13738333Y-11508428D01*
X13728809Y-11517952D01*
X13709762Y-11527476D01*
X13662143Y-11527476D01*
X13643095Y-11517952D01*
X13633571Y-11508428D01*
X13814524Y-11327476D02*
X13947857Y-11327476D01*
X13862143Y-11527476D01*
X14176428Y-11527476D02*
X14176428Y-11327476D01*
X14262143Y-11527476D02*
X14262143Y-11422714D01*
X14252619Y-11403667D01*
X14233571Y-11394143D01*
X14205000Y-11394143D01*
X14185952Y-11403667D01*
X14176428Y-11413190D01*
X14385952Y-11527476D02*
X14366905Y-11517952D01*
X14357381Y-11508428D01*
X14347857Y-11489381D01*
X14347857Y-11432238D01*
X14357381Y-11413190D01*
X14366905Y-11403667D01*
X14385952Y-11394143D01*
X14414524Y-11394143D01*
X14433571Y-11403667D01*
X14443095Y-11413190D01*
X14452619Y-11432238D01*
X14452619Y-11489381D01*
X14443095Y-11508428D01*
X14433571Y-11517952D01*
X14414524Y-11527476D01*
X14385952Y-11527476D01*
X14566905Y-11527476D02*
X14547857Y-11517952D01*
X14538333Y-11498905D01*
X14538333Y-11327476D01*
X14719286Y-11517952D02*
X14700238Y-11527476D01*
X14662143Y-11527476D01*
X14643095Y-11517952D01*
X14633571Y-11498905D01*
X14633571Y-11422714D01*
X14643095Y-11403667D01*
X14662143Y-11394143D01*
X14700238Y-11394143D01*
X14719286Y-11403667D01*
X14728809Y-11422714D01*
X14728809Y-11441762D01*
X14633571Y-11460809D01*
X14805000Y-11517952D02*
X14824048Y-11527476D01*
X14862143Y-11527476D01*
X14881190Y-11517952D01*
X14890714Y-11498905D01*
X14890714Y-11489381D01*
X14881190Y-11470333D01*
X14862143Y-11460809D01*
X14833571Y-11460809D01*
X14814524Y-11451286D01*
X14805000Y-11432238D01*
X14805000Y-11422714D01*
X14814524Y-11403667D01*
X14833571Y-11394143D01*
X14862143Y-11394143D01*
X14881190Y-11403667D01*
X14957381Y-11603667D02*
X14966905Y-11594143D01*
X14985952Y-11565571D01*
X14995476Y-11546524D01*
X15005000Y-11517952D01*
X15014524Y-11470333D01*
X15014524Y-11432238D01*
X15005000Y-11384619D01*
X14995476Y-11356048D01*
X14985952Y-11337000D01*
X14966905Y-11308428D01*
X14957381Y-11298905D01*
D15*
X9940000Y-11756000D02*
X9995000Y-11701000D01*
X9940000Y-11646000D01*
X9885000Y-11701000D01*
X9940000Y-11756000D01*
D11*
X10357381Y-11791476D02*
X10243095Y-11791476D01*
X10300238Y-11791476D02*
X10300238Y-11591476D01*
X10281190Y-11620048D01*
X10262143Y-11639095D01*
X10243095Y-11648619D01*
X10443095Y-11772428D02*
X10452619Y-11781952D01*
X10443095Y-11791476D01*
X10433571Y-11781952D01*
X10443095Y-11772428D01*
X10443095Y-11791476D01*
X10643095Y-11791476D02*
X10528810Y-11791476D01*
X10585952Y-11791476D02*
X10585952Y-11591476D01*
X10566905Y-11620048D01*
X10547857Y-11639095D01*
X10528810Y-11648619D01*
X10766905Y-11591476D02*
X10785952Y-11591476D01*
X10805000Y-11601000D01*
X10814524Y-11610524D01*
X10824048Y-11629571D01*
X10833571Y-11667667D01*
X10833571Y-11715286D01*
X10824048Y-11753381D01*
X10814524Y-11772428D01*
X10805000Y-11781952D01*
X10785952Y-11791476D01*
X10766905Y-11791476D01*
X10747857Y-11781952D01*
X10738333Y-11772428D01*
X10728810Y-11753381D01*
X10719286Y-11715286D01*
X10719286Y-11667667D01*
X10728810Y-11629571D01*
X10738333Y-11610524D01*
X10747857Y-11601000D01*
X10766905Y-11591476D01*
X10957381Y-11591476D02*
X10976429Y-11591476D01*
X10995476Y-11601000D01*
X11005000Y-11610524D01*
X11014524Y-11629571D01*
X11024048Y-11667667D01*
X11024048Y-11715286D01*
X11014524Y-11753381D01*
X11005000Y-11772428D01*
X10995476Y-11781952D01*
X10976429Y-11791476D01*
X10957381Y-11791476D01*
X10938333Y-11781952D01*
X10928810Y-11772428D01*
X10919286Y-11753381D01*
X10909762Y-11715286D01*
X10909762Y-11667667D01*
X10919286Y-11629571D01*
X10928810Y-11610524D01*
X10938333Y-11601000D01*
X10957381Y-11591476D01*
X11109762Y-11791476D02*
X11109762Y-11658143D01*
X11109762Y-11677190D02*
X11119286Y-11667667D01*
X11138333Y-11658143D01*
X11166905Y-11658143D01*
X11185952Y-11667667D01*
X11195476Y-11686714D01*
X11195476Y-11791476D01*
X11195476Y-11686714D02*
X11205000Y-11667667D01*
X11224048Y-11658143D01*
X11252619Y-11658143D01*
X11271667Y-11667667D01*
X11281190Y-11686714D01*
X11281190Y-11791476D01*
X11376428Y-11791476D02*
X11376428Y-11658143D01*
X11376428Y-11677190D02*
X11385952Y-11667667D01*
X11405000Y-11658143D01*
X11433571Y-11658143D01*
X11452619Y-11667667D01*
X11462143Y-11686714D01*
X11462143Y-11791476D01*
X11462143Y-11686714D02*
X11471667Y-11667667D01*
X11490714Y-11658143D01*
X11519286Y-11658143D01*
X11538333Y-11667667D01*
X11547857Y-11686714D01*
X11547857Y-11791476D01*
X11938333Y-11581952D02*
X11766905Y-11839095D01*
X12195476Y-11591476D02*
X12214524Y-11591476D01*
X12233571Y-11601000D01*
X12243095Y-11610524D01*
X12252619Y-11629571D01*
X12262143Y-11667667D01*
X12262143Y-11715286D01*
X12252619Y-11753381D01*
X12243095Y-11772428D01*
X12233571Y-11781952D01*
X12214524Y-11791476D01*
X12195476Y-11791476D01*
X12176428Y-11781952D01*
X12166905Y-11772428D01*
X12157381Y-11753381D01*
X12147857Y-11715286D01*
X12147857Y-11667667D01*
X12157381Y-11629571D01*
X12166905Y-11610524D01*
X12176428Y-11601000D01*
X12195476Y-11591476D01*
X12347857Y-11772428D02*
X12357381Y-11781952D01*
X12347857Y-11791476D01*
X12338333Y-11781952D01*
X12347857Y-11772428D01*
X12347857Y-11791476D01*
X12481190Y-11591476D02*
X12500238Y-11591476D01*
X12519286Y-11601000D01*
X12528809Y-11610524D01*
X12538333Y-11629571D01*
X12547857Y-11667667D01*
X12547857Y-11715286D01*
X12538333Y-11753381D01*
X12528809Y-11772428D01*
X12519286Y-11781952D01*
X12500238Y-11791476D01*
X12481190Y-11791476D01*
X12462143Y-11781952D01*
X12452619Y-11772428D01*
X12443095Y-11753381D01*
X12433571Y-11715286D01*
X12433571Y-11667667D01*
X12443095Y-11629571D01*
X12452619Y-11610524D01*
X12462143Y-11601000D01*
X12481190Y-11591476D01*
X12719286Y-11658143D02*
X12719286Y-11791476D01*
X12671667Y-11581952D02*
X12624048Y-11724809D01*
X12747857Y-11724809D01*
X12805000Y-11591476D02*
X12928809Y-11591476D01*
X12862143Y-11667667D01*
X12890714Y-11667667D01*
X12909762Y-11677190D01*
X12919286Y-11686714D01*
X12928809Y-11705762D01*
X12928809Y-11753381D01*
X12919286Y-11772428D01*
X12909762Y-11781952D01*
X12890714Y-11791476D01*
X12833571Y-11791476D01*
X12814524Y-11781952D01*
X12805000Y-11772428D01*
X12995476Y-11591476D02*
X13119286Y-11591476D01*
X13052619Y-11667667D01*
X13081190Y-11667667D01*
X13100238Y-11677190D01*
X13109762Y-11686714D01*
X13119286Y-11705762D01*
X13119286Y-11753381D01*
X13109762Y-11772428D01*
X13100238Y-11781952D01*
X13081190Y-11791476D01*
X13024048Y-11791476D01*
X13005000Y-11781952D01*
X12995476Y-11772428D01*
X13195476Y-11591476D02*
X13195476Y-11629571D01*
X13271667Y-11591476D02*
X13271667Y-11629571D01*
X13566905Y-11867667D02*
X13557381Y-11858143D01*
X13538333Y-11829571D01*
X13528809Y-11810524D01*
X13519286Y-11781952D01*
X13509762Y-11734333D01*
X13509762Y-11696238D01*
X13519286Y-11648619D01*
X13528809Y-11620048D01*
X13538333Y-11601000D01*
X13557381Y-11572428D01*
X13566905Y-11562905D01*
X13728809Y-11591476D02*
X13690714Y-11591476D01*
X13671667Y-11601000D01*
X13662143Y-11610524D01*
X13643095Y-11639095D01*
X13633571Y-11677190D01*
X13633571Y-11753381D01*
X13643095Y-11772428D01*
X13652619Y-11781952D01*
X13671667Y-11791476D01*
X13709762Y-11791476D01*
X13728809Y-11781952D01*
X13738333Y-11772428D01*
X13747857Y-11753381D01*
X13747857Y-11705762D01*
X13738333Y-11686714D01*
X13728809Y-11677190D01*
X13709762Y-11667667D01*
X13671667Y-11667667D01*
X13652619Y-11677190D01*
X13643095Y-11686714D01*
X13633571Y-11705762D01*
X13985952Y-11791476D02*
X13985952Y-11591476D01*
X14071667Y-11791476D02*
X14071667Y-11686714D01*
X14062143Y-11667667D01*
X14043095Y-11658143D01*
X14014524Y-11658143D01*
X13995476Y-11667667D01*
X13985952Y-11677190D01*
X14195476Y-11791476D02*
X14176428Y-11781952D01*
X14166905Y-11772428D01*
X14157381Y-11753381D01*
X14157381Y-11696238D01*
X14166905Y-11677190D01*
X14176428Y-11667667D01*
X14195476Y-11658143D01*
X14224048Y-11658143D01*
X14243095Y-11667667D01*
X14252619Y-11677190D01*
X14262143Y-11696238D01*
X14262143Y-11753381D01*
X14252619Y-11772428D01*
X14243095Y-11781952D01*
X14224048Y-11791476D01*
X14195476Y-11791476D01*
X14376428Y-11791476D02*
X14357381Y-11781952D01*
X14347857Y-11762905D01*
X14347857Y-11591476D01*
X14528809Y-11781952D02*
X14509762Y-11791476D01*
X14471667Y-11791476D01*
X14452619Y-11781952D01*
X14443095Y-11762905D01*
X14443095Y-11686714D01*
X14452619Y-11667667D01*
X14471667Y-11658143D01*
X14509762Y-11658143D01*
X14528809Y-11667667D01*
X14538333Y-11686714D01*
X14538333Y-11705762D01*
X14443095Y-11724809D01*
X14614524Y-11781952D02*
X14633571Y-11791476D01*
X14671667Y-11791476D01*
X14690714Y-11781952D01*
X14700238Y-11762905D01*
X14700238Y-11753381D01*
X14690714Y-11734333D01*
X14671667Y-11724809D01*
X14643095Y-11724809D01*
X14624048Y-11715286D01*
X14614524Y-11696238D01*
X14614524Y-11686714D01*
X14624048Y-11667667D01*
X14643095Y-11658143D01*
X14671667Y-11658143D01*
X14690714Y-11667667D01*
X14766905Y-11867667D02*
X14776428Y-11858143D01*
X14795476Y-11829571D01*
X14805000Y-11810524D01*
X14814524Y-11781952D01*
X14824048Y-11734333D01*
X14824048Y-11696238D01*
X14814524Y-11648619D01*
X14805000Y-11620048D01*
X14795476Y-11601000D01*
X14776428Y-11572428D01*
X14766905Y-11562905D01*
D16*
X9875000Y-11905000D02*
X9995000Y-12025000D01*
X9995000Y-11905000D02*
X9875000Y-12025000D01*
X9995000Y-11965000D02*
G75*
G03*
X9995000Y-11965000I-60000J0D01*
G01*
D11*
X10357381Y-12055476D02*
X10243095Y-12055476D01*
X10300238Y-12055476D02*
X10300238Y-11855476D01*
X10281190Y-11884048D01*
X10262143Y-11903095D01*
X10243095Y-11912619D01*
X10443095Y-12036428D02*
X10452619Y-12045952D01*
X10443095Y-12055476D01*
X10433571Y-12045952D01*
X10443095Y-12036428D01*
X10443095Y-12055476D01*
X10528810Y-11874524D02*
X10538333Y-11865000D01*
X10557381Y-11855476D01*
X10605000Y-11855476D01*
X10624048Y-11865000D01*
X10633571Y-11874524D01*
X10643095Y-11893571D01*
X10643095Y-11912619D01*
X10633571Y-11941190D01*
X10519286Y-12055476D01*
X10643095Y-12055476D01*
X10766905Y-11855476D02*
X10785952Y-11855476D01*
X10805000Y-11865000D01*
X10814524Y-11874524D01*
X10824048Y-11893571D01*
X10833571Y-11931667D01*
X10833571Y-11979286D01*
X10824048Y-12017381D01*
X10814524Y-12036428D01*
X10805000Y-12045952D01*
X10785952Y-12055476D01*
X10766905Y-12055476D01*
X10747857Y-12045952D01*
X10738333Y-12036428D01*
X10728810Y-12017381D01*
X10719286Y-11979286D01*
X10719286Y-11931667D01*
X10728810Y-11893571D01*
X10738333Y-11874524D01*
X10747857Y-11865000D01*
X10766905Y-11855476D01*
X10957381Y-11855476D02*
X10976429Y-11855476D01*
X10995476Y-11865000D01*
X11005000Y-11874524D01*
X11014524Y-11893571D01*
X11024048Y-11931667D01*
X11024048Y-11979286D01*
X11014524Y-12017381D01*
X11005000Y-12036428D01*
X10995476Y-12045952D01*
X10976429Y-12055476D01*
X10957381Y-12055476D01*
X10938333Y-12045952D01*
X10928810Y-12036428D01*
X10919286Y-12017381D01*
X10909762Y-11979286D01*
X10909762Y-11931667D01*
X10919286Y-11893571D01*
X10928810Y-11874524D01*
X10938333Y-11865000D01*
X10957381Y-11855476D01*
X11109762Y-12055476D02*
X11109762Y-11922143D01*
X11109762Y-11941190D02*
X11119286Y-11931667D01*
X11138333Y-11922143D01*
X11166905Y-11922143D01*
X11185952Y-11931667D01*
X11195476Y-11950714D01*
X11195476Y-12055476D01*
X11195476Y-11950714D02*
X11205000Y-11931667D01*
X11224048Y-11922143D01*
X11252619Y-11922143D01*
X11271667Y-11931667D01*
X11281190Y-11950714D01*
X11281190Y-12055476D01*
X11376428Y-12055476D02*
X11376428Y-11922143D01*
X11376428Y-11941190D02*
X11385952Y-11931667D01*
X11405000Y-11922143D01*
X11433571Y-11922143D01*
X11452619Y-11931667D01*
X11462143Y-11950714D01*
X11462143Y-12055476D01*
X11462143Y-11950714D02*
X11471667Y-11931667D01*
X11490714Y-11922143D01*
X11519286Y-11922143D01*
X11538333Y-11931667D01*
X11547857Y-11950714D01*
X11547857Y-12055476D01*
X11938333Y-11845952D02*
X11766905Y-12103095D01*
X12195476Y-11855476D02*
X12214524Y-11855476D01*
X12233571Y-11865000D01*
X12243095Y-11874524D01*
X12252619Y-11893571D01*
X12262143Y-11931667D01*
X12262143Y-11979286D01*
X12252619Y-12017381D01*
X12243095Y-12036428D01*
X12233571Y-12045952D01*
X12214524Y-12055476D01*
X12195476Y-12055476D01*
X12176428Y-12045952D01*
X12166905Y-12036428D01*
X12157381Y-12017381D01*
X12147857Y-11979286D01*
X12147857Y-11931667D01*
X12157381Y-11893571D01*
X12166905Y-11874524D01*
X12176428Y-11865000D01*
X12195476Y-11855476D01*
X12347857Y-12036428D02*
X12357381Y-12045952D01*
X12347857Y-12055476D01*
X12338333Y-12045952D01*
X12347857Y-12036428D01*
X12347857Y-12055476D01*
X12481190Y-11855476D02*
X12500238Y-11855476D01*
X12519286Y-11865000D01*
X12528809Y-11874524D01*
X12538333Y-11893571D01*
X12547857Y-11931667D01*
X12547857Y-11979286D01*
X12538333Y-12017381D01*
X12528809Y-12036428D01*
X12519286Y-12045952D01*
X12500238Y-12055476D01*
X12481190Y-12055476D01*
X12462143Y-12045952D01*
X12452619Y-12036428D01*
X12443095Y-12017381D01*
X12433571Y-11979286D01*
X12433571Y-11931667D01*
X12443095Y-11893571D01*
X12452619Y-11874524D01*
X12462143Y-11865000D01*
X12481190Y-11855476D01*
X12719286Y-11922143D02*
X12719286Y-12055476D01*
X12671667Y-11845952D02*
X12624048Y-11988809D01*
X12747857Y-11988809D01*
X12805000Y-11855476D02*
X12938333Y-11855476D01*
X12852619Y-12055476D01*
X13005000Y-11874524D02*
X13014524Y-11865000D01*
X13033571Y-11855476D01*
X13081190Y-11855476D01*
X13100238Y-11865000D01*
X13109762Y-11874524D01*
X13119286Y-11893571D01*
X13119286Y-11912619D01*
X13109762Y-11941190D01*
X12995476Y-12055476D01*
X13119286Y-12055476D01*
X13195476Y-11855476D02*
X13195476Y-11893571D01*
X13271667Y-11855476D02*
X13271667Y-11893571D01*
X13566905Y-12131667D02*
X13557381Y-12122143D01*
X13538333Y-12093571D01*
X13528809Y-12074524D01*
X13519286Y-12045952D01*
X13509762Y-11998333D01*
X13509762Y-11960238D01*
X13519286Y-11912619D01*
X13528809Y-11884048D01*
X13538333Y-11865000D01*
X13557381Y-11836428D01*
X13566905Y-11826905D01*
X13633571Y-11874524D02*
X13643095Y-11865000D01*
X13662143Y-11855476D01*
X13709762Y-11855476D01*
X13728809Y-11865000D01*
X13738333Y-11874524D01*
X13747857Y-11893571D01*
X13747857Y-11912619D01*
X13738333Y-11941190D01*
X13624048Y-12055476D01*
X13747857Y-12055476D01*
X13985952Y-12055476D02*
X13985952Y-11855476D01*
X14071667Y-12055476D02*
X14071667Y-11950714D01*
X14062143Y-11931667D01*
X14043095Y-11922143D01*
X14014524Y-11922143D01*
X13995476Y-11931667D01*
X13985952Y-11941190D01*
X14195476Y-12055476D02*
X14176428Y-12045952D01*
X14166905Y-12036428D01*
X14157381Y-12017381D01*
X14157381Y-11960238D01*
X14166905Y-11941190D01*
X14176428Y-11931667D01*
X14195476Y-11922143D01*
X14224048Y-11922143D01*
X14243095Y-11931667D01*
X14252619Y-11941190D01*
X14262143Y-11960238D01*
X14262143Y-12017381D01*
X14252619Y-12036428D01*
X14243095Y-12045952D01*
X14224048Y-12055476D01*
X14195476Y-12055476D01*
X14376428Y-12055476D02*
X14357381Y-12045952D01*
X14347857Y-12026905D01*
X14347857Y-11855476D01*
X14528809Y-12045952D02*
X14509762Y-12055476D01*
X14471667Y-12055476D01*
X14452619Y-12045952D01*
X14443095Y-12026905D01*
X14443095Y-11950714D01*
X14452619Y-11931667D01*
X14471667Y-11922143D01*
X14509762Y-11922143D01*
X14528809Y-11931667D01*
X14538333Y-11950714D01*
X14538333Y-11969762D01*
X14443095Y-11988809D01*
X14614524Y-12045952D02*
X14633571Y-12055476D01*
X14671667Y-12055476D01*
X14690714Y-12045952D01*
X14700238Y-12026905D01*
X14700238Y-12017381D01*
X14690714Y-11998333D01*
X14671667Y-11988809D01*
X14643095Y-11988809D01*
X14624048Y-11979286D01*
X14614524Y-11960238D01*
X14614524Y-11950714D01*
X14624048Y-11931667D01*
X14643095Y-11922143D01*
X14671667Y-11922143D01*
X14690714Y-11931667D01*
X14766905Y-12131667D02*
X14776428Y-12122143D01*
X14795476Y-12093571D01*
X14805000Y-12074524D01*
X14814524Y-12045952D01*
X14824048Y-11998333D01*
X14824048Y-11960238D01*
X14814524Y-11912619D01*
X14805000Y-11884048D01*
X14795476Y-11865000D01*
X14776428Y-11836428D01*
X14766905Y-11826905D01*
D17*
X9805000Y-12134000D02*
X9995000Y-12324000D01*
X9995000Y-12134000D02*
X9805000Y-12324000D01*
X9900000Y-12134000D02*
X9900000Y-12324000D01*
X9805000Y-12229000D02*
X9995000Y-12229000D01*
D11*
X10357381Y-12319476D02*
X10243095Y-12319476D01*
X10300238Y-12319476D02*
X10300238Y-12119476D01*
X10281190Y-12148048D01*
X10262143Y-12167095D01*
X10243095Y-12176619D01*
X10443095Y-12300428D02*
X10452619Y-12309952D01*
X10443095Y-12319476D01*
X10433571Y-12309952D01*
X10443095Y-12300428D01*
X10443095Y-12319476D01*
X10547857Y-12319476D02*
X10585952Y-12319476D01*
X10605000Y-12309952D01*
X10614524Y-12300428D01*
X10633571Y-12271857D01*
X10643095Y-12233762D01*
X10643095Y-12157571D01*
X10633571Y-12138524D01*
X10624048Y-12129000D01*
X10605000Y-12119476D01*
X10566905Y-12119476D01*
X10547857Y-12129000D01*
X10538333Y-12138524D01*
X10528810Y-12157571D01*
X10528810Y-12205190D01*
X10538333Y-12224238D01*
X10547857Y-12233762D01*
X10566905Y-12243286D01*
X10605000Y-12243286D01*
X10624048Y-12233762D01*
X10633571Y-12224238D01*
X10643095Y-12205190D01*
X10766905Y-12119476D02*
X10785952Y-12119476D01*
X10805000Y-12129000D01*
X10814524Y-12138524D01*
X10824048Y-12157571D01*
X10833571Y-12195667D01*
X10833571Y-12243286D01*
X10824048Y-12281381D01*
X10814524Y-12300428D01*
X10805000Y-12309952D01*
X10785952Y-12319476D01*
X10766905Y-12319476D01*
X10747857Y-12309952D01*
X10738333Y-12300428D01*
X10728810Y-12281381D01*
X10719286Y-12243286D01*
X10719286Y-12195667D01*
X10728810Y-12157571D01*
X10738333Y-12138524D01*
X10747857Y-12129000D01*
X10766905Y-12119476D01*
X10957381Y-12119476D02*
X10976429Y-12119476D01*
X10995476Y-12129000D01*
X11005000Y-12138524D01*
X11014524Y-12157571D01*
X11024048Y-12195667D01*
X11024048Y-12243286D01*
X11014524Y-12281381D01*
X11005000Y-12300428D01*
X10995476Y-12309952D01*
X10976429Y-12319476D01*
X10957381Y-12319476D01*
X10938333Y-12309952D01*
X10928810Y-12300428D01*
X10919286Y-12281381D01*
X10909762Y-12243286D01*
X10909762Y-12195667D01*
X10919286Y-12157571D01*
X10928810Y-12138524D01*
X10938333Y-12129000D01*
X10957381Y-12119476D01*
X11109762Y-12319476D02*
X11109762Y-12186143D01*
X11109762Y-12205190D02*
X11119286Y-12195667D01*
X11138333Y-12186143D01*
X11166905Y-12186143D01*
X11185952Y-12195667D01*
X11195476Y-12214714D01*
X11195476Y-12319476D01*
X11195476Y-12214714D02*
X11205000Y-12195667D01*
X11224048Y-12186143D01*
X11252619Y-12186143D01*
X11271667Y-12195667D01*
X11281190Y-12214714D01*
X11281190Y-12319476D01*
X11376428Y-12319476D02*
X11376428Y-12186143D01*
X11376428Y-12205190D02*
X11385952Y-12195667D01*
X11405000Y-12186143D01*
X11433571Y-12186143D01*
X11452619Y-12195667D01*
X11462143Y-12214714D01*
X11462143Y-12319476D01*
X11462143Y-12214714D02*
X11471667Y-12195667D01*
X11490714Y-12186143D01*
X11519286Y-12186143D01*
X11538333Y-12195667D01*
X11547857Y-12214714D01*
X11547857Y-12319476D01*
X11938333Y-12109952D02*
X11766905Y-12367095D01*
X12195476Y-12119476D02*
X12214524Y-12119476D01*
X12233571Y-12129000D01*
X12243095Y-12138524D01*
X12252619Y-12157571D01*
X12262143Y-12195667D01*
X12262143Y-12243286D01*
X12252619Y-12281381D01*
X12243095Y-12300428D01*
X12233571Y-12309952D01*
X12214524Y-12319476D01*
X12195476Y-12319476D01*
X12176428Y-12309952D01*
X12166905Y-12300428D01*
X12157381Y-12281381D01*
X12147857Y-12243286D01*
X12147857Y-12195667D01*
X12157381Y-12157571D01*
X12166905Y-12138524D01*
X12176428Y-12129000D01*
X12195476Y-12119476D01*
X12347857Y-12300428D02*
X12357381Y-12309952D01*
X12347857Y-12319476D01*
X12338333Y-12309952D01*
X12347857Y-12300428D01*
X12347857Y-12319476D01*
X12481190Y-12119476D02*
X12500238Y-12119476D01*
X12519286Y-12129000D01*
X12528809Y-12138524D01*
X12538333Y-12157571D01*
X12547857Y-12195667D01*
X12547857Y-12243286D01*
X12538333Y-12281381D01*
X12528809Y-12300428D01*
X12519286Y-12309952D01*
X12500238Y-12319476D01*
X12481190Y-12319476D01*
X12462143Y-12309952D01*
X12452619Y-12300428D01*
X12443095Y-12281381D01*
X12433571Y-12243286D01*
X12433571Y-12195667D01*
X12443095Y-12157571D01*
X12452619Y-12138524D01*
X12462143Y-12129000D01*
X12481190Y-12119476D01*
X12614524Y-12119476D02*
X12747857Y-12119476D01*
X12662143Y-12319476D01*
X12909762Y-12186143D02*
X12909762Y-12319476D01*
X12862143Y-12109952D02*
X12814524Y-12252809D01*
X12938333Y-12252809D01*
X13043095Y-12205190D02*
X13024048Y-12195667D01*
X13014524Y-12186143D01*
X13005000Y-12167095D01*
X13005000Y-12157571D01*
X13014524Y-12138524D01*
X13024048Y-12129000D01*
X13043095Y-12119476D01*
X13081190Y-12119476D01*
X13100238Y-12129000D01*
X13109762Y-12138524D01*
X13119286Y-12157571D01*
X13119286Y-12167095D01*
X13109762Y-12186143D01*
X13100238Y-12195667D01*
X13081190Y-12205190D01*
X13043095Y-12205190D01*
X13024048Y-12214714D01*
X13014524Y-12224238D01*
X13005000Y-12243286D01*
X13005000Y-12281381D01*
X13014524Y-12300428D01*
X13024048Y-12309952D01*
X13043095Y-12319476D01*
X13081190Y-12319476D01*
X13100238Y-12309952D01*
X13109762Y-12300428D01*
X13119286Y-12281381D01*
X13119286Y-12243286D01*
X13109762Y-12224238D01*
X13100238Y-12214714D01*
X13081190Y-12205190D01*
X13195476Y-12119476D02*
X13195476Y-12157571D01*
X13271667Y-12119476D02*
X13271667Y-12157571D01*
X13566905Y-12395667D02*
X13557381Y-12386143D01*
X13538333Y-12357571D01*
X13528809Y-12338524D01*
X13519286Y-12309952D01*
X13509762Y-12262333D01*
X13509762Y-12224238D01*
X13519286Y-12176619D01*
X13528809Y-12148048D01*
X13538333Y-12129000D01*
X13557381Y-12100428D01*
X13566905Y-12090905D01*
X13633571Y-12138524D02*
X13643095Y-12129000D01*
X13662143Y-12119476D01*
X13709762Y-12119476D01*
X13728809Y-12129000D01*
X13738333Y-12138524D01*
X13747857Y-12157571D01*
X13747857Y-12176619D01*
X13738333Y-12205190D01*
X13624048Y-12319476D01*
X13747857Y-12319476D01*
X13985952Y-12319476D02*
X13985952Y-12119476D01*
X14071667Y-12319476D02*
X14071667Y-12214714D01*
X14062143Y-12195667D01*
X14043095Y-12186143D01*
X14014524Y-12186143D01*
X13995476Y-12195667D01*
X13985952Y-12205190D01*
X14195476Y-12319476D02*
X14176428Y-12309952D01*
X14166905Y-12300428D01*
X14157381Y-12281381D01*
X14157381Y-12224238D01*
X14166905Y-12205190D01*
X14176428Y-12195667D01*
X14195476Y-12186143D01*
X14224048Y-12186143D01*
X14243095Y-12195667D01*
X14252619Y-12205190D01*
X14262143Y-12224238D01*
X14262143Y-12281381D01*
X14252619Y-12300428D01*
X14243095Y-12309952D01*
X14224048Y-12319476D01*
X14195476Y-12319476D01*
X14376428Y-12319476D02*
X14357381Y-12309952D01*
X14347857Y-12290905D01*
X14347857Y-12119476D01*
X14528809Y-12309952D02*
X14509762Y-12319476D01*
X14471667Y-12319476D01*
X14452619Y-12309952D01*
X14443095Y-12290905D01*
X14443095Y-12214714D01*
X14452619Y-12195667D01*
X14471667Y-12186143D01*
X14509762Y-12186143D01*
X14528809Y-12195667D01*
X14538333Y-12214714D01*
X14538333Y-12233762D01*
X14443095Y-12252809D01*
X14614524Y-12309952D02*
X14633571Y-12319476D01*
X14671667Y-12319476D01*
X14690714Y-12309952D01*
X14700238Y-12290905D01*
X14700238Y-12281381D01*
X14690714Y-12262333D01*
X14671667Y-12252809D01*
X14643095Y-12252809D01*
X14624048Y-12243286D01*
X14614524Y-12224238D01*
X14614524Y-12214714D01*
X14624048Y-12195667D01*
X14643095Y-12186143D01*
X14671667Y-12186143D01*
X14690714Y-12195667D01*
X14766905Y-12395667D02*
X14776428Y-12386143D01*
X14795476Y-12357571D01*
X14805000Y-12338524D01*
X14814524Y-12309952D01*
X14824048Y-12262333D01*
X14824048Y-12224238D01*
X14814524Y-12176619D01*
X14805000Y-12148048D01*
X14795476Y-12129000D01*
X14776428Y-12100428D01*
X14766905Y-12090905D01*
X9795000Y-12439000D02*
X9995000Y-12639000D01*
X9995000Y-12439000D02*
X9795000Y-12639000D01*
X9965711Y-12609711D02*
X9965711Y-12468289D01*
X9824289Y-12468289D01*
X9824289Y-12609711D01*
X9965711Y-12609711D01*
X10243095Y-12448524D02*
X10252619Y-12439000D01*
X10271667Y-12429476D01*
X10319286Y-12429476D01*
X10338333Y-12439000D01*
X10347857Y-12448524D01*
X10357381Y-12467571D01*
X10357381Y-12486619D01*
X10347857Y-12515190D01*
X10233571Y-12629476D01*
X10357381Y-12629476D01*
X10443095Y-12610428D02*
X10452619Y-12619952D01*
X10443095Y-12629476D01*
X10433571Y-12619952D01*
X10443095Y-12610428D01*
X10443095Y-12629476D01*
X10624048Y-12496143D02*
X10624048Y-12629476D01*
X10576429Y-12419952D02*
X10528810Y-12562809D01*
X10652619Y-12562809D01*
X10766905Y-12429476D02*
X10785952Y-12429476D01*
X10805000Y-12439000D01*
X10814524Y-12448524D01*
X10824048Y-12467571D01*
X10833571Y-12505667D01*
X10833571Y-12553286D01*
X10824048Y-12591381D01*
X10814524Y-12610428D01*
X10805000Y-12619952D01*
X10785952Y-12629476D01*
X10766905Y-12629476D01*
X10747857Y-12619952D01*
X10738333Y-12610428D01*
X10728810Y-12591381D01*
X10719286Y-12553286D01*
X10719286Y-12505667D01*
X10728810Y-12467571D01*
X10738333Y-12448524D01*
X10747857Y-12439000D01*
X10766905Y-12429476D01*
X10957381Y-12429476D02*
X10976429Y-12429476D01*
X10995476Y-12439000D01*
X11005000Y-12448524D01*
X11014524Y-12467571D01*
X11024048Y-12505667D01*
X11024048Y-12553286D01*
X11014524Y-12591381D01*
X11005000Y-12610428D01*
X10995476Y-12619952D01*
X10976429Y-12629476D01*
X10957381Y-12629476D01*
X10938333Y-12619952D01*
X10928810Y-12610428D01*
X10919286Y-12591381D01*
X10909762Y-12553286D01*
X10909762Y-12505667D01*
X10919286Y-12467571D01*
X10928810Y-12448524D01*
X10938333Y-12439000D01*
X10957381Y-12429476D01*
X11109762Y-12629476D02*
X11109762Y-12496143D01*
X11109762Y-12515190D02*
X11119286Y-12505667D01*
X11138333Y-12496143D01*
X11166905Y-12496143D01*
X11185952Y-12505667D01*
X11195476Y-12524714D01*
X11195476Y-12629476D01*
X11195476Y-12524714D02*
X11205000Y-12505667D01*
X11224048Y-12496143D01*
X11252619Y-12496143D01*
X11271667Y-12505667D01*
X11281190Y-12524714D01*
X11281190Y-12629476D01*
X11376428Y-12629476D02*
X11376428Y-12496143D01*
X11376428Y-12515190D02*
X11385952Y-12505667D01*
X11405000Y-12496143D01*
X11433571Y-12496143D01*
X11452619Y-12505667D01*
X11462143Y-12524714D01*
X11462143Y-12629476D01*
X11462143Y-12524714D02*
X11471667Y-12505667D01*
X11490714Y-12496143D01*
X11519286Y-12496143D01*
X11538333Y-12505667D01*
X11547857Y-12524714D01*
X11547857Y-12629476D01*
X11938333Y-12419952D02*
X11766905Y-12677095D01*
X12195476Y-12429476D02*
X12214524Y-12429476D01*
X12233571Y-12439000D01*
X12243095Y-12448524D01*
X12252619Y-12467571D01*
X12262143Y-12505667D01*
X12262143Y-12553286D01*
X12252619Y-12591381D01*
X12243095Y-12610428D01*
X12233571Y-12619952D01*
X12214524Y-12629476D01*
X12195476Y-12629476D01*
X12176428Y-12619952D01*
X12166905Y-12610428D01*
X12157381Y-12591381D01*
X12147857Y-12553286D01*
X12147857Y-12505667D01*
X12157381Y-12467571D01*
X12166905Y-12448524D01*
X12176428Y-12439000D01*
X12195476Y-12429476D01*
X12347857Y-12610428D02*
X12357381Y-12619952D01*
X12347857Y-12629476D01*
X12338333Y-12619952D01*
X12347857Y-12610428D01*
X12347857Y-12629476D01*
X12481190Y-12429476D02*
X12500238Y-12429476D01*
X12519286Y-12439000D01*
X12528809Y-12448524D01*
X12538333Y-12467571D01*
X12547857Y-12505667D01*
X12547857Y-12553286D01*
X12538333Y-12591381D01*
X12528809Y-12610428D01*
X12519286Y-12619952D01*
X12500238Y-12629476D01*
X12481190Y-12629476D01*
X12462143Y-12619952D01*
X12452619Y-12610428D01*
X12443095Y-12591381D01*
X12433571Y-12553286D01*
X12433571Y-12505667D01*
X12443095Y-12467571D01*
X12452619Y-12448524D01*
X12462143Y-12439000D01*
X12481190Y-12429476D01*
X12643095Y-12629476D02*
X12681190Y-12629476D01*
X12700238Y-12619952D01*
X12709762Y-12610428D01*
X12728809Y-12581857D01*
X12738333Y-12543762D01*
X12738333Y-12467571D01*
X12728809Y-12448524D01*
X12719286Y-12439000D01*
X12700238Y-12429476D01*
X12662143Y-12429476D01*
X12643095Y-12439000D01*
X12633571Y-12448524D01*
X12624048Y-12467571D01*
X12624048Y-12515190D01*
X12633571Y-12534238D01*
X12643095Y-12543762D01*
X12662143Y-12553286D01*
X12700238Y-12553286D01*
X12719286Y-12543762D01*
X12728809Y-12534238D01*
X12738333Y-12515190D01*
X12909762Y-12496143D02*
X12909762Y-12629476D01*
X12862143Y-12419952D02*
X12814524Y-12562809D01*
X12938333Y-12562809D01*
X13109762Y-12429476D02*
X13014524Y-12429476D01*
X13005000Y-12524714D01*
X13014524Y-12515190D01*
X13033571Y-12505667D01*
X13081190Y-12505667D01*
X13100238Y-12515190D01*
X13109762Y-12524714D01*
X13119286Y-12543762D01*
X13119286Y-12591381D01*
X13109762Y-12610428D01*
X13100238Y-12619952D01*
X13081190Y-12629476D01*
X13033571Y-12629476D01*
X13014524Y-12619952D01*
X13005000Y-12610428D01*
X13195476Y-12429476D02*
X13195476Y-12467571D01*
X13271667Y-12429476D02*
X13271667Y-12467571D01*
X13566905Y-12705667D02*
X13557381Y-12696143D01*
X13538333Y-12667571D01*
X13528809Y-12648524D01*
X13519286Y-12619952D01*
X13509762Y-12572333D01*
X13509762Y-12534238D01*
X13519286Y-12486619D01*
X13528809Y-12458048D01*
X13538333Y-12439000D01*
X13557381Y-12410428D01*
X13566905Y-12400905D01*
X13728809Y-12429476D02*
X13690714Y-12429476D01*
X13671667Y-12439000D01*
X13662143Y-12448524D01*
X13643095Y-12477095D01*
X13633571Y-12515190D01*
X13633571Y-12591381D01*
X13643095Y-12610428D01*
X13652619Y-12619952D01*
X13671667Y-12629476D01*
X13709762Y-12629476D01*
X13728809Y-12619952D01*
X13738333Y-12610428D01*
X13747857Y-12591381D01*
X13747857Y-12543762D01*
X13738333Y-12524714D01*
X13728809Y-12515190D01*
X13709762Y-12505667D01*
X13671667Y-12505667D01*
X13652619Y-12515190D01*
X13643095Y-12524714D01*
X13633571Y-12543762D01*
X13985952Y-12629476D02*
X13985952Y-12429476D01*
X14071667Y-12629476D02*
X14071667Y-12524714D01*
X14062143Y-12505667D01*
X14043095Y-12496143D01*
X14014524Y-12496143D01*
X13995476Y-12505667D01*
X13985952Y-12515190D01*
X14195476Y-12629476D02*
X14176428Y-12619952D01*
X14166905Y-12610428D01*
X14157381Y-12591381D01*
X14157381Y-12534238D01*
X14166905Y-12515190D01*
X14176428Y-12505667D01*
X14195476Y-12496143D01*
X14224048Y-12496143D01*
X14243095Y-12505667D01*
X14252619Y-12515190D01*
X14262143Y-12534238D01*
X14262143Y-12591381D01*
X14252619Y-12610428D01*
X14243095Y-12619952D01*
X14224048Y-12629476D01*
X14195476Y-12629476D01*
X14376428Y-12629476D02*
X14357381Y-12619952D01*
X14347857Y-12600905D01*
X14347857Y-12429476D01*
X14528809Y-12619952D02*
X14509762Y-12629476D01*
X14471667Y-12629476D01*
X14452619Y-12619952D01*
X14443095Y-12600905D01*
X14443095Y-12524714D01*
X14452619Y-12505667D01*
X14471667Y-12496143D01*
X14509762Y-12496143D01*
X14528809Y-12505667D01*
X14538333Y-12524714D01*
X14538333Y-12543762D01*
X14443095Y-12562809D01*
X14614524Y-12619952D02*
X14633571Y-12629476D01*
X14671667Y-12629476D01*
X14690714Y-12619952D01*
X14700238Y-12600905D01*
X14700238Y-12591381D01*
X14690714Y-12572333D01*
X14671667Y-12562809D01*
X14643095Y-12562809D01*
X14624048Y-12553286D01*
X14614524Y-12534238D01*
X14614524Y-12524714D01*
X14624048Y-12505667D01*
X14643095Y-12496143D01*
X14671667Y-12496143D01*
X14690714Y-12505667D01*
X14766905Y-12705667D02*
X14776428Y-12696143D01*
X14795476Y-12667571D01*
X14805000Y-12648524D01*
X14814524Y-12619952D01*
X14824048Y-12572333D01*
X14824048Y-12534238D01*
X14814524Y-12486619D01*
X14805000Y-12458048D01*
X14795476Y-12439000D01*
X14776428Y-12410428D01*
X14766905Y-12400905D01*
X9795000Y-12759000D02*
X9995000Y-12959000D01*
X9995000Y-12759000D02*
X9795000Y-12959000D01*
X9895000Y-12959000D02*
X9995000Y-12859000D01*
X9895000Y-12759000D01*
X9795000Y-12859000D01*
X9895000Y-12959000D01*
X10243095Y-12768524D02*
X10252619Y-12759000D01*
X10271667Y-12749476D01*
X10319286Y-12749476D01*
X10338333Y-12759000D01*
X10347857Y-12768524D01*
X10357381Y-12787571D01*
X10357381Y-12806619D01*
X10347857Y-12835190D01*
X10233571Y-12949476D01*
X10357381Y-12949476D01*
X10443095Y-12930428D02*
X10452619Y-12939952D01*
X10443095Y-12949476D01*
X10433571Y-12939952D01*
X10443095Y-12930428D01*
X10443095Y-12949476D01*
X10633571Y-12749476D02*
X10538333Y-12749476D01*
X10528810Y-12844714D01*
X10538333Y-12835190D01*
X10557381Y-12825667D01*
X10605000Y-12825667D01*
X10624048Y-12835190D01*
X10633571Y-12844714D01*
X10643095Y-12863762D01*
X10643095Y-12911381D01*
X10633571Y-12930428D01*
X10624048Y-12939952D01*
X10605000Y-12949476D01*
X10557381Y-12949476D01*
X10538333Y-12939952D01*
X10528810Y-12930428D01*
X10719286Y-12768524D02*
X10728810Y-12759000D01*
X10747857Y-12749476D01*
X10795476Y-12749476D01*
X10814524Y-12759000D01*
X10824048Y-12768524D01*
X10833571Y-12787571D01*
X10833571Y-12806619D01*
X10824048Y-12835190D01*
X10709762Y-12949476D01*
X10833571Y-12949476D01*
X11005000Y-12816143D02*
X11005000Y-12949476D01*
X10957381Y-12739952D02*
X10909762Y-12882809D01*
X11033571Y-12882809D01*
X11109762Y-12949476D02*
X11109762Y-12816143D01*
X11109762Y-12835190D02*
X11119286Y-12825667D01*
X11138333Y-12816143D01*
X11166905Y-12816143D01*
X11185952Y-12825667D01*
X11195476Y-12844714D01*
X11195476Y-12949476D01*
X11195476Y-12844714D02*
X11205000Y-12825667D01*
X11224048Y-12816143D01*
X11252619Y-12816143D01*
X11271667Y-12825667D01*
X11281190Y-12844714D01*
X11281190Y-12949476D01*
X11376428Y-12949476D02*
X11376428Y-12816143D01*
X11376428Y-12835190D02*
X11385952Y-12825667D01*
X11405000Y-12816143D01*
X11433571Y-12816143D01*
X11452619Y-12825667D01*
X11462143Y-12844714D01*
X11462143Y-12949476D01*
X11462143Y-12844714D02*
X11471667Y-12825667D01*
X11490714Y-12816143D01*
X11519286Y-12816143D01*
X11538333Y-12825667D01*
X11547857Y-12844714D01*
X11547857Y-12949476D01*
X11938333Y-12739952D02*
X11766905Y-12997095D01*
X12195476Y-12749476D02*
X12214524Y-12749476D01*
X12233571Y-12759000D01*
X12243095Y-12768524D01*
X12252619Y-12787571D01*
X12262143Y-12825667D01*
X12262143Y-12873286D01*
X12252619Y-12911381D01*
X12243095Y-12930428D01*
X12233571Y-12939952D01*
X12214524Y-12949476D01*
X12195476Y-12949476D01*
X12176428Y-12939952D01*
X12166905Y-12930428D01*
X12157381Y-12911381D01*
X12147857Y-12873286D01*
X12147857Y-12825667D01*
X12157381Y-12787571D01*
X12166905Y-12768524D01*
X12176428Y-12759000D01*
X12195476Y-12749476D01*
X12347857Y-12930428D02*
X12357381Y-12939952D01*
X12347857Y-12949476D01*
X12338333Y-12939952D01*
X12347857Y-12930428D01*
X12347857Y-12949476D01*
X12481190Y-12749476D02*
X12500238Y-12749476D01*
X12519286Y-12759000D01*
X12528809Y-12768524D01*
X12538333Y-12787571D01*
X12547857Y-12825667D01*
X12547857Y-12873286D01*
X12538333Y-12911381D01*
X12528809Y-12930428D01*
X12519286Y-12939952D01*
X12500238Y-12949476D01*
X12481190Y-12949476D01*
X12462143Y-12939952D01*
X12452619Y-12930428D01*
X12443095Y-12911381D01*
X12433571Y-12873286D01*
X12433571Y-12825667D01*
X12443095Y-12787571D01*
X12452619Y-12768524D01*
X12462143Y-12759000D01*
X12481190Y-12749476D01*
X12643095Y-12949476D02*
X12681190Y-12949476D01*
X12700238Y-12939952D01*
X12709762Y-12930428D01*
X12728809Y-12901857D01*
X12738333Y-12863762D01*
X12738333Y-12787571D01*
X12728809Y-12768524D01*
X12719286Y-12759000D01*
X12700238Y-12749476D01*
X12662143Y-12749476D01*
X12643095Y-12759000D01*
X12633571Y-12768524D01*
X12624048Y-12787571D01*
X12624048Y-12835190D01*
X12633571Y-12854238D01*
X12643095Y-12863762D01*
X12662143Y-12873286D01*
X12700238Y-12873286D01*
X12719286Y-12863762D01*
X12728809Y-12854238D01*
X12738333Y-12835190D01*
X12833571Y-12949476D02*
X12871667Y-12949476D01*
X12890714Y-12939952D01*
X12900238Y-12930428D01*
X12919286Y-12901857D01*
X12928809Y-12863762D01*
X12928809Y-12787571D01*
X12919286Y-12768524D01*
X12909762Y-12759000D01*
X12890714Y-12749476D01*
X12852619Y-12749476D01*
X12833571Y-12759000D01*
X12824048Y-12768524D01*
X12814524Y-12787571D01*
X12814524Y-12835190D01*
X12824048Y-12854238D01*
X12833571Y-12863762D01*
X12852619Y-12873286D01*
X12890714Y-12873286D01*
X12909762Y-12863762D01*
X12919286Y-12854238D01*
X12928809Y-12835190D01*
X13100238Y-12816143D02*
X13100238Y-12949476D01*
X13052619Y-12739952D02*
X13005000Y-12882809D01*
X13128809Y-12882809D01*
X13195476Y-12749476D02*
X13195476Y-12787571D01*
X13271667Y-12749476D02*
X13271667Y-12787571D01*
X13566905Y-13025667D02*
X13557381Y-13016143D01*
X13538333Y-12987571D01*
X13528809Y-12968524D01*
X13519286Y-12939952D01*
X13509762Y-12892333D01*
X13509762Y-12854238D01*
X13519286Y-12806619D01*
X13528809Y-12778048D01*
X13538333Y-12759000D01*
X13557381Y-12730428D01*
X13566905Y-12720905D01*
X13728809Y-12816143D02*
X13728809Y-12949476D01*
X13681190Y-12739952D02*
X13633571Y-12882809D01*
X13757381Y-12882809D01*
X13985952Y-12949476D02*
X13985952Y-12749476D01*
X14071667Y-12949476D02*
X14071667Y-12844714D01*
X14062143Y-12825667D01*
X14043095Y-12816143D01*
X14014524Y-12816143D01*
X13995476Y-12825667D01*
X13985952Y-12835190D01*
X14195476Y-12949476D02*
X14176428Y-12939952D01*
X14166905Y-12930428D01*
X14157381Y-12911381D01*
X14157381Y-12854238D01*
X14166905Y-12835190D01*
X14176428Y-12825667D01*
X14195476Y-12816143D01*
X14224048Y-12816143D01*
X14243095Y-12825667D01*
X14252619Y-12835190D01*
X14262143Y-12854238D01*
X14262143Y-12911381D01*
X14252619Y-12930428D01*
X14243095Y-12939952D01*
X14224048Y-12949476D01*
X14195476Y-12949476D01*
X14376428Y-12949476D02*
X14357381Y-12939952D01*
X14347857Y-12920905D01*
X14347857Y-12749476D01*
X14528809Y-12939952D02*
X14509762Y-12949476D01*
X14471667Y-12949476D01*
X14452619Y-12939952D01*
X14443095Y-12920905D01*
X14443095Y-12844714D01*
X14452619Y-12825667D01*
X14471667Y-12816143D01*
X14509762Y-12816143D01*
X14528809Y-12825667D01*
X14538333Y-12844714D01*
X14538333Y-12863762D01*
X14443095Y-12882809D01*
X14614524Y-12939952D02*
X14633571Y-12949476D01*
X14671667Y-12949476D01*
X14690714Y-12939952D01*
X14700238Y-12920905D01*
X14700238Y-12911381D01*
X14690714Y-12892333D01*
X14671667Y-12882809D01*
X14643095Y-12882809D01*
X14624048Y-12873286D01*
X14614524Y-12854238D01*
X14614524Y-12844714D01*
X14624048Y-12825667D01*
X14643095Y-12816143D01*
X14671667Y-12816143D01*
X14690714Y-12825667D01*
X14766905Y-13025667D02*
X14776428Y-13016143D01*
X14795476Y-12987571D01*
X14805000Y-12968524D01*
X14814524Y-12939952D01*
X14824048Y-12892333D01*
X14824048Y-12854238D01*
X14814524Y-12806619D01*
X14805000Y-12778048D01*
X14795476Y-12759000D01*
X14776428Y-12730428D01*
X14766905Y-12720905D01*
M02*
