M48
; DRILL file {KiCad (6.0.11)} date Fri Mar 31 11:30:38 2023
; FORMAT={-:-/ absolute / inch / decimal}
; #@! TF.CreationDate,2023-03-31T11:30:38+10:00
; #@! TF.GenerationSoftware,Kicad,Pcbnew,(6.0.11)
; #@! TF.FileFunction,Plated,1,2,PTH
FMAT,2
INCH
; #@! TA.AperFunction,Plated,PTH,ViaDrill
T1C0.0236
; #@! TA.AperFunction,Plated,PTH,ComponentDrill
T2C0.0315
; #@! TA.AperFunction,Plated,PTH,ComponentDrill
T3C0.0370
; #@! TA.AperFunction,Plated,PTH,ComponentDrill
T4C0.0394
; #@! TA.AperFunction,Plated,PTH,ComponentDrill
T5C0.0433
; #@! TA.AperFunction,Plated,PTH,ComponentDrill
T6C0.0748
; #@! TA.AperFunction,Plated,PTH,ComponentDrill
T7C0.0945
; #@! TA.AperFunction,Plated,PTH,ComponentDrill
T8C0.0994
%
G90
G05
T1
X4.2666Y-2.2273
X4.97Y-2.2522
X4.9707Y-2.4016
X5.0787Y-2.5416
X5.1712Y-2.4391
X5.371Y-2.4881
X6.2628Y-2.6225
T2
X4.5744Y-2.6388
X4.5744Y-2.8755
X4.8744Y-2.6388
X4.8744Y-2.8755
X5.9962Y-2.5774
X6.0946Y-2.5774
T3
X5.8744Y-2.1654
X5.9843Y-2.1654
X6.0941Y-2.1654
T4
X4.0551Y-2.1654
X4.0551Y-2.2654
X4.0551Y-2.3654
X4.0561Y-2.6457
X4.0561Y-2.7457
X4.0561Y-2.8457
X4.0561Y-2.9457
X4.0906Y-3.1573
X4.0906Y-3.5904
X4.2665Y-1.8201
X4.2665Y-1.9201
X4.3665Y-1.8201
X4.3665Y-1.9201
X4.4665Y-1.8201
X4.4665Y-1.9201
X4.5665Y-1.8201
X4.5665Y-1.9201
X4.6665Y-1.8201
X4.6665Y-1.9201
X4.7665Y-1.8201
X4.7665Y-1.9201
X4.8665Y-1.8201
X4.8665Y-1.9201
X4.9665Y-1.8201
X4.9665Y-1.9201
X5.0665Y-1.8201
X5.0665Y-1.9201
X5.1665Y-1.8201
X5.1665Y-1.9201
X5.2665Y-1.8201
X5.2665Y-1.9201
X5.3665Y-1.8201
X5.3665Y-1.9201
X5.4665Y-1.8201
X5.4665Y-1.9201
X5.5512Y-2.7559
X5.5665Y-1.8201
X5.5665Y-1.9201
X5.6512Y-2.7559
X5.6665Y-1.8201
X5.6665Y-1.9201
X5.7665Y-1.8201
X5.7665Y-1.9201
X5.8665Y-1.8201
X5.8665Y-1.9201
X5.9665Y-1.8201
X5.9665Y-1.9201
X6.0665Y-1.8201
X6.0665Y-1.9201
X6.1665Y-1.8201
X6.1665Y-1.9201
X6.4111Y-2.3228
X6.4111Y-2.4228
X6.4111Y-2.5228
X6.4111Y-2.6228
X6.4111Y-2.7228
X6.4111Y-2.8228
X6.4118Y-3.0384
X6.4118Y-3.1384
T5
X5.2787Y-3.189
X5.2787Y-3.5061
X5.3787Y-3.189
X5.3787Y-3.5061
X5.4787Y-3.189
X5.4787Y-3.5061
T6
X4.4843Y-3.2754
X4.4843Y-3.4723
T7
X5.8406Y-3.0315
X5.8406Y-3.5039
X6.0433Y-3.0315
X6.0433Y-3.5039
X6.2461Y-3.0315
X6.2461Y-3.5039
T8
X4.8932Y-3.1213
X4.8932Y-3.267
X4.8932Y-3.4245
X4.8932Y-3.5702
T0
M30
