G04 #@! TF.GenerationSoftware,KiCad,Pcbnew,(6.0.11)*
G04 #@! TF.CreationDate,2023-04-25T15:22:17+10:00*
G04 #@! TF.ProjectId,RPI,5250492e-6b69-4636-9164-5f7063625858,rev?*
G04 #@! TF.SameCoordinates,Original*
G04 #@! TF.FileFunction,Legend,Top*
G04 #@! TF.FilePolarity,Positive*
%FSLAX46Y46*%
G04 Gerber Fmt 4.6, Leading zero omitted, Abs format (unit mm)*
G04 Created by KiCad (PCBNEW (6.0.11)) date 2023-04-25 15:22:17*
%MOMM*%
%LPD*%
G01*
G04 APERTURE LIST*
%ADD10C,0.150000*%
%ADD11C,0.080000*%
%ADD12C,0.200000*%
%ADD13C,0.127000*%
%ADD14C,0.120000*%
%ADD15C,0.100000*%
G04 APERTURE END LIST*
D10*
X117928571Y-91404761D02*
X118071428Y-91452380D01*
X118309523Y-91452380D01*
X118404761Y-91404761D01*
X118452380Y-91357142D01*
X118500000Y-91261904D01*
X118500000Y-91166666D01*
X118452380Y-91071428D01*
X118404761Y-91023809D01*
X118309523Y-90976190D01*
X118119047Y-90928571D01*
X118023809Y-90880952D01*
X117976190Y-90833333D01*
X117928571Y-90738095D01*
X117928571Y-90642857D01*
X117976190Y-90547619D01*
X118023809Y-90500000D01*
X118119047Y-90452380D01*
X118357142Y-90452380D01*
X118500000Y-90500000D01*
X118833333Y-90452380D02*
X119071428Y-91452380D01*
X119261904Y-90738095D01*
X119452380Y-91452380D01*
X119690476Y-90452380D01*
X120023809Y-90547619D02*
X120071428Y-90500000D01*
X120166666Y-90452380D01*
X120404761Y-90452380D01*
X120500000Y-90500000D01*
X120547619Y-90547619D01*
X120595238Y-90642857D01*
X120595238Y-90738095D01*
X120547619Y-90880952D01*
X119976190Y-91452380D01*
X120595238Y-91452380D01*
X122261904Y-91452380D02*
X121785714Y-91452380D01*
X121785714Y-90452380D01*
X122595238Y-90928571D02*
X122928571Y-90928571D01*
X123071428Y-91452380D02*
X122595238Y-91452380D01*
X122595238Y-90452380D01*
X123071428Y-90452380D01*
X123500000Y-91452380D02*
X123500000Y-90452380D01*
X123738095Y-90452380D01*
X123880952Y-90500000D01*
X123976190Y-90595238D01*
X124023809Y-90690476D01*
X124071428Y-90880952D01*
X124071428Y-91023809D01*
X124023809Y-91214285D01*
X123976190Y-91309523D01*
X123880952Y-91404761D01*
X123738095Y-91452380D01*
X123500000Y-91452380D01*
X125333333Y-77928571D02*
X125476190Y-77976190D01*
X125523809Y-78023809D01*
X125571428Y-78119047D01*
X125571428Y-78261904D01*
X125523809Y-78357142D01*
X125476190Y-78404761D01*
X125380952Y-78452380D01*
X125000000Y-78452380D01*
X125000000Y-77452380D01*
X125333333Y-77452380D01*
X125428571Y-77500000D01*
X125476190Y-77547619D01*
X125523809Y-77642857D01*
X125523809Y-77738095D01*
X125476190Y-77833333D01*
X125428571Y-77880952D01*
X125333333Y-77928571D01*
X125000000Y-77928571D01*
X126428571Y-78452380D02*
X126428571Y-77928571D01*
X126380952Y-77833333D01*
X126285714Y-77785714D01*
X126095238Y-77785714D01*
X126000000Y-77833333D01*
X126428571Y-78404761D02*
X126333333Y-78452380D01*
X126095238Y-78452380D01*
X126000000Y-78404761D01*
X125952380Y-78309523D01*
X125952380Y-78214285D01*
X126000000Y-78119047D01*
X126095238Y-78071428D01*
X126333333Y-78071428D01*
X126428571Y-78023809D01*
X126761904Y-77785714D02*
X127142857Y-77785714D01*
X126904761Y-77452380D02*
X126904761Y-78309523D01*
X126952380Y-78404761D01*
X127047619Y-78452380D01*
X127142857Y-78452380D01*
X127333333Y-77785714D02*
X127714285Y-77785714D01*
X127476190Y-77452380D02*
X127476190Y-78309523D01*
X127523809Y-78404761D01*
X127619047Y-78452380D01*
X127714285Y-78452380D01*
X128428571Y-78404761D02*
X128333333Y-78452380D01*
X128142857Y-78452380D01*
X128047619Y-78404761D01*
X128000000Y-78309523D01*
X128000000Y-77928571D01*
X128047619Y-77833333D01*
X128142857Y-77785714D01*
X128333333Y-77785714D01*
X128428571Y-77833333D01*
X128476190Y-77928571D01*
X128476190Y-78023809D01*
X128000000Y-78119047D01*
X128904761Y-78452380D02*
X128904761Y-77785714D01*
X128904761Y-77976190D02*
X128952380Y-77880952D01*
X129000000Y-77833333D01*
X129095238Y-77785714D01*
X129190476Y-77785714D01*
X129428571Y-77785714D02*
X129666666Y-78452380D01*
X129904761Y-77785714D02*
X129666666Y-78452380D01*
X129571428Y-78690476D01*
X129523809Y-78738095D01*
X129428571Y-78785714D01*
X131047619Y-78452380D02*
X131047619Y-77452380D01*
X131428571Y-77452380D01*
X131523809Y-77500000D01*
X131571428Y-77547619D01*
X131619047Y-77642857D01*
X131619047Y-77785714D01*
X131571428Y-77880952D01*
X131523809Y-77928571D01*
X131428571Y-77976190D01*
X131047619Y-77976190D01*
X132190476Y-78452380D02*
X132095238Y-78404761D01*
X132047619Y-78357142D01*
X132000000Y-78261904D01*
X132000000Y-77976190D01*
X132047619Y-77880952D01*
X132095238Y-77833333D01*
X132190476Y-77785714D01*
X132333333Y-77785714D01*
X132428571Y-77833333D01*
X132476190Y-77880952D01*
X132523809Y-77976190D01*
X132523809Y-78261904D01*
X132476190Y-78357142D01*
X132428571Y-78404761D01*
X132333333Y-78452380D01*
X132190476Y-78452380D01*
X132857142Y-77785714D02*
X133047619Y-78452380D01*
X133238095Y-77976190D01*
X133428571Y-78452380D01*
X133619047Y-77785714D01*
X134380952Y-78404761D02*
X134285714Y-78452380D01*
X134095238Y-78452380D01*
X134000000Y-78404761D01*
X133952380Y-78309523D01*
X133952380Y-77928571D01*
X134000000Y-77833333D01*
X134095238Y-77785714D01*
X134285714Y-77785714D01*
X134380952Y-77833333D01*
X134428571Y-77928571D01*
X134428571Y-78023809D01*
X133952380Y-78119047D01*
X134857142Y-78452380D02*
X134857142Y-77785714D01*
X134857142Y-77976190D02*
X134904761Y-77880952D01*
X134952380Y-77833333D01*
X135047619Y-77785714D01*
X135142857Y-77785714D01*
X125166666Y-82452380D02*
X124833333Y-81976190D01*
X124595238Y-82452380D02*
X124595238Y-81452380D01*
X124976190Y-81452380D01*
X125071428Y-81500000D01*
X125119047Y-81547619D01*
X125166666Y-81642857D01*
X125166666Y-81785714D01*
X125119047Y-81880952D01*
X125071428Y-81928571D01*
X124976190Y-81976190D01*
X124595238Y-81976190D01*
X125738095Y-82452380D02*
X125642857Y-82404761D01*
X125595238Y-82357142D01*
X125547619Y-82261904D01*
X125547619Y-81976190D01*
X125595238Y-81880952D01*
X125642857Y-81833333D01*
X125738095Y-81785714D01*
X125880952Y-81785714D01*
X125976190Y-81833333D01*
X126023809Y-81880952D01*
X126071428Y-81976190D01*
X126071428Y-82261904D01*
X126023809Y-82357142D01*
X125976190Y-82404761D01*
X125880952Y-82452380D01*
X125738095Y-82452380D01*
X126500000Y-82452380D02*
X126500000Y-81452380D01*
X126500000Y-81833333D02*
X126595238Y-81785714D01*
X126785714Y-81785714D01*
X126880952Y-81833333D01*
X126928571Y-81880952D01*
X126976190Y-81976190D01*
X126976190Y-82261904D01*
X126928571Y-82357142D01*
X126880952Y-82404761D01*
X126785714Y-82452380D01*
X126595238Y-82452380D01*
X126500000Y-82404761D01*
X127547619Y-82452380D02*
X127452380Y-82404761D01*
X127404761Y-82357142D01*
X127357142Y-82261904D01*
X127357142Y-81976190D01*
X127404761Y-81880952D01*
X127452380Y-81833333D01*
X127547619Y-81785714D01*
X127690476Y-81785714D01*
X127785714Y-81833333D01*
X127833333Y-81880952D01*
X127880952Y-81976190D01*
X127880952Y-82261904D01*
X127833333Y-82357142D01*
X127785714Y-82404761D01*
X127690476Y-82452380D01*
X127547619Y-82452380D01*
X128166666Y-81785714D02*
X128547619Y-81785714D01*
X128309523Y-81452380D02*
X128309523Y-82309523D01*
X128357142Y-82404761D01*
X128452380Y-82452380D01*
X128547619Y-82452380D01*
X128833333Y-82404761D02*
X128928571Y-82452380D01*
X129119047Y-82452380D01*
X129214285Y-82404761D01*
X129261904Y-82309523D01*
X129261904Y-82261904D01*
X129214285Y-82166666D01*
X129119047Y-82119047D01*
X128976190Y-82119047D01*
X128880952Y-82071428D01*
X128833333Y-81976190D01*
X128833333Y-81928571D01*
X128880952Y-81833333D01*
X128976190Y-81785714D01*
X129119047Y-81785714D01*
X129214285Y-81833333D01*
X130214285Y-82452380D02*
X129642857Y-82452380D01*
X129928571Y-82452380D02*
X129928571Y-81452380D01*
X129833333Y-81595238D01*
X129738095Y-81690476D01*
X129642857Y-81738095D01*
X130833333Y-81452380D02*
X130928571Y-81452380D01*
X131023809Y-81500000D01*
X131071428Y-81547619D01*
X131119047Y-81642857D01*
X131166666Y-81833333D01*
X131166666Y-82071428D01*
X131119047Y-82261904D01*
X131071428Y-82357142D01*
X131023809Y-82404761D01*
X130928571Y-82452380D01*
X130833333Y-82452380D01*
X130738095Y-82404761D01*
X130690476Y-82357142D01*
X130642857Y-82261904D01*
X130595238Y-82071428D01*
X130595238Y-81833333D01*
X130642857Y-81642857D01*
X130690476Y-81547619D01*
X130738095Y-81500000D01*
X130833333Y-81452380D01*
X132119047Y-82452380D02*
X131547619Y-82452380D01*
X131833333Y-82452380D02*
X131833333Y-81452380D01*
X131738095Y-81595238D01*
X131642857Y-81690476D01*
X131547619Y-81738095D01*
X133309523Y-82452380D02*
X133309523Y-81452380D01*
X133690476Y-81452380D01*
X133785714Y-81500000D01*
X133833333Y-81547619D01*
X133880952Y-81642857D01*
X133880952Y-81785714D01*
X133833333Y-81880952D01*
X133785714Y-81928571D01*
X133690476Y-81976190D01*
X133309523Y-81976190D01*
X134309523Y-82452380D02*
X134309523Y-81785714D01*
X134309523Y-81452380D02*
X134261904Y-81500000D01*
X134309523Y-81547619D01*
X134357142Y-81500000D01*
X134309523Y-81452380D01*
X134309523Y-81547619D01*
X134785714Y-82452380D02*
X134785714Y-81452380D01*
X134785714Y-81928571D02*
X135357142Y-81928571D01*
X135357142Y-82452380D02*
X135357142Y-81452380D01*
X136261904Y-82452380D02*
X136261904Y-81928571D01*
X136214285Y-81833333D01*
X136119047Y-81785714D01*
X135928571Y-81785714D01*
X135833333Y-81833333D01*
X136261904Y-82404761D02*
X136166666Y-82452380D01*
X135928571Y-82452380D01*
X135833333Y-82404761D01*
X135785714Y-82309523D01*
X135785714Y-82214285D01*
X135833333Y-82119047D01*
X135928571Y-82071428D01*
X136166666Y-82071428D01*
X136261904Y-82023809D01*
X136595238Y-81785714D02*
X136976190Y-81785714D01*
X136738095Y-81452380D02*
X136738095Y-82309523D01*
X136785714Y-82404761D01*
X136880952Y-82452380D01*
X136976190Y-82452380D01*
X137928571Y-81452380D02*
X138261904Y-82452380D01*
X138595238Y-81452380D01*
X138880952Y-81547619D02*
X138928571Y-81500000D01*
X139023809Y-81452380D01*
X139261904Y-81452380D01*
X139357142Y-81500000D01*
X139404761Y-81547619D01*
X139452380Y-81642857D01*
X139452380Y-81738095D01*
X139404761Y-81880952D01*
X138833333Y-82452380D01*
X139452380Y-82452380D01*
X104793946Y-72142857D02*
X104746327Y-72285714D01*
X104746327Y-72523809D01*
X104793946Y-72619047D01*
X104841565Y-72666666D01*
X104936803Y-72714285D01*
X105032041Y-72714285D01*
X105127279Y-72666666D01*
X105174898Y-72619047D01*
X105222517Y-72523809D01*
X105270136Y-72333333D01*
X105317755Y-72238095D01*
X105365374Y-72190476D01*
X105460612Y-72142857D01*
X105555850Y-72142857D01*
X105651088Y-72190476D01*
X105698708Y-72238095D01*
X105746327Y-72333333D01*
X105746327Y-72571428D01*
X105698708Y-72714285D01*
X104793946Y-73523809D02*
X104746327Y-73428571D01*
X104746327Y-73238095D01*
X104793946Y-73142857D01*
X104889184Y-73095238D01*
X105270136Y-73095238D01*
X105365374Y-73142857D01*
X105412993Y-73238095D01*
X105412993Y-73428571D01*
X105365374Y-73523809D01*
X105270136Y-73571428D01*
X105174898Y-73571428D01*
X105079660Y-73095238D01*
X104746327Y-74000000D02*
X105412993Y-74000000D01*
X105222517Y-74000000D02*
X105317755Y-74047619D01*
X105365374Y-74095238D01*
X105412993Y-74190476D01*
X105412993Y-74285714D01*
X105412993Y-74523809D02*
X104746327Y-74761904D01*
X105412993Y-75000000D01*
X104746327Y-75523809D02*
X104793946Y-75428571D01*
X104841565Y-75380952D01*
X104936803Y-75333333D01*
X105222517Y-75333333D01*
X105317755Y-75380952D01*
X105365374Y-75428571D01*
X105412993Y-75523809D01*
X105412993Y-75666666D01*
X105365374Y-75761904D01*
X105317755Y-75809523D01*
X105222517Y-75857142D01*
X104936803Y-75857142D01*
X104841565Y-75809523D01*
X104793946Y-75761904D01*
X104746327Y-75666666D01*
X104746327Y-75523809D01*
D11*
X156144448Y-81099346D02*
X156106352Y-81080298D01*
X156049210Y-81080298D01*
X155992067Y-81099346D01*
X155953971Y-81137441D01*
X155934924Y-81175536D01*
X155915876Y-81251726D01*
X155915876Y-81308869D01*
X155934924Y-81385060D01*
X155953971Y-81423155D01*
X155992067Y-81461250D01*
X156049210Y-81480298D01*
X156087305Y-81480298D01*
X156144448Y-81461250D01*
X156163495Y-81442203D01*
X156163495Y-81308869D01*
X156087305Y-81308869D01*
X156334924Y-81480298D02*
X156334924Y-81080298D01*
X156563495Y-81480298D01*
X156563495Y-81080298D01*
X156753971Y-81480298D02*
X156753971Y-81080298D01*
X156849210Y-81080298D01*
X156906352Y-81099346D01*
X156944448Y-81137441D01*
X156963495Y-81175536D01*
X156982543Y-81251726D01*
X156982543Y-81308869D01*
X156963495Y-81385060D01*
X156944448Y-81423155D01*
X156906352Y-81461250D01*
X156849210Y-81480298D01*
X156753971Y-81480298D01*
X104369121Y-80641289D02*
X104369121Y-80888908D01*
X104216740Y-80755575D01*
X104216740Y-80812718D01*
X104197693Y-80850813D01*
X104178645Y-80869861D01*
X104140550Y-80888908D01*
X104045312Y-80888908D01*
X104007216Y-80869861D01*
X103988169Y-80850813D01*
X103969121Y-80812718D01*
X103969121Y-80698432D01*
X103988169Y-80660337D01*
X104007216Y-80641289D01*
X104007216Y-81060337D02*
X103988169Y-81079385D01*
X103969121Y-81060337D01*
X103988169Y-81041289D01*
X104007216Y-81060337D01*
X103969121Y-81060337D01*
X104369121Y-81212718D02*
X104369121Y-81460337D01*
X104216740Y-81327004D01*
X104216740Y-81384146D01*
X104197693Y-81422242D01*
X104178645Y-81441289D01*
X104140550Y-81460337D01*
X104045312Y-81460337D01*
X104007216Y-81441289D01*
X103988169Y-81422242D01*
X103969121Y-81384146D01*
X103969121Y-81269861D01*
X103988169Y-81231766D01*
X104007216Y-81212718D01*
X104369121Y-81574623D02*
X103969121Y-81707956D01*
X104369121Y-81841289D01*
D10*
X146676318Y-51878193D02*
X146342985Y-51402003D01*
X146104890Y-51878193D02*
X146104890Y-50878193D01*
X146485842Y-50878193D01*
X146581080Y-50925813D01*
X146628699Y-50973432D01*
X146676318Y-51068670D01*
X146676318Y-51211527D01*
X146628699Y-51306765D01*
X146581080Y-51354384D01*
X146485842Y-51402003D01*
X146104890Y-51402003D01*
X147104890Y-51878193D02*
X147104890Y-50878193D01*
X147485842Y-50878193D01*
X147581080Y-50925813D01*
X147628699Y-50973432D01*
X147676318Y-51068670D01*
X147676318Y-51211527D01*
X147628699Y-51306765D01*
X147581080Y-51354384D01*
X147485842Y-51402003D01*
X147104890Y-51402003D01*
X148104890Y-51878193D02*
X148104890Y-51211527D01*
X148104890Y-50878193D02*
X148057271Y-50925813D01*
X148104890Y-50973432D01*
X148152509Y-50925813D01*
X148104890Y-50878193D01*
X148104890Y-50973432D01*
X149200128Y-50878193D02*
X149533461Y-51878193D01*
X149866794Y-50878193D01*
X150342985Y-51878193D02*
X150247747Y-51830574D01*
X150200128Y-51782955D01*
X150152509Y-51687717D01*
X150152509Y-51402003D01*
X150200128Y-51306765D01*
X150247747Y-51259146D01*
X150342985Y-51211527D01*
X150485842Y-51211527D01*
X150581080Y-51259146D01*
X150628699Y-51306765D01*
X150676318Y-51402003D01*
X150676318Y-51687717D01*
X150628699Y-51782955D01*
X150581080Y-51830574D01*
X150485842Y-51878193D01*
X150342985Y-51878193D01*
X151247747Y-51878193D02*
X151152509Y-51830574D01*
X151104890Y-51735336D01*
X151104890Y-50878193D01*
X151485842Y-51211527D02*
X151866794Y-51211527D01*
X151628699Y-50878193D02*
X151628699Y-51735336D01*
X151676318Y-51830574D01*
X151771556Y-51878193D01*
X151866794Y-51878193D01*
X152628699Y-51878193D02*
X152628699Y-51354384D01*
X152581080Y-51259146D01*
X152485842Y-51211527D01*
X152295366Y-51211527D01*
X152200128Y-51259146D01*
X152628699Y-51830574D02*
X152533461Y-51878193D01*
X152295366Y-51878193D01*
X152200128Y-51830574D01*
X152152509Y-51735336D01*
X152152509Y-51640098D01*
X152200128Y-51544860D01*
X152295366Y-51497241D01*
X152533461Y-51497241D01*
X152628699Y-51449622D01*
X153533461Y-51211527D02*
X153533461Y-52021051D01*
X153485842Y-52116289D01*
X153438223Y-52163908D01*
X153342985Y-52211527D01*
X153200128Y-52211527D01*
X153104890Y-52163908D01*
X153533461Y-51830574D02*
X153438223Y-51878193D01*
X153247747Y-51878193D01*
X153152509Y-51830574D01*
X153104890Y-51782955D01*
X153057271Y-51687717D01*
X153057271Y-51402003D01*
X153104890Y-51306765D01*
X153152509Y-51259146D01*
X153247747Y-51211527D01*
X153438223Y-51211527D01*
X153533461Y-51259146D01*
X154390604Y-51830574D02*
X154295366Y-51878193D01*
X154104890Y-51878193D01*
X154009652Y-51830574D01*
X153962032Y-51735336D01*
X153962032Y-51354384D01*
X154009652Y-51259146D01*
X154104890Y-51211527D01*
X154295366Y-51211527D01*
X154390604Y-51259146D01*
X154438223Y-51354384D01*
X154438223Y-51449622D01*
X153962032Y-51544860D01*
X156200128Y-51878193D02*
X155866794Y-51402003D01*
X155628699Y-51878193D02*
X155628699Y-50878193D01*
X156009652Y-50878193D01*
X156104890Y-50925813D01*
X156152509Y-50973432D01*
X156200128Y-51068670D01*
X156200128Y-51211527D01*
X156152509Y-51306765D01*
X156104890Y-51354384D01*
X156009652Y-51402003D01*
X155628699Y-51402003D01*
X157009652Y-51830574D02*
X156914413Y-51878193D01*
X156723937Y-51878193D01*
X156628699Y-51830574D01*
X156581080Y-51735336D01*
X156581080Y-51354384D01*
X156628699Y-51259146D01*
X156723937Y-51211527D01*
X156914413Y-51211527D01*
X157009652Y-51259146D01*
X157057271Y-51354384D01*
X157057271Y-51449622D01*
X156581080Y-51544860D01*
X157914413Y-51211527D02*
X157914413Y-52021051D01*
X157866794Y-52116289D01*
X157819175Y-52163908D01*
X157723937Y-52211527D01*
X157581080Y-52211527D01*
X157485842Y-52163908D01*
X157914413Y-51830574D02*
X157819175Y-51878193D01*
X157628699Y-51878193D01*
X157533461Y-51830574D01*
X157485842Y-51782955D01*
X157438223Y-51687717D01*
X157438223Y-51402003D01*
X157485842Y-51306765D01*
X157533461Y-51259146D01*
X157628699Y-51211527D01*
X157819175Y-51211527D01*
X157914413Y-51259146D01*
X105643425Y-78545740D02*
X104833901Y-78545740D01*
X104738663Y-78593359D01*
X104691044Y-78640978D01*
X104643425Y-78736216D01*
X104643425Y-78926692D01*
X104691044Y-79021931D01*
X104738663Y-79069550D01*
X104833901Y-79117169D01*
X105643425Y-79117169D01*
X104643425Y-79736216D02*
X104691044Y-79640978D01*
X104786282Y-79593359D01*
X105643425Y-79593359D01*
X105310091Y-79974311D02*
X105310091Y-80355264D01*
X105643425Y-80117169D02*
X104786282Y-80117169D01*
X104691044Y-80164788D01*
X104643425Y-80260026D01*
X104643425Y-80355264D01*
X104643425Y-80688597D02*
X105310091Y-80688597D01*
X105119615Y-80688597D02*
X105214853Y-80736216D01*
X105262472Y-80783835D01*
X105310091Y-80879073D01*
X105310091Y-80974311D01*
X104643425Y-81736216D02*
X105167234Y-81736216D01*
X105262472Y-81688597D01*
X105310091Y-81593359D01*
X105310091Y-81402883D01*
X105262472Y-81307645D01*
X104691044Y-81736216D02*
X104643425Y-81640978D01*
X104643425Y-81402883D01*
X104691044Y-81307645D01*
X104786282Y-81260026D01*
X104881520Y-81260026D01*
X104976758Y-81307645D01*
X105024377Y-81402883D01*
X105024377Y-81640978D01*
X105071996Y-81736216D01*
X104691044Y-82164788D02*
X104643425Y-82260026D01*
X104643425Y-82450502D01*
X104691044Y-82545740D01*
X104786282Y-82593359D01*
X104833901Y-82593359D01*
X104929139Y-82545740D01*
X104976758Y-82450502D01*
X104976758Y-82307645D01*
X105024377Y-82212407D01*
X105119615Y-82164788D01*
X105167234Y-82164788D01*
X105262472Y-82212407D01*
X105310091Y-82307645D01*
X105310091Y-82450502D01*
X105262472Y-82545740D01*
X104643425Y-83164788D02*
X104691044Y-83069550D01*
X104738663Y-83021931D01*
X104833901Y-82974311D01*
X105119615Y-82974311D01*
X105214853Y-83021931D01*
X105262472Y-83069550D01*
X105310091Y-83164788D01*
X105310091Y-83307645D01*
X105262472Y-83402883D01*
X105214853Y-83450502D01*
X105119615Y-83498121D01*
X104833901Y-83498121D01*
X104738663Y-83450502D01*
X104691044Y-83402883D01*
X104643425Y-83307645D01*
X104643425Y-83164788D01*
X105310091Y-83926692D02*
X104643425Y-83926692D01*
X105214853Y-83926692D02*
X105262472Y-83974311D01*
X105310091Y-84069550D01*
X105310091Y-84212407D01*
X105262472Y-84307645D01*
X105167234Y-84355264D01*
X104643425Y-84355264D01*
X104643425Y-84831454D02*
X105310091Y-84831454D01*
X105643425Y-84831454D02*
X105595806Y-84783835D01*
X105548186Y-84831454D01*
X105595806Y-84879073D01*
X105643425Y-84831454D01*
X105548186Y-84831454D01*
X104691044Y-85736216D02*
X104643425Y-85640978D01*
X104643425Y-85450502D01*
X104691044Y-85355264D01*
X104738663Y-85307645D01*
X104833901Y-85260026D01*
X105119615Y-85260026D01*
X105214853Y-85307645D01*
X105262472Y-85355264D01*
X105310091Y-85450502D01*
X105310091Y-85640978D01*
X105262472Y-85736216D01*
X104691044Y-86879073D02*
X104643425Y-87021931D01*
X104643425Y-87260026D01*
X104691044Y-87355264D01*
X104738663Y-87402883D01*
X104833901Y-87450502D01*
X104929139Y-87450502D01*
X105024377Y-87402883D01*
X105071996Y-87355264D01*
X105119615Y-87260026D01*
X105167234Y-87069550D01*
X105214853Y-86974311D01*
X105262472Y-86926692D01*
X105357710Y-86879073D01*
X105452948Y-86879073D01*
X105548186Y-86926692D01*
X105595806Y-86974311D01*
X105643425Y-87069550D01*
X105643425Y-87307645D01*
X105595806Y-87450502D01*
X104691044Y-88260026D02*
X104643425Y-88164788D01*
X104643425Y-87974311D01*
X104691044Y-87879073D01*
X104786282Y-87831454D01*
X105167234Y-87831454D01*
X105262472Y-87879073D01*
X105310091Y-87974311D01*
X105310091Y-88164788D01*
X105262472Y-88260026D01*
X105167234Y-88307645D01*
X105071996Y-88307645D01*
X104976758Y-87831454D01*
X105310091Y-88736216D02*
X104643425Y-88736216D01*
X105214853Y-88736216D02*
X105262472Y-88783835D01*
X105310091Y-88879073D01*
X105310091Y-89021931D01*
X105262472Y-89117169D01*
X105167234Y-89164788D01*
X104643425Y-89164788D01*
X104691044Y-89593359D02*
X104643425Y-89688597D01*
X104643425Y-89879073D01*
X104691044Y-89974311D01*
X104786282Y-90021931D01*
X104833901Y-90021931D01*
X104929139Y-89974311D01*
X104976758Y-89879073D01*
X104976758Y-89736216D01*
X105024377Y-89640978D01*
X105119615Y-89593359D01*
X105167234Y-89593359D01*
X105262472Y-89640978D01*
X105310091Y-89736216D01*
X105310091Y-89879073D01*
X105262472Y-89974311D01*
X104643425Y-90593359D02*
X104691044Y-90498121D01*
X104738663Y-90450502D01*
X104833901Y-90402883D01*
X105119615Y-90402883D01*
X105214853Y-90450502D01*
X105262472Y-90498121D01*
X105310091Y-90593359D01*
X105310091Y-90736216D01*
X105262472Y-90831454D01*
X105214853Y-90879073D01*
X105119615Y-90926692D01*
X104833901Y-90926692D01*
X104738663Y-90879073D01*
X104691044Y-90831454D01*
X104643425Y-90736216D01*
X104643425Y-90593359D01*
X104643425Y-91355264D02*
X105310091Y-91355264D01*
X105119615Y-91355264D02*
X105214853Y-91402883D01*
X105262472Y-91450502D01*
X105310091Y-91545740D01*
X105310091Y-91640978D01*
D11*
X160457438Y-74990758D02*
X160457438Y-75181234D01*
X160647914Y-75200282D01*
X160628866Y-75181234D01*
X160609819Y-75143139D01*
X160609819Y-75047901D01*
X160628866Y-75009806D01*
X160647914Y-74990758D01*
X160686009Y-74971710D01*
X160781247Y-74971710D01*
X160819343Y-74990758D01*
X160838390Y-75009806D01*
X160857438Y-75047901D01*
X160857438Y-75143139D01*
X160838390Y-75181234D01*
X160819343Y-75200282D01*
X160457438Y-74857425D02*
X160857438Y-74724091D01*
X160457438Y-74590758D01*
X160462360Y-78005381D02*
X160443312Y-78043476D01*
X160443312Y-78100619D01*
X160462360Y-78157762D01*
X160500455Y-78195857D01*
X160538550Y-78214905D01*
X160614740Y-78233952D01*
X160671883Y-78233952D01*
X160748074Y-78214905D01*
X160786169Y-78195857D01*
X160824264Y-78157762D01*
X160843312Y-78100619D01*
X160843312Y-78062524D01*
X160824264Y-78005381D01*
X160805217Y-77986333D01*
X160671883Y-77986333D01*
X160671883Y-78062524D01*
X160843312Y-77814905D02*
X160443312Y-77814905D01*
X160443312Y-77662524D01*
X160462360Y-77624428D01*
X160481407Y-77605381D01*
X160519502Y-77586333D01*
X160576645Y-77586333D01*
X160614740Y-77605381D01*
X160633788Y-77624428D01*
X160652836Y-77662524D01*
X160652836Y-77814905D01*
X160843312Y-77414905D02*
X160443312Y-77414905D01*
X160443312Y-77148238D02*
X160443312Y-77072047D01*
X160462360Y-77033952D01*
X160500455Y-76995857D01*
X160576645Y-76976809D01*
X160709979Y-76976809D01*
X160786169Y-76995857D01*
X160824264Y-77033952D01*
X160843312Y-77072047D01*
X160843312Y-77148238D01*
X160824264Y-77186333D01*
X160786169Y-77224428D01*
X160709979Y-77243476D01*
X160576645Y-77243476D01*
X160500455Y-77224428D01*
X160462360Y-77186333D01*
X160443312Y-77148238D01*
X160443312Y-76843476D02*
X160443312Y-76595857D01*
X160595693Y-76729190D01*
X160595693Y-76672047D01*
X160614740Y-76633952D01*
X160633788Y-76614905D01*
X160671883Y-76595857D01*
X160767121Y-76595857D01*
X160805217Y-76614905D01*
X160824264Y-76633952D01*
X160843312Y-76672047D01*
X160843312Y-76786333D01*
X160824264Y-76824428D01*
X160805217Y-76843476D01*
X104448915Y-73737424D02*
X104448915Y-73546948D01*
X104258439Y-73527900D01*
X104277487Y-73546948D01*
X104296534Y-73585043D01*
X104296534Y-73680281D01*
X104277487Y-73718376D01*
X104258439Y-73737424D01*
X104220344Y-73756472D01*
X104125106Y-73756472D01*
X104087010Y-73737424D01*
X104067963Y-73718376D01*
X104048915Y-73680281D01*
X104048915Y-73585043D01*
X104067963Y-73546948D01*
X104087010Y-73527900D01*
X104448915Y-73870757D02*
X104048915Y-74004091D01*
X104448915Y-74137424D01*
X160431147Y-72627846D02*
X160412099Y-72665942D01*
X160412099Y-72723085D01*
X160431147Y-72780227D01*
X160469242Y-72818323D01*
X160507337Y-72837370D01*
X160583527Y-72856418D01*
X160640670Y-72856418D01*
X160716861Y-72837370D01*
X160754956Y-72818323D01*
X160793051Y-72780227D01*
X160812099Y-72723085D01*
X160812099Y-72684989D01*
X160793051Y-72627846D01*
X160774004Y-72608799D01*
X160640670Y-72608799D01*
X160640670Y-72684989D01*
X160812099Y-72437370D02*
X160412099Y-72437370D01*
X160812099Y-72208799D01*
X160412099Y-72208799D01*
X160812099Y-72018323D02*
X160412099Y-72018323D01*
X160412099Y-71923085D01*
X160431147Y-71865942D01*
X160469242Y-71827846D01*
X160507337Y-71808799D01*
X160583527Y-71789751D01*
X160640670Y-71789751D01*
X160716861Y-71808799D01*
X160754956Y-71827846D01*
X160793051Y-71865942D01*
X160812099Y-71923085D01*
X160812099Y-72018323D01*
X160459400Y-70328466D02*
X160440352Y-70366561D01*
X160440352Y-70423704D01*
X160459400Y-70480847D01*
X160497495Y-70518942D01*
X160535590Y-70537990D01*
X160611780Y-70557037D01*
X160668923Y-70557037D01*
X160745114Y-70537990D01*
X160783209Y-70518942D01*
X160821304Y-70480847D01*
X160840352Y-70423704D01*
X160840352Y-70385609D01*
X160821304Y-70328466D01*
X160802257Y-70309418D01*
X160668923Y-70309418D01*
X160668923Y-70385609D01*
X160840352Y-70137990D02*
X160440352Y-70137990D01*
X160440352Y-69985609D01*
X160459400Y-69947513D01*
X160478447Y-69928466D01*
X160516542Y-69909418D01*
X160573685Y-69909418D01*
X160611780Y-69928466D01*
X160630828Y-69947513D01*
X160649876Y-69985609D01*
X160649876Y-70137990D01*
X160840352Y-69737990D02*
X160440352Y-69737990D01*
X160440352Y-69471323D02*
X160440352Y-69395132D01*
X160459400Y-69357037D01*
X160497495Y-69318942D01*
X160573685Y-69299894D01*
X160707019Y-69299894D01*
X160783209Y-69318942D01*
X160821304Y-69357037D01*
X160840352Y-69395132D01*
X160840352Y-69471323D01*
X160821304Y-69509418D01*
X160783209Y-69547513D01*
X160707019Y-69566561D01*
X160573685Y-69566561D01*
X160497495Y-69547513D01*
X160459400Y-69509418D01*
X160440352Y-69471323D01*
X160573685Y-68957037D02*
X160840352Y-68957037D01*
X160421304Y-69052275D02*
X160707019Y-69147513D01*
X160707019Y-68899894D01*
X104401615Y-76093948D02*
X104420662Y-76055852D01*
X104420662Y-75998710D01*
X104401615Y-75941567D01*
X104363519Y-75903471D01*
X104325424Y-75884424D01*
X104249234Y-75865376D01*
X104192091Y-75865376D01*
X104115900Y-75884424D01*
X104077805Y-75903471D01*
X104039710Y-75941567D01*
X104020662Y-75998710D01*
X104020662Y-76036805D01*
X104039710Y-76093948D01*
X104058757Y-76112995D01*
X104192091Y-76112995D01*
X104192091Y-76036805D01*
X104020662Y-76284424D02*
X104420662Y-76284424D01*
X104020662Y-76512995D01*
X104420662Y-76512995D01*
X104020662Y-76703471D02*
X104420662Y-76703471D01*
X104420662Y-76798710D01*
X104401615Y-76855852D01*
X104363519Y-76893948D01*
X104325424Y-76912995D01*
X104249234Y-76932043D01*
X104192091Y-76932043D01*
X104115900Y-76912995D01*
X104077805Y-76893948D01*
X104039710Y-76855852D01*
X104020662Y-76798710D01*
X104020662Y-76703471D01*
D12*
X140647380Y-97642857D02*
X141361666Y-97642857D01*
X141504523Y-97680952D01*
X141599761Y-97757142D01*
X141647380Y-97871428D01*
X141647380Y-97947619D01*
X141647380Y-97223809D02*
X141647380Y-97071428D01*
X141599761Y-96995238D01*
X141552142Y-96957142D01*
X141409285Y-96880952D01*
X141218809Y-96842857D01*
X140837857Y-96842857D01*
X140742619Y-96880952D01*
X140695000Y-96919047D01*
X140647380Y-96995238D01*
X140647380Y-97147619D01*
X140695000Y-97223809D01*
X140742619Y-97261904D01*
X140837857Y-97300000D01*
X141075952Y-97300000D01*
X141171190Y-97261904D01*
X141218809Y-97223809D01*
X141266428Y-97147619D01*
X141266428Y-96995238D01*
X141218809Y-96919047D01*
X141171190Y-96880952D01*
X141075952Y-96842857D01*
X141647380Y-95776190D02*
X141599761Y-95852380D01*
X141552142Y-95890476D01*
X141456904Y-95928571D01*
X141171190Y-95928571D01*
X141075952Y-95890476D01*
X141028333Y-95852380D01*
X140980714Y-95776190D01*
X140980714Y-95661904D01*
X141028333Y-95585714D01*
X141075952Y-95547619D01*
X141171190Y-95509523D01*
X141456904Y-95509523D01*
X141552142Y-95547619D01*
X141599761Y-95585714D01*
X141647380Y-95661904D01*
X141647380Y-95776190D01*
X140980714Y-95166666D02*
X141647380Y-95166666D01*
X141075952Y-95166666D02*
X141028333Y-95128571D01*
X140980714Y-95052380D01*
X140980714Y-94938095D01*
X141028333Y-94861904D01*
X141123571Y-94823809D01*
X141647380Y-94823809D01*
X140980714Y-93947619D02*
X140980714Y-93642857D01*
X140647380Y-93833333D02*
X141504523Y-93833333D01*
X141599761Y-93795238D01*
X141647380Y-93719047D01*
X141647380Y-93642857D01*
X141647380Y-93261904D02*
X141599761Y-93338095D01*
X141552142Y-93376190D01*
X141456904Y-93414285D01*
X141171190Y-93414285D01*
X141075952Y-93376190D01*
X141028333Y-93338095D01*
X140980714Y-93261904D01*
X140980714Y-93147619D01*
X141028333Y-93071428D01*
X141075952Y-93033333D01*
X141171190Y-92995238D01*
X141456904Y-92995238D01*
X141552142Y-93033333D01*
X141599761Y-93071428D01*
X141647380Y-93147619D01*
X141647380Y-93261904D01*
X140980714Y-92042857D02*
X141980714Y-92042857D01*
X141028333Y-92042857D02*
X140980714Y-91966666D01*
X140980714Y-91814285D01*
X141028333Y-91738095D01*
X141075952Y-91700000D01*
X141171190Y-91661904D01*
X141456904Y-91661904D01*
X141552142Y-91700000D01*
X141599761Y-91738095D01*
X141647380Y-91814285D01*
X141647380Y-91966666D01*
X141599761Y-92042857D01*
X141647380Y-91204761D02*
X141599761Y-91280952D01*
X141552142Y-91319047D01*
X141456904Y-91357142D01*
X141171190Y-91357142D01*
X141075952Y-91319047D01*
X141028333Y-91280952D01*
X140980714Y-91204761D01*
X140980714Y-91090476D01*
X141028333Y-91014285D01*
X141075952Y-90976190D01*
X141171190Y-90938095D01*
X141456904Y-90938095D01*
X141552142Y-90976190D01*
X141599761Y-91014285D01*
X141647380Y-91090476D01*
X141647380Y-91204761D01*
X140980714Y-90671428D02*
X141647380Y-90519047D01*
X141171190Y-90366666D01*
X141647380Y-90214285D01*
X140980714Y-90061904D01*
X141599761Y-89452380D02*
X141647380Y-89528571D01*
X141647380Y-89680952D01*
X141599761Y-89757142D01*
X141504523Y-89795238D01*
X141123571Y-89795238D01*
X141028333Y-89757142D01*
X140980714Y-89680952D01*
X140980714Y-89528571D01*
X141028333Y-89452380D01*
X141123571Y-89414285D01*
X141218809Y-89414285D01*
X141314047Y-89795238D01*
X141647380Y-89071428D02*
X140980714Y-89071428D01*
X141171190Y-89071428D02*
X141075952Y-89033333D01*
X141028333Y-88995238D01*
X140980714Y-88919047D01*
X140980714Y-88842857D01*
X140980714Y-87966666D02*
X141980714Y-87966666D01*
X141028333Y-87966666D02*
X140980714Y-87890476D01*
X140980714Y-87738095D01*
X141028333Y-87661904D01*
X141075952Y-87623809D01*
X141171190Y-87585714D01*
X141456904Y-87585714D01*
X141552142Y-87623809D01*
X141599761Y-87661904D01*
X141647380Y-87738095D01*
X141647380Y-87890476D01*
X141599761Y-87966666D01*
X141647380Y-87242857D02*
X140980714Y-87242857D01*
X140647380Y-87242857D02*
X140695000Y-87280952D01*
X140742619Y-87242857D01*
X140695000Y-87204761D01*
X140647380Y-87242857D01*
X140742619Y-87242857D01*
X140980714Y-86366666D02*
X140980714Y-86061904D01*
X141647380Y-86252380D02*
X140790238Y-86252380D01*
X140695000Y-86214285D01*
X140647380Y-86138095D01*
X140647380Y-86061904D01*
X141647380Y-85795238D02*
X140980714Y-85795238D01*
X141171190Y-85795238D02*
X141075952Y-85757142D01*
X141028333Y-85719047D01*
X140980714Y-85642857D01*
X140980714Y-85566666D01*
X141647380Y-85185714D02*
X141599761Y-85261904D01*
X141552142Y-85300000D01*
X141456904Y-85338095D01*
X141171190Y-85338095D01*
X141075952Y-85300000D01*
X141028333Y-85261904D01*
X140980714Y-85185714D01*
X140980714Y-85071428D01*
X141028333Y-84995238D01*
X141075952Y-84957142D01*
X141171190Y-84919047D01*
X141456904Y-84919047D01*
X141552142Y-84957142D01*
X141599761Y-84995238D01*
X141647380Y-85071428D01*
X141647380Y-85185714D01*
X141647380Y-84576190D02*
X140980714Y-84576190D01*
X141075952Y-84576190D02*
X141028333Y-84538095D01*
X140980714Y-84461904D01*
X140980714Y-84347619D01*
X141028333Y-84271428D01*
X141123571Y-84233333D01*
X141647380Y-84233333D01*
X141123571Y-84233333D02*
X141028333Y-84195238D01*
X140980714Y-84119047D01*
X140980714Y-84004761D01*
X141028333Y-83928571D01*
X141123571Y-83890476D01*
X141647380Y-83890476D01*
X141647380Y-82900000D02*
X140647380Y-82900000D01*
X141028333Y-82900000D02*
X140980714Y-82823809D01*
X140980714Y-82671428D01*
X141028333Y-82595238D01*
X141075952Y-82557142D01*
X141171190Y-82519047D01*
X141456904Y-82519047D01*
X141552142Y-82557142D01*
X141599761Y-82595238D01*
X141647380Y-82671428D01*
X141647380Y-82823809D01*
X141599761Y-82900000D01*
X141647380Y-81833333D02*
X141123571Y-81833333D01*
X141028333Y-81871428D01*
X140980714Y-81947619D01*
X140980714Y-82100000D01*
X141028333Y-82176190D01*
X141599761Y-81833333D02*
X141647380Y-81909523D01*
X141647380Y-82100000D01*
X141599761Y-82176190D01*
X141504523Y-82214285D01*
X141409285Y-82214285D01*
X141314047Y-82176190D01*
X141266428Y-82100000D01*
X141266428Y-81909523D01*
X141218809Y-81833333D01*
X140980714Y-81566666D02*
X140980714Y-81261904D01*
X140647380Y-81452380D02*
X141504523Y-81452380D01*
X141599761Y-81414285D01*
X141647380Y-81338095D01*
X141647380Y-81261904D01*
X140980714Y-81109523D02*
X140980714Y-80804761D01*
X140647380Y-80995238D02*
X141504523Y-80995238D01*
X141599761Y-80957142D01*
X141647380Y-80880952D01*
X141647380Y-80804761D01*
X141599761Y-80233333D02*
X141647380Y-80309523D01*
X141647380Y-80461904D01*
X141599761Y-80538095D01*
X141504523Y-80576190D01*
X141123571Y-80576190D01*
X141028333Y-80538095D01*
X140980714Y-80461904D01*
X140980714Y-80309523D01*
X141028333Y-80233333D01*
X141123571Y-80195238D01*
X141218809Y-80195238D01*
X141314047Y-80576190D01*
X141647380Y-79852380D02*
X140980714Y-79852380D01*
X141171190Y-79852380D02*
X141075952Y-79814285D01*
X141028333Y-79776190D01*
X140980714Y-79700000D01*
X140980714Y-79623809D01*
X140980714Y-79433333D02*
X141647380Y-79242857D01*
X140980714Y-79052380D02*
X141647380Y-79242857D01*
X141885476Y-79319047D01*
X141933095Y-79357142D01*
X141980714Y-79433333D01*
X142257380Y-98538095D02*
X142971666Y-98538095D01*
X143114523Y-98576190D01*
X143209761Y-98652380D01*
X143257380Y-98766666D01*
X143257380Y-98842857D01*
X143257380Y-98119047D02*
X143257380Y-97966666D01*
X143209761Y-97890476D01*
X143162142Y-97852380D01*
X143019285Y-97776190D01*
X142828809Y-97738095D01*
X142447857Y-97738095D01*
X142352619Y-97776190D01*
X142305000Y-97814285D01*
X142257380Y-97890476D01*
X142257380Y-98042857D01*
X142305000Y-98119047D01*
X142352619Y-98157142D01*
X142447857Y-98195238D01*
X142685952Y-98195238D01*
X142781190Y-98157142D01*
X142828809Y-98119047D01*
X142876428Y-98042857D01*
X142876428Y-97890476D01*
X142828809Y-97814285D01*
X142781190Y-97776190D01*
X142685952Y-97738095D01*
X143257380Y-96671428D02*
X143209761Y-96747619D01*
X143162142Y-96785714D01*
X143066904Y-96823809D01*
X142781190Y-96823809D01*
X142685952Y-96785714D01*
X142638333Y-96747619D01*
X142590714Y-96671428D01*
X142590714Y-96557142D01*
X142638333Y-96480952D01*
X142685952Y-96442857D01*
X142781190Y-96404761D01*
X143066904Y-96404761D01*
X143162142Y-96442857D01*
X143209761Y-96480952D01*
X143257380Y-96557142D01*
X143257380Y-96671428D01*
X142590714Y-96176190D02*
X142590714Y-95871428D01*
X143257380Y-96061904D02*
X142400238Y-96061904D01*
X142305000Y-96023809D01*
X142257380Y-95947619D01*
X142257380Y-95871428D01*
X142590714Y-95719047D02*
X142590714Y-95414285D01*
X143257380Y-95604761D02*
X142400238Y-95604761D01*
X142305000Y-95566666D01*
X142257380Y-95490476D01*
X142257380Y-95414285D01*
X142590714Y-94652380D02*
X142590714Y-94347619D01*
X142257380Y-94538095D02*
X143114523Y-94538095D01*
X143209761Y-94500000D01*
X143257380Y-94423809D01*
X143257380Y-94347619D01*
X143257380Y-93966666D02*
X143209761Y-94042857D01*
X143162142Y-94080952D01*
X143066904Y-94119047D01*
X142781190Y-94119047D01*
X142685952Y-94080952D01*
X142638333Y-94042857D01*
X142590714Y-93966666D01*
X142590714Y-93852380D01*
X142638333Y-93776190D01*
X142685952Y-93738095D01*
X142781190Y-93700000D01*
X143066904Y-93700000D01*
X143162142Y-93738095D01*
X143209761Y-93776190D01*
X143257380Y-93852380D01*
X143257380Y-93966666D01*
X142590714Y-92747619D02*
X143590714Y-92747619D01*
X142638333Y-92747619D02*
X142590714Y-92671428D01*
X142590714Y-92519047D01*
X142638333Y-92442857D01*
X142685952Y-92404761D01*
X142781190Y-92366666D01*
X143066904Y-92366666D01*
X143162142Y-92404761D01*
X143209761Y-92442857D01*
X143257380Y-92519047D01*
X143257380Y-92671428D01*
X143209761Y-92747619D01*
X143257380Y-91909523D02*
X143209761Y-91985714D01*
X143162142Y-92023809D01*
X143066904Y-92061904D01*
X142781190Y-92061904D01*
X142685952Y-92023809D01*
X142638333Y-91985714D01*
X142590714Y-91909523D01*
X142590714Y-91795238D01*
X142638333Y-91719047D01*
X142685952Y-91680952D01*
X142781190Y-91642857D01*
X143066904Y-91642857D01*
X143162142Y-91680952D01*
X143209761Y-91719047D01*
X143257380Y-91795238D01*
X143257380Y-91909523D01*
X142590714Y-91376190D02*
X143257380Y-91223809D01*
X142781190Y-91071428D01*
X143257380Y-90919047D01*
X142590714Y-90766666D01*
X143209761Y-90157142D02*
X143257380Y-90233333D01*
X143257380Y-90385714D01*
X143209761Y-90461904D01*
X143114523Y-90500000D01*
X142733571Y-90500000D01*
X142638333Y-90461904D01*
X142590714Y-90385714D01*
X142590714Y-90233333D01*
X142638333Y-90157142D01*
X142733571Y-90119047D01*
X142828809Y-90119047D01*
X142924047Y-90500000D01*
X143257380Y-89776190D02*
X142590714Y-89776190D01*
X142781190Y-89776190D02*
X142685952Y-89738095D01*
X142638333Y-89700000D01*
X142590714Y-89623809D01*
X142590714Y-89547619D01*
X142590714Y-88671428D02*
X143590714Y-88671428D01*
X142638333Y-88671428D02*
X142590714Y-88595238D01*
X142590714Y-88442857D01*
X142638333Y-88366666D01*
X142685952Y-88328571D01*
X142781190Y-88290476D01*
X143066904Y-88290476D01*
X143162142Y-88328571D01*
X143209761Y-88366666D01*
X143257380Y-88442857D01*
X143257380Y-88595238D01*
X143209761Y-88671428D01*
X143257380Y-87947619D02*
X142590714Y-87947619D01*
X142257380Y-87947619D02*
X142305000Y-87985714D01*
X142352619Y-87947619D01*
X142305000Y-87909523D01*
X142257380Y-87947619D01*
X142352619Y-87947619D01*
X142590714Y-87071428D02*
X142590714Y-86766666D01*
X143257380Y-86957142D02*
X142400238Y-86957142D01*
X142305000Y-86919047D01*
X142257380Y-86842857D01*
X142257380Y-86766666D01*
X143257380Y-86500000D02*
X142590714Y-86500000D01*
X142781190Y-86500000D02*
X142685952Y-86461904D01*
X142638333Y-86423809D01*
X142590714Y-86347619D01*
X142590714Y-86271428D01*
X143257380Y-85890476D02*
X143209761Y-85966666D01*
X143162142Y-86004761D01*
X143066904Y-86042857D01*
X142781190Y-86042857D01*
X142685952Y-86004761D01*
X142638333Y-85966666D01*
X142590714Y-85890476D01*
X142590714Y-85776190D01*
X142638333Y-85700000D01*
X142685952Y-85661904D01*
X142781190Y-85623809D01*
X143066904Y-85623809D01*
X143162142Y-85661904D01*
X143209761Y-85700000D01*
X143257380Y-85776190D01*
X143257380Y-85890476D01*
X143257380Y-85280952D02*
X142590714Y-85280952D01*
X142685952Y-85280952D02*
X142638333Y-85242857D01*
X142590714Y-85166666D01*
X142590714Y-85052380D01*
X142638333Y-84976190D01*
X142733571Y-84938095D01*
X143257380Y-84938095D01*
X142733571Y-84938095D02*
X142638333Y-84900000D01*
X142590714Y-84823809D01*
X142590714Y-84709523D01*
X142638333Y-84633333D01*
X142733571Y-84595238D01*
X143257380Y-84595238D01*
X143257380Y-83604761D02*
X142590714Y-83604761D01*
X142685952Y-83604761D02*
X142638333Y-83566666D01*
X142590714Y-83490476D01*
X142590714Y-83376190D01*
X142638333Y-83300000D01*
X142733571Y-83261904D01*
X143257380Y-83261904D01*
X142733571Y-83261904D02*
X142638333Y-83223809D01*
X142590714Y-83147619D01*
X142590714Y-83033333D01*
X142638333Y-82957142D01*
X142733571Y-82919047D01*
X143257380Y-82919047D01*
X143257380Y-82538095D02*
X142590714Y-82538095D01*
X142257380Y-82538095D02*
X142305000Y-82576190D01*
X142352619Y-82538095D01*
X142305000Y-82500000D01*
X142257380Y-82538095D01*
X142352619Y-82538095D01*
X143209761Y-81814285D02*
X143257380Y-81890476D01*
X143257380Y-82042857D01*
X143209761Y-82119047D01*
X143162142Y-82157142D01*
X143066904Y-82195238D01*
X142781190Y-82195238D01*
X142685952Y-82157142D01*
X142638333Y-82119047D01*
X142590714Y-82042857D01*
X142590714Y-81890476D01*
X142638333Y-81814285D01*
X143257380Y-81471428D02*
X142590714Y-81471428D01*
X142781190Y-81471428D02*
X142685952Y-81433333D01*
X142638333Y-81395238D01*
X142590714Y-81319047D01*
X142590714Y-81242857D01*
X143257380Y-80861904D02*
X143209761Y-80938095D01*
X143162142Y-80976190D01*
X143066904Y-81014285D01*
X142781190Y-81014285D01*
X142685952Y-80976190D01*
X142638333Y-80938095D01*
X142590714Y-80861904D01*
X142590714Y-80747619D01*
X142638333Y-80671428D01*
X142685952Y-80633333D01*
X142781190Y-80595238D01*
X143066904Y-80595238D01*
X143162142Y-80633333D01*
X143209761Y-80671428D01*
X143257380Y-80747619D01*
X143257380Y-80861904D01*
X142257380Y-80252380D02*
X143066904Y-80252380D01*
X143162142Y-80214285D01*
X143209761Y-80176190D01*
X143257380Y-80100000D01*
X143257380Y-79947619D01*
X143209761Y-79871428D01*
X143162142Y-79833333D01*
X143066904Y-79795238D01*
X142257380Y-79795238D01*
X143209761Y-79452380D02*
X143257380Y-79338095D01*
X143257380Y-79147619D01*
X143209761Y-79071428D01*
X143162142Y-79033333D01*
X143066904Y-78995238D01*
X142971666Y-78995238D01*
X142876428Y-79033333D01*
X142828809Y-79071428D01*
X142781190Y-79147619D01*
X142733571Y-79300000D01*
X142685952Y-79376190D01*
X142638333Y-79414285D01*
X142543095Y-79452380D01*
X142447857Y-79452380D01*
X142352619Y-79414285D01*
X142305000Y-79376190D01*
X142257380Y-79300000D01*
X142257380Y-79109523D01*
X142305000Y-78995238D01*
X142733571Y-78385714D02*
X142781190Y-78271428D01*
X142828809Y-78233333D01*
X142924047Y-78195238D01*
X143066904Y-78195238D01*
X143162142Y-78233333D01*
X143209761Y-78271428D01*
X143257380Y-78347619D01*
X143257380Y-78652380D01*
X142257380Y-78652380D01*
X142257380Y-78385714D01*
X142305000Y-78309523D01*
X142352619Y-78271428D01*
X142447857Y-78233333D01*
X142543095Y-78233333D01*
X142638333Y-78271428D01*
X142685952Y-78309523D01*
X142733571Y-78385714D01*
X142733571Y-78652380D01*
D11*
X160473526Y-67828129D02*
X160454478Y-67866224D01*
X160454478Y-67923367D01*
X160473526Y-67980510D01*
X160511621Y-68018605D01*
X160549716Y-68037653D01*
X160625906Y-68056700D01*
X160683049Y-68056700D01*
X160759240Y-68037653D01*
X160797335Y-68018605D01*
X160835430Y-67980510D01*
X160854478Y-67923367D01*
X160854478Y-67885272D01*
X160835430Y-67828129D01*
X160816383Y-67809081D01*
X160683049Y-67809081D01*
X160683049Y-67885272D01*
X160854478Y-67637653D02*
X160454478Y-67637653D01*
X160454478Y-67485272D01*
X160473526Y-67447176D01*
X160492573Y-67428129D01*
X160530668Y-67409081D01*
X160587811Y-67409081D01*
X160625906Y-67428129D01*
X160644954Y-67447176D01*
X160664002Y-67485272D01*
X160664002Y-67637653D01*
X160854478Y-67237653D02*
X160454478Y-67237653D01*
X160454478Y-66970986D02*
X160454478Y-66894795D01*
X160473526Y-66856700D01*
X160511621Y-66818605D01*
X160587811Y-66799557D01*
X160721145Y-66799557D01*
X160797335Y-66818605D01*
X160835430Y-66856700D01*
X160854478Y-66894795D01*
X160854478Y-66970986D01*
X160835430Y-67009081D01*
X160797335Y-67047176D01*
X160721145Y-67066224D01*
X160587811Y-67066224D01*
X160511621Y-67047176D01*
X160473526Y-67009081D01*
X160454478Y-66970986D01*
X160854478Y-66609081D02*
X160854478Y-66532891D01*
X160835430Y-66494795D01*
X160816383Y-66475748D01*
X160759240Y-66437653D01*
X160683049Y-66418605D01*
X160530668Y-66418605D01*
X160492573Y-66437653D01*
X160473526Y-66456700D01*
X160454478Y-66494795D01*
X160454478Y-66570986D01*
X160473526Y-66609081D01*
X160492573Y-66628129D01*
X160530668Y-66647176D01*
X160625906Y-66647176D01*
X160664002Y-66628129D01*
X160683049Y-66609081D01*
X160702097Y-66570986D01*
X160702097Y-66494795D01*
X160683049Y-66456700D01*
X160664002Y-66437653D01*
X160625906Y-66418605D01*
D10*
X109571428Y-78164961D02*
X109571428Y-77164961D01*
X109904761Y-77879247D01*
X110238095Y-77164961D01*
X110238095Y-78164961D01*
X110857142Y-78164961D02*
X110761904Y-78117342D01*
X110714285Y-78069723D01*
X110666666Y-77974485D01*
X110666666Y-77688771D01*
X110714285Y-77593533D01*
X110761904Y-77545914D01*
X110857142Y-77498295D01*
X111000000Y-77498295D01*
X111095238Y-77545914D01*
X111142857Y-77593533D01*
X111190476Y-77688771D01*
X111190476Y-77974485D01*
X111142857Y-78069723D01*
X111095238Y-78117342D01*
X111000000Y-78164961D01*
X110857142Y-78164961D01*
X111476190Y-77498295D02*
X111857142Y-77498295D01*
X111619047Y-77164961D02*
X111619047Y-78022104D01*
X111666666Y-78117342D01*
X111761904Y-78164961D01*
X111857142Y-78164961D01*
X112333333Y-78164961D02*
X112238095Y-78117342D01*
X112190476Y-78069723D01*
X112142857Y-77974485D01*
X112142857Y-77688771D01*
X112190476Y-77593533D01*
X112238095Y-77545914D01*
X112333333Y-77498295D01*
X112476190Y-77498295D01*
X112571428Y-77545914D01*
X112619047Y-77593533D01*
X112666666Y-77688771D01*
X112666666Y-77974485D01*
X112619047Y-78069723D01*
X112571428Y-78117342D01*
X112476190Y-78164961D01*
X112333333Y-78164961D01*
X113095238Y-78164961D02*
X113095238Y-77498295D01*
X113095238Y-77688771D02*
X113142857Y-77593533D01*
X113190476Y-77545914D01*
X113285714Y-77498295D01*
X113380952Y-77498295D01*
X114476190Y-78164961D02*
X114476190Y-77164961D01*
X114857142Y-77164961D01*
X114952380Y-77212581D01*
X115000000Y-77260200D01*
X115047619Y-77355438D01*
X115047619Y-77498295D01*
X115000000Y-77593533D01*
X114952380Y-77641152D01*
X114857142Y-77688771D01*
X114476190Y-77688771D01*
X115619047Y-78164961D02*
X115523809Y-78117342D01*
X115476190Y-78069723D01*
X115428571Y-77974485D01*
X115428571Y-77688771D01*
X115476190Y-77593533D01*
X115523809Y-77545914D01*
X115619047Y-77498295D01*
X115761904Y-77498295D01*
X115857142Y-77545914D01*
X115904761Y-77593533D01*
X115952380Y-77688771D01*
X115952380Y-77974485D01*
X115904761Y-78069723D01*
X115857142Y-78117342D01*
X115761904Y-78164961D01*
X115619047Y-78164961D01*
X116285714Y-77498295D02*
X116476190Y-78164961D01*
X116666666Y-77688771D01*
X116857142Y-78164961D01*
X117047619Y-77498295D01*
X117809523Y-78117342D02*
X117714285Y-78164961D01*
X117523809Y-78164961D01*
X117428571Y-78117342D01*
X117380952Y-78022104D01*
X117380952Y-77641152D01*
X117428571Y-77545914D01*
X117523809Y-77498295D01*
X117714285Y-77498295D01*
X117809523Y-77545914D01*
X117857142Y-77641152D01*
X117857142Y-77736390D01*
X117380952Y-77831628D01*
X118285714Y-78164961D02*
X118285714Y-77498295D01*
X118285714Y-77688771D02*
X118333333Y-77593533D01*
X118380952Y-77545914D01*
X118476190Y-77498295D01*
X118571428Y-77498295D01*
D11*
X104341799Y-82847020D02*
X104360846Y-82808925D01*
X104360846Y-82751782D01*
X104341799Y-82694639D01*
X104303703Y-82656544D01*
X104265608Y-82637496D01*
X104189418Y-82618449D01*
X104132275Y-82618449D01*
X104056084Y-82637496D01*
X104017989Y-82656544D01*
X103979894Y-82694639D01*
X103960846Y-82751782D01*
X103960846Y-82789877D01*
X103979894Y-82847020D01*
X103998941Y-82866068D01*
X104132275Y-82866068D01*
X104132275Y-82789877D01*
X103960846Y-83037496D02*
X104360846Y-83037496D01*
X104360846Y-83189877D01*
X104341799Y-83227973D01*
X104322751Y-83247020D01*
X104284656Y-83266068D01*
X104227513Y-83266068D01*
X104189418Y-83247020D01*
X104170370Y-83227973D01*
X104151322Y-83189877D01*
X104151322Y-83037496D01*
X103960846Y-83437496D02*
X104360846Y-83437496D01*
X104360846Y-83704163D02*
X104360846Y-83780353D01*
X104341799Y-83818449D01*
X104303703Y-83856544D01*
X104227513Y-83875592D01*
X104094179Y-83875592D01*
X104017989Y-83856544D01*
X103979894Y-83818449D01*
X103960846Y-83780353D01*
X103960846Y-83704163D01*
X103979894Y-83666068D01*
X104017989Y-83627973D01*
X104094179Y-83608925D01*
X104227513Y-83608925D01*
X104303703Y-83627973D01*
X104341799Y-83666068D01*
X104360846Y-83704163D01*
X103960846Y-84256544D02*
X103960846Y-84027973D01*
X103960846Y-84142258D02*
X104360846Y-84142258D01*
X104303703Y-84104163D01*
X104265608Y-84066068D01*
X104246560Y-84027973D01*
X104360846Y-84389877D02*
X104360846Y-84656544D01*
X103960846Y-84485115D01*
X104308838Y-88478600D02*
X104327885Y-88440504D01*
X104327885Y-88383362D01*
X104308838Y-88326219D01*
X104270742Y-88288123D01*
X104232647Y-88269076D01*
X104156457Y-88250028D01*
X104099314Y-88250028D01*
X104023123Y-88269076D01*
X103985028Y-88288123D01*
X103946933Y-88326219D01*
X103927885Y-88383362D01*
X103927885Y-88421457D01*
X103946933Y-88478600D01*
X103965980Y-88497647D01*
X104099314Y-88497647D01*
X104099314Y-88421457D01*
X103927885Y-88669076D02*
X104327885Y-88669076D01*
X103927885Y-88897647D01*
X104327885Y-88897647D01*
X103927885Y-89088123D02*
X104327885Y-89088123D01*
X104327885Y-89183362D01*
X104308838Y-89240504D01*
X104270742Y-89278600D01*
X104232647Y-89297647D01*
X104156457Y-89316695D01*
X104099314Y-89316695D01*
X104023123Y-89297647D01*
X103985028Y-89278600D01*
X103946933Y-89240504D01*
X103927885Y-89183362D01*
X103927885Y-89088123D01*
D10*
X160090445Y-79757607D02*
X159090445Y-79757607D01*
X159804731Y-79424274D01*
X159090445Y-79090940D01*
X160090445Y-79090940D01*
X160090445Y-78471893D02*
X160042826Y-78567131D01*
X159995207Y-78614750D01*
X159899969Y-78662369D01*
X159614255Y-78662369D01*
X159519017Y-78614750D01*
X159471398Y-78567131D01*
X159423779Y-78471893D01*
X159423779Y-78329036D01*
X159471398Y-78233797D01*
X159519017Y-78186178D01*
X159614255Y-78138559D01*
X159899969Y-78138559D01*
X159995207Y-78186178D01*
X160042826Y-78233797D01*
X160090445Y-78329036D01*
X160090445Y-78471893D01*
X159423779Y-77852845D02*
X159423779Y-77471893D01*
X159090445Y-77709988D02*
X159947588Y-77709988D01*
X160042826Y-77662369D01*
X160090445Y-77567131D01*
X160090445Y-77471893D01*
X160090445Y-76995702D02*
X160042826Y-77090940D01*
X159995207Y-77138559D01*
X159899969Y-77186178D01*
X159614255Y-77186178D01*
X159519017Y-77138559D01*
X159471398Y-77090940D01*
X159423779Y-76995702D01*
X159423779Y-76852845D01*
X159471398Y-76757607D01*
X159519017Y-76709988D01*
X159614255Y-76662369D01*
X159899969Y-76662369D01*
X159995207Y-76709988D01*
X160042826Y-76757607D01*
X160090445Y-76852845D01*
X160090445Y-76995702D01*
X160090445Y-76233797D02*
X159423779Y-76233797D01*
X159614255Y-76233797D02*
X159519017Y-76186178D01*
X159471398Y-76138559D01*
X159423779Y-76043321D01*
X159423779Y-75948083D01*
X159995207Y-74281416D02*
X160042826Y-74329036D01*
X160090445Y-74471893D01*
X160090445Y-74567131D01*
X160042826Y-74709988D01*
X159947588Y-74805226D01*
X159852350Y-74852845D01*
X159661874Y-74900464D01*
X159519017Y-74900464D01*
X159328541Y-74852845D01*
X159233303Y-74805226D01*
X159138065Y-74709988D01*
X159090445Y-74567131D01*
X159090445Y-74471893D01*
X159138065Y-74329036D01*
X159185684Y-74281416D01*
X160090445Y-73709988D02*
X160042826Y-73805226D01*
X159995207Y-73852845D01*
X159899969Y-73900464D01*
X159614255Y-73900464D01*
X159519017Y-73852845D01*
X159471398Y-73805226D01*
X159423779Y-73709988D01*
X159423779Y-73567131D01*
X159471398Y-73471893D01*
X159519017Y-73424274D01*
X159614255Y-73376655D01*
X159899969Y-73376655D01*
X159995207Y-73424274D01*
X160042826Y-73471893D01*
X160090445Y-73567131D01*
X160090445Y-73709988D01*
X159423779Y-72948083D02*
X160090445Y-72948083D01*
X159519017Y-72948083D02*
X159471398Y-72900464D01*
X159423779Y-72805226D01*
X159423779Y-72662369D01*
X159471398Y-72567131D01*
X159566636Y-72519512D01*
X160090445Y-72519512D01*
X159423779Y-72186178D02*
X159423779Y-71805226D01*
X159090445Y-72043321D02*
X159947588Y-72043321D01*
X160042826Y-71995702D01*
X160090445Y-71900464D01*
X160090445Y-71805226D01*
X160090445Y-71471893D02*
X159423779Y-71471893D01*
X159614255Y-71471893D02*
X159519017Y-71424274D01*
X159471398Y-71376655D01*
X159423779Y-71281416D01*
X159423779Y-71186178D01*
X160090445Y-70709988D02*
X160042826Y-70805226D01*
X159995207Y-70852845D01*
X159899969Y-70900464D01*
X159614255Y-70900464D01*
X159519017Y-70852845D01*
X159471398Y-70805226D01*
X159423779Y-70709988D01*
X159423779Y-70567131D01*
X159471398Y-70471893D01*
X159519017Y-70424274D01*
X159614255Y-70376655D01*
X159899969Y-70376655D01*
X159995207Y-70424274D01*
X160042826Y-70471893D01*
X160090445Y-70567131D01*
X160090445Y-70709988D01*
X160090445Y-69805226D02*
X160042826Y-69900464D01*
X159947588Y-69948083D01*
X159090445Y-69948083D01*
X117928571Y-87404761D02*
X118071428Y-87452380D01*
X118309523Y-87452380D01*
X118404761Y-87404761D01*
X118452380Y-87357142D01*
X118500000Y-87261904D01*
X118500000Y-87166666D01*
X118452380Y-87071428D01*
X118404761Y-87023809D01*
X118309523Y-86976190D01*
X118119047Y-86928571D01*
X118023809Y-86880952D01*
X117976190Y-86833333D01*
X117928571Y-86738095D01*
X117928571Y-86642857D01*
X117976190Y-86547619D01*
X118023809Y-86500000D01*
X118119047Y-86452380D01*
X118357142Y-86452380D01*
X118500000Y-86500000D01*
X118833333Y-86452380D02*
X119071428Y-87452380D01*
X119261904Y-86738095D01*
X119452380Y-87452380D01*
X119690476Y-86452380D01*
X120595238Y-87452380D02*
X120023809Y-87452380D01*
X120309523Y-87452380D02*
X120309523Y-86452380D01*
X120214285Y-86595238D01*
X120119047Y-86690476D01*
X120023809Y-86738095D01*
X122261904Y-87452380D02*
X121785714Y-87452380D01*
X121785714Y-86452380D01*
X122595238Y-86928571D02*
X122928571Y-86928571D01*
X123071428Y-87452380D02*
X122595238Y-87452380D01*
X122595238Y-86452380D01*
X123071428Y-86452380D01*
X123500000Y-87452380D02*
X123500000Y-86452380D01*
X123738095Y-86452380D01*
X123880952Y-86500000D01*
X123976190Y-86595238D01*
X124023809Y-86690476D01*
X124071428Y-86880952D01*
X124071428Y-87023809D01*
X124023809Y-87214285D01*
X123976190Y-87309523D01*
X123880952Y-87404761D01*
X123738095Y-87452380D01*
X123500000Y-87452380D01*
D11*
X104443994Y-70532325D02*
X104463041Y-70494230D01*
X104463041Y-70437087D01*
X104443994Y-70379944D01*
X104405898Y-70341849D01*
X104367803Y-70322801D01*
X104291613Y-70303754D01*
X104234470Y-70303754D01*
X104158279Y-70322801D01*
X104120184Y-70341849D01*
X104082089Y-70379944D01*
X104063041Y-70437087D01*
X104063041Y-70475182D01*
X104082089Y-70532325D01*
X104101136Y-70551373D01*
X104234470Y-70551373D01*
X104234470Y-70475182D01*
X104063041Y-70722801D02*
X104463041Y-70722801D01*
X104463041Y-70875182D01*
X104443994Y-70913278D01*
X104424946Y-70932325D01*
X104386851Y-70951373D01*
X104329708Y-70951373D01*
X104291613Y-70932325D01*
X104272565Y-70913278D01*
X104253517Y-70875182D01*
X104253517Y-70722801D01*
X104063041Y-71122801D02*
X104463041Y-71122801D01*
X104463041Y-71389468D02*
X104463041Y-71465658D01*
X104443994Y-71503754D01*
X104405898Y-71541849D01*
X104329708Y-71560897D01*
X104196374Y-71560897D01*
X104120184Y-71541849D01*
X104082089Y-71503754D01*
X104063041Y-71465658D01*
X104063041Y-71389468D01*
X104082089Y-71351373D01*
X104120184Y-71313278D01*
X104196374Y-71294230D01*
X104329708Y-71294230D01*
X104405898Y-71313278D01*
X104443994Y-71351373D01*
X104463041Y-71389468D01*
X104063041Y-71941849D02*
X104063041Y-71713278D01*
X104063041Y-71827563D02*
X104463041Y-71827563D01*
X104405898Y-71789468D01*
X104367803Y-71751373D01*
X104348755Y-71713278D01*
X104291613Y-72170420D02*
X104310660Y-72132325D01*
X104329708Y-72113278D01*
X104367803Y-72094230D01*
X104386851Y-72094230D01*
X104424946Y-72113278D01*
X104443994Y-72132325D01*
X104463041Y-72170420D01*
X104463041Y-72246611D01*
X104443994Y-72284706D01*
X104424946Y-72303754D01*
X104386851Y-72322801D01*
X104367803Y-72322801D01*
X104329708Y-72303754D01*
X104310660Y-72284706D01*
X104291613Y-72246611D01*
X104291613Y-72170420D01*
X104272565Y-72132325D01*
X104253517Y-72113278D01*
X104215422Y-72094230D01*
X104139232Y-72094230D01*
X104101136Y-72113278D01*
X104082089Y-72132325D01*
X104063041Y-72170420D01*
X104063041Y-72246611D01*
X104082089Y-72284706D01*
X104101136Y-72303754D01*
X104139232Y-72322801D01*
X104215422Y-72322801D01*
X104253517Y-72303754D01*
X104272565Y-72284706D01*
X104291613Y-72246611D01*
X160434107Y-80590476D02*
X160415059Y-80628571D01*
X160415059Y-80685714D01*
X160434107Y-80742857D01*
X160472202Y-80780952D01*
X160510297Y-80800000D01*
X160586487Y-80819047D01*
X160643630Y-80819047D01*
X160719821Y-80800000D01*
X160757916Y-80780952D01*
X160796011Y-80742857D01*
X160815059Y-80685714D01*
X160815059Y-80647619D01*
X160796011Y-80590476D01*
X160776964Y-80571428D01*
X160643630Y-80571428D01*
X160643630Y-80647619D01*
X160815059Y-80400000D02*
X160415059Y-80400000D01*
X160415059Y-80247619D01*
X160434107Y-80209523D01*
X160453154Y-80190476D01*
X160491249Y-80171428D01*
X160548392Y-80171428D01*
X160586487Y-80190476D01*
X160605535Y-80209523D01*
X160624583Y-80247619D01*
X160624583Y-80400000D01*
X160815059Y-80000000D02*
X160415059Y-80000000D01*
X160415059Y-79733333D02*
X160415059Y-79657142D01*
X160434107Y-79619047D01*
X160472202Y-79580952D01*
X160548392Y-79561904D01*
X160681726Y-79561904D01*
X160757916Y-79580952D01*
X160796011Y-79619047D01*
X160815059Y-79657142D01*
X160815059Y-79733333D01*
X160796011Y-79771428D01*
X160757916Y-79809523D01*
X160681726Y-79828571D01*
X160548392Y-79828571D01*
X160472202Y-79809523D01*
X160434107Y-79771428D01*
X160415059Y-79733333D01*
X160453154Y-79409523D02*
X160434107Y-79390476D01*
X160415059Y-79352380D01*
X160415059Y-79257142D01*
X160434107Y-79219047D01*
X160453154Y-79200000D01*
X160491249Y-79180952D01*
X160529345Y-79180952D01*
X160586487Y-79200000D01*
X160815059Y-79428571D01*
X160815059Y-79180952D01*
D10*
X106955457Y-85446726D02*
X105955457Y-85446726D01*
X106669743Y-85113393D01*
X105955457Y-84780059D01*
X106955457Y-84780059D01*
X106955457Y-83875298D02*
X106431648Y-83875298D01*
X106336410Y-83922917D01*
X106288791Y-84018155D01*
X106288791Y-84208631D01*
X106336410Y-84303869D01*
X106907838Y-83875298D02*
X106955457Y-83970536D01*
X106955457Y-84208631D01*
X106907838Y-84303869D01*
X106812600Y-84351488D01*
X106717362Y-84351488D01*
X106622124Y-84303869D01*
X106574505Y-84208631D01*
X106574505Y-83970536D01*
X106526886Y-83875298D01*
X106955457Y-83399107D02*
X106288791Y-83399107D01*
X105955457Y-83399107D02*
X106003077Y-83446726D01*
X106050696Y-83399107D01*
X106003077Y-83351488D01*
X105955457Y-83399107D01*
X106050696Y-83399107D01*
X106288791Y-82922917D02*
X106955457Y-82922917D01*
X106384029Y-82922917D02*
X106336410Y-82875298D01*
X106288791Y-82780059D01*
X106288791Y-82637202D01*
X106336410Y-82541964D01*
X106431648Y-82494345D01*
X106955457Y-82494345D01*
X106431648Y-80922917D02*
X106431648Y-81256250D01*
X106955457Y-81256250D02*
X105955457Y-81256250D01*
X105955457Y-80780059D01*
X106288791Y-79970536D02*
X106955457Y-79970536D01*
X106288791Y-80399107D02*
X106812600Y-80399107D01*
X106907838Y-80351488D01*
X106955457Y-80256250D01*
X106955457Y-80113393D01*
X106907838Y-80018155D01*
X106860219Y-79970536D01*
X106907838Y-79541964D02*
X106955457Y-79446726D01*
X106955457Y-79256250D01*
X106907838Y-79161012D01*
X106812600Y-79113393D01*
X106764981Y-79113393D01*
X106669743Y-79161012D01*
X106622124Y-79256250D01*
X106622124Y-79399107D01*
X106574505Y-79494345D01*
X106479267Y-79541964D01*
X106431648Y-79541964D01*
X106336410Y-79494345D01*
X106288791Y-79399107D01*
X106288791Y-79256250D01*
X106336410Y-79161012D01*
X106907838Y-78303869D02*
X106955457Y-78399107D01*
X106955457Y-78589583D01*
X106907838Y-78684821D01*
X106812600Y-78732440D01*
X106431648Y-78732440D01*
X106336410Y-78684821D01*
X106288791Y-78589583D01*
X106288791Y-78399107D01*
X106336410Y-78303869D01*
X106431648Y-78256250D01*
X106526886Y-78256250D01*
X106622124Y-78732440D01*
D11*
X155985098Y-93130952D02*
X156118432Y-93530952D01*
X156251765Y-93130952D01*
X156823194Y-93321428D02*
X156880337Y-93340476D01*
X156899384Y-93359523D01*
X156918432Y-93397619D01*
X156918432Y-93454761D01*
X156899384Y-93492857D01*
X156880337Y-93511904D01*
X156842241Y-93530952D01*
X156689860Y-93530952D01*
X156689860Y-93130952D01*
X156823194Y-93130952D01*
X156861289Y-93150000D01*
X156880337Y-93169047D01*
X156899384Y-93207142D01*
X156899384Y-93245238D01*
X156880337Y-93283333D01*
X156861289Y-93302380D01*
X156823194Y-93321428D01*
X156689860Y-93321428D01*
X157261289Y-93530952D02*
X157261289Y-93321428D01*
X157242241Y-93283333D01*
X157204146Y-93264285D01*
X157127956Y-93264285D01*
X157089860Y-93283333D01*
X157261289Y-93511904D02*
X157223194Y-93530952D01*
X157127956Y-93530952D01*
X157089860Y-93511904D01*
X157070813Y-93473809D01*
X157070813Y-93435714D01*
X157089860Y-93397619D01*
X157127956Y-93378571D01*
X157223194Y-93378571D01*
X157261289Y-93359523D01*
X157394622Y-93264285D02*
X157547003Y-93264285D01*
X157451765Y-93130952D02*
X157451765Y-93473809D01*
X157470813Y-93511904D01*
X157508908Y-93530952D01*
X157547003Y-93530952D01*
X157623194Y-93264285D02*
X157775575Y-93264285D01*
X157680337Y-93130952D02*
X157680337Y-93473809D01*
X157699384Y-93511904D01*
X157737479Y-93530952D01*
X157775575Y-93530952D01*
X104313547Y-85685175D02*
X104332594Y-85647080D01*
X104332594Y-85589937D01*
X104313547Y-85532794D01*
X104275451Y-85494699D01*
X104237356Y-85475651D01*
X104161166Y-85456604D01*
X104104023Y-85456604D01*
X104027832Y-85475651D01*
X103989737Y-85494699D01*
X103951642Y-85532794D01*
X103932594Y-85589937D01*
X103932594Y-85628032D01*
X103951642Y-85685175D01*
X103970689Y-85704223D01*
X104104023Y-85704223D01*
X104104023Y-85628032D01*
X103932594Y-85875651D02*
X104332594Y-85875651D01*
X104332594Y-86028032D01*
X104313547Y-86066128D01*
X104294499Y-86085175D01*
X104256404Y-86104223D01*
X104199261Y-86104223D01*
X104161166Y-86085175D01*
X104142118Y-86066128D01*
X104123070Y-86028032D01*
X104123070Y-85875651D01*
X103932594Y-86275651D02*
X104332594Y-86275651D01*
X104332594Y-86542318D02*
X104332594Y-86618508D01*
X104313547Y-86656604D01*
X104275451Y-86694699D01*
X104199261Y-86713747D01*
X104065927Y-86713747D01*
X103989737Y-86694699D01*
X103951642Y-86656604D01*
X103932594Y-86618508D01*
X103932594Y-86542318D01*
X103951642Y-86504223D01*
X103989737Y-86466128D01*
X104065927Y-86447080D01*
X104199261Y-86447080D01*
X104275451Y-86466128D01*
X104313547Y-86504223D01*
X104332594Y-86542318D01*
X104294499Y-86866128D02*
X104313547Y-86885175D01*
X104332594Y-86923270D01*
X104332594Y-87018508D01*
X104313547Y-87056604D01*
X104294499Y-87075651D01*
X104256404Y-87094699D01*
X104218308Y-87094699D01*
X104161166Y-87075651D01*
X103932594Y-86847080D01*
X103932594Y-87094699D01*
X104332594Y-87228032D02*
X104332594Y-87494699D01*
X103932594Y-87323270D01*
D10*
X127100733Y-59781530D02*
X127005495Y-59733911D01*
X126910257Y-59638672D01*
X126767400Y-59495815D01*
X126672162Y-59448196D01*
X126576924Y-59448196D01*
X126624543Y-59686291D02*
X126529305Y-59638672D01*
X126434067Y-59543434D01*
X126386448Y-59352958D01*
X126386448Y-59019625D01*
X126434067Y-58829149D01*
X126529305Y-58733911D01*
X126624543Y-58686291D01*
X126815019Y-58686291D01*
X126910257Y-58733911D01*
X127005495Y-58829149D01*
X127053114Y-59019625D01*
X127053114Y-59352958D01*
X127005495Y-59543434D01*
X126910257Y-59638672D01*
X126815019Y-59686291D01*
X126624543Y-59686291D01*
X127910257Y-59019625D02*
X127910257Y-59686291D01*
X127672162Y-58638672D02*
X127434067Y-59352958D01*
X128053114Y-59352958D01*
X120120087Y-64028499D02*
X119786754Y-63552309D01*
X119548658Y-64028499D02*
X119548658Y-63028499D01*
X119929611Y-63028499D01*
X120024849Y-63076119D01*
X120072468Y-63123738D01*
X120120087Y-63218976D01*
X120120087Y-63361833D01*
X120072468Y-63457071D01*
X120024849Y-63504690D01*
X119929611Y-63552309D01*
X119548658Y-63552309D01*
X120977230Y-63028499D02*
X120786754Y-63028499D01*
X120691515Y-63076119D01*
X120643896Y-63123738D01*
X120548658Y-63266595D01*
X120501039Y-63457071D01*
X120501039Y-63838023D01*
X120548658Y-63933261D01*
X120596277Y-63980880D01*
X120691515Y-64028499D01*
X120881992Y-64028499D01*
X120977230Y-63980880D01*
X121024849Y-63933261D01*
X121072468Y-63838023D01*
X121072468Y-63599928D01*
X121024849Y-63504690D01*
X120977230Y-63457071D01*
X120881992Y-63409452D01*
X120691515Y-63409452D01*
X120596277Y-63457071D01*
X120548658Y-63504690D01*
X120501039Y-63599928D01*
X133875177Y-56166666D02*
X133398987Y-56500000D01*
X133875177Y-56738095D02*
X132875177Y-56738095D01*
X132875177Y-56357142D01*
X132922797Y-56261904D01*
X132970416Y-56214285D01*
X133065654Y-56166666D01*
X133208511Y-56166666D01*
X133303749Y-56214285D01*
X133351368Y-56261904D01*
X133398987Y-56357142D01*
X133398987Y-56738095D01*
X132875177Y-55833333D02*
X132875177Y-55166666D01*
X133875177Y-55595238D01*
X153833333Y-89357142D02*
X153785714Y-89404761D01*
X153642857Y-89452380D01*
X153547619Y-89452380D01*
X153404761Y-89404761D01*
X153309523Y-89309523D01*
X153261904Y-89214285D01*
X153214285Y-89023809D01*
X153214285Y-88880952D01*
X153261904Y-88690476D01*
X153309523Y-88595238D01*
X153404761Y-88500000D01*
X153547619Y-88452380D01*
X153642857Y-88452380D01*
X153785714Y-88500000D01*
X153833333Y-88547619D01*
X154166666Y-88452380D02*
X154785714Y-88452380D01*
X154452380Y-88833333D01*
X154595238Y-88833333D01*
X154690476Y-88880952D01*
X154738095Y-88928571D01*
X154785714Y-89023809D01*
X154785714Y-89261904D01*
X154738095Y-89357142D01*
X154690476Y-89404761D01*
X154595238Y-89452380D01*
X154309523Y-89452380D01*
X154214285Y-89404761D01*
X154166666Y-89357142D01*
X138358621Y-76702453D02*
X138406240Y-76559596D01*
X138406240Y-76321500D01*
X138358621Y-76226262D01*
X138311002Y-76178643D01*
X138215764Y-76131024D01*
X138120526Y-76131024D01*
X138025288Y-76178643D01*
X137977669Y-76226262D01*
X137930050Y-76321500D01*
X137882431Y-76511977D01*
X137834812Y-76607215D01*
X137787193Y-76654834D01*
X137691955Y-76702453D01*
X137596717Y-76702453D01*
X137501479Y-76654834D01*
X137453860Y-76607215D01*
X137406240Y-76511977D01*
X137406240Y-76273881D01*
X137453860Y-76131024D01*
X137406240Y-75797691D02*
X138406240Y-75559596D01*
X137691955Y-75369120D01*
X138406240Y-75178643D01*
X137406240Y-74940548D01*
X138406240Y-74035786D02*
X138406240Y-74607215D01*
X138406240Y-74321500D02*
X137406240Y-74321500D01*
X137549098Y-74416739D01*
X137644336Y-74511977D01*
X137691955Y-74607215D01*
X157777380Y-72761904D02*
X158586904Y-72761904D01*
X158682142Y-72714285D01*
X158729761Y-72666666D01*
X158777380Y-72571428D01*
X158777380Y-72380952D01*
X158729761Y-72285714D01*
X158682142Y-72238095D01*
X158586904Y-72190476D01*
X157777380Y-72190476D01*
X158777380Y-71190476D02*
X158777380Y-71761904D01*
X158777380Y-71476190D02*
X157777380Y-71476190D01*
X157920238Y-71571428D01*
X158015476Y-71666666D01*
X158063095Y-71761904D01*
X113184769Y-91721520D02*
X112184769Y-91721520D01*
X112184769Y-91483425D01*
X112232389Y-91340567D01*
X112327627Y-91245329D01*
X112422865Y-91197710D01*
X112613341Y-91150091D01*
X112756198Y-91150091D01*
X112946674Y-91197710D01*
X113041912Y-91245329D01*
X113137150Y-91340567D01*
X113184769Y-91483425D01*
X113184769Y-91721520D01*
X113184769Y-90197710D02*
X113184769Y-90769139D01*
X113184769Y-90483425D02*
X112184769Y-90483425D01*
X112327627Y-90578663D01*
X112422865Y-90673901D01*
X112470484Y-90769139D01*
X162532438Y-63931601D02*
X162532438Y-64645887D01*
X162484819Y-64788744D01*
X162389581Y-64883982D01*
X162246724Y-64931601D01*
X162151486Y-64931601D01*
X163484819Y-63931601D02*
X163008629Y-63931601D01*
X162961010Y-64407792D01*
X163008629Y-64360173D01*
X163103867Y-64312554D01*
X163341962Y-64312554D01*
X163437200Y-64360173D01*
X163484819Y-64407792D01*
X163532438Y-64503030D01*
X163532438Y-64741125D01*
X163484819Y-64836363D01*
X163437200Y-64883982D01*
X163341962Y-64931601D01*
X163103867Y-64931601D01*
X163008629Y-64883982D01*
X162961010Y-64836363D01*
X122404761Y-76958333D02*
X122452380Y-76815476D01*
X122452380Y-76577380D01*
X122404761Y-76482142D01*
X122357142Y-76434523D01*
X122261904Y-76386904D01*
X122166666Y-76386904D01*
X122071428Y-76434523D01*
X122023809Y-76482142D01*
X121976190Y-76577380D01*
X121928571Y-76767857D01*
X121880952Y-76863095D01*
X121833333Y-76910714D01*
X121738095Y-76958333D01*
X121642857Y-76958333D01*
X121547619Y-76910714D01*
X121500000Y-76863095D01*
X121452380Y-76767857D01*
X121452380Y-76529761D01*
X121500000Y-76386904D01*
X121452380Y-76053571D02*
X122452380Y-75815476D01*
X121738095Y-75625000D01*
X122452380Y-75434523D01*
X121452380Y-75196428D01*
X121547619Y-74863095D02*
X121500000Y-74815476D01*
X121452380Y-74720238D01*
X121452380Y-74482142D01*
X121500000Y-74386904D01*
X121547619Y-74339285D01*
X121642857Y-74291666D01*
X121738095Y-74291666D01*
X121880952Y-74339285D01*
X122452380Y-74910714D01*
X122452380Y-74291666D01*
X162498909Y-55788083D02*
X162498909Y-56502369D01*
X162451290Y-56645226D01*
X162356052Y-56740464D01*
X162213195Y-56788083D01*
X162117957Y-56788083D01*
X163022719Y-56788083D02*
X163213195Y-56788083D01*
X163308433Y-56740464D01*
X163356052Y-56692845D01*
X163451290Y-56549988D01*
X163498909Y-56359512D01*
X163498909Y-55978560D01*
X163451290Y-55883322D01*
X163403671Y-55835703D01*
X163308433Y-55788083D01*
X163117957Y-55788083D01*
X163022719Y-55835703D01*
X162975100Y-55883322D01*
X162927481Y-55978560D01*
X162927481Y-56216655D01*
X162975100Y-56311893D01*
X163022719Y-56359512D01*
X163117957Y-56407131D01*
X163308433Y-56407131D01*
X163403671Y-56359512D01*
X163451290Y-56311893D01*
X163498909Y-56216655D01*
X150872619Y-59635238D02*
X150825000Y-59730476D01*
X150729761Y-59825714D01*
X150586904Y-59968571D01*
X150539285Y-60063809D01*
X150539285Y-60159047D01*
X150777380Y-60111428D02*
X150729761Y-60206666D01*
X150634523Y-60301904D01*
X150444047Y-60349523D01*
X150110714Y-60349523D01*
X149920238Y-60301904D01*
X149825000Y-60206666D01*
X149777380Y-60111428D01*
X149777380Y-59920952D01*
X149825000Y-59825714D01*
X149920238Y-59730476D01*
X150110714Y-59682857D01*
X150444047Y-59682857D01*
X150634523Y-59730476D01*
X150729761Y-59825714D01*
X150777380Y-59920952D01*
X150777380Y-60111428D01*
X149872619Y-59301904D02*
X149825000Y-59254285D01*
X149777380Y-59159047D01*
X149777380Y-58920952D01*
X149825000Y-58825714D01*
X149872619Y-58778095D01*
X149967857Y-58730476D01*
X150063095Y-58730476D01*
X150205952Y-58778095D01*
X150777380Y-59349523D01*
X150777380Y-58730476D01*
X128440253Y-53467514D02*
X127964063Y-53800848D01*
X128440253Y-54038943D02*
X127440253Y-54038943D01*
X127440253Y-53657990D01*
X127487873Y-53562752D01*
X127535492Y-53515133D01*
X127630730Y-53467514D01*
X127773587Y-53467514D01*
X127868825Y-53515133D01*
X127916444Y-53562752D01*
X127964063Y-53657990D01*
X127964063Y-54038943D01*
X127868825Y-52896086D02*
X127821206Y-52991324D01*
X127773587Y-53038943D01*
X127678349Y-53086562D01*
X127630730Y-53086562D01*
X127535492Y-53038943D01*
X127487873Y-52991324D01*
X127440253Y-52896086D01*
X127440253Y-52705609D01*
X127487873Y-52610371D01*
X127535492Y-52562752D01*
X127630730Y-52515133D01*
X127678349Y-52515133D01*
X127773587Y-52562752D01*
X127821206Y-52610371D01*
X127868825Y-52705609D01*
X127868825Y-52896086D01*
X127916444Y-52991324D01*
X127964063Y-53038943D01*
X128059301Y-53086562D01*
X128249777Y-53086562D01*
X128345015Y-53038943D01*
X128392634Y-52991324D01*
X128440253Y-52896086D01*
X128440253Y-52705609D01*
X128392634Y-52610371D01*
X128345015Y-52562752D01*
X128249777Y-52515133D01*
X128059301Y-52515133D01*
X127964063Y-52562752D01*
X127916444Y-52610371D01*
X127868825Y-52705609D01*
X133791741Y-61166666D02*
X133315551Y-61500000D01*
X133791741Y-61738095D02*
X132791741Y-61738095D01*
X132791741Y-61357142D01*
X132839361Y-61261904D01*
X132886980Y-61214285D01*
X132982218Y-61166666D01*
X133125075Y-61166666D01*
X133220313Y-61214285D01*
X133267932Y-61261904D01*
X133315551Y-61357142D01*
X133315551Y-61738095D01*
X133791741Y-60214285D02*
X133791741Y-60785714D01*
X133791741Y-60500000D02*
X132791741Y-60500000D01*
X132934599Y-60595238D01*
X133029837Y-60690476D01*
X133077456Y-60785714D01*
X153833333Y-81891518D02*
X153785714Y-81939137D01*
X153642857Y-81986756D01*
X153547619Y-81986756D01*
X153404761Y-81939137D01*
X153309523Y-81843899D01*
X153261904Y-81748661D01*
X153214285Y-81558185D01*
X153214285Y-81415328D01*
X153261904Y-81224852D01*
X153309523Y-81129614D01*
X153404761Y-81034376D01*
X153547619Y-80986756D01*
X153642857Y-80986756D01*
X153785714Y-81034376D01*
X153833333Y-81081995D01*
X154785714Y-81986756D02*
X154214285Y-81986756D01*
X154500000Y-81986756D02*
X154500000Y-80986756D01*
X154404761Y-81129614D01*
X154309523Y-81224852D01*
X154214285Y-81272471D01*
X107452380Y-91166666D02*
X106976190Y-91500000D01*
X107452380Y-91738095D02*
X106452380Y-91738095D01*
X106452380Y-91357142D01*
X106500000Y-91261904D01*
X106547619Y-91214285D01*
X106642857Y-91166666D01*
X106785714Y-91166666D01*
X106880952Y-91214285D01*
X106928571Y-91261904D01*
X106976190Y-91357142D01*
X106976190Y-91738095D01*
X106452380Y-90833333D02*
X106452380Y-90214285D01*
X106833333Y-90547619D01*
X106833333Y-90404761D01*
X106880952Y-90309523D01*
X106928571Y-90261904D01*
X107023809Y-90214285D01*
X107261904Y-90214285D01*
X107357142Y-90261904D01*
X107404761Y-90309523D01*
X107452380Y-90404761D01*
X107452380Y-90690476D01*
X107404761Y-90785714D01*
X107357142Y-90833333D01*
X125178138Y-53514183D02*
X125225757Y-53561802D01*
X125273376Y-53704659D01*
X125273376Y-53799897D01*
X125225757Y-53942755D01*
X125130519Y-54037993D01*
X125035281Y-54085612D01*
X124844805Y-54133231D01*
X124701948Y-54133231D01*
X124511472Y-54085612D01*
X124416234Y-54037993D01*
X124320996Y-53942755D01*
X124273376Y-53799897D01*
X124273376Y-53704659D01*
X124320996Y-53561802D01*
X124368615Y-53514183D01*
X124606710Y-52657040D02*
X125273376Y-52657040D01*
X124225757Y-52895136D02*
X124940043Y-53133231D01*
X124940043Y-52514183D01*
X122001280Y-53538079D02*
X121525090Y-53871413D01*
X122001280Y-54109508D02*
X121001280Y-54109508D01*
X121001280Y-53728555D01*
X121048900Y-53633317D01*
X121096519Y-53585698D01*
X121191757Y-53538079D01*
X121334614Y-53538079D01*
X121429852Y-53585698D01*
X121477471Y-53633317D01*
X121525090Y-53728555D01*
X121525090Y-54109508D01*
X121096519Y-53157127D02*
X121048900Y-53109508D01*
X121001280Y-53014270D01*
X121001280Y-52776174D01*
X121048900Y-52680936D01*
X121096519Y-52633317D01*
X121191757Y-52585698D01*
X121286995Y-52585698D01*
X121429852Y-52633317D01*
X122001280Y-53204746D01*
X122001280Y-52585698D01*
X120174618Y-60728511D02*
X119841285Y-60252321D01*
X119603189Y-60728511D02*
X119603189Y-59728511D01*
X119984142Y-59728511D01*
X120079380Y-59776131D01*
X120126999Y-59823750D01*
X120174618Y-59918988D01*
X120174618Y-60061845D01*
X120126999Y-60157083D01*
X120079380Y-60204702D01*
X119984142Y-60252321D01*
X119603189Y-60252321D01*
X121079380Y-59728511D02*
X120603189Y-59728511D01*
X120555570Y-60204702D01*
X120603189Y-60157083D01*
X120698427Y-60109464D01*
X120936523Y-60109464D01*
X121031761Y-60157083D01*
X121079380Y-60204702D01*
X121126999Y-60299940D01*
X121126999Y-60538035D01*
X121079380Y-60633273D01*
X121031761Y-60680892D01*
X120936523Y-60728511D01*
X120698427Y-60728511D01*
X120603189Y-60680892D01*
X120555570Y-60633273D01*
X101666666Y-67949440D02*
X101666666Y-68663726D01*
X101619047Y-68806583D01*
X101523809Y-68901821D01*
X101380952Y-68949440D01*
X101285714Y-68949440D01*
X102047619Y-67949440D02*
X102714285Y-67949440D01*
X102285714Y-68949440D01*
X113279302Y-87721520D02*
X112279302Y-87721520D01*
X112279302Y-87483425D01*
X112326922Y-87340567D01*
X112422160Y-87245329D01*
X112517398Y-87197710D01*
X112707874Y-87150091D01*
X112850731Y-87150091D01*
X113041207Y-87197710D01*
X113136445Y-87245329D01*
X113231683Y-87340567D01*
X113279302Y-87483425D01*
X113279302Y-87721520D01*
X112374541Y-86769139D02*
X112326922Y-86721520D01*
X112279302Y-86626282D01*
X112279302Y-86388186D01*
X112326922Y-86292948D01*
X112374541Y-86245329D01*
X112469779Y-86197710D01*
X112565017Y-86197710D01*
X112707874Y-86245329D01*
X113279302Y-86816758D01*
X113279302Y-86197710D01*
X120174618Y-57311995D02*
X120126999Y-57359614D01*
X119984142Y-57407233D01*
X119888904Y-57407233D01*
X119746046Y-57359614D01*
X119650808Y-57264376D01*
X119603189Y-57169138D01*
X119555570Y-56978662D01*
X119555570Y-56835805D01*
X119603189Y-56645329D01*
X119650808Y-56550091D01*
X119746046Y-56454853D01*
X119888904Y-56407233D01*
X119984142Y-56407233D01*
X120126999Y-56454853D01*
X120174618Y-56502472D01*
X120555570Y-56502472D02*
X120603189Y-56454853D01*
X120698427Y-56407233D01*
X120936523Y-56407233D01*
X121031761Y-56454853D01*
X121079380Y-56502472D01*
X121126999Y-56597710D01*
X121126999Y-56692948D01*
X121079380Y-56835805D01*
X120507951Y-57407233D01*
X121126999Y-57407233D01*
X107452380Y-87166666D02*
X106976190Y-87500000D01*
X107452380Y-87738095D02*
X106452380Y-87738095D01*
X106452380Y-87357142D01*
X106500000Y-87261904D01*
X106547619Y-87214285D01*
X106642857Y-87166666D01*
X106785714Y-87166666D01*
X106880952Y-87214285D01*
X106928571Y-87261904D01*
X106976190Y-87357142D01*
X106976190Y-87738095D01*
X106785714Y-86309523D02*
X107452380Y-86309523D01*
X106404761Y-86547619D02*
X107119047Y-86785714D01*
X107119047Y-86166666D01*
X121965370Y-78500841D02*
X121632037Y-78500841D01*
X121632037Y-79024650D02*
X121632037Y-78024650D01*
X122108227Y-78024650D01*
X123012989Y-79024650D02*
X122441561Y-79024650D01*
X122727275Y-79024650D02*
X122727275Y-78024650D01*
X122632037Y-78167508D01*
X122536799Y-78262746D01*
X122441561Y-78310365D01*
X157722380Y-60301904D02*
X158531904Y-60301904D01*
X158627142Y-60254285D01*
X158674761Y-60206666D01*
X158722380Y-60111428D01*
X158722380Y-59920952D01*
X158674761Y-59825714D01*
X158627142Y-59778095D01*
X158531904Y-59730476D01*
X157722380Y-59730476D01*
X157817619Y-59301904D02*
X157770000Y-59254285D01*
X157722380Y-59159047D01*
X157722380Y-58920952D01*
X157770000Y-58825714D01*
X157817619Y-58778095D01*
X157912857Y-58730476D01*
X158008095Y-58730476D01*
X158150952Y-58778095D01*
X158722380Y-59349523D01*
X158722380Y-58730476D01*
X106440392Y-52690508D02*
X106440392Y-53404794D01*
X106392773Y-53547651D01*
X106297535Y-53642889D01*
X106154678Y-53690508D01*
X106059440Y-53690508D01*
X107440392Y-53690508D02*
X106868964Y-53690508D01*
X107154678Y-53690508D02*
X107154678Y-52690508D01*
X107059440Y-52833366D01*
X106964202Y-52928604D01*
X106868964Y-52976223D01*
X113782142Y-65484349D02*
X113782142Y-64341492D01*
X114353571Y-64912921D02*
X113210714Y-64912921D01*
X113782142Y-54484349D02*
X113782142Y-53341492D01*
X150817619Y-71635238D02*
X150770000Y-71730476D01*
X150674761Y-71825714D01*
X150531904Y-71968571D01*
X150484285Y-72063809D01*
X150484285Y-72159047D01*
X150722380Y-72111428D02*
X150674761Y-72206666D01*
X150579523Y-72301904D01*
X150389047Y-72349523D01*
X150055714Y-72349523D01*
X149865238Y-72301904D01*
X149770000Y-72206666D01*
X149722380Y-72111428D01*
X149722380Y-71920952D01*
X149770000Y-71825714D01*
X149865238Y-71730476D01*
X150055714Y-71682857D01*
X150389047Y-71682857D01*
X150579523Y-71730476D01*
X150674761Y-71825714D01*
X150722380Y-71920952D01*
X150722380Y-72111428D01*
X150722380Y-70730476D02*
X150722380Y-71301904D01*
X150722380Y-71016190D02*
X149722380Y-71016190D01*
X149865238Y-71111428D01*
X149960476Y-71206666D01*
X150008095Y-71301904D01*
X101691666Y-77882380D02*
X101691666Y-78596666D01*
X101644047Y-78739523D01*
X101548809Y-78834761D01*
X101405952Y-78882380D01*
X101310714Y-78882380D01*
X102596428Y-77882380D02*
X102405952Y-77882380D01*
X102310714Y-77930000D01*
X102263095Y-77977619D01*
X102167857Y-78120476D01*
X102120238Y-78310952D01*
X102120238Y-78691904D01*
X102167857Y-78787142D01*
X102215476Y-78834761D01*
X102310714Y-78882380D01*
X102501190Y-78882380D01*
X102596428Y-78834761D01*
X102644047Y-78787142D01*
X102691666Y-78691904D01*
X102691666Y-78453809D01*
X102644047Y-78358571D01*
X102596428Y-78310952D01*
X102501190Y-78263333D01*
X102310714Y-78263333D01*
X102215476Y-78310952D01*
X102167857Y-78358571D01*
X102120238Y-78453809D01*
X157666666Y-83370210D02*
X157666666Y-84084496D01*
X157619047Y-84227353D01*
X157523809Y-84322591D01*
X157380952Y-84370210D01*
X157285714Y-84370210D01*
X158285714Y-83798782D02*
X158190476Y-83751163D01*
X158142857Y-83703544D01*
X158095238Y-83608306D01*
X158095238Y-83560687D01*
X158142857Y-83465449D01*
X158190476Y-83417830D01*
X158285714Y-83370210D01*
X158476190Y-83370210D01*
X158571428Y-83417830D01*
X158619047Y-83465449D01*
X158666666Y-83560687D01*
X158666666Y-83608306D01*
X158619047Y-83703544D01*
X158571428Y-83751163D01*
X158476190Y-83798782D01*
X158285714Y-83798782D01*
X158190476Y-83846401D01*
X158142857Y-83894020D01*
X158095238Y-83989258D01*
X158095238Y-84179734D01*
X158142857Y-84274972D01*
X158190476Y-84322591D01*
X158285714Y-84370210D01*
X158476190Y-84370210D01*
X158571428Y-84322591D01*
X158619047Y-84274972D01*
X158666666Y-84179734D01*
X158666666Y-83989258D01*
X158619047Y-83894020D01*
X158571428Y-83846401D01*
X158476190Y-83798782D01*
X106483824Y-50984407D02*
X106483824Y-51698693D01*
X106436205Y-51841550D01*
X106340967Y-51936788D01*
X106198110Y-51984407D01*
X106102872Y-51984407D01*
X106912396Y-51079646D02*
X106960015Y-51032027D01*
X107055253Y-50984407D01*
X107293348Y-50984407D01*
X107388586Y-51032027D01*
X107436205Y-51079646D01*
X107483824Y-51174884D01*
X107483824Y-51270122D01*
X107436205Y-51412979D01*
X106864777Y-51984407D01*
X107483824Y-51984407D01*
D13*
X126388962Y-63418911D02*
X128088962Y-63418911D01*
X126388962Y-60318911D02*
X128088962Y-60318911D01*
X126095962Y-60090911D02*
G75*
G03*
X126095962Y-60090911I-127000J0D01*
G01*
D14*
X120513818Y-64408377D02*
X120059690Y-64408377D01*
X120513818Y-65878377D02*
X120059690Y-65878377D01*
X135735000Y-56227064D02*
X135735000Y-55772936D01*
X134265000Y-56227064D02*
X134265000Y-55772936D01*
X152851000Y-89965000D02*
X152851000Y-90960000D01*
X152171000Y-93040000D02*
X152171000Y-94414000D01*
X152611000Y-93040000D02*
X152611000Y-94200000D01*
X152571000Y-89776000D02*
X152571000Y-90960000D01*
X152531000Y-89753000D02*
X152531000Y-90960000D01*
X152091000Y-89558000D02*
X152091000Y-90960000D01*
X151490000Y-93040000D02*
X151490000Y-94569000D01*
X153491000Y-93040000D02*
X153491000Y-93319000D01*
X153131000Y-90215000D02*
X153131000Y-90960000D01*
X151971000Y-89520000D02*
X151971000Y-90960000D01*
X153651000Y-90989000D02*
X153651000Y-93011000D01*
X152131000Y-93040000D02*
X152131000Y-94428000D01*
X152731000Y-93040000D02*
X152731000Y-94122000D01*
X151890000Y-89499000D02*
X151890000Y-90960000D01*
X153251000Y-93040000D02*
X153251000Y-93653000D01*
X151770000Y-93040000D02*
X151770000Y-94528000D01*
X152411000Y-89690000D02*
X152411000Y-90960000D01*
X152891000Y-89996000D02*
X152891000Y-90960000D01*
X148445225Y-90525000D02*
X148945225Y-90525000D01*
X153091000Y-90174000D02*
X153091000Y-90960000D01*
X153451000Y-90617000D02*
X153451000Y-90960000D01*
X152451000Y-89710000D02*
X152451000Y-90960000D01*
X151971000Y-93040000D02*
X151971000Y-94480000D01*
X151250000Y-89420000D02*
X151250000Y-94580000D01*
X151730000Y-93040000D02*
X151730000Y-94536000D01*
X153411000Y-93040000D02*
X153411000Y-93443000D01*
X153291000Y-90395000D02*
X153291000Y-90960000D01*
X153771000Y-91323000D02*
X153771000Y-92677000D01*
X152731000Y-89878000D02*
X152731000Y-90960000D01*
X153051000Y-90136000D02*
X153051000Y-90960000D01*
X153371000Y-93040000D02*
X153371000Y-93500000D01*
X152931000Y-93040000D02*
X152931000Y-93971000D01*
X153011000Y-90099000D02*
X153011000Y-90960000D01*
X152251000Y-89618000D02*
X152251000Y-90960000D01*
X151410000Y-89424000D02*
X151410000Y-94576000D01*
X153811000Y-91482000D02*
X153811000Y-92518000D01*
X152771000Y-89905000D02*
X152771000Y-90960000D01*
X151690000Y-93040000D02*
X151690000Y-94543000D01*
X151370000Y-89422000D02*
X151370000Y-94578000D01*
X151290000Y-89420000D02*
X151290000Y-94580000D01*
X151530000Y-93040000D02*
X151530000Y-94565000D01*
X148695225Y-90275000D02*
X148695225Y-90775000D01*
X152051000Y-93040000D02*
X152051000Y-94455000D01*
X151330000Y-89421000D02*
X151330000Y-94579000D01*
X153731000Y-91195000D02*
X153731000Y-92805000D01*
X151610000Y-93040000D02*
X151610000Y-94556000D01*
X153331000Y-93040000D02*
X153331000Y-93554000D01*
X151890000Y-93040000D02*
X151890000Y-94501000D01*
X152171000Y-89586000D02*
X152171000Y-90960000D01*
X152651000Y-89825000D02*
X152651000Y-90960000D01*
X153011000Y-93040000D02*
X153011000Y-93901000D01*
X151930000Y-89509000D02*
X151930000Y-90960000D01*
X151650000Y-93040000D02*
X151650000Y-94550000D01*
X152451000Y-93040000D02*
X152451000Y-94290000D01*
X151810000Y-89480000D02*
X151810000Y-90960000D01*
X152971000Y-93040000D02*
X152971000Y-93937000D01*
X153291000Y-93040000D02*
X153291000Y-93605000D01*
X153171000Y-90257000D02*
X153171000Y-90960000D01*
X151610000Y-89444000D02*
X151610000Y-90960000D01*
X153691000Y-91085000D02*
X153691000Y-92915000D01*
X152011000Y-89532000D02*
X152011000Y-90960000D01*
X152331000Y-89652000D02*
X152331000Y-90960000D01*
X152291000Y-93040000D02*
X152291000Y-94365000D01*
X152211000Y-89602000D02*
X152211000Y-90960000D01*
X153411000Y-90557000D02*
X153411000Y-90960000D01*
X151770000Y-89472000D02*
X151770000Y-90960000D01*
X151850000Y-93040000D02*
X151850000Y-94511000D01*
X152371000Y-93040000D02*
X152371000Y-94329000D01*
X153171000Y-93040000D02*
X153171000Y-93743000D01*
X152491000Y-93040000D02*
X152491000Y-94268000D01*
X151570000Y-93040000D02*
X151570000Y-94561000D01*
X153531000Y-93040000D02*
X153531000Y-93251000D01*
X152891000Y-93040000D02*
X152891000Y-94004000D01*
X152691000Y-89851000D02*
X152691000Y-90960000D01*
X153051000Y-93040000D02*
X153051000Y-93864000D01*
X152571000Y-93040000D02*
X152571000Y-94224000D01*
X151810000Y-93040000D02*
X151810000Y-94520000D01*
X152531000Y-93040000D02*
X152531000Y-94247000D01*
X153451000Y-93040000D02*
X153451000Y-93383000D01*
X152291000Y-89635000D02*
X152291000Y-90960000D01*
X153851000Y-91716000D02*
X153851000Y-92284000D01*
X153091000Y-93040000D02*
X153091000Y-93826000D01*
X151930000Y-93040000D02*
X151930000Y-94491000D01*
X151730000Y-89464000D02*
X151730000Y-90960000D01*
X152651000Y-93040000D02*
X152651000Y-94175000D01*
X153251000Y-90347000D02*
X153251000Y-90960000D01*
X151850000Y-89489000D02*
X151850000Y-90960000D01*
X152931000Y-90029000D02*
X152931000Y-90960000D01*
X152611000Y-89800000D02*
X152611000Y-90960000D01*
X151650000Y-89450000D02*
X151650000Y-90960000D01*
X151690000Y-89457000D02*
X151690000Y-90960000D01*
X152771000Y-93040000D02*
X152771000Y-94095000D01*
X153491000Y-90681000D02*
X153491000Y-90960000D01*
X153211000Y-90301000D02*
X153211000Y-90960000D01*
X152051000Y-89545000D02*
X152051000Y-90960000D01*
X153331000Y-90446000D02*
X153331000Y-90960000D01*
X152331000Y-93040000D02*
X152331000Y-94348000D01*
X153571000Y-90822000D02*
X153571000Y-93178000D01*
X151530000Y-89435000D02*
X151530000Y-90960000D01*
X152811000Y-89935000D02*
X152811000Y-90960000D01*
X153611000Y-90902000D02*
X153611000Y-93098000D01*
X152811000Y-93040000D02*
X152811000Y-94065000D01*
X152971000Y-90063000D02*
X152971000Y-90960000D01*
X152851000Y-93040000D02*
X152851000Y-94035000D01*
X153371000Y-90500000D02*
X153371000Y-90960000D01*
X152131000Y-89572000D02*
X152131000Y-90960000D01*
X152691000Y-93040000D02*
X152691000Y-94149000D01*
X151450000Y-89427000D02*
X151450000Y-94573000D01*
X153211000Y-93040000D02*
X153211000Y-93699000D01*
X152491000Y-89732000D02*
X152491000Y-90960000D01*
X151570000Y-89439000D02*
X151570000Y-90960000D01*
X151490000Y-89431000D02*
X151490000Y-90960000D01*
X153131000Y-93040000D02*
X153131000Y-93785000D01*
X152091000Y-93040000D02*
X152091000Y-94442000D01*
X152251000Y-93040000D02*
X152251000Y-94382000D01*
X153531000Y-90749000D02*
X153531000Y-90960000D01*
X152011000Y-93040000D02*
X152011000Y-94468000D01*
X152411000Y-93040000D02*
X152411000Y-94310000D01*
X152211000Y-93040000D02*
X152211000Y-94398000D01*
X152371000Y-89671000D02*
X152371000Y-90960000D01*
X153870000Y-92000000D02*
G75*
G03*
X153870000Y-92000000I-2620000J0D01*
G01*
X123250000Y-71500000D02*
X123250000Y-69250000D01*
X123250000Y-76750000D02*
X123250000Y-74500000D01*
X136750000Y-69250000D02*
X136750000Y-71500000D01*
X136750000Y-76750000D02*
X123250000Y-76750000D01*
X123250000Y-69250000D02*
X136750000Y-69250000D01*
X136750000Y-74500000D02*
X136750000Y-76750000D01*
G36*
X117447028Y-93992524D02*
G01*
X117451212Y-94143016D01*
X117455396Y-94293507D01*
X117263502Y-94293507D01*
X117263502Y-94242120D01*
X117262092Y-94210545D01*
X117252533Y-94195593D01*
X117226834Y-94191049D01*
X117197433Y-94190732D01*
X117131363Y-94190732D01*
X117131387Y-94253131D01*
X117132044Y-94278422D01*
X117136417Y-94298911D01*
X117148138Y-94318764D01*
X117170842Y-94342150D01*
X117208160Y-94373238D01*
X117263727Y-94416195D01*
X117292890Y-94438405D01*
X117454369Y-94561280D01*
X117454369Y-94998247D01*
X116911132Y-94998247D01*
X116911132Y-94673955D01*
X117017577Y-94678268D01*
X117124022Y-94682582D01*
X117128537Y-94744981D01*
X117132698Y-94784064D01*
X117143069Y-94802046D01*
X117167843Y-94807121D01*
X117190936Y-94807380D01*
X117248820Y-94807380D01*
X117248820Y-94650431D01*
X116926712Y-94403623D01*
X116926263Y-94194064D01*
X116925814Y-93984506D01*
X117447028Y-93992524D01*
G37*
G36*
X119883402Y-93985183D02*
G01*
X119968250Y-94069146D01*
X120053097Y-94153108D01*
X120053097Y-94859871D01*
X119912609Y-94998247D01*
X119465814Y-94998247D01*
X119465814Y-94808914D01*
X119686045Y-94808914D01*
X119763126Y-94804477D01*
X119840207Y-94800039D01*
X119843058Y-94495386D01*
X119845909Y-94190732D01*
X119686045Y-94190732D01*
X119686045Y-94808914D01*
X119465814Y-94808914D01*
X119465814Y-93985183D01*
X119883402Y-93985183D01*
G37*
G36*
X110529411Y-96889005D02*
G01*
X110560044Y-96826532D01*
X110612283Y-96777087D01*
X110616903Y-96774184D01*
X110680164Y-96749682D01*
X110750313Y-96744541D01*
X110816765Y-96758341D01*
X110861516Y-96783869D01*
X110915411Y-96845310D01*
X110944281Y-96914176D01*
X110948388Y-96985138D01*
X110927995Y-97052865D01*
X110883364Y-97112027D01*
X110843896Y-97141910D01*
X110782738Y-97165183D01*
X110713655Y-97170200D01*
X110648910Y-97156904D01*
X110621402Y-97142981D01*
X110566380Y-97091494D01*
X110532656Y-97027796D01*
X110522591Y-96971071D01*
X110645140Y-96971071D01*
X110661759Y-97013679D01*
X110670358Y-97023485D01*
X110713494Y-97049749D01*
X110759128Y-97047582D01*
X110803242Y-97017185D01*
X110803586Y-97016820D01*
X110826611Y-96986192D01*
X110829404Y-96958087D01*
X110824304Y-96940193D01*
X110801097Y-96903657D01*
X110770831Y-96878309D01*
X110741570Y-96864989D01*
X110718658Y-96868000D01*
X110690273Y-96886648D01*
X110654958Y-96926577D01*
X110645140Y-96971071D01*
X110522591Y-96971071D01*
X110520307Y-96958196D01*
X110529411Y-96889005D01*
G37*
G36*
X130180489Y-94179721D02*
G01*
X130176392Y-94374258D01*
X129970843Y-94374258D01*
X129962101Y-94190732D01*
X129816681Y-94190732D01*
X129816681Y-94807380D01*
X129961814Y-94807380D01*
X129966328Y-94744981D01*
X129970843Y-94682582D01*
X130077288Y-94678268D01*
X130183733Y-94673955D01*
X130183733Y-94766913D01*
X130182781Y-94817367D01*
X130176770Y-94851095D01*
X130160969Y-94879018D01*
X130130647Y-94912058D01*
X130113489Y-94929059D01*
X130043245Y-94998247D01*
X129596450Y-94998247D01*
X129596450Y-94138342D01*
X129673993Y-94061763D01*
X129751535Y-93985183D01*
X130184585Y-93985183D01*
X130180489Y-94179721D01*
G37*
G36*
X129523040Y-94190732D02*
G01*
X129258762Y-94190732D01*
X129258762Y-94366917D01*
X129508357Y-94366917D01*
X129508357Y-94572466D01*
X129258762Y-94572466D01*
X129258762Y-94807380D01*
X129537722Y-94807380D01*
X129537722Y-94998247D01*
X129038145Y-94998247D01*
X129042009Y-94495386D01*
X129045872Y-93992524D01*
X129523040Y-93984456D01*
X129523040Y-94190732D01*
G37*
G36*
X114918040Y-93988211D02*
G01*
X115024485Y-93992524D01*
X115024485Y-94990906D01*
X114734514Y-94994887D01*
X114444542Y-94998868D01*
X114444542Y-93985183D01*
X114650092Y-93985183D01*
X114650092Y-94807380D01*
X114811594Y-94807380D01*
X114811594Y-93983897D01*
X114918040Y-93988211D01*
G37*
G36*
X117131363Y-95159750D02*
G01*
X117131363Y-97861253D01*
X115545698Y-97861253D01*
X115545698Y-97347380D01*
X116103618Y-97347380D01*
X116573444Y-97347380D01*
X116573444Y-95688305D01*
X116103618Y-95688305D01*
X116103618Y-97347380D01*
X115545698Y-97347380D01*
X115545698Y-95159750D01*
X117131363Y-95159750D01*
G37*
G36*
X118485662Y-95159750D02*
G01*
X118674755Y-95337603D01*
X118863849Y-95515456D01*
X118863849Y-96270461D01*
X118766949Y-96350105D01*
X118718389Y-96389904D01*
X118675263Y-96425048D01*
X118645128Y-96449383D01*
X118640061Y-96453413D01*
X118629570Y-96463159D01*
X118626642Y-96473436D01*
X118634150Y-96487309D01*
X118654968Y-96507849D01*
X118691972Y-96538124D01*
X118748036Y-96581201D01*
X118788348Y-96611697D01*
X118966623Y-96746319D01*
X118966623Y-97861253D01*
X117722170Y-97861253D01*
X117544223Y-97677159D01*
X117366277Y-97493066D01*
X117366277Y-97347380D01*
X117924196Y-97347380D01*
X118408704Y-97347380D01*
X118408704Y-96745414D01*
X117924196Y-96745414D01*
X117924196Y-97347380D01*
X117366277Y-97347380D01*
X117366277Y-96231542D01*
X117924196Y-96231542D01*
X118320612Y-96231542D01*
X118320612Y-95688305D01*
X117924196Y-95688305D01*
X117924196Y-96231542D01*
X117366277Y-96231542D01*
X117366277Y-95159750D01*
X118485662Y-95159750D01*
G37*
G36*
X121269335Y-93986625D02*
G01*
X121303655Y-93991948D01*
X121322143Y-94002649D01*
X121327750Y-94010877D01*
X121336578Y-94032959D01*
X121352715Y-94077707D01*
X121374329Y-94139881D01*
X121399593Y-94214238D01*
X121418720Y-94271484D01*
X121445093Y-94349967D01*
X121468812Y-94418676D01*
X121488153Y-94472763D01*
X121501391Y-94507378D01*
X121506248Y-94517610D01*
X121511884Y-94511726D01*
X121515006Y-94483865D01*
X121515248Y-94466223D01*
X121515267Y-94428421D01*
X121515729Y-94368758D01*
X121516559Y-94294734D01*
X121517681Y-94213846D01*
X121517983Y-94194403D01*
X121521305Y-93985183D01*
X121712172Y-93985183D01*
X121712172Y-94999533D01*
X121607387Y-94995220D01*
X121502602Y-94990906D01*
X121410009Y-94726628D01*
X121317415Y-94462351D01*
X121316586Y-94730299D01*
X121315756Y-94998247D01*
X121110207Y-94998247D01*
X121110207Y-93985183D01*
X121212465Y-93985183D01*
X121269335Y-93986625D01*
G37*
G36*
X116823040Y-94999533D02*
G01*
X116716830Y-94995220D01*
X116610621Y-94990906D01*
X116522293Y-94734097D01*
X116433964Y-94477287D01*
X116425946Y-94998247D01*
X116221074Y-94998247D01*
X116221074Y-93983897D01*
X116326159Y-93988211D01*
X116431244Y-93992524D01*
X116523399Y-94256802D01*
X116615555Y-94521079D01*
X116620193Y-94256802D01*
X116624831Y-93992524D01*
X116723935Y-93988183D01*
X116823040Y-93983842D01*
X116823040Y-94999533D01*
G37*
G36*
X121788914Y-95163291D02*
G01*
X122571074Y-95167091D01*
X122571074Y-95680964D01*
X122325149Y-95684989D01*
X122079224Y-95689015D01*
X122079224Y-97861253D01*
X121521305Y-97861253D01*
X121521305Y-95688998D01*
X121268040Y-95684981D01*
X121014774Y-95680964D01*
X121006754Y-95159492D01*
X121788914Y-95163291D01*
G37*
G36*
X126432975Y-94026894D02*
G01*
X126426154Y-94050950D01*
X126411197Y-94099197D01*
X126389284Y-94167974D01*
X126361594Y-94253625D01*
X126329307Y-94352492D01*
X126293604Y-94460916D01*
X126270571Y-94530425D01*
X126117624Y-94990906D01*
X126005902Y-94995215D01*
X125949505Y-94996793D01*
X125916905Y-94995335D01*
X125902593Y-94989666D01*
X125901061Y-94978612D01*
X125902545Y-94973192D01*
X125910325Y-94949432D01*
X125925278Y-94904354D01*
X125945235Y-94844480D01*
X125967463Y-94778016D01*
X126024017Y-94609172D01*
X125923586Y-94308582D01*
X125894033Y-94219596D01*
X125867922Y-94139947D01*
X125846610Y-94073861D01*
X125831453Y-94025561D01*
X125823808Y-93999272D01*
X125823155Y-93995945D01*
X125836590Y-93990640D01*
X125872035Y-93987798D01*
X125922199Y-93987952D01*
X125929186Y-93988211D01*
X126035216Y-93992524D01*
X126081792Y-94139345D01*
X126102634Y-94200692D01*
X126120095Y-94243678D01*
X126132539Y-94264630D01*
X126137421Y-94264143D01*
X126145839Y-94240781D01*
X126160561Y-94197278D01*
X126178952Y-94141464D01*
X126186786Y-94117322D01*
X126227100Y-93992524D01*
X126442430Y-93983844D01*
X126432975Y-94026894D01*
G37*
G36*
X118882201Y-93988211D02*
G01*
X118988646Y-93992524D01*
X119078562Y-94253731D01*
X119107314Y-94336320D01*
X119133297Y-94409203D01*
X119154855Y-94467871D01*
X119170331Y-94507814D01*
X119178066Y-94524523D01*
X119178115Y-94524574D01*
X119183912Y-94519112D01*
X119184736Y-94492676D01*
X119184618Y-94490940D01*
X119183698Y-94461489D01*
X119183237Y-94408942D01*
X119183244Y-94339566D01*
X119183730Y-94259625D01*
X119184169Y-94216426D01*
X119186855Y-93985183D01*
X119377722Y-93985183D01*
X119377722Y-94999533D01*
X119272936Y-94995220D01*
X119168151Y-94990906D01*
X119075558Y-94726628D01*
X118982965Y-94462351D01*
X118981305Y-94998247D01*
X118775756Y-94998247D01*
X118775756Y-93983897D01*
X118882201Y-93988211D01*
G37*
G36*
X130462693Y-94396282D02*
G01*
X130638878Y-94396282D01*
X130638878Y-93985183D01*
X130844427Y-93985183D01*
X130844427Y-94998247D01*
X130638878Y-94998247D01*
X130638878Y-94601831D01*
X130550785Y-94601831D01*
X130504672Y-94603491D01*
X130473441Y-94607809D01*
X130464431Y-94612842D01*
X130464959Y-94630941D01*
X130465148Y-94672457D01*
X130465000Y-94731447D01*
X130464514Y-94801966D01*
X130464431Y-94811050D01*
X130462693Y-94998247D01*
X130257144Y-94998247D01*
X130257144Y-93985183D01*
X130462693Y-93985183D01*
X130462693Y-94396282D01*
G37*
G36*
X125757086Y-94183391D02*
G01*
X125665323Y-94187762D01*
X125573560Y-94192134D01*
X125573560Y-94998247D01*
X125368011Y-94998247D01*
X125368011Y-94190732D01*
X125177144Y-94190732D01*
X125177144Y-93985183D01*
X125765768Y-93985183D01*
X125757086Y-94183391D01*
G37*
G36*
X113972937Y-95352297D02*
G01*
X114043693Y-95285602D01*
X114096927Y-95236408D01*
X114136451Y-95202043D01*
X114166077Y-95179831D01*
X114189618Y-95167099D01*
X114210885Y-95161171D01*
X114233692Y-95159374D01*
X114248226Y-95159177D01*
X114319745Y-95158605D01*
X114231652Y-95078782D01*
X114143560Y-94998959D01*
X113949022Y-94998603D01*
X113754485Y-94998247D01*
X113754485Y-94807380D01*
X113974716Y-94807380D01*
X114150901Y-94807380D01*
X114150901Y-94190732D01*
X113974716Y-94190732D01*
X113974716Y-94807380D01*
X113754485Y-94807380D01*
X113754485Y-94138342D01*
X113832027Y-94061763D01*
X113909570Y-93985183D01*
X114356450Y-93985183D01*
X114356450Y-95159750D01*
X115296103Y-95159750D01*
X115296103Y-96877553D01*
X115149282Y-96877553D01*
X115087649Y-96878160D01*
X115038756Y-96879796D01*
X115008820Y-96882184D01*
X115002461Y-96884081D01*
X115007191Y-96898962D01*
X115020629Y-96938298D01*
X115041653Y-96998876D01*
X115069141Y-97077482D01*
X115101969Y-97170904D01*
X115139013Y-97275926D01*
X115171305Y-97367196D01*
X115210958Y-97479365D01*
X115247298Y-97582637D01*
X115279202Y-97673780D01*
X115305546Y-97749561D01*
X115325203Y-97806747D01*
X115337050Y-97842106D01*
X115340149Y-97852518D01*
X115326224Y-97855254D01*
X115287472Y-97857639D01*
X115228432Y-97859530D01*
X115153639Y-97860782D01*
X115067632Y-97861252D01*
X115064610Y-97861253D01*
X114789071Y-97861253D01*
X114628068Y-97376744D01*
X114467066Y-96892235D01*
X114327086Y-96892235D01*
X114327086Y-97861253D01*
X113769167Y-97861253D01*
X113769167Y-96378362D01*
X114327086Y-96378362D01*
X114738184Y-96378362D01*
X114738184Y-95688305D01*
X114327086Y-95688305D01*
X114327086Y-96378362D01*
X113769167Y-96378362D01*
X113769167Y-95544845D01*
X113972937Y-95352297D01*
G37*
G36*
X128965120Y-94190732D02*
G01*
X128788935Y-94190732D01*
X128788935Y-94998247D01*
X128568704Y-94998247D01*
X128568704Y-94192134D01*
X128476941Y-94187762D01*
X128385178Y-94183391D01*
X128376496Y-93985183D01*
X128965120Y-93985183D01*
X128965120Y-94190732D01*
G37*
G36*
X133472519Y-93985183D02*
G01*
X133472519Y-94998247D01*
X132885236Y-94998247D01*
X132885236Y-94807380D01*
X133090785Y-94807380D01*
X133266970Y-94807380D01*
X133266970Y-94190732D01*
X133090785Y-94190732D01*
X133090785Y-94807380D01*
X132885236Y-94807380D01*
X132885236Y-93985183D01*
X133472519Y-93985183D01*
G37*
G36*
X116147664Y-94190732D02*
G01*
X115868704Y-94190732D01*
X115868704Y-94366917D01*
X116132982Y-94366917D01*
X116132982Y-94572466D01*
X115883386Y-94572466D01*
X115883386Y-94807380D01*
X116147664Y-94807380D01*
X116147664Y-94998247D01*
X115663155Y-94998247D01*
X115663155Y-93985183D01*
X116147664Y-93985183D01*
X116147664Y-94190732D01*
G37*
G36*
X134111190Y-94183391D02*
G01*
X133938675Y-94187528D01*
X133766161Y-94191664D01*
X133766161Y-94807380D01*
X133942346Y-94807380D01*
X133942346Y-94734945D01*
X133941080Y-94691562D01*
X133934450Y-94669410D01*
X133918205Y-94660375D01*
X133901970Y-94657864D01*
X133879833Y-94653528D01*
X133867272Y-94642222D01*
X133860978Y-94616822D01*
X133857647Y-94570205D01*
X133857223Y-94561455D01*
X133852852Y-94469692D01*
X134147895Y-94469692D01*
X134147895Y-94998247D01*
X133560612Y-94998247D01*
X133560612Y-93985183D01*
X134119872Y-93985183D01*
X134111190Y-94183391D01*
G37*
G36*
X132092404Y-97347380D02*
G01*
X132532866Y-97347380D01*
X132532866Y-95159750D01*
X133090785Y-95159750D01*
X133090785Y-97861253D01*
X131534485Y-97861253D01*
X131534485Y-95159750D01*
X132092404Y-95159750D01*
X132092404Y-97347380D01*
G37*
G36*
X118199910Y-94069146D02*
G01*
X118284758Y-93985183D01*
X118702346Y-93985183D01*
X118702346Y-94998247D01*
X118496797Y-94998247D01*
X118496797Y-94675241D01*
X118335294Y-94675241D01*
X118335294Y-94998247D01*
X118115063Y-94998247D01*
X118115063Y-94469692D01*
X118335294Y-94469692D01*
X118496797Y-94469692D01*
X118496797Y-94190732D01*
X118335294Y-94190732D01*
X118335294Y-94469692D01*
X118115063Y-94469692D01*
X118115063Y-94153108D01*
X118199910Y-94069146D01*
G37*
G36*
X130536103Y-97347380D02*
G01*
X131297066Y-97347380D01*
X131306636Y-97453825D01*
X131310474Y-97518315D01*
X131312428Y-97598202D01*
X131312229Y-97679560D01*
X131311560Y-97707091D01*
X131306912Y-97853912D01*
X129978030Y-97861552D01*
X129981778Y-96514321D01*
X129985525Y-95167091D01*
X130260814Y-95163096D01*
X130536103Y-95159102D01*
X130536103Y-97347380D01*
G37*
G36*
X127423502Y-93985183D02*
G01*
X127423502Y-94998247D01*
X126836219Y-94998247D01*
X126836219Y-94807380D01*
X127041768Y-94807380D01*
X127217953Y-94807380D01*
X127217953Y-94190732D01*
X127041768Y-94190732D01*
X127041768Y-94807380D01*
X126836219Y-94807380D01*
X126836219Y-93985183D01*
X127423502Y-93985183D01*
G37*
G36*
X123613502Y-93985817D02*
G01*
X123822722Y-93985500D01*
X124031941Y-93985183D01*
X124031941Y-94631195D01*
X123980554Y-94631195D01*
X123946565Y-94632631D01*
X123929602Y-94636162D01*
X123929167Y-94636904D01*
X123933677Y-94652172D01*
X123945976Y-94689640D01*
X123964216Y-94743771D01*
X123986549Y-94809026D01*
X123987895Y-94812931D01*
X124010434Y-94878924D01*
X124028970Y-94934390D01*
X124041648Y-94973691D01*
X124046611Y-94991188D01*
X124046623Y-94991392D01*
X124033188Y-94994813D01*
X123997773Y-94996256D01*
X123947711Y-94995454D01*
X123941684Y-94995220D01*
X123836745Y-94990906D01*
X123776511Y-94814721D01*
X123745482Y-94728028D01*
X123720906Y-94669826D01*
X123702027Y-94640142D01*
X123688090Y-94639000D01*
X123678341Y-94666427D01*
X123672023Y-94722447D01*
X123668383Y-94807087D01*
X123668108Y-94818391D01*
X123663985Y-94998247D01*
X123459340Y-94998247D01*
X123459340Y-94440328D01*
X123664889Y-94440328D01*
X123826392Y-94440328D01*
X123826392Y-94190732D01*
X123664889Y-94190732D01*
X123664889Y-94440328D01*
X123459340Y-94440328D01*
X123459340Y-94134087D01*
X123613502Y-93985817D01*
G37*
G36*
X134507986Y-94124663D02*
G01*
X134526246Y-94183574D01*
X134542331Y-94230178D01*
X134554068Y-94258450D01*
X134558334Y-94264143D01*
X134566485Y-94251131D01*
X134580998Y-94216114D01*
X134599498Y-94165120D01*
X134611859Y-94128334D01*
X134656227Y-93992524D01*
X134761772Y-93988211D01*
X134816745Y-93986751D01*
X134848490Y-93988830D01*
X134863054Y-93995719D01*
X134866485Y-94008691D01*
X134866453Y-94010234D01*
X134861775Y-94030020D01*
X134848881Y-94074236D01*
X134828847Y-94139460D01*
X134802750Y-94222265D01*
X134771666Y-94319229D01*
X134736673Y-94426926D01*
X134708161Y-94513738D01*
X134550732Y-94990906D01*
X134325728Y-94999452D01*
X134454070Y-94616800D01*
X134352662Y-94304662D01*
X134323378Y-94214409D01*
X134297383Y-94134064D01*
X134275969Y-94067641D01*
X134260429Y-94019155D01*
X134252056Y-93992621D01*
X134250961Y-93988854D01*
X134264287Y-93987085D01*
X134299757Y-93985783D01*
X134350153Y-93985195D01*
X134358733Y-93985183D01*
X134466797Y-93985183D01*
X134507986Y-94124663D01*
G37*
G36*
X122772130Y-93986285D02*
G01*
X122810416Y-93989196D01*
X122827682Y-93993323D01*
X122828011Y-93994013D01*
X122826178Y-94012471D01*
X122821048Y-94055785D01*
X122813170Y-94119700D01*
X122803092Y-94199961D01*
X122791365Y-94292315D01*
X122778539Y-94392505D01*
X122765162Y-94496277D01*
X122751785Y-94599377D01*
X122738956Y-94697548D01*
X122727227Y-94786538D01*
X122717145Y-94862090D01*
X122709261Y-94919950D01*
X122704125Y-94955863D01*
X122702567Y-94965212D01*
X122697960Y-94979651D01*
X122688165Y-94989124D01*
X122667843Y-94994675D01*
X122631652Y-94997348D01*
X122574254Y-94998188D01*
X122533628Y-94998247D01*
X122455332Y-94997117D01*
X122403307Y-94993509D01*
X122374539Y-94987090D01*
X122366296Y-94979894D01*
X122362952Y-94960778D01*
X122356530Y-94916806D01*
X122347582Y-94852265D01*
X122336665Y-94771436D01*
X122324332Y-94678604D01*
X122311138Y-94578052D01*
X122297638Y-94474066D01*
X122284387Y-94370927D01*
X122271939Y-94272921D01*
X122260848Y-94184331D01*
X122251670Y-94109441D01*
X122244958Y-94052534D01*
X122241268Y-94017895D01*
X122240727Y-94009990D01*
X122245044Y-93996799D01*
X122261959Y-93989225D01*
X122297419Y-93985838D01*
X122343963Y-93985183D01*
X122408848Y-93987833D01*
X122445306Y-93995833D01*
X122453844Y-94003536D01*
X122457242Y-94022920D01*
X122463094Y-94067094D01*
X122470875Y-94131637D01*
X122480059Y-94212127D01*
X122490122Y-94304142D01*
X122495230Y-94352235D01*
X122505466Y-94445390D01*
X122515224Y-94526469D01*
X122523982Y-94591717D01*
X122531215Y-94637377D01*
X122536399Y-94659693D01*
X122538226Y-94660559D01*
X122542043Y-94640033D01*
X122548143Y-94594796D01*
X122555993Y-94529367D01*
X122565062Y-94448265D01*
X122574816Y-94356009D01*
X122579308Y-94311860D01*
X122612134Y-93985183D01*
X122720072Y-93985183D01*
X122772130Y-93986285D01*
G37*
G36*
X123708935Y-95673623D02*
G01*
X123532751Y-95673623D01*
X123532751Y-97347380D01*
X123708935Y-97347380D01*
X123708935Y-97861253D01*
X122798646Y-97861253D01*
X122798646Y-97347380D01*
X122975074Y-97347380D01*
X122967490Y-95680964D01*
X122883068Y-95676560D01*
X122798646Y-95672157D01*
X122798646Y-95159750D01*
X123708935Y-95159750D01*
X123708935Y-95673623D01*
G37*
G36*
X131173513Y-94091628D02*
G01*
X131194452Y-94150520D01*
X131220948Y-94226306D01*
X131249195Y-94308052D01*
X131269316Y-94366917D01*
X131326696Y-94535761D01*
X131327816Y-94260472D01*
X131328935Y-93985183D01*
X131534485Y-93985183D01*
X131534485Y-94998247D01*
X131321162Y-94998247D01*
X131225945Y-94722958D01*
X131130727Y-94447669D01*
X131126733Y-94722958D01*
X131122738Y-94998247D01*
X130932519Y-94998247D01*
X130932519Y-93985183D01*
X131135089Y-93985183D01*
X131173513Y-94091628D01*
G37*
G36*
X132509417Y-94032900D02*
G01*
X132512044Y-94060693D01*
X132514276Y-94113145D01*
X132516021Y-94185551D01*
X132517184Y-94273208D01*
X132517670Y-94371411D01*
X132517573Y-94440328D01*
X132516142Y-94800039D01*
X132797144Y-94808443D01*
X132797144Y-94998247D01*
X132297953Y-94998247D01*
X132297953Y-93985183D01*
X132499831Y-93985183D01*
X132509417Y-94032900D01*
G37*
G36*
X129772635Y-96187495D02*
G01*
X129214716Y-96187495D01*
X129214716Y-95688305D01*
X128774253Y-95688305D01*
X128774253Y-97347380D01*
X129214716Y-97347380D01*
X129214716Y-97024374D01*
X129772635Y-97024374D01*
X129772635Y-97487232D01*
X129595178Y-97674242D01*
X129417721Y-97861253D01*
X128216334Y-97861253D01*
X128216334Y-95543925D01*
X128417718Y-95351837D01*
X128619102Y-95159750D01*
X129772635Y-95159750D01*
X129772635Y-96187495D01*
G37*
G36*
X117748011Y-94807380D02*
G01*
X118041652Y-94807380D01*
X118041652Y-94998247D01*
X117542461Y-94998247D01*
X117542461Y-93985183D01*
X117748011Y-93985183D01*
X117748011Y-94807380D01*
G37*
G36*
X127981421Y-94190732D02*
G01*
X127717144Y-94190732D01*
X127717144Y-94365730D01*
X127959398Y-94374258D01*
X127959398Y-94565125D01*
X127838271Y-94569390D01*
X127717144Y-94573654D01*
X127717144Y-94998247D01*
X127511594Y-94998247D01*
X127511594Y-94123559D01*
X127581839Y-94054371D01*
X127652083Y-93985183D01*
X127981421Y-93985183D01*
X127981421Y-94190732D01*
G37*
G36*
X122149635Y-94084287D02*
G01*
X122146409Y-94137315D01*
X122140938Y-94167748D01*
X122130786Y-94182353D01*
X122113516Y-94187899D01*
X122112259Y-94188083D01*
X122079224Y-94192775D01*
X122079224Y-94807380D01*
X122115930Y-94807380D01*
X122135661Y-94809053D01*
X122146651Y-94818496D01*
X122151451Y-94842343D01*
X122152614Y-94887227D01*
X122152635Y-94902813D01*
X122152635Y-94998247D01*
X121800265Y-94998247D01*
X121800265Y-94902813D01*
X121800909Y-94851512D01*
X121804540Y-94822938D01*
X121813712Y-94810457D01*
X121830975Y-94807435D01*
X121836970Y-94807380D01*
X121873675Y-94807380D01*
X121873675Y-94192775D01*
X121840641Y-94188083D01*
X121822888Y-94182851D01*
X121812394Y-94168949D01*
X121806721Y-94139606D01*
X121803432Y-94088057D01*
X121803265Y-94084287D01*
X121798923Y-93985183D01*
X122153977Y-93985183D01*
X122149635Y-94084287D01*
G37*
G36*
X127129860Y-95967264D02*
G01*
X126630670Y-95967264D01*
X126630670Y-95688305D01*
X126278300Y-95688305D01*
X126278300Y-96037267D01*
X126711421Y-96372137D01*
X127144542Y-96707008D01*
X127144542Y-97861253D01*
X125705698Y-97861253D01*
X125705698Y-97024374D01*
X126248935Y-97024374D01*
X126248935Y-97347380D01*
X126586623Y-97347380D01*
X126586623Y-96923862D01*
X126154052Y-96588714D01*
X125721480Y-96253565D01*
X125720930Y-95706657D01*
X125720381Y-95159750D01*
X127129860Y-95159750D01*
X127129860Y-95967264D01*
G37*
G36*
X115589745Y-94190732D02*
G01*
X115325467Y-94190732D01*
X115325467Y-94366917D01*
X115575063Y-94366917D01*
X115575063Y-94572466D01*
X115325467Y-94572466D01*
X115325467Y-94806278D01*
X115461277Y-94810499D01*
X115597086Y-94814721D01*
X115597086Y-94990906D01*
X115351161Y-94994931D01*
X115105236Y-94998957D01*
X115105236Y-93985183D01*
X115589745Y-93985183D01*
X115589745Y-94190732D01*
G37*
G36*
X133333040Y-95167091D02*
G01*
X133892251Y-95163248D01*
X134451463Y-95159405D01*
X134637367Y-95337108D01*
X134823271Y-95514810D01*
X134823271Y-96273539D01*
X134698507Y-96375829D01*
X134573744Y-96478119D01*
X134749356Y-96608096D01*
X134924967Y-96738073D01*
X134926045Y-97861253D01*
X133682784Y-97861253D01*
X133325520Y-97481961D01*
X133325957Y-97347380D01*
X133883618Y-97347380D01*
X134368126Y-97347380D01*
X134368126Y-96745414D01*
X133883618Y-96745414D01*
X133883618Y-97347380D01*
X133325957Y-97347380D01*
X133329582Y-96231542D01*
X133883618Y-96231542D01*
X134280034Y-96231542D01*
X134280034Y-95688305D01*
X133883618Y-95688305D01*
X133883618Y-96231542D01*
X133329582Y-96231542D01*
X133333040Y-95167091D01*
G37*
G36*
X120655063Y-94807380D02*
G01*
X120816566Y-94807380D01*
X120816566Y-93985183D01*
X121022115Y-93985183D01*
X121022115Y-94998247D01*
X120449514Y-94998247D01*
X120449514Y-93985183D01*
X120655063Y-93985183D01*
X120655063Y-94807380D01*
G37*
G36*
X125089051Y-94087958D02*
G01*
X125088259Y-94141969D01*
X125084686Y-94172911D01*
X125076539Y-94187063D01*
X125062024Y-94190704D01*
X125059687Y-94190732D01*
X125049922Y-94191846D01*
X125042602Y-94197648D01*
X125037375Y-94211831D01*
X125033889Y-94238090D01*
X125031793Y-94280118D01*
X125030735Y-94341607D01*
X125030363Y-94426251D01*
X125030323Y-94499056D01*
X125030429Y-94601587D01*
X125030981Y-94678448D01*
X125032332Y-94733331D01*
X125034833Y-94769930D01*
X125038836Y-94791938D01*
X125044692Y-94803048D01*
X125052753Y-94806954D01*
X125059687Y-94807380D01*
X125075578Y-94810354D01*
X125084438Y-94823603D01*
X125088263Y-94853615D01*
X125089051Y-94902813D01*
X125089051Y-94998247D01*
X124751363Y-94998247D01*
X124751363Y-94902813D01*
X124752278Y-94851166D01*
X124756355Y-94822372D01*
X124765589Y-94809941D01*
X124780727Y-94807380D01*
X124790492Y-94806267D01*
X124797812Y-94800465D01*
X124803039Y-94786281D01*
X124806525Y-94760022D01*
X124808621Y-94717994D01*
X124809679Y-94656505D01*
X124810051Y-94571861D01*
X124810092Y-94499056D01*
X124809986Y-94396525D01*
X124809433Y-94319664D01*
X124808082Y-94264781D01*
X124805581Y-94228182D01*
X124801579Y-94206174D01*
X124795723Y-94195064D01*
X124787661Y-94191158D01*
X124780727Y-94190732D01*
X124765296Y-94187960D01*
X124756455Y-94175456D01*
X124752412Y-94146941D01*
X124751371Y-94096139D01*
X124751363Y-94087958D01*
X124751363Y-93985183D01*
X125089051Y-93985183D01*
X125089051Y-94087958D01*
G37*
G36*
X123378589Y-94183391D02*
G01*
X123242779Y-94187613D01*
X123106970Y-94191834D01*
X123106970Y-94366917D01*
X123372589Y-94366917D01*
X123363907Y-94565125D01*
X123239109Y-94569308D01*
X123114311Y-94573490D01*
X123116589Y-94686764D01*
X123118868Y-94800039D01*
X123252399Y-94804260D01*
X123385930Y-94808482D01*
X123385930Y-94998247D01*
X122901421Y-94998247D01*
X122901421Y-93985183D01*
X123387271Y-93985183D01*
X123378589Y-94183391D01*
G37*
G36*
X106975212Y-96307904D02*
G01*
X106974714Y-96289579D01*
X108219997Y-96289579D01*
X108472934Y-96294921D01*
X108570637Y-96296565D01*
X108671680Y-96297546D01*
X108766701Y-96297818D01*
X108846337Y-96297339D01*
X108877010Y-96296814D01*
X108947966Y-96294458D01*
X108997116Y-96290240D01*
X109032016Y-96282666D01*
X109060223Y-96270240D01*
X109082559Y-96256135D01*
X109158724Y-96218148D01*
X109233541Y-96207858D01*
X109303871Y-96225183D01*
X109359658Y-96263303D01*
X109402103Y-96286884D01*
X109445634Y-96294643D01*
X109476160Y-96292837D01*
X109502947Y-96282459D01*
X109533377Y-96259032D01*
X109574830Y-96218079D01*
X109578986Y-96213764D01*
X109658184Y-96131349D01*
X109658184Y-94727868D01*
X109764629Y-94628357D01*
X109812301Y-94583187D01*
X109840521Y-94554139D01*
X109851671Y-94537705D01*
X109848133Y-94530373D01*
X109832320Y-94528633D01*
X109788780Y-94532139D01*
X109725276Y-94541885D01*
X109650122Y-94556208D01*
X109571634Y-94573445D01*
X109498129Y-94591932D01*
X109457924Y-94603532D01*
X109361916Y-94633186D01*
X109367221Y-94922161D01*
X109369290Y-95022595D01*
X109371640Y-95098335D01*
X109374782Y-95154053D01*
X109379228Y-95194418D01*
X109385487Y-95224101D01*
X109394072Y-95247771D01*
X109405239Y-95269648D01*
X109433615Y-95345671D01*
X109432990Y-95418823D01*
X109403707Y-95487397D01*
X109349955Y-95546492D01*
X109283924Y-95584827D01*
X109213041Y-95596141D01*
X109142677Y-95580943D01*
X109078201Y-95539739D01*
X109057677Y-95518878D01*
X109017784Y-95459319D01*
X109002518Y-95396150D01*
X109004077Y-95382788D01*
X109118376Y-95382788D01*
X109139296Y-95421441D01*
X109145377Y-95429388D01*
X109185311Y-95461085D01*
X109229909Y-95465402D01*
X109273126Y-95441910D01*
X109276450Y-95438709D01*
X109302260Y-95395878D01*
X109300227Y-95351165D01*
X109270778Y-95310615D01*
X109267129Y-95307636D01*
X109226537Y-95282500D01*
X109193284Y-95281951D01*
X109157982Y-95306442D01*
X109150985Y-95313244D01*
X109122121Y-95349852D01*
X109118376Y-95382788D01*
X109004077Y-95382788D01*
X109011022Y-95323276D01*
X109024168Y-95280599D01*
X109039065Y-95223966D01*
X109051454Y-95149167D01*
X109060607Y-95065222D01*
X109065795Y-94981154D01*
X109066290Y-94905982D01*
X109061362Y-94848728D01*
X109059722Y-94840488D01*
X109048878Y-94792844D01*
X108906893Y-94902377D01*
X108765654Y-95025462D01*
X108634562Y-95167182D01*
X108519924Y-95319975D01*
X108428044Y-95476283D01*
X108427825Y-95476717D01*
X108382811Y-95566113D01*
X108506908Y-95689608D01*
X108631006Y-95813102D01*
X108819784Y-95817904D01*
X109008562Y-95822705D01*
X109040889Y-95777306D01*
X109093769Y-95724971D01*
X109157160Y-95695504D01*
X109225287Y-95687685D01*
X109292373Y-95700291D01*
X109352642Y-95732101D01*
X109400318Y-95781893D01*
X109429623Y-95848446D01*
X109432126Y-95860054D01*
X109432972Y-95934813D01*
X109409759Y-96002376D01*
X109367132Y-96058358D01*
X109309740Y-96098375D01*
X109242230Y-96118041D01*
X109169249Y-96112973D01*
X109165210Y-96111901D01*
X109120794Y-96092658D01*
X109074638Y-96062607D01*
X109064891Y-96054556D01*
X109015637Y-96011310D01*
X108524292Y-96011310D01*
X108413858Y-95903842D01*
X109114947Y-95903842D01*
X109126622Y-95932241D01*
X109154802Y-95963371D01*
X109189221Y-95987903D01*
X109217054Y-95996628D01*
X109249559Y-95986641D01*
X109276450Y-95967264D01*
X109300225Y-95926174D01*
X109301011Y-95881232D01*
X109282159Y-95840764D01*
X109247022Y-95813100D01*
X109211446Y-95805761D01*
X109177468Y-95817781D01*
X109143529Y-95846877D01*
X109119906Y-95882603D01*
X109114947Y-95903842D01*
X108413858Y-95903842D01*
X108409959Y-95900048D01*
X108295626Y-95788785D01*
X108272618Y-95889942D01*
X108258953Y-95958031D01*
X108247221Y-96030341D01*
X108241331Y-96078286D01*
X108235444Y-96139083D01*
X108229452Y-96199121D01*
X108226524Y-96227526D01*
X108219997Y-96289579D01*
X106974714Y-96289579D01*
X106973135Y-96231539D01*
X106972737Y-96166861D01*
X106973810Y-96129056D01*
X106978704Y-96048594D01*
X107242350Y-96001402D01*
X107334977Y-95984879D01*
X107425183Y-95968889D01*
X107505917Y-95954676D01*
X107570126Y-95943482D01*
X107603365Y-95937787D01*
X107700733Y-95921363D01*
X107718405Y-95825456D01*
X107732346Y-95761240D01*
X107751759Y-95685862D01*
X107771972Y-95617163D01*
X107788860Y-95562399D01*
X107801530Y-95517716D01*
X107807763Y-95491048D01*
X107808054Y-95488176D01*
X107797275Y-95474482D01*
X107766912Y-95444976D01*
X107720092Y-95402460D01*
X107659942Y-95349734D01*
X107589588Y-95289602D01*
X107540294Y-95248227D01*
X107464847Y-95185030D01*
X107397270Y-95127833D01*
X107340740Y-95079375D01*
X107298435Y-95042393D01*
X107273530Y-95019624D01*
X107268184Y-95013760D01*
X107273719Y-94998101D01*
X107291276Y-94962451D01*
X107317895Y-94912076D01*
X107350617Y-94852238D01*
X107386482Y-94788202D01*
X107422529Y-94725232D01*
X107455800Y-94668592D01*
X107483334Y-94623546D01*
X107502172Y-94595359D01*
X107506246Y-94590361D01*
X107516862Y-94586059D01*
X107537867Y-94587426D01*
X107572268Y-94595344D01*
X107623075Y-94610693D01*
X107693296Y-94634355D01*
X107785939Y-94667212D01*
X107858851Y-94693641D01*
X108193795Y-94815732D01*
X108353388Y-94654699D01*
X108408353Y-94598641D01*
X108455136Y-94549786D01*
X108490180Y-94511941D01*
X108509929Y-94488912D01*
X108512982Y-94483938D01*
X108508190Y-94467954D01*
X108494739Y-94428320D01*
X108474013Y-94368979D01*
X108447396Y-94293874D01*
X108416274Y-94206948D01*
X108394567Y-94146757D01*
X108356329Y-94040049D01*
X108327723Y-93957610D01*
X108307849Y-93896299D01*
X108295805Y-93852973D01*
X108290691Y-93824492D01*
X108291606Y-93807714D01*
X108295463Y-93801143D01*
X108314370Y-93787840D01*
X108352514Y-93764100D01*
X108404595Y-93732962D01*
X108465307Y-93697465D01*
X108529348Y-93660649D01*
X108591415Y-93625553D01*
X108646204Y-93595217D01*
X108688412Y-93572680D01*
X108712736Y-93560981D01*
X108716201Y-93560010D01*
X108727897Y-93570999D01*
X108755576Y-93601538D01*
X108796543Y-93648518D01*
X108848109Y-93708825D01*
X108907579Y-93779350D01*
X108951221Y-93831629D01*
X109015209Y-93907485D01*
X109074033Y-93975150D01*
X109124833Y-94031497D01*
X109164746Y-94073399D01*
X109190908Y-94097728D01*
X109199298Y-94102640D01*
X109222612Y-94098353D01*
X109266326Y-94086852D01*
X109322975Y-94070176D01*
X109355683Y-94059939D01*
X109423211Y-94039607D01*
X109488745Y-94021987D01*
X109541519Y-94009902D01*
X109556520Y-94007268D01*
X109623700Y-93997299D01*
X109687238Y-93638542D01*
X109750776Y-93279784D01*
X110267130Y-93287784D01*
X110321539Y-93596108D01*
X110338240Y-93690643D01*
X110353700Y-93777963D01*
X110367020Y-93852992D01*
X110377296Y-93910651D01*
X110383626Y-93945864D01*
X110384555Y-93950932D01*
X110393619Y-93981234D01*
X110412294Y-93997369D01*
X110449964Y-94006897D01*
X110455124Y-94007775D01*
X110495788Y-94016272D01*
X110555249Y-94030798D01*
X110624159Y-94049007D01*
X110668344Y-94061347D01*
X110731391Y-94078643D01*
X110784031Y-94091732D01*
X110819872Y-94099108D01*
X110832027Y-94099937D01*
X110844684Y-94087782D01*
X110873214Y-94056325D01*
X110914745Y-94008865D01*
X110966403Y-93948702D01*
X111025317Y-93879136D01*
X111053380Y-93845703D01*
X111115227Y-93771918D01*
X111171534Y-93704934D01*
X111219295Y-93648311D01*
X111255502Y-93605611D01*
X111277150Y-93580395D01*
X111281171Y-93575880D01*
X111292138Y-93570065D01*
X111310560Y-93571993D01*
X111340297Y-93583302D01*
X111385209Y-93605632D01*
X111449154Y-93640619D01*
X111495844Y-93666993D01*
X111565896Y-93707110D01*
X111628357Y-93743410D01*
X111678055Y-93772848D01*
X111709821Y-93792378D01*
X111717176Y-93797336D01*
X111724514Y-93804971D01*
X111727972Y-93816768D01*
X111726618Y-93836101D01*
X111719522Y-93866340D01*
X111705753Y-93910858D01*
X111684379Y-93973026D01*
X111654469Y-94056215D01*
X111618682Y-94154027D01*
X111494664Y-94491715D01*
X111651636Y-94649547D01*
X111707376Y-94704510D01*
X111756726Y-94751144D01*
X111795664Y-94785807D01*
X111820170Y-94804852D01*
X111825737Y-94807380D01*
X111843865Y-94802535D01*
X111885483Y-94788939D01*
X111946531Y-94767997D01*
X112022948Y-94741114D01*
X112110672Y-94709698D01*
X112168929Y-94688570D01*
X112261157Y-94655644D01*
X112344285Y-94627261D01*
X112414347Y-94604670D01*
X112467377Y-94589120D01*
X112499410Y-94581859D01*
X112507046Y-94582125D01*
X112522362Y-94603084D01*
X112547215Y-94642828D01*
X112578727Y-94696164D01*
X112614020Y-94757899D01*
X112650218Y-94822841D01*
X112684444Y-94885796D01*
X112713819Y-94941573D01*
X112735467Y-94984977D01*
X112746510Y-95010817D01*
X112747176Y-95015495D01*
X112733956Y-95028379D01*
X112701677Y-95056897D01*
X112653912Y-95097981D01*
X112594238Y-95148557D01*
X112526227Y-95205556D01*
X112516509Y-95213654D01*
X112444452Y-95273881D01*
X112377201Y-95330527D01*
X112319167Y-95379842D01*
X112274760Y-95418076D01*
X112248391Y-95441482D01*
X112247793Y-95442039D01*
X112201967Y-95484849D01*
X112237728Y-95597458D01*
X112258993Y-95669276D01*
X112279787Y-95747450D01*
X112294960Y-95812145D01*
X112306056Y-95862895D01*
X112315119Y-95900731D01*
X112320317Y-95918032D01*
X112320513Y-95918303D01*
X112335164Y-95921582D01*
X112373941Y-95928909D01*
X112432020Y-95939445D01*
X112504571Y-95952355D01*
X112586767Y-95966801D01*
X112673781Y-95981946D01*
X112760786Y-95996953D01*
X112842954Y-96010986D01*
X112915458Y-96023207D01*
X112973470Y-96032779D01*
X113012163Y-96038866D01*
X113026342Y-96040675D01*
X113029146Y-96054579D01*
X113031575Y-96093182D01*
X113033474Y-96151819D01*
X113034687Y-96225826D01*
X113035063Y-96301375D01*
X113035063Y-96562075D01*
X112676335Y-96626586D01*
X112317607Y-96691098D01*
X112293949Y-96797437D01*
X112276770Y-96868421D01*
X112255253Y-96948871D01*
X112235868Y-97015342D01*
X112201446Y-97126910D01*
X112371166Y-97270179D01*
X112441555Y-97329452D01*
X112514326Y-97390482D01*
X112581742Y-97446794D01*
X112636065Y-97491916D01*
X112644824Y-97499148D01*
X112690919Y-97537235D01*
X112727654Y-97567739D01*
X112749702Y-97586230D01*
X112753554Y-97589586D01*
X112747701Y-97602488D01*
X112729913Y-97635746D01*
X112703046Y-97684346D01*
X112669957Y-97743278D01*
X112633502Y-97807529D01*
X112596536Y-97872088D01*
X112561917Y-97931942D01*
X112532500Y-97982080D01*
X112511141Y-98017489D01*
X112500889Y-98032952D01*
X112487000Y-98028949D01*
X112449304Y-98016184D01*
X112391572Y-97995986D01*
X112317572Y-97969683D01*
X112231077Y-97938602D01*
X112161071Y-97913245D01*
X111823791Y-97790683D01*
X111496201Y-98114961D01*
X111544794Y-98248714D01*
X111568592Y-98314152D01*
X111598812Y-98397148D01*
X111631803Y-98487679D01*
X111663913Y-98575722D01*
X111668107Y-98587214D01*
X111698251Y-98671988D01*
X111717881Y-98732913D01*
X111727840Y-98773221D01*
X111728969Y-98796143D01*
X111724581Y-98803834D01*
X111706147Y-98815012D01*
X111667108Y-98838158D01*
X111612233Y-98870463D01*
X111546291Y-98909115D01*
X111503255Y-98934268D01*
X111425666Y-98979050D01*
X111369314Y-99010043D01*
X111330459Y-99028894D01*
X111305360Y-99037250D01*
X111290275Y-99036760D01*
X111283024Y-99031257D01*
X111268901Y-99014163D01*
X111238768Y-98978135D01*
X111195564Y-98926673D01*
X111142227Y-98863275D01*
X111081696Y-98791439D01*
X111049097Y-98752793D01*
X110832323Y-98495902D01*
X110720850Y-98530295D01*
X110647492Y-98551578D01*
X110566267Y-98573115D01*
X110501238Y-98588747D01*
X110445993Y-98601760D01*
X110412996Y-98612933D01*
X110395709Y-98626223D01*
X110387593Y-98645583D01*
X110384867Y-98659139D01*
X110379845Y-98687233D01*
X110370536Y-98739158D01*
X110357849Y-98809844D01*
X110342695Y-98894223D01*
X110325983Y-98987225D01*
X110321207Y-99013796D01*
X110265780Y-99322120D01*
X109751768Y-99330116D01*
X109704697Y-99061840D01*
X109688456Y-98969239D01*
X109672789Y-98879832D01*
X109658876Y-98800364D01*
X109647898Y-98737580D01*
X109641946Y-98703461D01*
X109626267Y-98613357D01*
X109541033Y-98596588D01*
X109486831Y-98584175D01*
X109417271Y-98565834D01*
X109344855Y-98544915D01*
X109323092Y-98538214D01*
X109190386Y-98496608D01*
X109140293Y-98549653D01*
X109114847Y-98578034D01*
X109074831Y-98624396D01*
X109024272Y-98683997D01*
X108967194Y-98752092D01*
X108912713Y-98817770D01*
X108856510Y-98885499D01*
X108806301Y-98945298D01*
X108765211Y-98993501D01*
X108736363Y-99026444D01*
X108722884Y-99040462D01*
X108722728Y-99040566D01*
X108707389Y-99035818D01*
X108671891Y-99019118D01*
X108621432Y-98993325D01*
X108561207Y-98961296D01*
X108496415Y-98925890D01*
X108432253Y-98889963D01*
X108373918Y-98856374D01*
X108326607Y-98827981D01*
X108295517Y-98807640D01*
X108287606Y-98801311D01*
X108288974Y-98784713D01*
X108299457Y-98744541D01*
X108317820Y-98684699D01*
X108342825Y-98609092D01*
X108373236Y-98521625D01*
X108397722Y-98453669D01*
X108520323Y-98118189D01*
X108356704Y-97955876D01*
X108193086Y-97793562D01*
X107857562Y-97914814D01*
X107764102Y-97948053D01*
X107679918Y-97976970D01*
X107608882Y-98000317D01*
X107554861Y-98016851D01*
X107521727Y-98025325D01*
X107512978Y-98025741D01*
X107500598Y-98007494D01*
X107477468Y-97969906D01*
X107446598Y-97918182D01*
X107410996Y-97857528D01*
X107373670Y-97793149D01*
X107337629Y-97730252D01*
X107305880Y-97674042D01*
X107281434Y-97629724D01*
X107267297Y-97602505D01*
X107265005Y-97596660D01*
X107275467Y-97580070D01*
X107299809Y-97557824D01*
X107327967Y-97535208D01*
X107373474Y-97497724D01*
X107431343Y-97449566D01*
X107496587Y-97394930D01*
X107564219Y-97338009D01*
X107629252Y-97282998D01*
X107686700Y-97234093D01*
X107731576Y-97195487D01*
X107754284Y-97175546D01*
X107810441Y-97125238D01*
X107757908Y-96931656D01*
X107738582Y-96858727D01*
X107722463Y-96794643D01*
X107711000Y-96745405D01*
X107705639Y-96717014D01*
X107705421Y-96713979D01*
X107704619Y-96706637D01*
X107700247Y-96700115D01*
X107689406Y-96693749D01*
X107669198Y-96686877D01*
X107636722Y-96678834D01*
X107589079Y-96668957D01*
X107523369Y-96656584D01*
X107436693Y-96641050D01*
X107326152Y-96621693D01*
X107225931Y-96604282D01*
X106988649Y-96563112D01*
X106987198Y-96537113D01*
X108241388Y-96537113D01*
X108246479Y-96586206D01*
X108259694Y-96664232D01*
X108283704Y-96759425D01*
X108315740Y-96862910D01*
X108353032Y-96965811D01*
X108392813Y-97059251D01*
X108396456Y-97066967D01*
X108426321Y-97125593D01*
X108462474Y-97190476D01*
X108501730Y-97256600D01*
X108540901Y-97318952D01*
X108576800Y-97372516D01*
X108606243Y-97412276D01*
X108626041Y-97433219D01*
X108630438Y-97435203D01*
X108636114Y-97422382D01*
X108640901Y-97390380D01*
X108641670Y-97381142D01*
X108645423Y-97350725D01*
X108653923Y-97322909D01*
X108670143Y-97293696D01*
X108697053Y-97259091D01*
X108737626Y-97215098D01*
X108794834Y-97157719D01*
X108842139Y-97111555D01*
X108907131Y-97047058D01*
X108952877Y-96997907D01*
X108982436Y-96960350D01*
X108986079Y-96953762D01*
X109117173Y-96953762D01*
X109121939Y-96982475D01*
X109148410Y-97015108D01*
X109150985Y-97017700D01*
X109187593Y-97046564D01*
X109220529Y-97050309D01*
X109259181Y-97029389D01*
X109267129Y-97023308D01*
X109298825Y-96983374D01*
X109303143Y-96938776D01*
X109279651Y-96895560D01*
X109276450Y-96892235D01*
X109232800Y-96865231D01*
X109188112Y-96865608D01*
X109148626Y-96892298D01*
X109131827Y-96916964D01*
X109117173Y-96953762D01*
X108986079Y-96953762D01*
X108998866Y-96930635D01*
X109004119Y-96912893D01*
X109027366Y-96855093D01*
X109070172Y-96800237D01*
X109123607Y-96758382D01*
X109153343Y-96744856D01*
X109225100Y-96735180D01*
X109293838Y-96750513D01*
X109354321Y-96786583D01*
X109401318Y-96839120D01*
X109429593Y-96903851D01*
X109434202Y-96974079D01*
X109412562Y-97050979D01*
X109368319Y-97110448D01*
X109303737Y-97150664D01*
X109221083Y-97169809D01*
X109188802Y-97171195D01*
X109153828Y-97172006D01*
X109126895Y-97176955D01*
X109101536Y-97189811D01*
X109071283Y-97214345D01*
X109029669Y-97254329D01*
X109006242Y-97277640D01*
X108959282Y-97325922D01*
X108919131Y-97369832D01*
X108891242Y-97403268D01*
X108882451Y-97416154D01*
X108874267Y-97445990D01*
X108868389Y-97495273D01*
X108865930Y-97554112D01*
X108865924Y-97562975D01*
X108866497Y-97677727D01*
X108933543Y-97727077D01*
X109094377Y-97832325D01*
X109270032Y-97923923D01*
X109450561Y-97997111D01*
X109579879Y-98036223D01*
X109649391Y-98054279D01*
X109698476Y-98064859D01*
X109730670Y-98064481D01*
X109749505Y-98049663D01*
X109758517Y-98016924D01*
X109761240Y-97962780D01*
X109761206Y-97883749D01*
X109761183Y-97857582D01*
X109762119Y-97780909D01*
X109764534Y-97713924D01*
X109768097Y-97662518D01*
X109772476Y-97632584D01*
X109774088Y-97628349D01*
X109788094Y-97611887D01*
X109819296Y-97578320D01*
X109864168Y-97531344D01*
X109919179Y-97474655D01*
X109977334Y-97415458D01*
X110048000Y-97343082D01*
X110100007Y-97287485D01*
X110136077Y-97245319D01*
X110158929Y-97213235D01*
X110171285Y-97187883D01*
X110175217Y-97171862D01*
X110176557Y-97147072D01*
X110177507Y-97096091D01*
X110178067Y-97022088D01*
X110178236Y-96928234D01*
X110178016Y-96817699D01*
X110177405Y-96693653D01*
X110176405Y-96559267D01*
X110175221Y-96436804D01*
X110173946Y-96295181D01*
X110173186Y-96160456D01*
X110172930Y-96035912D01*
X110173163Y-95924832D01*
X110173872Y-95830498D01*
X110175042Y-95756194D01*
X110176661Y-95705202D01*
X110178363Y-95682748D01*
X110182942Y-95658421D01*
X110190600Y-95635996D01*
X110204106Y-95612012D01*
X110226231Y-95583012D01*
X110259745Y-95545535D01*
X110307417Y-95496121D01*
X110372018Y-95431313D01*
X110409586Y-95393986D01*
X110424547Y-95379314D01*
X110641883Y-95379314D01*
X110654764Y-95417709D01*
X110686626Y-95450191D01*
X110727304Y-95467304D01*
X110737317Y-95468073D01*
X110775295Y-95457862D01*
X110803386Y-95438709D01*
X110825403Y-95406478D01*
X110832751Y-95379314D01*
X110821761Y-95347024D01*
X110795180Y-95312462D01*
X110762584Y-95285877D01*
X110737317Y-95277206D01*
X110707138Y-95288964D01*
X110674835Y-95317405D01*
X110649988Y-95352279D01*
X110641883Y-95379314D01*
X110424547Y-95379314D01*
X110492954Y-95312229D01*
X110559652Y-95249790D01*
X110613096Y-95204569D01*
X110656703Y-95174465D01*
X110693888Y-95157377D01*
X110728068Y-95151205D01*
X110762660Y-95153847D01*
X110789946Y-95160084D01*
X110858575Y-95191694D01*
X110908493Y-95240895D01*
X110938931Y-95302035D01*
X110949122Y-95369460D01*
X110938298Y-95437519D01*
X110905692Y-95500557D01*
X110850535Y-95552923D01*
X110843896Y-95557263D01*
X110811281Y-95574137D01*
X110776283Y-95581639D01*
X110727982Y-95581459D01*
X110700612Y-95579459D01*
X110605178Y-95571463D01*
X110509745Y-95676888D01*
X110414311Y-95782314D01*
X110399629Y-97329908D01*
X110211803Y-97509435D01*
X110149030Y-97570597D01*
X110092631Y-97627724D01*
X110046591Y-97676609D01*
X110014897Y-97713045D01*
X110002583Y-97730332D01*
X109990879Y-97768027D01*
X109983870Y-97828359D01*
X109981229Y-97914343D01*
X109981190Y-97928641D01*
X109981190Y-98085580D01*
X110148167Y-98078211D01*
X110216300Y-98074408D01*
X110274119Y-98069695D01*
X110315005Y-98064708D01*
X110331693Y-98060614D01*
X110340406Y-98040586D01*
X110346123Y-97996049D01*
X110348240Y-97931757D01*
X110348242Y-97929722D01*
X110351452Y-97849030D01*
X110361058Y-97796596D01*
X110368912Y-97780097D01*
X110384387Y-97762580D01*
X110417935Y-97727342D01*
X110466717Y-97677274D01*
X110527892Y-97615267D01*
X110598621Y-97544212D01*
X110676063Y-97467001D01*
X110693034Y-97450154D01*
X110771694Y-97371497D01*
X110844226Y-97297757D01*
X110907769Y-97231937D01*
X110959465Y-97177040D01*
X110996453Y-97136069D01*
X111015874Y-97112026D01*
X111017393Y-97109525D01*
X111028992Y-97071372D01*
X111035880Y-97008672D01*
X111038292Y-96919233D01*
X111038300Y-96913050D01*
X111035691Y-96822808D01*
X111026361Y-96755381D01*
X111008052Y-96704562D01*
X110978505Y-96664143D01*
X110935464Y-96627917D01*
X110934294Y-96627081D01*
X110906577Y-96609131D01*
X110884103Y-96603850D01*
X110854681Y-96610605D01*
X110825333Y-96621427D01*
X110746384Y-96638192D01*
X110671374Y-96629683D01*
X110605629Y-96598363D01*
X110554474Y-96546697D01*
X110524581Y-96482251D01*
X110519796Y-96428684D01*
X110641883Y-96428684D01*
X110653903Y-96462662D01*
X110682999Y-96496602D01*
X110718726Y-96520224D01*
X110739964Y-96525183D01*
X110763758Y-96515487D01*
X110793929Y-96491870D01*
X110796713Y-96489145D01*
X110827032Y-96444725D01*
X110828125Y-96401636D01*
X110803386Y-96363680D01*
X110762297Y-96339905D01*
X110717354Y-96339119D01*
X110676886Y-96357971D01*
X110649222Y-96393109D01*
X110641883Y-96428684D01*
X110519796Y-96428684D01*
X110518259Y-96411471D01*
X110535698Y-96344971D01*
X110572287Y-96287044D01*
X110623417Y-96241982D01*
X110684475Y-96214077D01*
X110750853Y-96207623D01*
X110805193Y-96220999D01*
X110829405Y-96237256D01*
X110869572Y-96270873D01*
X110921565Y-96317789D01*
X110981250Y-96373947D01*
X111044496Y-96435287D01*
X111107173Y-96497749D01*
X111165147Y-96557276D01*
X111214289Y-96609808D01*
X111250465Y-96651286D01*
X111269022Y-96676685D01*
X111276025Y-96704264D01*
X111281427Y-96754700D01*
X111285197Y-96821527D01*
X111287304Y-96898281D01*
X111287717Y-96978494D01*
X111286406Y-97055703D01*
X111283339Y-97123440D01*
X111278486Y-97175242D01*
X111271815Y-97204643D01*
X111271544Y-97205195D01*
X111257432Y-97223241D01*
X111225165Y-97259234D01*
X111177386Y-97310391D01*
X111116739Y-97373930D01*
X111045867Y-97447069D01*
X110967414Y-97527025D01*
X110926515Y-97568342D01*
X110831783Y-97664201D01*
X110756220Y-97741775D01*
X110697914Y-97803218D01*
X110654956Y-97850686D01*
X110625433Y-97886336D01*
X110607435Y-97912322D01*
X110599050Y-97930802D01*
X110597837Y-97939065D01*
X110603146Y-97968022D01*
X110614491Y-97978709D01*
X110639588Y-97971873D01*
X110684282Y-97953328D01*
X110742726Y-97926024D01*
X110809073Y-97892908D01*
X110877474Y-97856929D01*
X110942084Y-97821035D01*
X110997053Y-97788174D01*
X111013633Y-97777470D01*
X111096721Y-97716299D01*
X111187310Y-97639669D01*
X111276678Y-97555678D01*
X111356102Y-97472422D01*
X111404277Y-97414842D01*
X111464080Y-97337326D01*
X111464080Y-96981237D01*
X111463861Y-96867520D01*
X111463044Y-96779390D01*
X111461388Y-96713075D01*
X111458656Y-96664800D01*
X111454605Y-96630791D01*
X111448998Y-96607275D01*
X111441594Y-96590476D01*
X111438983Y-96586177D01*
X111421602Y-96565110D01*
X111386377Y-96527035D01*
X111336592Y-96475333D01*
X111275532Y-96413387D01*
X111206482Y-96344581D01*
X111160836Y-96299703D01*
X110907786Y-96052200D01*
X110859913Y-96086289D01*
X110794398Y-96116295D01*
X110723018Y-96121802D01*
X110652947Y-96104621D01*
X110591358Y-96066563D01*
X110545424Y-96009440D01*
X110543857Y-96006482D01*
X110520713Y-95934667D01*
X110521554Y-95909203D01*
X110641883Y-95909203D01*
X110652873Y-95941493D01*
X110679454Y-95976054D01*
X110712050Y-96002640D01*
X110737317Y-96011310D01*
X110763036Y-96001541D01*
X110794158Y-95977772D01*
X110796713Y-95975273D01*
X110821517Y-95942172D01*
X110832699Y-95910861D01*
X110832751Y-95909203D01*
X110819870Y-95870808D01*
X110788008Y-95838325D01*
X110747330Y-95821213D01*
X110737317Y-95820443D01*
X110696034Y-95832423D01*
X110661110Y-95862057D01*
X110642711Y-95899891D01*
X110641883Y-95909203D01*
X110521554Y-95909203D01*
X110523011Y-95865090D01*
X110546890Y-95801881D01*
X110588488Y-95749169D01*
X110643945Y-95711084D01*
X110709398Y-95691756D01*
X110780987Y-95695314D01*
X110822211Y-95708795D01*
X110848903Y-95726260D01*
X110890980Y-95760727D01*
X110943586Y-95807925D01*
X111001867Y-95863579D01*
X111030708Y-95892321D01*
X111086658Y-95948197D01*
X111135653Y-95995820D01*
X111173905Y-96031614D01*
X111197632Y-96052001D01*
X111203223Y-96055357D01*
X111206990Y-96041486D01*
X111210222Y-96003119D01*
X111212140Y-95958046D01*
X111437399Y-95958046D01*
X111437642Y-96061707D01*
X111440236Y-96150075D01*
X111445069Y-96217034D01*
X111446867Y-96231542D01*
X111462479Y-96341657D01*
X111669629Y-96536495D01*
X111669629Y-96731984D01*
X111670592Y-96813980D01*
X111673374Y-96872937D01*
X111677812Y-96906725D01*
X111683465Y-96913524D01*
X111692886Y-96894177D01*
X111707298Y-96853074D01*
X111724475Y-96796921D01*
X111736818Y-96752756D01*
X111753340Y-96686425D01*
X111765214Y-96624477D01*
X111773441Y-96558690D01*
X111779023Y-96480841D01*
X111782961Y-96382709D01*
X111783316Y-96371021D01*
X111783780Y-96204619D01*
X111773392Y-96056571D01*
X111750404Y-95917883D01*
X111713070Y-95779558D01*
X111659641Y-95632602D01*
X111622900Y-95545154D01*
X111589233Y-95472234D01*
X111564030Y-95427297D01*
X111547207Y-95410238D01*
X111538678Y-95420948D01*
X111537490Y-95438198D01*
X111528205Y-95466318D01*
X111504828Y-95503176D01*
X111492741Y-95518018D01*
X111447992Y-95568984D01*
X111439624Y-95845205D01*
X111437399Y-95958046D01*
X111212140Y-95958046D01*
X111212690Y-95945119D01*
X111214165Y-95872353D01*
X111214485Y-95815747D01*
X111214485Y-95576137D01*
X111170653Y-95527042D01*
X111129224Y-95461726D01*
X111112983Y-95391992D01*
X111113868Y-95382819D01*
X111244074Y-95382819D01*
X111255641Y-95425222D01*
X111285595Y-95452706D01*
X111325968Y-95463313D01*
X111368798Y-95455083D01*
X111406117Y-95426056D01*
X111408297Y-95423223D01*
X111425680Y-95378863D01*
X111417459Y-95335177D01*
X111386290Y-95300827D01*
X111367948Y-95291623D01*
X111318356Y-95285822D01*
X111277218Y-95304767D01*
X111250686Y-95343930D01*
X111244074Y-95382819D01*
X111113868Y-95382819D01*
X111119635Y-95323060D01*
X111146884Y-95260151D01*
X111192437Y-95208485D01*
X111253998Y-95173283D01*
X111329273Y-95159766D01*
X111332096Y-95159750D01*
X111377239Y-95159750D01*
X111336238Y-95107881D01*
X111290834Y-95058356D01*
X111226446Y-94998799D01*
X111149271Y-94934287D01*
X111065506Y-94869895D01*
X110981348Y-94810699D01*
X110943468Y-94786146D01*
X110805328Y-94709974D01*
X110650277Y-94642432D01*
X110490524Y-94588393D01*
X110377285Y-94560135D01*
X110238126Y-94531367D01*
X110065612Y-94702179D01*
X109893097Y-94872990D01*
X109893097Y-96222732D01*
X109734531Y-96381299D01*
X109575964Y-96539865D01*
X109494552Y-96539865D01*
X109441288Y-96542653D01*
X109407353Y-96552833D01*
X109385205Y-96570733D01*
X109325521Y-96617068D01*
X109255935Y-96640206D01*
X109183495Y-96640001D01*
X109115244Y-96616307D01*
X109065589Y-96577373D01*
X109032039Y-96541171D01*
X108636713Y-96539142D01*
X108241388Y-96537113D01*
X106987198Y-96537113D01*
X106981145Y-96428647D01*
X109125081Y-96428647D01*
X109133794Y-96471346D01*
X109143662Y-96487696D01*
X109175379Y-96505858D01*
X109219175Y-96509113D01*
X109261916Y-96497607D01*
X109278964Y-96486203D01*
X109302619Y-96447177D01*
X109300032Y-96400451D01*
X109282958Y-96366947D01*
X109248622Y-96340926D01*
X109203114Y-96335078D01*
X109157572Y-96350482D01*
X109152011Y-96354261D01*
X109131434Y-96385125D01*
X109125081Y-96428647D01*
X106981145Y-96428647D01*
X106978782Y-96386315D01*
X106975212Y-96307904D01*
G37*
G36*
X124655930Y-93992524D02*
G01*
X124660114Y-94143016D01*
X124664298Y-94293507D01*
X124472404Y-94293507D01*
X124472404Y-94242120D01*
X124470993Y-94210545D01*
X124461434Y-94195593D01*
X124435735Y-94191049D01*
X124406334Y-94190732D01*
X124340265Y-94190732D01*
X124340265Y-94253447D01*
X124340894Y-94278846D01*
X124345204Y-94299376D01*
X124356825Y-94319208D01*
X124379390Y-94342516D01*
X124416531Y-94373471D01*
X124471878Y-94416248D01*
X124501768Y-94439002D01*
X124663271Y-94561843D01*
X124663271Y-94998247D01*
X124120034Y-94998247D01*
X124120034Y-94673955D01*
X124226479Y-94678268D01*
X124332924Y-94682582D01*
X124334128Y-94741310D01*
X124336385Y-94778901D01*
X124346717Y-94795606D01*
X124373601Y-94799898D01*
X124392857Y-94800039D01*
X124450381Y-94800039D01*
X124454721Y-94725752D01*
X124459062Y-94651466D01*
X124297338Y-94527544D01*
X124135614Y-94403623D01*
X124135165Y-94194064D01*
X124134716Y-93984506D01*
X124655930Y-93992524D01*
G37*
G36*
X134926045Y-98610039D02*
G01*
X113769167Y-98610039D01*
X113769167Y-98022756D01*
X134926045Y-98022756D01*
X134926045Y-98610039D01*
G37*
G36*
X132207747Y-93985183D02*
G01*
X132216873Y-94062264D01*
X132219091Y-94096927D01*
X132220805Y-94156367D01*
X132221970Y-94236000D01*
X132222545Y-94331241D01*
X132222485Y-94437507D01*
X132221748Y-94550214D01*
X132221600Y-94565125D01*
X132217201Y-94990906D01*
X131919889Y-94994880D01*
X131622577Y-94998855D01*
X131622577Y-94807380D01*
X131828126Y-94807380D01*
X132004311Y-94807380D01*
X132004311Y-94190732D01*
X131828126Y-94190732D01*
X131828126Y-94807380D01*
X131622577Y-94807380D01*
X131622577Y-93985183D01*
X132207747Y-93985183D01*
G37*
G36*
X120772519Y-95159750D02*
G01*
X120772519Y-97861253D01*
X119186855Y-97861253D01*
X119186855Y-97347380D01*
X119744774Y-97347380D01*
X120214600Y-97347380D01*
X120214600Y-95688305D01*
X119744774Y-95688305D01*
X119744774Y-97347380D01*
X119186855Y-97347380D01*
X119186855Y-95159750D01*
X120772519Y-95159750D01*
G37*
G36*
X125485467Y-96187495D02*
G01*
X124927548Y-96187495D01*
X124927548Y-95688305D01*
X124501768Y-95688305D01*
X124501768Y-97347380D01*
X124927548Y-97347380D01*
X124927548Y-97024374D01*
X125485467Y-97024374D01*
X125485467Y-97496847D01*
X125306822Y-97679050D01*
X125128176Y-97861253D01*
X123943849Y-97861253D01*
X123943849Y-95529897D01*
X124140130Y-95344823D01*
X124336411Y-95159750D01*
X125485467Y-95159750D01*
X125485467Y-96187495D01*
G37*
X155815000Y-66880000D02*
X155815000Y-77120000D01*
X157325000Y-77120000D02*
X152684000Y-77120000D01*
X152684000Y-66880000D02*
X152684000Y-77120000D01*
X157325000Y-66880000D02*
X152684000Y-66880000D01*
X157325000Y-70150000D02*
X155815000Y-70150000D01*
X157325000Y-66880000D02*
X157325000Y-77120000D01*
X157325000Y-73851000D02*
X155815000Y-73851000D01*
X113872389Y-90023425D02*
X113872389Y-91943425D01*
X113872389Y-91943425D02*
X116732389Y-91943425D01*
X116732389Y-90023425D02*
X113872389Y-90023425D01*
X162865772Y-65670000D02*
X164195772Y-65670000D01*
X161535772Y-68270000D02*
X161535772Y-81030000D01*
X161535772Y-81030000D02*
X164195772Y-81030000D01*
X164195772Y-68270000D02*
X164195772Y-81030000D01*
X161535772Y-68270000D02*
X164195772Y-68270000D01*
X164195772Y-65670000D02*
X164195772Y-67000000D01*
X120750000Y-76750000D02*
X107250000Y-76750000D01*
X120750000Y-74500000D02*
X120750000Y-76750000D01*
X107250000Y-69250000D02*
X120750000Y-69250000D01*
X107250000Y-71500000D02*
X107250000Y-69250000D01*
X120750000Y-69250000D02*
X120750000Y-71500000D01*
X107250000Y-76750000D02*
X107250000Y-74500000D01*
X164128007Y-60121000D02*
X164128007Y-57521000D01*
X164128007Y-60121000D02*
X161468007Y-60121000D01*
X161468007Y-62721000D02*
X161468007Y-61391000D01*
X162798007Y-62721000D02*
X161468007Y-62721000D01*
X161468007Y-60121000D02*
X161468007Y-57521000D01*
X164128007Y-57521000D02*
X161468007Y-57521000D01*
X149325000Y-54420000D02*
X149325000Y-64660000D01*
X149325000Y-61391000D02*
X147815000Y-61391000D01*
X149325000Y-57690000D02*
X147815000Y-57690000D01*
X147815000Y-54420000D02*
X147815000Y-64660000D01*
X149325000Y-54420000D02*
X144684000Y-54420000D01*
X144684000Y-54420000D02*
X144684000Y-64660000D01*
X149325000Y-64660000D02*
X144684000Y-64660000D01*
X130372873Y-53527912D02*
X130372873Y-53073784D01*
X128902873Y-53527912D02*
X128902873Y-53073784D01*
X134265000Y-61227064D02*
X134265000Y-60772936D01*
X135735000Y-61227064D02*
X135735000Y-60772936D01*
X153131000Y-86040000D02*
X153131000Y-86785000D01*
X153411000Y-83557000D02*
X153411000Y-83960000D01*
X153331000Y-86040000D02*
X153331000Y-86554000D01*
X153091000Y-83174000D02*
X153091000Y-83960000D01*
X151650000Y-86040000D02*
X151650000Y-87550000D01*
X152851000Y-86040000D02*
X152851000Y-87035000D01*
X152731000Y-82878000D02*
X152731000Y-83960000D01*
X151730000Y-86040000D02*
X151730000Y-87536000D01*
X153051000Y-83136000D02*
X153051000Y-83960000D01*
X152931000Y-86040000D02*
X152931000Y-86971000D01*
X152731000Y-86040000D02*
X152731000Y-87122000D01*
X152531000Y-86040000D02*
X152531000Y-87247000D01*
X148695225Y-83275000D02*
X148695225Y-83775000D01*
X152451000Y-86040000D02*
X152451000Y-87290000D01*
X152211000Y-82602000D02*
X152211000Y-83960000D01*
X152171000Y-86040000D02*
X152171000Y-87414000D01*
X153651000Y-83989000D02*
X153651000Y-86011000D01*
X152571000Y-86040000D02*
X152571000Y-87224000D01*
X153091000Y-86040000D02*
X153091000Y-86826000D01*
X153451000Y-83617000D02*
X153451000Y-83960000D01*
X152211000Y-86040000D02*
X152211000Y-87398000D01*
X153251000Y-83347000D02*
X153251000Y-83960000D01*
X151770000Y-82472000D02*
X151770000Y-83960000D01*
X151650000Y-82450000D02*
X151650000Y-83960000D01*
X153411000Y-86040000D02*
X153411000Y-86443000D01*
X151690000Y-86040000D02*
X151690000Y-87543000D01*
X153171000Y-83257000D02*
X153171000Y-83960000D01*
X151250000Y-82420000D02*
X151250000Y-87580000D01*
X153291000Y-83395000D02*
X153291000Y-83960000D01*
X151971000Y-82520000D02*
X151971000Y-83960000D01*
X153291000Y-86040000D02*
X153291000Y-86605000D01*
X152331000Y-82652000D02*
X152331000Y-83960000D01*
X151930000Y-86040000D02*
X151930000Y-87491000D01*
X152931000Y-83029000D02*
X152931000Y-83960000D01*
X153451000Y-86040000D02*
X153451000Y-86383000D01*
X153851000Y-84716000D02*
X153851000Y-85284000D01*
X152371000Y-86040000D02*
X152371000Y-87329000D01*
X151410000Y-82424000D02*
X151410000Y-87576000D01*
X153691000Y-84085000D02*
X153691000Y-85915000D01*
X152571000Y-82776000D02*
X152571000Y-83960000D01*
X152091000Y-82558000D02*
X152091000Y-83960000D01*
X151690000Y-82457000D02*
X151690000Y-83960000D01*
X152291000Y-86040000D02*
X152291000Y-87365000D01*
X152131000Y-82572000D02*
X152131000Y-83960000D01*
X152131000Y-86040000D02*
X152131000Y-87428000D01*
X152851000Y-82965000D02*
X152851000Y-83960000D01*
X152491000Y-86040000D02*
X152491000Y-87268000D01*
X153491000Y-86040000D02*
X153491000Y-86319000D01*
X152771000Y-82905000D02*
X152771000Y-83960000D01*
X152891000Y-82996000D02*
X152891000Y-83960000D01*
X151890000Y-86040000D02*
X151890000Y-87501000D01*
X152971000Y-86040000D02*
X152971000Y-86937000D01*
X152691000Y-86040000D02*
X152691000Y-87149000D01*
X153371000Y-86040000D02*
X153371000Y-86500000D01*
X151570000Y-86040000D02*
X151570000Y-87561000D01*
X153491000Y-83681000D02*
X153491000Y-83960000D01*
X153571000Y-83822000D02*
X153571000Y-86178000D01*
X153371000Y-83500000D02*
X153371000Y-83960000D01*
X152611000Y-82800000D02*
X152611000Y-83960000D01*
X151850000Y-86040000D02*
X151850000Y-87511000D01*
X152491000Y-82732000D02*
X152491000Y-83960000D01*
X151971000Y-86040000D02*
X151971000Y-87480000D01*
X152531000Y-82753000D02*
X152531000Y-83960000D01*
X151290000Y-82420000D02*
X151290000Y-87580000D01*
X153171000Y-86040000D02*
X153171000Y-86743000D01*
X151850000Y-82489000D02*
X151850000Y-83960000D01*
X152411000Y-82690000D02*
X152411000Y-83960000D01*
X152331000Y-86040000D02*
X152331000Y-87348000D01*
X151530000Y-82435000D02*
X151530000Y-83960000D01*
X153731000Y-84195000D02*
X153731000Y-85805000D01*
X151610000Y-86040000D02*
X151610000Y-87556000D01*
X152811000Y-82935000D02*
X152811000Y-83960000D01*
X153131000Y-83215000D02*
X153131000Y-83960000D01*
X152251000Y-86040000D02*
X152251000Y-87382000D01*
X153811000Y-84482000D02*
X153811000Y-85518000D01*
X152811000Y-86040000D02*
X152811000Y-87065000D01*
X152451000Y-82710000D02*
X152451000Y-83960000D01*
X151730000Y-82464000D02*
X151730000Y-83960000D01*
X152411000Y-86040000D02*
X152411000Y-87310000D01*
X153211000Y-83301000D02*
X153211000Y-83960000D01*
X153051000Y-86040000D02*
X153051000Y-86864000D01*
X151330000Y-82421000D02*
X151330000Y-87579000D01*
X151370000Y-82422000D02*
X151370000Y-87578000D01*
X151490000Y-86040000D02*
X151490000Y-87569000D01*
X153331000Y-83446000D02*
X153331000Y-83960000D01*
X151770000Y-86040000D02*
X151770000Y-87528000D01*
X152891000Y-86040000D02*
X152891000Y-87004000D01*
X152011000Y-86040000D02*
X152011000Y-87468000D01*
X153251000Y-86040000D02*
X153251000Y-86653000D01*
X151810000Y-82480000D02*
X151810000Y-83960000D01*
X153771000Y-84323000D02*
X153771000Y-85677000D01*
X151810000Y-86040000D02*
X151810000Y-87520000D01*
X151530000Y-86040000D02*
X151530000Y-87565000D01*
X148445225Y-83525000D02*
X148945225Y-83525000D01*
X153531000Y-83749000D02*
X153531000Y-83960000D01*
X153011000Y-83099000D02*
X153011000Y-83960000D01*
X153611000Y-83902000D02*
X153611000Y-86098000D01*
X152011000Y-82532000D02*
X152011000Y-83960000D01*
X151610000Y-82444000D02*
X151610000Y-83960000D01*
X152291000Y-82635000D02*
X152291000Y-83960000D01*
X152611000Y-86040000D02*
X152611000Y-87200000D01*
X151890000Y-82499000D02*
X151890000Y-83960000D01*
X152771000Y-86040000D02*
X152771000Y-87095000D01*
X152371000Y-82671000D02*
X152371000Y-83960000D01*
X152691000Y-82851000D02*
X152691000Y-83960000D01*
X152051000Y-82545000D02*
X152051000Y-83960000D01*
X152651000Y-82825000D02*
X152651000Y-83960000D01*
X152971000Y-83063000D02*
X152971000Y-83960000D01*
X153211000Y-86040000D02*
X153211000Y-86699000D01*
X151450000Y-82427000D02*
X151450000Y-87573000D01*
X152651000Y-86040000D02*
X152651000Y-87175000D01*
X153531000Y-86040000D02*
X153531000Y-86251000D01*
X153011000Y-86040000D02*
X153011000Y-86901000D01*
X151930000Y-82509000D02*
X151930000Y-83960000D01*
X152251000Y-82618000D02*
X152251000Y-83960000D01*
X151570000Y-82439000D02*
X151570000Y-83960000D01*
X152171000Y-82586000D02*
X152171000Y-83960000D01*
X152051000Y-86040000D02*
X152051000Y-87455000D01*
X151490000Y-82431000D02*
X151490000Y-83960000D01*
X152091000Y-86040000D02*
X152091000Y-87442000D01*
X153870000Y-85000000D02*
G75*
G03*
X153870000Y-85000000I-2620000J0D01*
G01*
X109710198Y-90239233D02*
X110164326Y-90239233D01*
X109710198Y-91709233D02*
X110164326Y-91709233D01*
X127185996Y-55232517D02*
X127185996Y-52347517D01*
X125615996Y-52347517D02*
X125615996Y-55232517D01*
X125615996Y-55232517D02*
X127185996Y-55232517D01*
X122463900Y-53598477D02*
X122463900Y-53144349D01*
X123933900Y-53598477D02*
X123933900Y-53144349D01*
X120582547Y-62598906D02*
X120128419Y-62598906D01*
X120582547Y-61128906D02*
X120128419Y-61128906D01*
X100712423Y-72477595D02*
X100712423Y-77617595D01*
X102042423Y-69877595D02*
X103372423Y-69877595D01*
X103372423Y-69877595D02*
X103372423Y-71207595D01*
X103372423Y-72477595D02*
X103372423Y-77617595D01*
X100712423Y-77617595D02*
X103372423Y-77617595D01*
X100712423Y-72477595D02*
X103372423Y-72477595D01*
X116826922Y-86023425D02*
X113966922Y-86023425D01*
X113966922Y-86023425D02*
X113966922Y-87943425D01*
X113966922Y-87943425D02*
X116826922Y-87943425D01*
X122212263Y-59259282D02*
X122212263Y-57689282D01*
X119327263Y-59259282D02*
X122212263Y-59259282D01*
X122212263Y-57689282D02*
X119327263Y-57689282D01*
X110227064Y-87735000D02*
X109772936Y-87735000D01*
X110227064Y-86265000D02*
X109772936Y-86265000D01*
D15*
X108374891Y-84375952D02*
X123074891Y-84375952D01*
X123074891Y-79575952D02*
X123074891Y-80075952D01*
X108374891Y-80075952D02*
X108374891Y-79575952D01*
X108374891Y-83075952D02*
X108374891Y-84375952D01*
X108374891Y-79575952D02*
X123074891Y-79575952D01*
X123074891Y-84375952D02*
X123074891Y-83075952D01*
G36*
X131359948Y-84163284D02*
G01*
X131398693Y-84046021D01*
X131409926Y-84023681D01*
X131503705Y-83889786D01*
X131622682Y-83786776D01*
X131767343Y-83714305D01*
X131892300Y-83679919D01*
X131971386Y-83667708D01*
X132037917Y-83667999D01*
X132113559Y-83681527D01*
X132141808Y-83688414D01*
X132283632Y-83741486D01*
X132412076Y-83822648D01*
X132520204Y-83925543D01*
X132601082Y-84043817D01*
X132641916Y-84146748D01*
X132652328Y-84210951D01*
X132657029Y-84295296D01*
X132655470Y-84371093D01*
X132627189Y-84535457D01*
X132566828Y-84678994D01*
X132477984Y-84798968D01*
X132364251Y-84892645D01*
X132229225Y-84957291D01*
X132076500Y-84990170D01*
X131909673Y-84988548D01*
X131854452Y-84980396D01*
X131733577Y-84940575D01*
X131615104Y-84869456D01*
X131508274Y-84775150D01*
X131422328Y-84665770D01*
X131367712Y-84553113D01*
X131343226Y-84432286D01*
X131341551Y-84328353D01*
X131680000Y-84328353D01*
X131698052Y-84441900D01*
X131749465Y-84538732D01*
X131830120Y-84612462D01*
X131880010Y-84638618D01*
X131956565Y-84654122D01*
X132047217Y-84648950D01*
X132133333Y-84625423D01*
X132177897Y-84601497D01*
X132255381Y-84524590D01*
X132301833Y-84431815D01*
X132317295Y-84331392D01*
X132301808Y-84231540D01*
X132255415Y-84140479D01*
X132178157Y-84066430D01*
X132175157Y-84064421D01*
X132077556Y-84020976D01*
X131977185Y-84012350D01*
X131881119Y-84034770D01*
X131796434Y-84084466D01*
X131730208Y-84157664D01*
X131689515Y-84250594D01*
X131680000Y-84328353D01*
X131341551Y-84328353D01*
X131341049Y-84297191D01*
X131359948Y-84163284D01*
G37*
G36*
X129339685Y-88648993D02*
G01*
X129337056Y-88486724D01*
X129335925Y-88359488D01*
X129336707Y-88262337D01*
X129339817Y-88190318D01*
X129345668Y-88138482D01*
X129354676Y-88101877D01*
X129367253Y-88075552D01*
X129383816Y-88054557D01*
X129389969Y-88048212D01*
X129439938Y-87998243D01*
X130011761Y-88004121D01*
X130583583Y-88010000D01*
X130621791Y-88057215D01*
X130634843Y-88076406D01*
X130644553Y-88101024D01*
X130651407Y-88136819D01*
X130655892Y-88189540D01*
X130658495Y-88264938D01*
X130659702Y-88368762D01*
X130659999Y-88506762D01*
X130660000Y-88508729D01*
X130659857Y-88645620D01*
X130659035Y-88748214D01*
X130656946Y-88822216D01*
X130652998Y-88873329D01*
X130646603Y-88907256D01*
X130637172Y-88929701D01*
X130624113Y-88946367D01*
X130613710Y-88956513D01*
X130599216Y-88969053D01*
X130582418Y-88978917D01*
X130558681Y-88986426D01*
X130523374Y-88991901D01*
X130471863Y-88995662D01*
X130399516Y-88998032D01*
X130301699Y-88999331D01*
X130173780Y-88999879D01*
X130011125Y-88999999D01*
X129986011Y-89000000D01*
X129404600Y-89000000D01*
X129374455Y-88953993D01*
X129360355Y-88919711D01*
X129350325Y-88862981D01*
X129343716Y-88778113D01*
X129339898Y-88660000D01*
X129660000Y-88660000D01*
X130320000Y-88660000D01*
X130320000Y-88340000D01*
X129660000Y-88340000D01*
X129660000Y-88660000D01*
X129339898Y-88660000D01*
X129339879Y-88659416D01*
X129339685Y-88648993D01*
G37*
G36*
X129681925Y-84234327D02*
G01*
X129688565Y-84165977D01*
X129702813Y-84110217D01*
X129727123Y-84053386D01*
X129731567Y-84044370D01*
X129792535Y-83950993D01*
X129877782Y-83857608D01*
X129973832Y-83777418D01*
X130052035Y-83730374D01*
X130113503Y-83707480D01*
X130193480Y-83685675D01*
X130248371Y-83674422D01*
X130321472Y-83664538D01*
X130381828Y-83665191D01*
X130447690Y-83677870D01*
X130510549Y-83695824D01*
X130667245Y-83761814D01*
X130795269Y-83855406D01*
X130893933Y-83975924D01*
X130962546Y-84122689D01*
X130970441Y-84147725D01*
X130996083Y-84300838D01*
X130985126Y-84453382D01*
X130940511Y-84598969D01*
X130865178Y-84731216D01*
X130762067Y-84843735D01*
X130634120Y-84930143D01*
X130603346Y-84944830D01*
X130526393Y-84968507D01*
X130426810Y-84985067D01*
X130320792Y-84993107D01*
X130224536Y-84991221D01*
X130168760Y-84982518D01*
X130072801Y-84946095D01*
X129971519Y-84889283D01*
X129880990Y-84822146D01*
X129828461Y-84769428D01*
X129758202Y-84672232D01*
X129713086Y-84577619D01*
X129688675Y-84472375D01*
X129680529Y-84343289D01*
X129680523Y-84342261D01*
X130020000Y-84342261D01*
X130023035Y-84414522D01*
X130035826Y-84464055D01*
X130063898Y-84507907D01*
X130079788Y-84526703D01*
X130133346Y-84578118D01*
X130191617Y-84620700D01*
X130204788Y-84628077D01*
X130284299Y-84650953D01*
X130377149Y-84652153D01*
X130465411Y-84632902D01*
X130516489Y-84606753D01*
X130557187Y-84565617D01*
X130599612Y-84505394D01*
X130617235Y-84473724D01*
X130651081Y-84367556D01*
X130648072Y-84265390D01*
X130611326Y-84172797D01*
X130543957Y-84095350D01*
X130449081Y-84038621D01*
X130359401Y-84012592D01*
X130294212Y-84011011D01*
X130223716Y-84033353D01*
X130199562Y-84044919D01*
X130107072Y-84107917D01*
X130049023Y-84188329D01*
X130022469Y-84291033D01*
X130020000Y-84342261D01*
X129680523Y-84342261D01*
X129680439Y-84328926D01*
X129681925Y-84234327D01*
G37*
G36*
X131554481Y-88184321D02*
G01*
X131599750Y-88201269D01*
X131630061Y-88236818D01*
X131649207Y-88296942D01*
X131660984Y-88387615D01*
X131665915Y-88456285D01*
X131670490Y-88580146D01*
X131665713Y-88670977D01*
X131649867Y-88735012D01*
X131621236Y-88778488D01*
X131578103Y-88807637D01*
X131567935Y-88812151D01*
X131515971Y-88832139D01*
X131481342Y-88836793D01*
X131444888Y-88827158D01*
X131426307Y-88819860D01*
X131386538Y-88795828D01*
X131358954Y-88756966D01*
X131341656Y-88696922D01*
X131332741Y-88609346D01*
X131330311Y-88499166D01*
X131332920Y-88377689D01*
X131342937Y-88290623D01*
X131363026Y-88232661D01*
X131395849Y-88198494D01*
X131444069Y-88182818D01*
X131490461Y-88180000D01*
X131554481Y-88184321D01*
G37*
G36*
X132892309Y-88182083D02*
G01*
X132952516Y-88224866D01*
X132970744Y-88248328D01*
X132985716Y-88279154D01*
X132994712Y-88321558D01*
X132998535Y-88383898D01*
X132997992Y-88474532D01*
X132996790Y-88518716D01*
X132992770Y-88618765D01*
X132987044Y-88686973D01*
X132978137Y-88731498D01*
X132964572Y-88760496D01*
X132950000Y-88777404D01*
X132878099Y-88821474D01*
X132794836Y-88827242D01*
X132787088Y-88825912D01*
X132744636Y-88812646D01*
X132714743Y-88787497D01*
X132695245Y-88744276D01*
X132683981Y-88676793D01*
X132678787Y-88578856D01*
X132677761Y-88512927D01*
X132678237Y-88401938D01*
X132682307Y-88323637D01*
X132690716Y-88270813D01*
X132704210Y-88236254D01*
X132706766Y-88232128D01*
X132758414Y-88185038D01*
X132823935Y-88168581D01*
X132892309Y-88182083D01*
G37*
G36*
X131850954Y-85344085D02*
G01*
X131870508Y-85348340D01*
X131922509Y-85366207D01*
X131958657Y-85393725D01*
X131981679Y-85437576D01*
X131994301Y-85504441D01*
X131999248Y-85601001D01*
X131999693Y-85665000D01*
X131998326Y-85757149D01*
X131994853Y-85835048D01*
X131989823Y-85889684D01*
X131984693Y-85911159D01*
X131931546Y-85961095D01*
X131863062Y-85990690D01*
X131792878Y-85996462D01*
X131734723Y-85975000D01*
X131698802Y-85932234D01*
X131675258Y-85865043D01*
X131662817Y-85768188D01*
X131660000Y-85668055D01*
X131666864Y-85534891D01*
X131688232Y-85437674D01*
X131725263Y-85374641D01*
X131779117Y-85344032D01*
X131850954Y-85344085D01*
G37*
G36*
X131226562Y-85348694D02*
G01*
X131278595Y-85377728D01*
X131313094Y-85431529D01*
X131332641Y-85514524D01*
X131339821Y-85631138D01*
X131340000Y-85658116D01*
X131334027Y-85791596D01*
X131315755Y-85889099D01*
X131284649Y-85952876D01*
X131265752Y-85971609D01*
X131204817Y-85995727D01*
X131132210Y-85994413D01*
X131066392Y-85968538D01*
X131057215Y-85961767D01*
X131037557Y-85943736D01*
X131024276Y-85922254D01*
X131016126Y-85889724D01*
X131011861Y-85838549D01*
X131010236Y-85761132D01*
X131010000Y-85673866D01*
X131012063Y-85549706D01*
X131019793Y-85460069D01*
X131035497Y-85399616D01*
X131061485Y-85363012D01*
X131100064Y-85344919D01*
X131153542Y-85340000D01*
X131154414Y-85340000D01*
X131226562Y-85348694D01*
G37*
G36*
X129910430Y-85360606D02*
G01*
X129966639Y-85416935D01*
X129978123Y-85436283D01*
X129992425Y-85485502D01*
X130001706Y-85561839D01*
X130005817Y-85652710D01*
X130004613Y-85745532D01*
X129997944Y-85827722D01*
X129985664Y-85886694D01*
X129983478Y-85892405D01*
X129937258Y-85958461D01*
X129871632Y-85991551D01*
X129793431Y-85988904D01*
X129767139Y-85980168D01*
X129721888Y-85954388D01*
X129690884Y-85915405D01*
X129671795Y-85856404D01*
X129662289Y-85770571D01*
X129660000Y-85667084D01*
X129660717Y-85573231D01*
X129664126Y-85509706D01*
X129672111Y-85466841D01*
X129686557Y-85434973D01*
X129709347Y-85404435D01*
X129711777Y-85401534D01*
X129774850Y-85351842D01*
X129843784Y-85338554D01*
X129910430Y-85360606D01*
G37*
G36*
X130593894Y-85359794D02*
G01*
X130618217Y-85378217D01*
X130648820Y-85431071D01*
X130668378Y-85510503D01*
X130677317Y-85606622D01*
X130676065Y-85709538D01*
X130665050Y-85809361D01*
X130644698Y-85896203D01*
X130615437Y-85960172D01*
X130592005Y-85984693D01*
X130542842Y-85998359D01*
X130477579Y-85993567D01*
X130420394Y-85974311D01*
X130377518Y-85945708D01*
X130348973Y-85906495D01*
X130332895Y-85849663D01*
X130327422Y-85768202D01*
X130330690Y-85655103D01*
X130331527Y-85640000D01*
X130337839Y-85544181D01*
X130345068Y-85479533D01*
X130355337Y-85437241D01*
X130370765Y-85408494D01*
X130392903Y-85385000D01*
X130456095Y-85349356D01*
X130528117Y-85340803D01*
X130593894Y-85359794D01*
G37*
G36*
X132254379Y-88198718D02*
G01*
X132267977Y-88206835D01*
X132301916Y-88239429D01*
X132324355Y-88288714D01*
X132336463Y-88360733D01*
X132339407Y-88461525D01*
X132336283Y-88560072D01*
X132327542Y-88668361D01*
X132311014Y-88742675D01*
X132282994Y-88788834D01*
X132239775Y-88812654D01*
X132177653Y-88819954D01*
X132170722Y-88820000D01*
X132109660Y-88814160D01*
X132061775Y-88799666D01*
X132054041Y-88795000D01*
X132023938Y-88751457D01*
X132002912Y-88679090D01*
X131991073Y-88588056D01*
X131988534Y-88488513D01*
X131995407Y-88390618D01*
X132011802Y-88304530D01*
X132037832Y-88240406D01*
X132047794Y-88226669D01*
X132106734Y-88186312D01*
X132179869Y-88176610D01*
X132254379Y-88198718D01*
G37*
G36*
X134343385Y-89363760D02*
G01*
X134348352Y-89260562D01*
X134354145Y-89183461D01*
X134361680Y-89125510D01*
X134371872Y-89079764D01*
X134385636Y-89039277D01*
X134403888Y-88997103D01*
X134404879Y-88994947D01*
X134486984Y-88859028D01*
X134599490Y-88734582D01*
X134732839Y-88631269D01*
X134805710Y-88589871D01*
X134876158Y-88556485D01*
X134935363Y-88531782D01*
X134972258Y-88520309D01*
X134975735Y-88520000D01*
X134988766Y-88515056D01*
X134996470Y-88495887D01*
X134999349Y-88455990D01*
X134997902Y-88388859D01*
X134993038Y-88295000D01*
X134983679Y-88163205D01*
X134971336Y-88063246D01*
X134953424Y-87986959D01*
X134927356Y-87926181D01*
X134890543Y-87872749D01*
X134842784Y-87820879D01*
X134788604Y-87771862D01*
X134733182Y-87735452D01*
X134669463Y-87709872D01*
X134590390Y-87693347D01*
X134488907Y-87684102D01*
X134357958Y-87680361D01*
X134282869Y-87680000D01*
X134003451Y-87679999D01*
X133996251Y-88595000D01*
X133994525Y-88810008D01*
X133992902Y-88988786D01*
X133991181Y-89135105D01*
X133989162Y-89252732D01*
X133986646Y-89345439D01*
X133983432Y-89416993D01*
X133979319Y-89471165D01*
X133974108Y-89511723D01*
X133967597Y-89542438D01*
X133959588Y-89567078D01*
X133949880Y-89589413D01*
X133942639Y-89604327D01*
X133857839Y-89738255D01*
X133747873Y-89852994D01*
X133637108Y-89930199D01*
X133530000Y-89989050D01*
X133095000Y-89996726D01*
X132660000Y-90004403D01*
X132660000Y-91014733D01*
X132740931Y-91025588D01*
X132823072Y-91046546D01*
X132925470Y-91087547D01*
X133037412Y-91143321D01*
X133148183Y-91208598D01*
X133234182Y-91268199D01*
X133354358Y-91379897D01*
X133464100Y-91522516D01*
X133557075Y-91687187D01*
X133594413Y-91772782D01*
X133611292Y-91816685D01*
X133624344Y-91856417D01*
X133634155Y-91897971D01*
X133641306Y-91947337D01*
X133646380Y-92010507D01*
X133649962Y-92093470D01*
X133652633Y-92202218D01*
X133654978Y-92342742D01*
X133655884Y-92404376D01*
X133663065Y-92898752D01*
X133612441Y-92949376D01*
X133561818Y-93000000D01*
X131426972Y-93000000D01*
X131379811Y-92949799D01*
X131364202Y-92932063D01*
X131352488Y-92912877D01*
X131344113Y-92886628D01*
X131338523Y-92847699D01*
X131335163Y-92790474D01*
X131333480Y-92709339D01*
X131333230Y-92660000D01*
X131680000Y-92660000D01*
X131974010Y-92660000D01*
X131986861Y-92478953D01*
X131997892Y-92362345D01*
X132014065Y-92280042D01*
X132038887Y-92226385D01*
X132075866Y-92195714D01*
X132128509Y-92182368D01*
X132171900Y-92180306D01*
X132233685Y-92185476D01*
X132277459Y-92205329D01*
X132306566Y-92245570D01*
X132324351Y-92311903D01*
X132334158Y-92410034D01*
X132336674Y-92461379D01*
X132344652Y-92660000D01*
X132680000Y-92660000D01*
X132680000Y-92460000D01*
X132683136Y-92347428D01*
X132694659Y-92268863D01*
X132717734Y-92218651D01*
X132755528Y-92191141D01*
X132811210Y-92180680D01*
X132836900Y-92180000D01*
X132897530Y-92185911D01*
X132940490Y-92207385D01*
X132968962Y-92250029D01*
X132986126Y-92319450D01*
X132995163Y-92421258D01*
X132996874Y-92462051D01*
X133003748Y-92660000D01*
X133340000Y-92660000D01*
X133339382Y-92445000D01*
X133333493Y-92244704D01*
X133315815Y-92076787D01*
X133284454Y-91934869D01*
X133237511Y-91812571D01*
X133173090Y-91703513D01*
X133089294Y-91601316D01*
X133088174Y-91600117D01*
X132968921Y-91497857D01*
X132828541Y-91418905D01*
X132676436Y-91366459D01*
X132522008Y-91343718D01*
X132374658Y-91353880D01*
X132368195Y-91355193D01*
X132188098Y-91411428D01*
X132029936Y-91498532D01*
X131896905Y-91613663D01*
X131792203Y-91753977D01*
X131719023Y-91916633D01*
X131712182Y-91938630D01*
X131697502Y-92004008D01*
X131687599Y-92088274D01*
X131681945Y-92198242D01*
X131680009Y-92340730D01*
X131680000Y-92353630D01*
X131680000Y-92660000D01*
X131333230Y-92660000D01*
X131332919Y-92598677D01*
X131332911Y-92474799D01*
X131335535Y-92264427D01*
X131344313Y-92087960D01*
X131361027Y-91939542D01*
X131387461Y-91813317D01*
X131425397Y-91703431D01*
X131476617Y-91604027D01*
X131542905Y-91509250D01*
X131626042Y-91413245D01*
X131670000Y-91367498D01*
X131783725Y-91260574D01*
X131892432Y-91179620D01*
X132009973Y-91116142D01*
X132150201Y-91061641D01*
X132190000Y-91048559D01*
X132330000Y-91003779D01*
X132335342Y-90514909D01*
X132340685Y-90026038D01*
X132157270Y-90013019D01*
X132100008Y-90010387D01*
X132007597Y-90007934D01*
X131884888Y-90005713D01*
X131736731Y-90003779D01*
X131567978Y-90002186D01*
X131383480Y-90000989D01*
X131188086Y-90000242D01*
X130996927Y-90000000D01*
X130020000Y-90000000D01*
X130020000Y-91013441D01*
X130144929Y-91048175D01*
X130334281Y-91120971D01*
X130510221Y-91228174D01*
X130666949Y-91364922D01*
X130798668Y-91526355D01*
X130879053Y-91663719D01*
X130917181Y-91746179D01*
X130946702Y-91825191D01*
X130968537Y-91907366D01*
X130983606Y-91999313D01*
X130992828Y-92107644D01*
X130997123Y-92238970D01*
X130997411Y-92399901D01*
X130996166Y-92505394D01*
X130993765Y-92645176D01*
X130990970Y-92750568D01*
X130987232Y-92827178D01*
X130982001Y-92880615D01*
X130974730Y-92916489D01*
X130964870Y-92940407D01*
X130951900Y-92957950D01*
X130942904Y-92967131D01*
X130931762Y-92974868D01*
X130915207Y-92981284D01*
X130889973Y-92986504D01*
X130852795Y-92990649D01*
X130800407Y-92993845D01*
X130729544Y-92996215D01*
X130636939Y-92997882D01*
X130519327Y-92998969D01*
X130373443Y-92999602D01*
X130196020Y-92999902D01*
X129983792Y-92999993D01*
X129840671Y-93000000D01*
X129606039Y-92999954D01*
X129408130Y-92999740D01*
X129243669Y-92999244D01*
X129109378Y-92998350D01*
X129001981Y-92996945D01*
X128918202Y-92994913D01*
X128854765Y-92992139D01*
X128808393Y-92988510D01*
X128775809Y-92983910D01*
X128753737Y-92978224D01*
X128738901Y-92971338D01*
X128728024Y-92963138D01*
X128725647Y-92960968D01*
X128697918Y-92912063D01*
X128677956Y-92824806D01*
X128665836Y-92700097D01*
X128664791Y-92660000D01*
X129000000Y-92660000D01*
X129340000Y-92660000D01*
X129340000Y-92460000D01*
X129343073Y-92347591D01*
X129354465Y-92269164D01*
X129377430Y-92219023D01*
X129415223Y-92191470D01*
X129471098Y-92180810D01*
X129500000Y-92180000D01*
X129564233Y-92185379D01*
X129609048Y-92205314D01*
X129637701Y-92245502D01*
X129653445Y-92311640D01*
X129659536Y-92409423D01*
X129660000Y-92460000D01*
X129660000Y-92660000D01*
X130000000Y-92660000D01*
X130000000Y-92472697D01*
X130001260Y-92380264D01*
X130006211Y-92317762D01*
X130016610Y-92275167D01*
X130034214Y-92242456D01*
X130042241Y-92231692D01*
X130074659Y-92198144D01*
X130111799Y-92184049D01*
X130170209Y-92183561D01*
X130177241Y-92183995D01*
X130236685Y-92191104D01*
X130271661Y-92208637D01*
X130297682Y-92245825D01*
X130304968Y-92260000D01*
X130326550Y-92323530D01*
X130337683Y-92410938D01*
X130339968Y-92495000D01*
X130340000Y-92660000D01*
X130664537Y-92660000D01*
X130656991Y-92314017D01*
X130654071Y-92188554D01*
X130650808Y-92095353D01*
X130646013Y-92026682D01*
X130638497Y-91974813D01*
X130627073Y-91932015D01*
X130610552Y-91890558D01*
X130587747Y-91842712D01*
X130583083Y-91833231D01*
X130487607Y-91679235D01*
X130367963Y-91551127D01*
X130229099Y-91451596D01*
X130075966Y-91383331D01*
X129913511Y-91349024D01*
X129746682Y-91351363D01*
X129707750Y-91357453D01*
X129531902Y-91408774D01*
X129375042Y-91492387D01*
X129241034Y-91604503D01*
X129133744Y-91741337D01*
X129057036Y-91899102D01*
X129021765Y-92029605D01*
X129013199Y-92096746D01*
X129006220Y-92191054D01*
X129001573Y-92299706D01*
X129000000Y-92403673D01*
X129000000Y-92660000D01*
X128664791Y-92660000D01*
X128661633Y-92538838D01*
X128665421Y-92341929D01*
X128668387Y-92270375D01*
X128676203Y-92123661D01*
X128685530Y-92008308D01*
X128698115Y-91915676D01*
X128715703Y-91837128D01*
X128740042Y-91764024D01*
X128772877Y-91687727D01*
X128795817Y-91640000D01*
X128900921Y-91470829D01*
X129038366Y-91321134D01*
X129203827Y-91194398D01*
X129392980Y-91094102D01*
X129540000Y-91040639D01*
X129650000Y-91007638D01*
X129655338Y-90506058D01*
X129660677Y-90004479D01*
X129235338Y-89996997D01*
X129092912Y-89994243D01*
X128984320Y-89991231D01*
X128903399Y-89987315D01*
X128843984Y-89981851D01*
X128799913Y-89974193D01*
X128765022Y-89963697D01*
X128733147Y-89949718D01*
X128720000Y-89943078D01*
X128604732Y-89866303D01*
X128498137Y-89763843D01*
X128414320Y-89649645D01*
X128403316Y-89630000D01*
X128350000Y-89530000D01*
X128344250Y-88607615D01*
X128343988Y-88565605D01*
X128661422Y-88565605D01*
X128661700Y-88735511D01*
X128663031Y-88891642D01*
X128665372Y-89025775D01*
X128668674Y-89129686D01*
X128669397Y-89145137D01*
X128677809Y-89280459D01*
X128689266Y-89382545D01*
X128706256Y-89458156D01*
X128731267Y-89514054D01*
X128766787Y-89557000D01*
X128815303Y-89593753D01*
X128840067Y-89608918D01*
X128870035Y-89624050D01*
X128905615Y-89635498D01*
X128953374Y-89644071D01*
X129019877Y-89650574D01*
X129111692Y-89655816D01*
X129235385Y-89660603D01*
X129270000Y-89661756D01*
X129345643Y-89663489D01*
X129454565Y-89664918D01*
X129593341Y-89666054D01*
X129758548Y-89666909D01*
X129946761Y-89667497D01*
X130154556Y-89667828D01*
X130378508Y-89667915D01*
X130615194Y-89667770D01*
X130861189Y-89667405D01*
X131113069Y-89666833D01*
X131367409Y-89666064D01*
X131620786Y-89665112D01*
X131869775Y-89663989D01*
X132110952Y-89662706D01*
X132340893Y-89661277D01*
X132556174Y-89659711D01*
X132753370Y-89658023D01*
X132929056Y-89656224D01*
X133079810Y-89654326D01*
X133202206Y-89652342D01*
X133292821Y-89650282D01*
X133348230Y-89648161D01*
X133359770Y-89647297D01*
X133469440Y-89622776D01*
X133553515Y-89571890D01*
X133618589Y-89492281D01*
X133628334Y-89475375D01*
X133636417Y-89456596D01*
X133642993Y-89432269D01*
X133648219Y-89398722D01*
X133652248Y-89352277D01*
X133655236Y-89289262D01*
X133657339Y-89206002D01*
X133658711Y-89098821D01*
X133659507Y-88964046D01*
X133659883Y-88798002D01*
X133659994Y-88597014D01*
X133660000Y-88511646D01*
X133660007Y-88289491D01*
X133659743Y-88103673D01*
X133658781Y-87950532D01*
X133656691Y-87826403D01*
X133653045Y-87727625D01*
X133647414Y-87650536D01*
X133639372Y-87591474D01*
X133628488Y-87546776D01*
X133614335Y-87512780D01*
X133596485Y-87485825D01*
X133574509Y-87462247D01*
X133547978Y-87438386D01*
X133532932Y-87425257D01*
X133463821Y-87364577D01*
X133016910Y-87350286D01*
X132929317Y-87348224D01*
X132805512Y-87346410D01*
X132649281Y-87344855D01*
X132464410Y-87343571D01*
X132254688Y-87342571D01*
X132023900Y-87341867D01*
X131775834Y-87341471D01*
X131514276Y-87341395D01*
X131243013Y-87341651D01*
X130965832Y-87342252D01*
X130740000Y-87342998D01*
X128910000Y-87350000D01*
X128836008Y-87396008D01*
X128776353Y-87444024D01*
X128724775Y-87502990D01*
X128717911Y-87513378D01*
X128705617Y-87534744D01*
X128695749Y-87557811D01*
X128687958Y-87587170D01*
X128681892Y-87627410D01*
X128677203Y-87683121D01*
X128673540Y-87758891D01*
X128670553Y-87859310D01*
X128667893Y-87988969D01*
X128665208Y-88152455D01*
X128664215Y-88217370D01*
X128662245Y-88390150D01*
X128661422Y-88565605D01*
X128343988Y-88565605D01*
X128338501Y-87685230D01*
X127854250Y-87674714D01*
X127656756Y-87668872D01*
X127493821Y-87659722D01*
X127360040Y-87645716D01*
X127250012Y-87625305D01*
X127158333Y-87596943D01*
X127079599Y-87559081D01*
X127008408Y-87510171D01*
X126939357Y-87448666D01*
X126890708Y-87398688D01*
X126796118Y-87273583D01*
X126727211Y-87126494D01*
X126682939Y-86954080D01*
X126662251Y-86752999D01*
X126660347Y-86665000D01*
X126658795Y-86573803D01*
X126653959Y-86516566D01*
X126644946Y-86487321D01*
X126632687Y-86480000D01*
X126602650Y-86471484D01*
X126547953Y-86448945D01*
X126479377Y-86416899D01*
X126465398Y-86409973D01*
X126311680Y-86311286D01*
X126184033Y-86182542D01*
X126083765Y-86025090D01*
X126073699Y-86004466D01*
X126010000Y-85870000D01*
X126010000Y-85475758D01*
X126010205Y-85340000D01*
X126335786Y-85340000D01*
X126342893Y-85575000D01*
X126346802Y-85678670D01*
X126352406Y-85752269D01*
X126361592Y-85805724D01*
X126376245Y-85848963D01*
X126398250Y-85891914D01*
X126405445Y-85904322D01*
X126493791Y-86017690D01*
X126606848Y-86099705D01*
X126671814Y-86128534D01*
X126787480Y-86155328D01*
X126904902Y-86148762D01*
X127008601Y-86118805D01*
X127105876Y-86066830D01*
X127194151Y-85991548D01*
X127262980Y-85903594D01*
X127299651Y-85822453D01*
X127308332Y-85771115D01*
X127315157Y-85692580D01*
X127319193Y-85599640D01*
X127319888Y-85545000D01*
X127320000Y-85340000D01*
X126335786Y-85340000D01*
X126010205Y-85340000D01*
X126010220Y-85330046D01*
X126012197Y-85219308D01*
X126017902Y-85138519D01*
X126029307Y-85082654D01*
X126048385Y-85046687D01*
X126077106Y-85025594D01*
X126117445Y-85014348D01*
X126171371Y-85007924D01*
X126194412Y-85005832D01*
X126314079Y-84994981D01*
X126327277Y-84718507D01*
X126332853Y-84615547D01*
X126338953Y-84525696D01*
X126344931Y-84457162D01*
X126350138Y-84418155D01*
X126351337Y-84413725D01*
X126381473Y-84380851D01*
X126435612Y-84353946D01*
X126497786Y-84340439D01*
X126509825Y-84340000D01*
X126557734Y-84352793D01*
X126608657Y-84383826D01*
X126611475Y-84386196D01*
X126632667Y-84405871D01*
X126647684Y-84427107D01*
X126657913Y-84457061D01*
X126664741Y-84502891D01*
X126669552Y-84571756D01*
X126673735Y-84670814D01*
X126675388Y-84716196D01*
X126685594Y-84999999D01*
X126832797Y-84999999D01*
X126980000Y-85000000D01*
X126980402Y-84835000D01*
X126984683Y-84672555D01*
X126997419Y-84546293D01*
X127019772Y-84453066D01*
X127052909Y-84389727D01*
X127097993Y-84353129D01*
X127156188Y-84340125D01*
X127163530Y-84340000D01*
X127223381Y-84346362D01*
X127268540Y-84368424D01*
X127300868Y-84410647D01*
X127322229Y-84477495D01*
X127334484Y-84573429D01*
X127339495Y-84702911D01*
X127339888Y-84762596D01*
X127340000Y-84995192D01*
X127462974Y-85004087D01*
X127526284Y-85009770D01*
X127574662Y-85019723D01*
X127610009Y-85038800D01*
X127634222Y-85071855D01*
X127649201Y-85123742D01*
X127656844Y-85199313D01*
X127659051Y-85303424D01*
X127657720Y-85440926D01*
X127656744Y-85499369D01*
X127654286Y-85633659D01*
X127651584Y-85734923D01*
X127647713Y-85810130D01*
X127641749Y-85866250D01*
X127632767Y-85910250D01*
X127619842Y-85949100D01*
X127602049Y-85989768D01*
X127587665Y-86020000D01*
X127523189Y-86128824D01*
X127440498Y-86232357D01*
X127417665Y-86255928D01*
X127345223Y-86318610D01*
X127261186Y-86378176D01*
X127175535Y-86428790D01*
X127098247Y-86464621D01*
X127039302Y-86479835D01*
X127034340Y-86480000D01*
X127017716Y-86482228D01*
X127006988Y-86493377D01*
X127001288Y-86520142D01*
X126999752Y-86569220D01*
X127001513Y-86647306D01*
X127003948Y-86715000D01*
X127012134Y-86846915D01*
X127027483Y-86948380D01*
X127053213Y-87028748D01*
X127092540Y-87097373D01*
X127148682Y-87163609D01*
X127163395Y-87178575D01*
X127205655Y-87218582D01*
X127246742Y-87250309D01*
X127291970Y-87274873D01*
X127346654Y-87293391D01*
X127416107Y-87306981D01*
X127505643Y-87316760D01*
X127620577Y-87323846D01*
X127766223Y-87329356D01*
X127898336Y-87333114D01*
X128401378Y-87346438D01*
X128501201Y-87234439D01*
X128600386Y-87140816D01*
X128706644Y-87070693D01*
X128715511Y-87066220D01*
X128830000Y-87010000D01*
X129417748Y-87003172D01*
X129690831Y-87000000D01*
X130340000Y-87000000D01*
X131980000Y-87000000D01*
X131980000Y-86660000D01*
X130340000Y-86660000D01*
X130340000Y-87000000D01*
X129690831Y-87000000D01*
X130005497Y-86996345D01*
X129994144Y-86846235D01*
X129987054Y-86772297D01*
X129978745Y-86714779D01*
X129970849Y-86684591D01*
X129969768Y-86683062D01*
X129945835Y-86677137D01*
X129890117Y-86670540D01*
X129810799Y-86664056D01*
X129716069Y-86658472D01*
X129711392Y-86658246D01*
X129572037Y-86648194D01*
X129463453Y-86630869D01*
X129376596Y-86602841D01*
X129302421Y-86560681D01*
X129231886Y-86500960D01*
X129193807Y-86462001D01*
X129126516Y-86385444D01*
X129077989Y-86315772D01*
X129044855Y-86243471D01*
X129023742Y-86159022D01*
X129017540Y-86106224D01*
X129340000Y-86106224D01*
X129391331Y-86173523D01*
X129445436Y-86235582D01*
X129502087Y-86277048D01*
X129572106Y-86302838D01*
X129666312Y-86317869D01*
X129718957Y-86322395D01*
X129767559Y-86324434D01*
X129852452Y-86326298D01*
X129969928Y-86327966D01*
X130116279Y-86329413D01*
X130287796Y-86330616D01*
X130480771Y-86331553D01*
X130691496Y-86332201D01*
X130916261Y-86332535D01*
X131151360Y-86332533D01*
X131310000Y-86332337D01*
X131583241Y-86331823D01*
X131819369Y-86331239D01*
X132021271Y-86330510D01*
X132191833Y-86329558D01*
X132333943Y-86328305D01*
X132450488Y-86326673D01*
X132544354Y-86324587D01*
X132618428Y-86321967D01*
X132675597Y-86318737D01*
X132718749Y-86314819D01*
X132750769Y-86310136D01*
X132774545Y-86304610D01*
X132792963Y-86298165D01*
X132805901Y-86292235D01*
X132863522Y-86252197D01*
X132920789Y-86194866D01*
X132940901Y-86168689D01*
X133000000Y-86082792D01*
X132999931Y-85340000D01*
X133340000Y-85340000D01*
X133410642Y-85340000D01*
X133479774Y-85331712D01*
X133548991Y-85311700D01*
X133550769Y-85310967D01*
X133607725Y-85274223D01*
X133640127Y-85229665D01*
X133646414Y-85193570D01*
X133651883Y-85124811D01*
X133656196Y-85030722D01*
X133659014Y-84918635D01*
X133660000Y-84798404D01*
X133660000Y-84419412D01*
X133595000Y-84379780D01*
X133513041Y-84348551D01*
X133435000Y-84340074D01*
X133340000Y-84340000D01*
X133340000Y-85340000D01*
X132999931Y-85340000D01*
X132999888Y-84876396D01*
X132999509Y-84581286D01*
X132998483Y-84340000D01*
X132998422Y-84325593D01*
X132996618Y-84108742D01*
X132994087Y-83930156D01*
X132990819Y-83789258D01*
X132986804Y-83685473D01*
X132982032Y-83618224D01*
X132977692Y-83590450D01*
X132949528Y-83527680D01*
X132904143Y-83461822D01*
X132882394Y-83437688D01*
X132848350Y-83404965D01*
X132818208Y-83383240D01*
X132782317Y-83369540D01*
X132731025Y-83360893D01*
X132654678Y-83354327D01*
X132599590Y-83350597D01*
X132544184Y-83348356D01*
X132452632Y-83346417D01*
X132328785Y-83344798D01*
X132176495Y-83343516D01*
X131999616Y-83342588D01*
X131801998Y-83342031D01*
X131587494Y-83341863D01*
X131359956Y-83342100D01*
X131123237Y-83342761D01*
X130980000Y-83343360D01*
X129570000Y-83350000D01*
X129499238Y-83394011D01*
X129443123Y-83441054D01*
X129393093Y-83502249D01*
X129384238Y-83516734D01*
X129340000Y-83595446D01*
X129340000Y-86106224D01*
X129017540Y-86106224D01*
X129011278Y-86052911D01*
X129004548Y-85927857D01*
X128994507Y-85664727D01*
X128828503Y-85656014D01*
X128686710Y-85636837D01*
X128572987Y-85593661D01*
X128481157Y-85523166D01*
X128410528Y-85431039D01*
X128350000Y-85333136D01*
X128350000Y-84959513D01*
X128671279Y-84959513D01*
X128671693Y-85059848D01*
X128673581Y-85132003D01*
X128677556Y-85181889D01*
X128684230Y-85215415D01*
X128694213Y-85238491D01*
X128708117Y-85257026D01*
X128717485Y-85267243D01*
X128758270Y-85303058D01*
X128805355Y-85323965D01*
X128871696Y-85334334D01*
X128925000Y-85337276D01*
X129000000Y-85340000D01*
X129000000Y-84340000D01*
X128891115Y-84340000D01*
X128815458Y-84344748D01*
X128762767Y-84362096D01*
X128727844Y-84386780D01*
X128673458Y-84433561D01*
X128671729Y-84825089D01*
X128671279Y-84959513D01*
X128350000Y-84959513D01*
X128350000Y-84323445D01*
X128410633Y-84236722D01*
X128505399Y-84131902D01*
X128619834Y-84056159D01*
X128746076Y-84014378D01*
X128775129Y-84010176D01*
X128865164Y-84000875D01*
X128926687Y-83991813D01*
X128965392Y-83976115D01*
X128986973Y-83946909D01*
X128997125Y-83897320D01*
X129001541Y-83820475D01*
X129004853Y-83732872D01*
X129010560Y-83623609D01*
X129017889Y-83544213D01*
X129028682Y-83484549D01*
X129044781Y-83434487D01*
X129068028Y-83383891D01*
X129068422Y-83383113D01*
X129156356Y-83243467D01*
X129262619Y-83138375D01*
X129390790Y-83065210D01*
X129544449Y-83021345D01*
X129566265Y-83017692D01*
X129611089Y-83014016D01*
X129693931Y-83010832D01*
X129812815Y-83008156D01*
X129965760Y-83006004D01*
X130150790Y-83004392D01*
X130365926Y-83003336D01*
X130609190Y-83002851D01*
X130878603Y-83002954D01*
X131172188Y-83003661D01*
X131261492Y-83003981D01*
X132830000Y-83010000D01*
X132928406Y-83055382D01*
X133067093Y-83134930D01*
X133173257Y-83232549D01*
X133249785Y-83352404D01*
X133299562Y-83498659D01*
X133320276Y-83621078D01*
X133329599Y-83713583D01*
X133336520Y-83803974D01*
X133339756Y-83874982D01*
X133339848Y-83884093D01*
X133341473Y-83941248D01*
X133351781Y-83970305D01*
X133379286Y-83983166D01*
X133415000Y-83989148D01*
X133558144Y-84013183D01*
X133668778Y-84040170D01*
X133754387Y-84073423D01*
X133822461Y-84116253D01*
X133880485Y-84171972D01*
X133909857Y-84208035D01*
X133941434Y-84261922D01*
X133965520Y-84333325D01*
X133982606Y-84426432D01*
X133993181Y-84545427D01*
X133997734Y-84694497D01*
X133996755Y-84877827D01*
X133995459Y-84940000D01*
X133990757Y-85091549D01*
X133983537Y-85209562D01*
X133971991Y-85300497D01*
X133954312Y-85370813D01*
X133928690Y-85426966D01*
X133893319Y-85475415D01*
X133846389Y-85522617D01*
X133827632Y-85539395D01*
X133742911Y-85602646D01*
X133656232Y-85640441D01*
X133553725Y-85657602D01*
X133480642Y-85660000D01*
X133407310Y-85660617D01*
X133365182Y-85664740D01*
X133345463Y-85675775D01*
X133339358Y-85697126D01*
X133338604Y-85715000D01*
X133332509Y-85860971D01*
X133322319Y-85997199D01*
X133308877Y-86116501D01*
X133293026Y-86211699D01*
X133275608Y-86275612D01*
X133271772Y-86284507D01*
X133201651Y-86394623D01*
X133105281Y-86497342D01*
X132995908Y-86578933D01*
X132977622Y-86589363D01*
X132925557Y-86615664D01*
X132877536Y-86633142D01*
X132822460Y-86644014D01*
X132749233Y-86650494D01*
X132650514Y-86654675D01*
X132532856Y-86658404D01*
X132449300Y-86662864D01*
X132394042Y-86671526D01*
X132361278Y-86687861D01*
X132345204Y-86715340D01*
X132340015Y-86757434D01*
X132339908Y-86817615D01*
X132340000Y-86840381D01*
X132340000Y-87000000D01*
X132847270Y-86999999D01*
X133045706Y-87000850D01*
X133209093Y-87004119D01*
X133342358Y-87010888D01*
X133450430Y-87022235D01*
X133538235Y-87039241D01*
X133610702Y-87062984D01*
X133672759Y-87094543D01*
X133729333Y-87134999D01*
X133785353Y-87185431D01*
X133811176Y-87211141D01*
X133912352Y-87313955D01*
X134311176Y-87334492D01*
X134481015Y-87344523D01*
X134617166Y-87356466D01*
X134725942Y-87372262D01*
X134813652Y-87393852D01*
X134886611Y-87423177D01*
X134951129Y-87462178D01*
X135013518Y-87512794D01*
X135071436Y-87568249D01*
X135171986Y-87684180D01*
X135246618Y-87807402D01*
X135297798Y-87944948D01*
X135327993Y-88103846D01*
X135339669Y-88291128D01*
X135340000Y-88333673D01*
X135341356Y-88425179D01*
X135346011Y-88482739D01*
X135354841Y-88512333D01*
X135367312Y-88520000D01*
X135397282Y-88528516D01*
X135452005Y-88551076D01*
X135520784Y-88583194D01*
X135536205Y-88590829D01*
X135688024Y-88688736D01*
X135815135Y-88817716D01*
X135916222Y-88976394D01*
X135927796Y-89000000D01*
X135949251Y-89046255D01*
X135965170Y-89086330D01*
X135976516Y-89127367D01*
X135984255Y-89176506D01*
X135989353Y-89240886D01*
X135992775Y-89327650D01*
X135995487Y-89443937D01*
X135996779Y-89510270D01*
X135999067Y-89643524D01*
X135999797Y-89742794D01*
X135998522Y-89814081D01*
X135994798Y-89863387D01*
X135988181Y-89896712D01*
X135978225Y-89920057D01*
X135965010Y-89938778D01*
X135933068Y-89968139D01*
X135888657Y-89985257D01*
X135819014Y-89994688D01*
X135805467Y-89995732D01*
X135684985Y-90004447D01*
X135676188Y-90280093D01*
X135670449Y-90413076D01*
X135661436Y-90511222D01*
X135646889Y-90579685D01*
X135624549Y-90623615D01*
X135592154Y-90648163D01*
X135547447Y-90658482D01*
X135509538Y-90660000D01*
X135433180Y-90652212D01*
X135382567Y-90625126D01*
X135353333Y-90573151D01*
X135341112Y-90490700D01*
X135339999Y-90443017D01*
X135338089Y-90348998D01*
X135333113Y-90240576D01*
X135327065Y-90153017D01*
X135314130Y-90000000D01*
X135025698Y-90000000D01*
X135012849Y-90122933D01*
X135006319Y-90207471D01*
X135001693Y-90309483D01*
X135000000Y-90403842D01*
X134998674Y-90485886D01*
X134992931Y-90539151D01*
X134980120Y-90574818D01*
X134957589Y-90604068D01*
X134950909Y-90610909D01*
X134885347Y-90650594D01*
X134808712Y-90658675D01*
X134735287Y-90634486D01*
X134717215Y-90621812D01*
X134698762Y-90604921D01*
X134685659Y-90584440D01*
X134676787Y-90553491D01*
X134671028Y-90505197D01*
X134667261Y-90432678D01*
X134664368Y-90329057D01*
X134663524Y-90291812D01*
X134657049Y-90000000D01*
X134548840Y-90000000D01*
X134478252Y-89996286D01*
X134430202Y-89981377D01*
X134387616Y-89949620D01*
X134382683Y-89945000D01*
X134324736Y-89890000D01*
X134332790Y-89658911D01*
X134670000Y-89658911D01*
X134920000Y-89665109D01*
X135049274Y-89668150D01*
X135195620Y-89671336D01*
X135337376Y-89674207D01*
X135415000Y-89675653D01*
X135660000Y-89680000D01*
X135659122Y-89465000D01*
X135656091Y-89359143D01*
X135648585Y-89265977D01*
X135637654Y-89196663D01*
X135631997Y-89176508D01*
X135568869Y-89056725D01*
X135475998Y-88959038D01*
X135359648Y-88888122D01*
X135226085Y-88848654D01*
X135186311Y-88843862D01*
X135071119Y-88853017D01*
X134957227Y-88894989D01*
X134853565Y-88963463D01*
X134769061Y-89052123D01*
X134712646Y-89154651D01*
X134702876Y-89185837D01*
X134692568Y-89243768D01*
X134683516Y-89327380D01*
X134677128Y-89422354D01*
X134675512Y-89464455D01*
X134670000Y-89658911D01*
X134332790Y-89658911D01*
X134338329Y-89500000D01*
X134343385Y-89363760D01*
G37*
G36*
X132575604Y-85361555D02*
G01*
X132610909Y-85389090D01*
X132632555Y-85413300D01*
X132646696Y-85439855D01*
X132654918Y-85477431D01*
X132658808Y-85534704D01*
X132659953Y-85620348D01*
X132660000Y-85657455D01*
X132658908Y-85749907D01*
X132655956Y-85829520D01*
X132651623Y-85886538D01*
X132647576Y-85909103D01*
X132619952Y-85941778D01*
X132571495Y-85974088D01*
X132520054Y-85995480D01*
X132495993Y-85998732D01*
X132457401Y-85990573D01*
X132426307Y-85979860D01*
X132390853Y-85958879D01*
X132366283Y-85925015D01*
X132350813Y-85871733D01*
X132342656Y-85792500D01*
X132340028Y-85680783D01*
X132340000Y-85664012D01*
X132340897Y-85564352D01*
X132344491Y-85495809D01*
X132352137Y-85449521D01*
X132365187Y-85416629D01*
X132381451Y-85392697D01*
X132437985Y-85349511D01*
X132506462Y-85339071D01*
X132575604Y-85361555D01*
G37*
D14*
X157270000Y-54420000D02*
X152629000Y-54420000D01*
X157270000Y-64660000D02*
X152629000Y-64660000D01*
X152629000Y-54420000D02*
X152629000Y-64660000D01*
X157270000Y-57690000D02*
X155760000Y-57690000D01*
X157270000Y-54420000D02*
X157270000Y-64660000D01*
X155760000Y-54420000D02*
X155760000Y-64660000D01*
X157270000Y-61391000D02*
X155760000Y-61391000D01*
X102565000Y-65062921D02*
G75*
G03*
X104785000Y-65062921I1110000J0D01*
G01*
X104785000Y-53762921D02*
G75*
G03*
X102565000Y-53762921I-1110000J0D01*
G01*
X104785000Y-65062921D02*
X104785000Y-64472921D01*
X104785000Y-54352921D02*
X104785000Y-53762921D01*
X100465000Y-64472921D02*
X102565000Y-64472921D01*
X102565000Y-54352921D02*
X102565000Y-53762921D01*
X102565000Y-65062921D02*
X102565000Y-64472921D01*
X104785000Y-64472921D02*
X109685000Y-64472921D01*
X109685000Y-64472921D02*
X109685000Y-54352921D01*
X100465000Y-54352921D02*
X102565000Y-54352921D01*
X104785000Y-54352921D02*
X109685000Y-54352921D01*
X100465000Y-64472921D02*
X100465000Y-54352921D01*
G36*
X140597695Y-69712147D02*
G01*
X140608618Y-69700181D01*
X140635358Y-69672239D01*
X140677926Y-69614435D01*
X140686524Y-69601693D01*
X140746333Y-69511765D01*
X140612112Y-69353342D01*
X140533315Y-69252411D01*
X140462519Y-69148221D01*
X140420625Y-69074130D01*
X140381015Y-68999553D01*
X140341912Y-68964813D01*
X140281638Y-68955444D01*
X140243064Y-68955627D01*
X140034402Y-68932506D01*
X140450728Y-68932506D01*
X140503865Y-69045268D01*
X140550154Y-69125805D01*
X140620115Y-69227912D01*
X140697360Y-69327934D01*
X140776767Y-69430651D01*
X140816185Y-69505810D01*
X140817391Y-69567050D01*
X140782155Y-69628010D01*
X140742140Y-69672311D01*
X140709730Y-69726976D01*
X140709760Y-69765606D01*
X140732465Y-69783629D01*
X140780428Y-69776604D01*
X140865148Y-69742366D01*
X140887218Y-69732200D01*
X140981235Y-69691916D01*
X141041177Y-69678205D01*
X141083910Y-69688563D01*
X141101878Y-69700301D01*
X141142679Y-69748128D01*
X141130130Y-69795753D01*
X141062356Y-69849664D01*
X141057937Y-69852367D01*
X141002300Y-69905152D01*
X140995340Y-69948771D01*
X141026103Y-69970250D01*
X141091177Y-69959750D01*
X141179691Y-69922706D01*
X141280777Y-69864552D01*
X141383566Y-69790725D01*
X141474942Y-69708948D01*
X141560659Y-69601528D01*
X141639291Y-69467082D01*
X141645141Y-69453862D01*
X141695295Y-69340527D01*
X141756814Y-69340527D01*
X141774916Y-69393347D01*
X141837664Y-69412309D01*
X141863708Y-69412154D01*
X141987948Y-69395584D01*
X142105684Y-69361276D01*
X142203880Y-69315298D01*
X142269501Y-69263718D01*
X142289676Y-69213860D01*
X142260850Y-69194354D01*
X142190912Y-69180737D01*
X142128469Y-69176884D01*
X142022759Y-69173482D01*
X141929702Y-69167783D01*
X141895137Y-69164305D01*
X141840937Y-69163813D01*
X141808092Y-69191179D01*
X141781082Y-69249372D01*
X141756814Y-69340527D01*
X141695295Y-69340527D01*
X141702745Y-69323693D01*
X141742931Y-69189441D01*
X141752358Y-69089043D01*
X141731739Y-69017037D01*
X141704147Y-68957517D01*
X141680967Y-68907515D01*
X141741327Y-68907515D01*
X141747467Y-68937317D01*
X141788053Y-68990147D01*
X141829574Y-69000379D01*
X141855385Y-68968045D01*
X141857287Y-68937124D01*
X141833937Y-68877302D01*
X141783010Y-68863934D01*
X141763046Y-68870721D01*
X141741327Y-68907515D01*
X141680967Y-68907515D01*
X141678356Y-68901882D01*
X141594161Y-68747718D01*
X141579592Y-68722510D01*
X141500716Y-68581499D01*
X141423556Y-68434339D01*
X141359129Y-68302465D01*
X141330343Y-68237619D01*
X141289101Y-68136368D01*
X141270192Y-68078479D01*
X141272993Y-68053331D01*
X141296877Y-68050304D01*
X141319567Y-68054382D01*
X141371095Y-68073510D01*
X141376567Y-68108730D01*
X141373562Y-68118126D01*
X141377147Y-68172101D01*
X141410563Y-68272454D01*
X141474353Y-68420749D01*
X141489212Y-68452890D01*
X141549467Y-68580033D01*
X141592868Y-68663480D01*
X141626405Y-68713128D01*
X141657071Y-68738874D01*
X141691861Y-68750617D01*
X141700756Y-68752302D01*
X141793978Y-68747795D01*
X141890910Y-68712033D01*
X141968634Y-68655983D01*
X141999848Y-68609180D01*
X142006433Y-68574083D01*
X141999682Y-68528209D01*
X141975977Y-68461393D01*
X141931700Y-68363470D01*
X141863230Y-68224277D01*
X141861776Y-68221374D01*
X141791864Y-68084002D01*
X141740369Y-67990091D01*
X141700625Y-67930076D01*
X141665963Y-67894390D01*
X141629715Y-67873470D01*
X141615350Y-67867839D01*
X141530682Y-67837034D01*
X141460645Y-67939097D01*
X141407554Y-68013427D01*
X141377688Y-68042577D01*
X141362705Y-68030806D01*
X141355563Y-67992776D01*
X141330270Y-67916363D01*
X141287283Y-67870839D01*
X141240620Y-67859410D01*
X141204291Y-67885277D01*
X141192309Y-67951644D01*
X141192559Y-67955518D01*
X141185617Y-68019207D01*
X141164701Y-68050211D01*
X141134882Y-68094246D01*
X141127695Y-68173149D01*
X141141672Y-68268309D01*
X141175346Y-68361112D01*
X141191452Y-68389498D01*
X141242326Y-68503635D01*
X141266571Y-68632947D01*
X141262174Y-68755283D01*
X141232492Y-68840418D01*
X141173872Y-68903890D01*
X141095485Y-68955475D01*
X141095480Y-68955477D01*
X140994079Y-68975396D01*
X140904319Y-68940477D01*
X140843268Y-68864481D01*
X140835236Y-68854484D01*
X140830726Y-68845196D01*
X140809976Y-68806588D01*
X140784881Y-68791402D01*
X140741006Y-68800106D01*
X140663913Y-68833169D01*
X140623513Y-68851935D01*
X140450728Y-68932506D01*
X140034402Y-68932506D01*
X140031686Y-68932205D01*
X139974671Y-68911777D01*
X139825029Y-68858162D01*
X139781311Y-68832303D01*
X140145104Y-68832303D01*
X140164594Y-68839396D01*
X140171687Y-68819907D01*
X140152198Y-68812814D01*
X140145104Y-68832303D01*
X139781311Y-68832303D01*
X139701333Y-68784996D01*
X139630632Y-68731903D01*
X139578197Y-68680261D01*
X139532740Y-68614848D01*
X139482972Y-68520445D01*
X139460227Y-68472633D01*
X139443347Y-68437147D01*
X139387389Y-68312925D01*
X139358898Y-68235825D01*
X139497547Y-68235825D01*
X139499654Y-68293717D01*
X139500073Y-68296162D01*
X139518596Y-68354969D01*
X139552612Y-68429553D01*
X139593702Y-68505240D01*
X139633452Y-68567347D01*
X139663445Y-68601197D01*
X139674240Y-68599921D01*
X139699831Y-68604120D01*
X139758515Y-68636162D01*
X139821021Y-68677648D01*
X139904372Y-68730853D01*
X139974011Y-68765283D01*
X140005551Y-68772942D01*
X140043760Y-68782267D01*
X140048093Y-68793160D01*
X140062544Y-68810531D01*
X140104686Y-68796435D01*
X140159923Y-68760058D01*
X140213664Y-68710587D01*
X140244888Y-68669272D01*
X140287774Y-68575833D01*
X140323956Y-68459520D01*
X140351107Y-68334865D01*
X140366898Y-68216405D01*
X140369001Y-68118673D01*
X140355089Y-68056205D01*
X140344929Y-68044610D01*
X140313024Y-68034188D01*
X140251610Y-68029670D01*
X140150596Y-68030793D01*
X140023127Y-68036127D01*
X139939805Y-68051608D01*
X139841293Y-68084800D01*
X139814700Y-68096408D01*
X139744603Y-68124001D01*
X139703135Y-68130412D01*
X139698039Y-68124508D01*
X139677550Y-68119407D01*
X139622119Y-68139353D01*
X139593275Y-68153586D01*
X139524494Y-68195632D01*
X139497547Y-68235825D01*
X139358898Y-68235825D01*
X139354258Y-68223269D01*
X139339481Y-68150824D01*
X139339149Y-68124016D01*
X139338584Y-68078236D01*
X139340315Y-68056092D01*
X139436964Y-68056092D01*
X139437462Y-68078172D01*
X139466785Y-68077135D01*
X139537128Y-68057805D01*
X139635193Y-68024037D01*
X139671434Y-68010358D01*
X139804809Y-67963673D01*
X139917683Y-67938600D01*
X140039165Y-67930312D01*
X140144557Y-67931901D01*
X140270660Y-67938541D01*
X140351682Y-67950624D01*
X140401174Y-67971804D01*
X140432689Y-68005740D01*
X140435674Y-68010464D01*
X140464355Y-68105703D01*
X140460720Y-68246293D01*
X140424645Y-68433428D01*
X140370996Y-68621727D01*
X140333440Y-68753222D01*
X140318349Y-68837623D01*
X140326204Y-68871929D01*
X140330930Y-68872474D01*
X140397923Y-68864173D01*
X140417779Y-68861845D01*
X140501223Y-68838316D01*
X140608274Y-68790075D01*
X140660478Y-68760350D01*
X140867634Y-68760350D01*
X140894749Y-68840475D01*
X140964058Y-68895323D01*
X140970920Y-68897980D01*
X141057907Y-68903853D01*
X141129624Y-68853611D01*
X141171133Y-68782659D01*
X141190674Y-68698155D01*
X141190895Y-68597272D01*
X141174736Y-68499385D01*
X141145136Y-68423870D01*
X141111844Y-68391831D01*
X141072277Y-68392721D01*
X141039934Y-68437466D01*
X141030879Y-68458040D01*
X140988399Y-68534818D01*
X140945179Y-68587071D01*
X140884011Y-68670649D01*
X140867634Y-68760350D01*
X140660478Y-68760350D01*
X140716331Y-68728547D01*
X140797031Y-68670171D01*
X140927908Y-68521836D01*
X141020804Y-68340387D01*
X141070712Y-68141225D01*
X141072625Y-67939751D01*
X141059228Y-67863649D01*
X140990917Y-67693500D01*
X140875811Y-67539442D01*
X140725383Y-67410795D01*
X140551109Y-67316877D01*
X140364460Y-67267009D01*
X140319307Y-67262644D01*
X140204450Y-67260711D01*
X140109696Y-67275502D01*
X140006493Y-67312877D01*
X139950114Y-67338424D01*
X139763083Y-67452525D01*
X139612980Y-67598586D01*
X139507621Y-67767603D01*
X139463919Y-67898178D01*
X139446030Y-67989549D01*
X139436964Y-68056092D01*
X139340315Y-68056092D01*
X139341434Y-68041786D01*
X139379416Y-67857678D01*
X139453020Y-67673673D01*
X139551181Y-67516505D01*
X139566797Y-67497527D01*
X139660768Y-67414783D01*
X139793258Y-67332060D01*
X139945051Y-67258345D01*
X140096934Y-67202627D01*
X140229689Y-67173896D01*
X140262918Y-67171882D01*
X140457742Y-67193518D01*
X140650980Y-67256399D01*
X140787200Y-67331830D01*
X140885912Y-67418800D01*
X140987544Y-67537080D01*
X141073652Y-67663348D01*
X141116544Y-67748247D01*
X141148468Y-67794993D01*
X141178166Y-67790326D01*
X141252705Y-67755309D01*
X141324852Y-67754288D01*
X141372723Y-67787142D01*
X141374934Y-67791411D01*
X141408857Y-67825994D01*
X141457370Y-67812045D01*
X141545367Y-67770259D01*
X141613983Y-67767089D01*
X141688245Y-67802823D01*
X141706308Y-67814890D01*
X141752493Y-67850983D01*
X141793158Y-67896204D01*
X141835315Y-67961534D01*
X141885976Y-68057957D01*
X141952151Y-68196457D01*
X141958266Y-68209557D01*
X142021872Y-68347632D01*
X142063121Y-68443933D01*
X142085185Y-68509501D01*
X142091234Y-68555375D01*
X142084443Y-68592594D01*
X142075117Y-68616296D01*
X142027040Y-68701530D01*
X141981287Y-68762084D01*
X141944129Y-68828295D01*
X141946220Y-68877737D01*
X141954522Y-68946008D01*
X141945317Y-68979902D01*
X141930281Y-69033103D01*
X141950556Y-69067322D01*
X142013369Y-69086585D01*
X142125947Y-69094916D01*
X142152987Y-69095584D01*
X142267838Y-69101504D01*
X142339303Y-69116579D01*
X142382465Y-69145223D01*
X142399142Y-69167609D01*
X142420427Y-69218522D01*
X142406969Y-69266167D01*
X142359572Y-69325151D01*
X142249685Y-69410549D01*
X142104835Y-69474305D01*
X141947270Y-69507734D01*
X141884339Y-69510659D01*
X141824930Y-69512123D01*
X141780696Y-69524028D01*
X141737324Y-69555782D01*
X141680500Y-69616793D01*
X141626676Y-69680026D01*
X141485653Y-69821939D01*
X141313225Y-69957729D01*
X141135018Y-70067571D01*
X141107804Y-70081353D01*
X141047384Y-70088667D01*
X140983735Y-70075542D01*
X140915856Y-70043679D01*
X140892682Y-70002489D01*
X140900694Y-69934366D01*
X140909274Y-69863989D01*
X140888344Y-69840100D01*
X140829425Y-69856610D01*
X140806656Y-69866854D01*
X140722160Y-69890298D01*
X140660303Y-69869152D01*
X140620362Y-69820849D01*
X140615923Y-69809363D01*
X140597055Y-69760546D01*
X140597695Y-69712147D01*
G37*
G36*
X140169029Y-68156931D02*
G01*
X140220692Y-68178976D01*
X140236538Y-68218681D01*
X140221704Y-68292467D01*
X140216655Y-68309082D01*
X140167354Y-68414766D01*
X140100258Y-68465831D01*
X140011793Y-68464569D01*
X139986634Y-68456606D01*
X139909013Y-68413463D01*
X139859306Y-68357862D01*
X139845035Y-68303281D01*
X139873714Y-68263201D01*
X139877666Y-68261221D01*
X139940307Y-68258148D01*
X139985641Y-68278637D01*
X140041387Y-68320410D01*
X140077016Y-68231279D01*
X140108321Y-68170135D01*
X140143285Y-68152854D01*
X140169029Y-68156931D01*
G37*
X149270000Y-66420000D02*
X144629000Y-66420000D01*
X149270000Y-69690000D02*
X147760000Y-69690000D01*
X144629000Y-66420000D02*
X144629000Y-76660000D01*
X149270000Y-76660000D02*
X144629000Y-76660000D01*
X149270000Y-66420000D02*
X149270000Y-76660000D01*
X147760000Y-66420000D02*
X147760000Y-76660000D01*
X149270000Y-73391000D02*
X147760000Y-73391000D01*
X100695000Y-82470000D02*
X103355000Y-82470000D01*
X103355000Y-82470000D02*
X103355000Y-90150000D01*
X100695000Y-90150000D02*
X103355000Y-90150000D01*
X102025000Y-79870000D02*
X103355000Y-79870000D01*
X103355000Y-79870000D02*
X103355000Y-81200000D01*
X100695000Y-82470000D02*
X100695000Y-90150000D01*
D13*
X164368807Y-92600000D02*
X164368807Y-92000000D01*
X156168807Y-82000000D02*
X164368807Y-82000000D01*
X164368807Y-82000000D02*
X164368807Y-92000000D01*
X156168807Y-92000000D02*
X156168807Y-82000000D01*
X164368807Y-92000000D02*
X156168807Y-92000000D01*
X164368807Y-92600000D02*
X156168807Y-92600000D01*
X156168807Y-92600000D02*
X156168807Y-92000000D01*
D12*
X160368807Y-93350000D02*
G75*
G03*
X160368807Y-93350000I-100000J0D01*
G01*
M02*
