G04 #@! TF.GenerationSoftware,KiCad,Pcbnew,(6.0.11)*
G04 #@! TF.CreationDate,2023-03-27T19:54:32+10:00*
G04 #@! TF.ProjectId,RPI,5250492e-6b69-4636-9164-5f7063625858,rev?*
G04 #@! TF.SameCoordinates,Original*
G04 #@! TF.FileFunction,Legend,Bot*
G04 #@! TF.FilePolarity,Positive*
%FSLAX46Y46*%
G04 Gerber Fmt 4.6, Leading zero omitted, Abs format (unit mm)*
G04 Created by KiCad (PCBNEW (6.0.11)) date 2023-03-27 19:54:32*
%MOMM*%
%LPD*%
G01*
G04 APERTURE LIST*
%ADD10C,0.150000*%
%ADD11C,0.120000*%
G04 APERTURE END LIST*
D10*
X132802380Y-62060397D02*
X132326190Y-61727064D01*
X132802380Y-61488968D02*
X131802380Y-61488968D01*
X131802380Y-61869921D01*
X131850000Y-61965159D01*
X131897619Y-62012778D01*
X131992857Y-62060397D01*
X132135714Y-62060397D01*
X132230952Y-62012778D01*
X132278571Y-61965159D01*
X132326190Y-61869921D01*
X132326190Y-61488968D01*
X131802380Y-62917540D02*
X131802380Y-62727064D01*
X131850000Y-62631825D01*
X131897619Y-62584206D01*
X132040476Y-62488968D01*
X132230952Y-62441349D01*
X132611904Y-62441349D01*
X132707142Y-62488968D01*
X132754761Y-62536587D01*
X132802380Y-62631825D01*
X132802380Y-62822302D01*
X132754761Y-62917540D01*
X132707142Y-62965159D01*
X132611904Y-63012778D01*
X132373809Y-63012778D01*
X132278571Y-62965159D01*
X132230952Y-62917540D01*
X132183333Y-62822302D01*
X132183333Y-62631825D01*
X132230952Y-62536587D01*
X132278571Y-62488968D01*
X132373809Y-62441349D01*
X132810243Y-56049934D02*
X132334053Y-55716601D01*
X132810243Y-55478505D02*
X131810243Y-55478505D01*
X131810243Y-55859458D01*
X131857863Y-55954696D01*
X131905482Y-56002315D01*
X132000720Y-56049934D01*
X132143577Y-56049934D01*
X132238815Y-56002315D01*
X132286434Y-55954696D01*
X132334053Y-55859458D01*
X132334053Y-55478505D01*
X132810243Y-57002315D02*
X132810243Y-56430886D01*
X132810243Y-56716601D02*
X131810243Y-56716601D01*
X131953101Y-56621362D01*
X132048339Y-56526124D01*
X132095958Y-56430886D01*
X122452380Y-56060397D02*
X121976190Y-55727064D01*
X122452380Y-55488968D02*
X121452380Y-55488968D01*
X121452380Y-55869921D01*
X121500000Y-55965159D01*
X121547619Y-56012778D01*
X121642857Y-56060397D01*
X121785714Y-56060397D01*
X121880952Y-56012778D01*
X121928571Y-55965159D01*
X121976190Y-55869921D01*
X121976190Y-55488968D01*
X121452380Y-56393730D02*
X121452380Y-57012778D01*
X121833333Y-56679444D01*
X121833333Y-56822302D01*
X121880952Y-56917540D01*
X121928571Y-56965159D01*
X122023809Y-57012778D01*
X122261904Y-57012778D01*
X122357142Y-56965159D01*
X122404761Y-56917540D01*
X122452380Y-56822302D01*
X122452380Y-56536587D01*
X122404761Y-56441349D01*
X122357142Y-56393730D01*
X127820493Y-56062231D02*
X127344303Y-55728898D01*
X127820493Y-55490802D02*
X126820493Y-55490802D01*
X126820493Y-55871755D01*
X126868113Y-55966993D01*
X126915732Y-56014612D01*
X127010970Y-56062231D01*
X127153827Y-56062231D01*
X127249065Y-56014612D01*
X127296684Y-55966993D01*
X127344303Y-55871755D01*
X127344303Y-55490802D01*
X126915732Y-56443183D02*
X126868113Y-56490802D01*
X126820493Y-56586040D01*
X126820493Y-56824136D01*
X126868113Y-56919374D01*
X126915732Y-56966993D01*
X127010970Y-57014612D01*
X127106208Y-57014612D01*
X127249065Y-56966993D01*
X127820493Y-56395564D01*
X127820493Y-57014612D01*
X127802380Y-61833333D02*
X127326190Y-61500000D01*
X127802380Y-61261904D02*
X126802380Y-61261904D01*
X126802380Y-61642857D01*
X126850000Y-61738095D01*
X126897619Y-61785714D01*
X126992857Y-61833333D01*
X127135714Y-61833333D01*
X127230952Y-61785714D01*
X127278571Y-61738095D01*
X127326190Y-61642857D01*
X127326190Y-61261904D01*
X126802380Y-62738095D02*
X126802380Y-62261904D01*
X127278571Y-62214285D01*
X127230952Y-62261904D01*
X127183333Y-62357142D01*
X127183333Y-62595238D01*
X127230952Y-62690476D01*
X127278571Y-62738095D01*
X127373809Y-62785714D01*
X127611904Y-62785714D01*
X127707142Y-62738095D01*
X127754761Y-62690476D01*
X127802380Y-62595238D01*
X127802380Y-62357142D01*
X127754761Y-62261904D01*
X127707142Y-62214285D01*
X143716117Y-61354753D02*
X143763736Y-61402372D01*
X143906593Y-61449991D01*
X144001831Y-61449991D01*
X144144688Y-61402372D01*
X144239926Y-61307134D01*
X144287545Y-61211896D01*
X144335164Y-61021420D01*
X144335164Y-60878563D01*
X144287545Y-60688087D01*
X144239926Y-60592849D01*
X144144688Y-60497611D01*
X144001831Y-60449991D01*
X143906593Y-60449991D01*
X143763736Y-60497611D01*
X143716117Y-60545230D01*
X143525641Y-61545230D02*
X142763736Y-61545230D01*
X142668498Y-60449991D02*
X142097069Y-60449991D01*
X142382784Y-61449991D02*
X142382784Y-60449991D01*
X141335164Y-61449991D02*
X141335164Y-60926182D01*
X141382784Y-60830944D01*
X141478022Y-60783325D01*
X141668498Y-60783325D01*
X141763736Y-60830944D01*
X141335164Y-61402372D02*
X141430403Y-61449991D01*
X141668498Y-61449991D01*
X141763736Y-61402372D01*
X141811355Y-61307134D01*
X141811355Y-61211896D01*
X141763736Y-61116658D01*
X141668498Y-61069039D01*
X141430403Y-61069039D01*
X141335164Y-61021420D01*
X140858974Y-60783325D02*
X140858974Y-61449991D01*
X140858974Y-60878563D02*
X140811355Y-60830944D01*
X140716117Y-60783325D01*
X140573260Y-60783325D01*
X140478022Y-60830944D01*
X140430403Y-60926182D01*
X140430403Y-61449991D01*
X139430403Y-61449991D02*
X140001831Y-61449991D01*
X139716117Y-61449991D02*
X139716117Y-60449991D01*
X139811355Y-60592849D01*
X139906593Y-60688087D01*
X140001831Y-60735706D01*
X122551037Y-61828086D02*
X122074847Y-61494753D01*
X122551037Y-61256657D02*
X121551037Y-61256657D01*
X121551037Y-61637610D01*
X121598657Y-61732848D01*
X121646276Y-61780467D01*
X121741514Y-61828086D01*
X121884371Y-61828086D01*
X121979609Y-61780467D01*
X122027228Y-61732848D01*
X122074847Y-61637610D01*
X122074847Y-61256657D01*
X121884371Y-62685229D02*
X122551037Y-62685229D01*
X121503418Y-62447133D02*
X122217704Y-62209038D01*
X122217704Y-62828086D01*
X142073374Y-55283792D02*
X142168612Y-55236173D01*
X142263850Y-55140934D01*
X142406707Y-54998077D01*
X142501945Y-54950458D01*
X142597183Y-54950458D01*
X142549564Y-55188553D02*
X142644802Y-55140934D01*
X142740040Y-55045696D01*
X142787659Y-54855220D01*
X142787659Y-54521887D01*
X142740040Y-54331411D01*
X142644802Y-54236173D01*
X142549564Y-54188553D01*
X142359088Y-54188553D01*
X142263850Y-54236173D01*
X142168612Y-54331411D01*
X142120993Y-54521887D01*
X142120993Y-54855220D01*
X142168612Y-55045696D01*
X142263850Y-55140934D01*
X142359088Y-55188553D01*
X142549564Y-55188553D01*
X141787659Y-54188553D02*
X141168612Y-54188553D01*
X141501945Y-54569506D01*
X141359088Y-54569506D01*
X141263850Y-54617125D01*
X141216231Y-54664744D01*
X141168612Y-54759982D01*
X141168612Y-54998077D01*
X141216231Y-55093315D01*
X141263850Y-55140934D01*
X141359088Y-55188553D01*
X141644802Y-55188553D01*
X141740040Y-55140934D01*
X141787659Y-55093315D01*
D11*
X107040000Y-50100000D02*
X108370000Y-50100000D01*
X157960000Y-44900000D02*
X157960000Y-50100000D01*
X109640000Y-50100000D02*
X157960000Y-50100000D01*
X107040000Y-44900000D02*
X157960000Y-44900000D01*
X109640000Y-47500000D02*
X109640000Y-50100000D01*
X107040000Y-48770000D02*
X107040000Y-50100000D01*
X107040000Y-47500000D02*
X109640000Y-47500000D01*
X107040000Y-44900000D02*
X107040000Y-47500000D01*
X134735000Y-62000000D02*
X134735000Y-62454128D01*
X133265000Y-62000000D02*
X133265000Y-62454128D01*
X134735000Y-56454128D02*
X134735000Y-56000000D01*
X133265000Y-56454128D02*
X133265000Y-56000000D01*
X123000000Y-56000000D02*
X123000000Y-56454128D01*
X124470000Y-56000000D02*
X124470000Y-56454128D01*
X128283113Y-56001834D02*
X128283113Y-56455962D01*
X129753113Y-56001834D02*
X129753113Y-56455962D01*
X128265000Y-61772936D02*
X128265000Y-62227064D01*
X129735000Y-61772936D02*
X129735000Y-62227064D01*
X143791250Y-61965000D02*
X143791250Y-63535000D01*
X140906250Y-61965000D02*
X143791250Y-61965000D01*
X143791250Y-63535000D02*
X140906250Y-63535000D01*
X123013657Y-61767689D02*
X123013657Y-62221817D01*
X124483657Y-61767689D02*
X124483657Y-62221817D01*
X141300000Y-55840000D02*
X143200000Y-55840000D01*
X142700000Y-58160000D02*
X141300000Y-58160000D01*
M02*
