M48
; DRILL file {KiCad (6.0.11)} date Tue Apr 25 15:22:10 2023
; FORMAT={-:-/ absolute / inch / decimal}
; #@! TF.CreationDate,2023-04-25T15:22:10+10:00
; #@! TF.GenerationSoftware,Kicad,Pcbnew,(6.0.11)
; #@! TF.FileFunction,Plated,1,2,PTH
FMAT,2
INCH
; #@! TA.AperFunction,Plated,PTH,ViaDrill
T1C0.0236
; #@! TA.AperFunction,Plated,PTH,ComponentDrill
T2C0.0315
; #@! TA.AperFunction,Plated,PTH,ComponentDrill
T3C0.0394
; #@! TA.AperFunction,Plated,PTH,ComponentDrill
T4C0.0433
; #@! TA.AperFunction,Plated,PTH,ComponentDrill
T5C0.0472
; #@! TA.AperFunction,Plated,PTH,ComponentDrill
T6C0.0748
; #@! TA.AperFunction,Plated,PTH,ComponentDrill
T7C0.0945
; #@! TA.AperFunction,Plated,PTH,ComponentDrill
T8C0.0994
%
G90
G05
T1
X4.1444Y-2.7597
X4.1876Y-2.7593
X4.6649Y-2.0132
X4.8178Y-2.212
X4.8819Y-3.5039
X4.9762Y-2.2129
X5.1649Y-2.361
X5.2289Y-2.0919
X5.4564Y-2.524
X5.458Y-2.2979
X5.9055Y-3.0943
X5.9136Y-2.4409
X5.9139Y-2.1273
X6.0656Y-2.5889
T2
X5.9055Y-3.3465
X5.9055Y-3.622
X6.0039Y-3.3465
X6.0039Y-3.622
T3
X4.0167Y-3.1969
X4.0167Y-3.2969
X4.0167Y-3.3969
X4.0167Y-3.4969
X4.0174Y-2.8034
X4.0174Y-2.9034
X4.0174Y-3.0034
X4.0817Y-2.1226
X4.0817Y-2.5556
X4.2665Y-1.8201
X4.2665Y-1.9201
X4.3665Y-1.8201
X4.3665Y-1.9201
X4.4665Y-1.8201
X4.4665Y-1.9201
X4.5665Y-1.8201
X4.5665Y-1.9201
X4.6665Y-1.8201
X4.6665Y-1.9201
X4.7665Y-1.8201
X4.7665Y-1.9201
X4.8665Y-1.8201
X4.8665Y-1.9201
X4.9665Y-1.8201
X4.9665Y-1.9201
X5.0665Y-1.8201
X5.0665Y-1.9201
X5.1665Y-1.8201
X5.1665Y-1.9201
X5.2665Y-1.8201
X5.2665Y-1.9201
X5.3665Y-1.8201
X5.3665Y-1.9201
X5.4665Y-1.8201
X5.4665Y-1.9201
X5.5665Y-1.8201
X5.5665Y-1.9201
X5.6665Y-1.8201
X5.6665Y-1.9201
X5.7665Y-1.8201
X5.7665Y-1.9201
X5.8665Y-1.8201
X5.8665Y-1.9201
X5.9665Y-1.8201
X5.9665Y-1.9201
X6.0665Y-1.8201
X6.0665Y-1.9201
X6.1665Y-1.8201
X6.1665Y-1.9201
X6.4094Y-2.317
X6.4094Y-2.417
X6.412Y-2.6378
X6.412Y-2.7378
X6.412Y-2.8378
X6.412Y-2.9378
X6.412Y-3.0378
X6.412Y-3.1378
T4
X5.748Y-2.7165
X5.748Y-2.8165
X5.748Y-2.9165
X5.7502Y-2.2441
X5.7502Y-2.3441
X5.7502Y-2.4441
X6.063Y-2.2441
X6.063Y-2.3441
X6.063Y-2.4441
X6.0652Y-2.7346
X6.0652Y-2.8346
X6.0652Y-2.9346
T5
X6.3098Y-3.3268
X6.3098Y-3.5236
T6
X4.4754Y-2.2407
X4.4754Y-2.4375
T7
X4.2854Y-2.874
X4.4882Y-2.874
X4.6909Y-2.874
X4.9154Y-2.874
X5.1181Y-2.874
X5.3209Y-2.874
T8
X4.3317Y-3.2117
X4.4774Y-3.2117
X4.6348Y-3.2117
X4.7805Y-3.2117
T0
M30
