M48
; DRILL file {KiCad (6.0.7)} date Sat Aug  5 14:39:04 2023
; FORMAT={-:-/ absolute / metric / decimal}
; #@! TF.CreationDate,2023-08-05T14:39:04+10:00
; #@! TF.GenerationSoftware,Kicad,Pcbnew,(6.0.7)
; #@! TF.FileFunction,Plated,1,2,PTH
FMAT,2
METRIC
; #@! TA.AperFunction,Plated,PTH,ViaDrill
T1C0.500
; #@! TA.AperFunction,Plated,PTH,ViaDrill
T2C0.600
; #@! TA.AperFunction,Plated,PTH,ComponentDrill
T3C0.800
; #@! TA.AperFunction,Plated,PTH,ComponentDrill
T4C1.000
; #@! TA.AperFunction,Plated,PTH,ComponentDrill
T5C1.100
; #@! TA.AperFunction,Plated,PTH,ComponentDrill
T6C1.200
; #@! TA.AperFunction,Plated,PTH,ComponentDrill
T7C1.900
; #@! TA.AperFunction,Plated,PTH,ComponentDrill
T8C2.400
; #@! TA.AperFunction,Plated,PTH,ComponentDrill
T9C2.524
%
G90
G05
T1
X103.0Y-53.0
X103.0Y-59.0
X103.0Y-65.0
X103.0Y-68.0
X103.0Y-71.0
X103.0Y-74.0
X103.0Y-77.0
X103.0Y-83.0
X103.0Y-86.0
X103.0Y-89.0
X103.0Y-92.0
X106.0Y-50.0
X106.0Y-53.0
X106.0Y-56.0
X106.0Y-59.0
X106.0Y-62.0
X106.0Y-68.0
X106.0Y-71.0
X106.0Y-74.0
X106.0Y-77.0
X106.0Y-80.0
X106.0Y-86.0
X106.0Y-89.0
X106.0Y-92.0
X108.892Y-86.101
X109.0Y-62.0
X109.0Y-68.0
X109.0Y-71.0
X109.0Y-74.0
X109.0Y-77.0
X109.0Y-80.0
X109.0Y-92.0
X109.0Y-95.0
X109.0Y-98.0
X112.0Y-80.0
X115.0Y-53.0
X115.0Y-56.0
X115.0Y-80.0
X118.0Y-68.0
X118.0Y-92.0
X121.0Y-68.0
X121.0Y-89.0
X124.0Y-68.0
X124.0Y-77.0
X124.0Y-83.0
X124.0Y-89.0
X125.73Y-97.155
X127.0Y-50.0
X127.0Y-53.0
X127.0Y-77.0
X127.0Y-80.0
X127.0Y-83.0
X127.0Y-89.0
X127.0Y-90.932
X127.0Y-92.964
X130.0Y-50.0
X130.81Y-97.155
X133.0Y-50.0
X133.0Y-53.0
X133.0Y-56.0
X133.0Y-77.0
X133.0Y-89.0
X136.0Y-56.0
X136.0Y-77.0
X136.0Y-89.0
X139.0Y-53.0
X139.0Y-56.0
X139.0Y-62.0
X139.0Y-89.0
X139.0Y-92.0
X139.0Y-95.0
X139.0Y-98.552
X142.0Y-53.0
X142.0Y-62.0
X142.0Y-83.0
X142.0Y-92.0
X142.0Y-95.0
X145.0Y-50.0
X145.0Y-59.0
X148.0Y-50.0
X148.0Y-59.0
X148.0Y-89.0
X149.86Y-69.088
X151.0Y-53.0
X151.0Y-56.0
X151.0Y-59.0
X151.0Y-62.0
X151.0Y-65.0
X151.0Y-83.0
X151.0Y-86.0
X151.0Y-92.0
X151.0Y-95.0
X154.0Y-53.0
X154.0Y-56.0
X154.0Y-59.0
X154.0Y-62.0
X154.0Y-65.0
X154.0Y-89.0
X154.432Y-71.12
X154.432Y-74.168
X154.432Y-76.2
X154.94Y-69.088
X157.0Y-86.0
X157.0Y-89.0
X157.0Y-92.0
X157.0Y-95.0
X157.0Y-98.0
X157.48Y-76.2
X160.0Y-50.0
X160.0Y-59.0
X160.0Y-65.0
X160.0Y-92.0
X163.0Y-50.0
X163.0Y-59.0
X163.0Y-62.0
X163.0Y-77.0
X163.068Y-64.516
T2
X106.515Y-65.985
X113.737Y-89.921
X126.922Y-68.0
X129.087Y-76.587
X129.087Y-81.5
X136.0Y-62.0
X136.0Y-63.0
X152.5Y-81.5
T3
X147.0Y-67.0
X147.0Y-69.5
T4
X102.025Y-55.2
X102.025Y-57.74
X102.025Y-60.28
X102.025Y-62.82
X103.675Y-69.5
X103.675Y-80.5
X108.37Y-46.23
X108.37Y-48.77
X110.91Y-46.23
X110.91Y-48.77
X113.45Y-46.23
X113.45Y-48.77
X115.99Y-46.23
X115.99Y-48.77
X118.53Y-46.23
X118.53Y-48.77
X119.0Y-71.0
X119.0Y-73.54
X121.07Y-46.23
X121.07Y-48.77
X123.61Y-46.23
X123.61Y-48.77
X126.15Y-46.23
X126.15Y-48.77
X128.69Y-46.23
X128.69Y-48.77
X131.23Y-46.23
X131.23Y-48.77
X133.77Y-46.23
X133.77Y-48.77
X136.31Y-46.23
X136.31Y-48.77
X138.85Y-46.23
X138.85Y-48.77
X141.39Y-46.23
X141.39Y-48.77
X143.93Y-46.23
X143.93Y-48.77
X146.47Y-46.23
X146.47Y-48.77
X149.01Y-46.23
X149.01Y-48.77
X151.55Y-46.23
X151.55Y-48.77
X154.09Y-46.23
X154.09Y-48.77
X156.63Y-46.23
X156.63Y-48.77
X158.852Y-61.22
X161.392Y-61.22
X163.0Y-68.475
X163.0Y-71.015
X163.0Y-73.555
X163.025Y-78.675
X163.025Y-81.215
X163.025Y-83.755
X163.025Y-86.295
X163.025Y-88.835
X163.025Y-91.375
T5
X141.693Y-72.929
X144.233Y-72.929
X146.773Y-72.929
X152.02Y-72.867
X152.02Y-75.407
X152.02Y-77.947
T6
X104.428Y-85.179
X104.428Y-90.179
T7
X113.675Y-72.5
X113.675Y-77.5
T8
X123.0Y-80.85
X123.0Y-86.0
X123.0Y-91.15
X135.0Y-80.85
X135.0Y-86.0
X135.0Y-91.15
T9
X124.056Y-72.496
X127.756Y-72.496
X131.756Y-72.496
X135.456Y-72.496
T0
M30
