G04 #@! TF.GenerationSoftware,KiCad,Pcbnew,(6.0.7)*
G04 #@! TF.CreationDate,2023-08-05T14:38:37+10:00*
G04 #@! TF.ProjectId,RPI,5250492e-6b69-4636-9164-5f7063625858,rev?*
G04 #@! TF.SameCoordinates,Original*
G04 #@! TF.FileFunction,Paste,Top*
G04 #@! TF.FilePolarity,Positive*
%FSLAX46Y46*%
G04 Gerber Fmt 4.6, Leading zero omitted, Abs format (unit mm)*
G04 Created by KiCad (PCBNEW (6.0.7)) date 2023-08-05 14:38:37*
%MOMM*%
%LPD*%
G01*
G04 APERTURE LIST*
G04 Aperture macros list*
%AMRoundRect*
0 Rectangle with rounded corners*
0 $1 Rounding radius*
0 $2 $3 $4 $5 $6 $7 $8 $9 X,Y pos of 4 corners*
0 Add a 4 corners polygon primitive as box body*
4,1,4,$2,$3,$4,$5,$6,$7,$8,$9,$2,$3,0*
0 Add four circle primitives for the rounded corners*
1,1,$1+$1,$2,$3*
1,1,$1+$1,$4,$5*
1,1,$1+$1,$6,$7*
1,1,$1+$1,$8,$9*
0 Add four rect primitives between the rounded corners*
20,1,$1+$1,$2,$3,$4,$5,0*
20,1,$1+$1,$4,$5,$6,$7,0*
20,1,$1+$1,$6,$7,$8,$9,0*
20,1,$1+$1,$8,$9,$2,$3,0*%
G04 Aperture macros list end*
%ADD10RoundRect,0.250000X0.350000X0.450000X-0.350000X0.450000X-0.350000X-0.450000X0.350000X-0.450000X0*%
%ADD11R,4.550000X5.250000*%
%ADD12R,4.600000X1.100000*%
%ADD13RoundRect,0.250000X-0.450000X0.325000X-0.450000X-0.325000X0.450000X-0.325000X0.450000X0.325000X0*%
%ADD14RoundRect,0.250000X0.337500X0.475000X-0.337500X0.475000X-0.337500X-0.475000X0.337500X-0.475000X0*%
%ADD15RoundRect,0.250000X-0.350000X-0.450000X0.350000X-0.450000X0.350000X0.450000X-0.350000X0.450000X0*%
%ADD16R,1.500000X0.900000*%
%ADD17R,5.400000X4.000000*%
%ADD18RoundRect,0.250000X-0.475000X0.337500X-0.475000X-0.337500X0.475000X-0.337500X0.475000X0.337500X0*%
%ADD19RoundRect,0.250000X0.325000X0.450000X-0.325000X0.450000X-0.325000X-0.450000X0.325000X-0.450000X0*%
%ADD20RoundRect,0.250000X0.450000X-0.350000X0.450000X0.350000X-0.450000X0.350000X-0.450000X-0.350000X0*%
%ADD21RoundRect,0.250000X-0.337500X-0.475000X0.337500X-0.475000X0.337500X0.475000X-0.337500X0.475000X0*%
%ADD22RoundRect,0.250000X-0.450000X0.350000X-0.450000X-0.350000X0.450000X-0.350000X0.450000X0.350000X0*%
%ADD23R,1.800000X3.500000*%
%ADD24RoundRect,0.250000X0.475000X-0.337500X0.475000X0.337500X-0.475000X0.337500X-0.475000X-0.337500X0*%
G04 APERTURE END LIST*
D10*
X142000000Y-88000000D03*
X140000000Y-88000000D03*
D11*
X123018498Y-54006287D03*
X118168498Y-59556287D03*
X118168498Y-54006287D03*
X123018498Y-59556287D03*
D12*
X129743498Y-60181287D03*
X129743498Y-58481287D03*
X129743498Y-56781287D03*
X129743498Y-55081287D03*
X129743498Y-53381287D03*
D13*
X117156137Y-79271995D03*
X117156137Y-81321995D03*
D14*
X158809314Y-68466446D03*
X156734314Y-68466446D03*
D15*
X156803699Y-81221472D03*
X158803699Y-81221472D03*
D10*
X158825507Y-74590609D03*
X156825507Y-74590609D03*
D16*
X148550000Y-83350000D03*
X148550000Y-86650000D03*
X153450000Y-86650000D03*
X153450000Y-83350000D03*
D17*
X147011263Y-53657857D03*
X147011263Y-63357857D03*
D18*
X132750000Y-65000000D03*
X132750000Y-67075000D03*
D19*
X130025000Y-85000000D03*
X127975000Y-85000000D03*
D15*
X128000000Y-88000000D03*
X130000000Y-88000000D03*
D20*
X158976510Y-72578299D03*
X158976510Y-70578299D03*
D21*
X128060662Y-66000000D03*
X130135662Y-66000000D03*
D22*
X112625000Y-54000000D03*
X112625000Y-56000000D03*
D20*
X125943737Y-65817671D03*
X125943737Y-63817671D03*
D19*
X142025000Y-85000000D03*
X139975000Y-85000000D03*
D23*
X137000000Y-58500000D03*
X137000000Y-53500000D03*
D24*
X134030514Y-61891215D03*
X134030514Y-59816215D03*
D16*
X148550000Y-91350000D03*
X148550000Y-94650000D03*
X153450000Y-94650000D03*
X153450000Y-91350000D03*
D22*
X109296824Y-54000000D03*
X109296824Y-56000000D03*
D21*
X156797957Y-77944431D03*
X158872957Y-77944431D03*
D18*
X135326228Y-64981794D03*
X135326228Y-67056794D03*
D24*
X156619695Y-72623629D03*
X156619695Y-70548629D03*
D10*
X158810399Y-84437912D03*
X156810399Y-84437912D03*
D15*
X128068979Y-63563219D03*
X130068979Y-63563219D03*
M02*
