G04 #@! TF.GenerationSoftware,KiCad,Pcbnew,(6.0.7)*
G04 #@! TF.CreationDate,2023-08-07T05:57:35+10:00*
G04 #@! TF.ProjectId,RPI,5250492e-6b69-4636-9164-5f7063625858,2.12*
G04 #@! TF.SameCoordinates,Original*
G04 #@! TF.FileFunction,Soldermask,Top*
G04 #@! TF.FilePolarity,Negative*
%FSLAX46Y46*%
G04 Gerber Fmt 4.6, Leading zero omitted, Abs format (unit mm)*
G04 Created by KiCad (PCBNEW (6.0.7)) date 2023-08-07 05:57:35*
%MOMM*%
%LPD*%
G01*
G04 APERTURE LIST*
G04 Aperture macros list*
%AMRoundRect*
0 Rectangle with rounded corners*
0 $1 Rounding radius*
0 $2 $3 $4 $5 $6 $7 $8 $9 X,Y pos of 4 corners*
0 Add a 4 corners polygon primitive as box body*
4,1,4,$2,$3,$4,$5,$6,$7,$8,$9,$2,$3,0*
0 Add four circle primitives for the rounded corners*
1,1,$1+$1,$2,$3*
1,1,$1+$1,$4,$5*
1,1,$1+$1,$6,$7*
1,1,$1+$1,$8,$9*
0 Add four rect primitives between the rounded corners*
20,1,$1+$1,$2,$3,$4,$5,0*
20,1,$1+$1,$4,$5,$6,$7,0*
20,1,$1+$1,$6,$7,$8,$9,0*
20,1,$1+$1,$8,$9,$2,$3,0*%
G04 Aperture macros list end*
%ADD10RoundRect,0.250000X0.350000X0.450000X-0.350000X0.450000X-0.350000X-0.450000X0.350000X-0.450000X0*%
%ADD11R,4.600000X1.100000*%
%ADD12R,9.400000X10.800000*%
%ADD13RoundRect,0.250000X-0.450000X0.325000X-0.450000X-0.325000X0.450000X-0.325000X0.450000X0.325000X0*%
%ADD14C,2.700000*%
%ADD15C,1.400000*%
%ADD16R,3.500000X3.500000*%
%ADD17C,3.500000*%
%ADD18RoundRect,0.250000X0.337500X0.475000X-0.337500X0.475000X-0.337500X-0.475000X0.337500X-0.475000X0*%
%ADD19RoundRect,0.250000X-0.350000X-0.450000X0.350000X-0.450000X0.350000X0.450000X-0.350000X0.450000X0*%
%ADD20O,1.700000X1.700000*%
%ADD21R,1.700000X1.700000*%
%ADD22R,1.500000X0.900000*%
%ADD23R,5.400000X4.000000*%
%ADD24RoundRect,0.250000X-0.475000X0.337500X-0.475000X-0.337500X0.475000X-0.337500X0.475000X0.337500X0*%
%ADD25RoundRect,0.250000X1.100000X-0.412500X1.100000X0.412500X-1.100000X0.412500X-1.100000X-0.412500X0*%
%ADD26RoundRect,0.250000X0.325000X0.450000X-0.325000X0.450000X-0.325000X-0.450000X0.325000X-0.450000X0*%
%ADD27O,1.600000X1.600000*%
%ADD28R,1.600000X1.600000*%
%ADD29RoundRect,0.250000X0.450000X-0.350000X0.450000X0.350000X-0.450000X0.350000X-0.450000X-0.350000X0*%
%ADD30RoundRect,0.250000X-0.337500X-0.475000X0.337500X-0.475000X0.337500X0.475000X-0.337500X0.475000X0*%
%ADD31RoundRect,0.250000X-0.450000X0.350000X-0.450000X-0.350000X0.450000X-0.350000X0.450000X0.350000X0*%
%ADD32R,1.800000X3.500000*%
%ADD33R,1.800000X1.800000*%
%ADD34C,1.800000*%
%ADD35R,1.905000X2.000000*%
%ADD36O,1.905000X2.000000*%
%ADD37RoundRect,0.250000X0.475000X-0.337500X0.475000X0.337500X-0.475000X0.337500X-0.475000X-0.337500X0*%
%ADD38O,2.000000X1.905000*%
%ADD39C,1.700000*%
G04 APERTURE END LIST*
D10*
X142000000Y-88000000D03*
X140000000Y-88000000D03*
D11*
X129743498Y-60181287D03*
X129743498Y-58481287D03*
D12*
X120593498Y-56781287D03*
D11*
X129743498Y-56781287D03*
X129743498Y-55081287D03*
X129743498Y-53381287D03*
D13*
X117156137Y-79271995D03*
X117156137Y-81321995D03*
D14*
X161500000Y-47500000D03*
D15*
X103675000Y-69500000D03*
X103675000Y-80500000D03*
D16*
X113675000Y-72500000D03*
D17*
X113675000Y-77500000D03*
D18*
X158809314Y-68466446D03*
X156734314Y-68466446D03*
D19*
X156803699Y-81221472D03*
X158803699Y-81221472D03*
D10*
X158825507Y-74590609D03*
X156825507Y-74590609D03*
D20*
X163025000Y-78675000D03*
X163025000Y-81215000D03*
D21*
X163025000Y-83755000D03*
D20*
X163025000Y-86295000D03*
X163025000Y-88835000D03*
X163025000Y-91375000D03*
D22*
X148550000Y-83350000D03*
X148550000Y-86650000D03*
X153450000Y-86650000D03*
X153450000Y-83350000D03*
D23*
X147011263Y-53657857D03*
X147011263Y-63357857D03*
D20*
X102025000Y-55200000D03*
X102025000Y-57740000D03*
X102025000Y-60280000D03*
D21*
X102025000Y-62820000D03*
D24*
X132750000Y-65000000D03*
X132750000Y-67075000D03*
D20*
X119000000Y-71000000D03*
X119000000Y-73540000D03*
D25*
X134874000Y-55029500D03*
X134874000Y-51904500D03*
D26*
X130025000Y-85000000D03*
X127975000Y-85000000D03*
D10*
X130000000Y-88000000D03*
X128000000Y-88000000D03*
D27*
X147000000Y-67000000D03*
D28*
X147000000Y-69500000D03*
D29*
X158976510Y-72578299D03*
X158976510Y-70578299D03*
D14*
X103500000Y-96500000D03*
D20*
X163000000Y-68475000D03*
X163000000Y-71015000D03*
D21*
X163000000Y-73555000D03*
D30*
X128060662Y-66000000D03*
X130135662Y-66000000D03*
D31*
X112625000Y-54000000D03*
X112625000Y-56000000D03*
D29*
X125943737Y-65817671D03*
X125943737Y-63817671D03*
D14*
X103500000Y-47500000D03*
D26*
X142025000Y-85000000D03*
X139975000Y-85000000D03*
D32*
X138430000Y-58481600D03*
X138430000Y-53481600D03*
D17*
X123000000Y-80850000D03*
X123000000Y-86000000D03*
X123000000Y-91150000D03*
D25*
X134874000Y-60109500D03*
X134874000Y-56984500D03*
D22*
X148550000Y-91350000D03*
X148550000Y-94650000D03*
X153450000Y-94650000D03*
X153450000Y-91350000D03*
D31*
X109296824Y-54000000D03*
X109296824Y-56000000D03*
D17*
X124056016Y-72496126D03*
X127756016Y-72496126D03*
X131756016Y-72496126D03*
X135456016Y-72496126D03*
D33*
X104427533Y-90179143D03*
D34*
X104427533Y-85179143D03*
D14*
X161500000Y-96500000D03*
D30*
X156797957Y-77944431D03*
X158872957Y-77944431D03*
D17*
X135000000Y-80850000D03*
X135000000Y-86000000D03*
X135000000Y-91150000D03*
D35*
X146773390Y-72928876D03*
D36*
X144233390Y-72928876D03*
X141693390Y-72928876D03*
D24*
X135326228Y-64981794D03*
X135326228Y-67056794D03*
D37*
X156619695Y-72623629D03*
X156619695Y-70548629D03*
D20*
X158851759Y-61219568D03*
X161391759Y-61219568D03*
D10*
X158810399Y-84437912D03*
X156810399Y-84437912D03*
D38*
X152020447Y-72866553D03*
X152020447Y-75406553D03*
X152020447Y-77946553D03*
D19*
X128068979Y-63563219D03*
X130068979Y-63563219D03*
D39*
X108370000Y-48770000D03*
D20*
X108370000Y-46230000D03*
X110910000Y-48770000D03*
X110910000Y-46230000D03*
X113450000Y-48770000D03*
D21*
X113450000Y-46230000D03*
D20*
X115990000Y-48770000D03*
X115990000Y-46230000D03*
D21*
X118530000Y-48770000D03*
D20*
X118530000Y-46230000D03*
X121070000Y-48770000D03*
X121070000Y-46230000D03*
X123610000Y-48770000D03*
D21*
X123610000Y-46230000D03*
D20*
X126150000Y-48770000D03*
X126150000Y-46230000D03*
X128690000Y-48770000D03*
X128690000Y-46230000D03*
X131230000Y-48770000D03*
D21*
X131230000Y-46230000D03*
D20*
X133770000Y-48770000D03*
X133770000Y-46230000D03*
X136310000Y-48770000D03*
X136310000Y-46230000D03*
D21*
X138850000Y-48770000D03*
D20*
X138850000Y-46230000D03*
X141390000Y-48770000D03*
X141390000Y-46230000D03*
X143930000Y-48770000D03*
D21*
X143930000Y-46230000D03*
D20*
X146470000Y-48770000D03*
X146470000Y-46230000D03*
X149010000Y-48770000D03*
D21*
X149010000Y-46230000D03*
D20*
X151550000Y-48770000D03*
X151550000Y-46230000D03*
X154090000Y-48770000D03*
X154090000Y-46230000D03*
D21*
X156630000Y-48770000D03*
D20*
X156630000Y-46230000D03*
M02*
